<?xml version="1.0" encoding="utf-8"?>
<svg id="master-artboard" viewBox="0 0 1000 1000" version="1.1" xmlns="http://www.w3.org/2000/svg" x="0px" y="0px" style="enable-background:new 0 0 1400 980;" width="1000px" height="1000px"><rect id="ee-background" x="0" y="0" width="1000" height="1000" style="fill: none; fill-opacity: 1; pointer-events: none;"/><defs><style id="ee-google-fonts">@import url(https://fonts.googleapis.com/css?family=Roboto:100,100italic,300,300italic,400,400italic,500,500italic,700,700italic,900,900italic);</style></defs>























































































































<path d="M 260.79998779296875 86.19999694824219" style="fill: rgb(23, 168, 247); fill-opacity: 1; stroke: rgb(0, 0, 0); stroke-opacity: 1; stroke-width: 0; paint-order: fill;" transform="matrix(1, 0, 0, 1, -29.58087158203125, 100.12992858886719)"/><path style="fill: rgb(63, 61, 61); fill-opacity: 1; stroke: rgb(0, 0, 0); stroke-opacity: 1; stroke-width: 0; paint-order: fill;" transform="matrix(0.8143787980079651, 0, 0, 0.8143787980079651, 148.8878631591797, 88.68533325195312)"/><path style="fill: rgb(63, 61, 61); fill-opacity: 1; stroke: rgb(0, 0, 0); stroke-opacity: 1; stroke-width: 0; paint-order: fill;" transform="matrix(0.8143787980079651, 0, 0, 0.8143787980079651, 148.8878631591797, 88.68533325195312)"/><path style="fill: rgb(63, 61, 61); fill-opacity: 1; stroke: rgb(0, 0, 0); stroke-opacity: 1; stroke-width: 0; paint-order: fill;" transform="matrix(0.8143787980079651, 0, 0, 0.8143787980079651, 148.8878631591797, 88.68533325195312)"/><path style="fill: rgb(63, 61, 61); fill-opacity: 1; stroke: rgb(0, 0, 0); stroke-opacity: 1; stroke-width: 0; paint-order: fill;" transform="matrix(0.8143787980079651, 0, 0, 0.8143787980079651, 148.8878631591797, 88.68533325195312)"/><path style="fill: rgb(63, 61, 61); fill-opacity: 1; stroke: rgb(0, 0, 0); stroke-opacity: 1; stroke-width: 0; paint-order: fill;" transform="matrix(0.8143787980079651, 0, 0, 0.8143787980079651, 148.8878631591797, 88.68533325195312)"/><path style="fill: rgb(63, 61, 61); fill-opacity: 1; stroke: rgb(0, 0, 0); stroke-opacity: 1; stroke-width: 0; paint-order: fill;" transform="matrix(0.8143787980079651, 0, 0, 0.8143787980079651, 148.8878631591797, 88.68533325195312)"/><path style="fill: rgb(63, 61, 61); fill-opacity: 1; stroke: rgb(0, 0, 0); stroke-opacity: 1; stroke-width: 0; paint-order: fill;" transform="matrix(0.8143787980079651, 0, 0, 0.8143787980079651, 148.8878631591797, 88.68533325195312)"/><path style="stroke: rgba(0, 0, 0, 0); fill: rgb(255, 255, 255);" d="M 398.313 848.151 C 434.5 844.452 454.167 846.206 484.723 849.384 C 481.839 854.966 475.475 864.356 453.749 868.284 C 431.547 872.297 406.58 862.613 398.766 848.574" transform="matrix(0.8143787980079651, 0, 0, 0.8143787980079651, 148.8878631591797, 88.68533325195312)"/><path style="fill: rgb(63, 61, 61); fill-opacity: 1; stroke: rgb(0, 0, 0); stroke-opacity: 1; stroke-width: 0; paint-order: fill;" transform="matrix(0.8143787980079651, 0, 0, 0.8143787980079651, 147.37937927246094, 88.9622802734375)"/><path style="fill: rgb(63, 61, 61); fill-opacity: 1; stroke: rgb(0, 0, 0); stroke-opacity: 1; stroke-width: 0; paint-order: fill;" transform="matrix(0.8143787980079651, 0, 0, 0.8143787980079651, 147.37937927246094, 88.9622802734375)"/><path style="fill: rgb(63, 61, 61); fill-opacity: 1; stroke: rgb(0, 0, 0); stroke-opacity: 1; stroke-width: 0; paint-order: fill;" transform="matrix(0.8143787980079651, 0, 0, 0.8143787980079651, 147.37937927246094, 88.9622802734375)"/><g transform="matrix(10, 0, 0, 10, -6019.93505859375, -459.666015625)">
    <g id="g-1" transform="matrix(1, 0, 0, 1, 0, 0)">
      <g id="g-2">
        <path class="st0" d="M652,46c27.6,0,50,22.4,50,50s-22.4,50-50,50s-50-22.4-50-50S624.4,46,652,46z" style="fill: rgb(235, 22, 47); fill-opacity: 1;"/>
      </g>
    </g>
  </g><path style="fill: rgb(63, 61, 61); fill-opacity: 1; stroke: rgb(0, 0, 0); stroke-opacity: 1; stroke-width: 0; paint-order: fill;" transform="matrix(0.8143787980079651, 0, 0, 0.8143787980079651, 147.37937927246094, 88.9622802734375)"/><path style="fill: rgb(63, 61, 61); fill-opacity: 1; stroke: rgb(0, 0, 0); stroke-opacity: 1; stroke-width: 0; paint-order: fill;" transform="matrix(0.8143787980079651, 0, 0, 0.8143787980079651, 147.37937927246094, 88.9622802734375)"/><path style="fill: rgb(63, 61, 61); fill-opacity: 1; stroke: rgb(0, 0, 0); stroke-opacity: 1; stroke-width: 0; paint-order: fill;" transform="matrix(0.8143787980079651, 0, 0, 0.8143787980079651, 147.37937927246094, 88.9622802734375)"/><path style="fill: rgb(63, 61, 61); fill-opacity: 1; stroke: rgb(0, 0, 0); stroke-opacity: 1; stroke-width: 0; paint-order: fill;" transform="matrix(0.8143787980079651, 0, 0, 0.8143787980079651, 147.37937927246094, 88.9622802734375)"/><g style="" transform="matrix(3.7109150886535645, 0, 0, 3.5580339431762695, -478.27221679687506, -160.0630340576172)">
    <path d="M 340.158997 190.423996 A 73.529999 80.882004 0 0 1 266.628998 271.306 A 73.529999 80.882004 0 0 1 193.098999 190.423996 A 73.529999 80.882004 0 0 1 266.628998 109.541992 A 73.529999 80.882004 0 0 1 340.158997 190.423996 Z" style="stroke: rgba(0, 0, 0, 0); fill: rgb(226, 152, 88);"/>
    <path d="M 323.818016 205.457001 A 58.415001 92.727997 0 0 1 265.403015 298.184998 A 58.415001 92.727997 0 0 1 206.988014 205.457001 A 58.415001 92.727997 0 0 1 265.403015 112.729004 A 58.415001 92.727997 0 0 1 323.818016 205.457001 Z" style="stroke: rgba(0, 0, 0, 0); fill: rgb(226, 152, 88);"/>
    <path style="stroke: rgba(0, 0, 0, 0); fill: rgb(226, 152, 88);" d="M 198.965 177.953 C 200.32 184.748 193.735 203.399 195.454 210.106 C 202.141 236.167 219.432 273.442 239.92 288.654"/>
    <path style="stroke: rgba(0, 0, 0, 0); fill: rgb(226, 152, 88);" d="M 290.942 290.564 C 292.467 284.038 285.055 266.124 286.992 259.683 C 294.516 234.652 313.976 198.851 337.033 184.241" transform="matrix(-1, 0, 0, -1, 623.699738, 474.804993)"/>
  </g><g style="" transform="matrix(3.2342560291290283, 0, 0, 3.2342560291290283, -306.18341064453125, -102.71292877197264)">
    <g>
      <path style="stroke: rgba(0, 0, 0, 0); fill: rgb(51, 7, 7);" d="M 168.865 225.244 C 159.214 196.243 168.642 137.067 191.742 117.489 C 215.435 97.407 257.334 86.484 285.546 101.445 C 316.41 117.813 337.415 147.605 339.278 202.072 C 334.309 203.859 278.797 205.586 221.222 159.225 C 220.17 156.061 205.603 202.767 168.985 225.805"/>
      <path style="stroke: rgba(0, 0, 0, 0); fill: rgb(51, 7, 7);" d="M 167.812 205.939 C 162.999 223.079 181.983 259.702 182.581 260.378 C 182.93 260.772 182.143 246.354 181.868 241.092 C 181.085 226.202 182.406 216.616 187.883 209.999"/>
      <path style="stroke: rgba(0, 0, 0, 0); fill: rgb(51, 7, 7);" d="M 284.436 192.118 C 305.234 199.061 316.528 200.776 322.403 221.828 C 324.583 229.634 330.542 256.522 319.634 276.498 C 318.685 278.236 335.01 241.928 336.641 232.129 C 341.083 205.432 342.734 185.148 322.403 164.784"/>
    </g>
    <path d="M 298.675999 101.672997 A 50.993 43.710999 0 0 1 247.682999 145.383995 A 50.993 43.710999 0 0 1 196.689999 101.672997 A 50.993 43.710999 0 0 1 247.682999 57.961998 A 50.993 43.710999 0 0 1 298.675999 101.672997 Z" style="stroke: rgba(187, 218, 85, 0); fill: rgb(51, 7, 7);"/>
  </g><g style="stroke-width: 3.38868; vector-effect: non-scaling-stroke;" transform="matrix(3.234267950057983, 0.0002140000578947365, 0, 3.234267950057983, -306.1874389648437, -102.76789093017578)">
    <g>
      <path style="stroke-width: 2.34229; vector-effect: non-scaling-stroke; stroke: rgba(0, 0, 0, 0);" d="M 234.943 237.373 C 226.717 230.899 210.451 233.937 210.462 238.545 C 210.462 238.146 210.49 239.442 210.161 238.61 C 205.248 226.167 212.34 224.176 214.365 220.464 C 215.365 220.547 204.608 223.615 201.287 222.885 C 198.814 222.342 196.959 221.695 194.268 219.722 C 193.314 219.023 185.487 212.449 186.071 212.27 C 186.485 212.144 185.947 212.47 185.947 212.069 C 190.847 218.812 207.304 217.659 213.761 216.814 C 227.341 215.032 234.737 224.848 234.737 237.603"/>
      <path d="M 230.221996 -226.837006 A 4.492 4.256 0 0 1 225.729996 -222.581006 A 4.492 4.256 0 0 1 221.237996 -226.837006 A 4.492 4.256 0 0 1 225.729996 -231.093006 A 4.492 4.256 0 0 1 230.221996 -226.837006 Z" style="stroke: rgba(0, 0, 0, 0); fill: rgb(255, 255, 255);" transform="matrix(1, 0, 0, -1, 0, 0)"/>
      <path d="M 214.231998 232.003998 A 1.965 1.965 0 0 1 212.266998 233.968998 A 1.965 1.965 0 0 1 210.301998 232.003998 A 1.965 1.965 0 0 1 212.266998 230.038998 A 1.965 1.965 0 0 1 214.231998 232.003998 Z" style="fill: rgb(255, 255, 255); stroke: rgba(0, 0, 0, 0);"/>
      <path d="M 236.917996 248.078995 A 14.647 6.966 0 0 1 222.270996 255.044995 A 14.647 6.966 0 0 1 207.623996 248.078995 A 14.647 6.966 0 0 1 222.270996 241.112995 A 14.647 6.966 0 0 1 236.917996 248.078995 Z" style="stroke: rgba(0, 0, 0, 0); fill: rgb(255, 111, 111);"/>
      <path style="stroke: rgba(0, 0, 0, 0); fill: rgb(24, 0, 0);" d="M 196.126 213.239 C 206.014 204.669 221.253 210.922 232.61 212.89 C 234.875 213.283 242.405 213.684 241.032 210.111 C 239.45 206.002 231.067 204.361 226.998 203.858 C 214.99 202.369 194.522 202.408 194.522 215.671"/>
    </g>
    <g transform="matrix(-1, 0, 0, 1, 506.197998, -0.010495)" style="pointer-events: none;">
      <path style="stroke-width: 2.34229; vector-effect: non-scaling-stroke; stroke: rgba(0, 0, 0, 0);" d="M 234.943 237.373 C 226.717 230.899 210.451 233.937 210.462 238.545 C 210.462 238.146 210.49 239.442 210.161 238.61 C 205.248 226.167 212.34 224.176 214.365 220.464 C 215.365 220.547 204.608 223.615 201.287 222.885 C 198.814 222.342 196.959 221.695 194.268 219.722 C 193.314 219.023 185.487 212.449 186.071 212.27 C 186.485 212.144 185.947 212.47 185.947 212.069 C 190.847 218.812 207.304 217.659 213.761 216.814 C 227.341 215.032 234.737 224.848 234.737 237.603"/>
      <path d="M 230.221996 -226.837006 A 4.492 4.256 0 0 1 225.729996 -222.581006 A 4.492 4.256 0 0 1 221.237996 -226.837006 A 4.492 4.256 0 0 1 225.729996 -231.093006 A 4.492 4.256 0 0 1 230.221996 -226.837006 Z" style="stroke: rgba(0, 0, 0, 0); fill: rgb(255, 255, 255);" transform="matrix(1, 0, 0, -1, 0, 0)"/>
      <path d="M 214.231998 232.003998 A 1.965 1.965 0 0 1 212.266998 233.968998 A 1.965 1.965 0 0 1 210.301998 232.003998 A 1.965 1.965 0 0 1 212.266998 230.038998 A 1.965 1.965 0 0 1 214.231998 232.003998 Z" style="fill: rgb(255, 255, 255); stroke: rgba(0, 0, 0, 0);"/>
      <path d="M 236.917996 248.078995 A 14.647 6.966 0 0 1 222.270996 255.044995 A 14.647 6.966 0 0 1 207.623996 248.078995 A 14.647 6.966 0 0 1 222.270996 241.112995 A 14.647 6.966 0 0 1 236.917996 248.078995 Z" style="stroke: rgba(0, 0, 0, 0); fill: rgb(255, 111, 111);"/>
      <path style="stroke: rgba(0, 0, 0, 0); fill: rgb(24, 0, 0);" d="M 196.126 213.239 C 206.014 204.669 221.253 210.922 232.61 212.89 C 234.875 213.283 242.405 213.684 241.032 210.111 C 239.45 206.002 231.067 204.361 226.998 203.858 C 214.99 202.369 194.522 202.408 194.522 215.671"/>
    </g>
  </g><path style="stroke: rgba(0, 0, 0, 0); fill: rgb(217, 128, 50);" d="M 254.526 261.666 C 254.295 262.644 263.03 259.151 261.867 256.465 C 260.719 253.812 258.022 257.55 254.315 258.774 C 252.709 259.304 246.856 254.899 245.171 255.848 C 242.61 257.29 253.251 262.603 255.017 261.711" transform="matrix(3.2342560291290283, 0, 0, 3.2342560291290283, -306.18341064453125, -102.71292877197264)"/><path d="M 282.851997 93.530998 A 34.540001 31.400999 0 0 1 248.311996 124.931997 A 34.540001 31.400999 0 0 1 213.771996 93.530998 A 34.540001 31.400999 0 0 1 248.311996 62.129999 A 34.540001 31.400999 0 0 1 282.851997 93.530998 Z" style="stroke: rgba(0, 0, 0, 0); fill: rgb(77, 17, 17);" transform="matrix(3.2342560291290283, 0, 0, 3.2342560291290283, -306.18341064453125, -102.71292877197264)"/><path d="M 309.449993 130.733002 A 60.967999 28.26 0 0 1 248.481995 158.993002 A 60.967999 28.26 0 0 1 187.513996 130.733002 A 60.967999 28.26 0 0 1 248.481995 102.473001 A 60.967999 28.26 0 0 1 309.449993 130.733002 Z" style="stroke: rgba(0, 0, 0, 0); fill: rgb(51, 7, 7);" transform="matrix(3.2342560291290283, 0, 0, 3.2342560291290283, -306.18341064453125, -102.71292877197264)"/><path style="stroke: rgba(0, 0, 0, 0); fill: rgb(77, 17, 17);" d="M 175.391 223.904 C 170.264 213.65 177.557 203.302 183.626 194.805 C 192.957 181.742 208.421 166.7 205.038 149.785 C 203.938 144.283 195.718 141.543 191.312 143.746 C 184.775 147.014 182.525 150.524 179.783 156.923 C 171.89 175.339 169.374 196.039 172.645 215.668" transform="matrix(3.2342560291290283, 0, 0, 3.2342560291290283, -306.18341064453125, -102.71292877197264)"/><path style="stroke: rgba(0, 0, 0, 0); fill: rgb(77, 17, 17);" d="M 327.471 211.825 C 327.471 162.099 253.593 193.915 248.96 147.589 C 245.873 116.722 280.361 114.059 299.471 128.922 C 321.068 145.72 321.494 173.476 326.942 197.992" transform="matrix(3.2342560291290283, 0, 0, 3.2342560291290283, -306.18341064453125, -102.71292877197264)"/><g transform="matrix(1.3385449647903442, 0, 0, 1.286882996559143, -490.5028076171875, -263.040283203125)" style="">
    <path style="stroke: rgba(0, 0, 0, 0); fill: rgb(255, 19, 19);" d="M 707.95 827.824 C 713.05 874.816 790.625 888.507 793.911 825.423 C 794.868 807.056 710.058 801.459 707.647 829.909" data-bx-origin="0.561 0.519" transform="matrix(0.999954, -0.009621, 0.009621, 0.999954, -8.048174, 7.3128)"/>
    <path style="stroke: rgba(0, 0, 0, 0); fill: rgb(255, 255, 255);" d="M 710.467 829.797 C 737.832 832.592 765.258 830.884 792.338 827.713 C 791.702 822.234 789.496 816.55 764.232 813.494 C 742.197 810.829 712.084 816.398 709.985 829.626"/>
  </g></svg>