<?xml version="1.0" encoding="utf-8"?>
<svg id="master-artboard" viewBox="0 0 1000 1000" version="1.1" xmlns="http://www.w3.org/2000/svg" x="0px" y="0px" style="enable-background:new 0 0 1400 980;" width="1000px" height="1000px"><defs><path id="text-path-0" d="M 778.8464965820312 213.4612274169922 A 100 18 0 0 1 988.3533935546875 213.4612274169922 A 100 18 0 0 1 778.8464965820312 213.4612274169922 Z" style="fill: none; stroke: red; stroke-width: 2;"/><path id="text-path-1" d="M 664.5464477539062 37.96122741699219 A 100 19 0 0 1 876.5812377929688 37.96122741699219 A 100 19 0 0 1 664.5464477539062 37.96122741699219" style="fill: none; stroke: red; stroke-width: 2;"/><path id="text-path-2" d="M 765.3650512695312 211.70851135253906 A 100 17 0 0 1 991.5017700195312 211.70851135253906 A 100 17 0 0 1 765.3650512695312 211.70851135253906" style="fill: none; stroke: red; stroke-width: 2;"/><path id="path-1" d="M 765.3650512695312 211.70851135253906 A 100 17 0 0 1 991.5017700195312 211.70851135253906 A 100 17 0 0 1 765.3650512695312 211.70851135253906" style="fill: none; stroke: red; stroke-width: 2;"/></defs><rect id="ee-background" x="0" y="0" width="1000" height="1000" style="fill: white; fill-opacity: 0; pointer-events: none;"/>


<g transform="matrix(10, 0, 0, 10, -6019.54248046875, -460.1051330566406)"><g id="g-1" transform="matrix(1, 0, 0, 1, 0, 0)">
	<g id="g-2">
		<path class="st0" d="M652,46c27.6,0,50,22.4,50,50s-22.4,50-50,50s-50-22.4-50-50S624.4,46,652,46z" style="fill: rgb(234, 106, 234);"/>
	</g>
</g></g><g transform="matrix(1.4235563278198242, 0, 0, 1.4235563278198242, 138.13059997558594, -21.65607261657715)">
    <g style="" transform="matrix(3.123122, 0, 0, 2.929405, -577.151245, -238.756622)">
      <path d="M 340.158997 190.423996 A 73.529999 80.882004 0 0 1 266.628998 271.306 A 73.529999 80.882004 0 0 1 193.098999 190.423996 A 73.529999 80.882004 0 0 1 266.628998 109.541992 A 73.529999 80.882004 0 0 1 340.158997 190.423996 Z" style="stroke: rgba(0, 0, 0, 0); fill: rgb(151, 45, 0);"/>
      <path d="M 323.818016 205.457001 A 58.415001 92.727997 0 0 1 265.403015 298.184998 A 58.415001 92.727997 0 0 1 206.988014 205.457001 A 58.415001 92.727997 0 0 1 265.403015 112.729004 A 58.415001 92.727997 0 0 1 323.818016 205.457001 Z" style="stroke: rgba(0, 0, 0, 0); fill: rgb(151, 45, 0);"/>
      <path style="stroke: rgba(0, 0, 0, 0); fill: rgb(151, 45, 0);" d="M 198.965 177.953 C 200.32 184.748 193.735 203.399 195.454 210.106 C 202.141 236.167 219.432 273.442 239.92 288.654"/>
      <path style="stroke: rgba(0, 0, 0, 0); fill: rgb(151, 45, 0);" d="M 290.942 290.564 C 292.467 284.038 285.055 266.124 286.992 259.683 C 294.516 234.652 313.976 198.851 337.033 184.241" transform="matrix(-1, 0, 0, -1, 623.699738, 474.804993)"/>
    </g>
    <path style="stroke: rgba(0, 0, 0, 0); fill: rgb(204, 61, 0);" d="M 257.771 491.736 C 257.086 494.635 282.978 484.281 279.531 476.319 C 276.128 468.456 268.134 479.536 257.145 483.164 C 252.385 484.735 235.036 471.678 230.041 474.491 C 222.45 478.765 253.992 494.514 259.226 491.869"/>
    <g transform="matrix(1, 0, 0, 1, -494.229584, -290.642029)">
      <path style="stroke: rgba(0, 0, 0, 0); fill: rgb(255, 65, 65);" d="M 707.95 827.824 C 713.05 874.816 790.625 888.507 793.911 825.423 C 794.868 807.056 710.058 801.459 707.647 829.909" data-bx-origin="0.561 0.519" transform="matrix(0.999954, -0.009621, 0.009621, 0.999954, -8.048174, 7.3128)"/>
      <path style="stroke: rgba(0, 0, 0, 0); fill: rgb(255, 255, 255);" d="M 710.467 829.797 C 737.832 832.592 765.258 830.884 792.338 827.713 C 791.702 822.234 789.496 816.55 764.232 813.494 C 742.197 810.829 712.084 816.398 709.985 829.626"/>
    </g>
    <g transform="matrix(1, 0, 0, 1, -494.229584, -290.642029)">
      <path style="stroke-width: 2.34229; vector-effect: non-scaling-stroke; stroke: rgba(0, 0, 0, 0);" d="M 877.655 652.639 C 865.852 672.157 818.678 670.548 816.678 658.325 C 816.662 659.475 815.773 657.933 815.816 660.547 C 817.181 746.524 929.072 722.431 879.01 653.509" transform="matrix(-0.998328, -0.057799, 0.057799, -0.998328, 1666.73594, 1416.540787)"/>
      <path d="M 842.988 676.084 C 842.988 681.984 838.295 686.768 832.5 686.768 C 826.706 686.768 822.008 681.984 822.01 676.084 C 822.009 670.185 826.707 665.401 832.502 665.401 C 838.296 665.401 842.99 670.185 842.988 676.084 Z" style="stroke: rgba(0, 0, 0, 0); fill: rgb(255, 255, 255);" transform="matrix(-1, 0.000052, -0.000052, -1, 1665.033141, 1352.125715)"/>
      <path d="M 880.322 690.245 C 880.322 686.75 877.461 683.919 873.931 683.919 C 870.403 683.919 867.538 686.75 867.537 690.245 C 867.537 693.735 870.402 696.566 873.929 696.566 C 877.46 696.566 880.322 693.735 880.322 690.245 Z" style="fill: rgb(255, 255, 255); stroke: rgba(0, 0, 0, 0);" transform="matrix(-1, 0.000052, -0.000052, -1, 1747.8949, 1380.43954)"/>
      <path d="M 903.43 731.913 C 903.26 720.111 885.674 710.544 864.152 710.544 C 842.63 710.544 825.316 720.111 825.487 731.913 C 825.656 743.718 843.245 753.287 864.766 753.287 C 886.29 753.287 903.598 743.718 903.43 731.913 Z" style="stroke: rgba(0, 0, 0, 0); fill: rgb(204, 61, 0);" transform="matrix(-0.980585, -0.196096, 0.196096, -0.980585, 1568.607578, 1619.137431)"/>
    </g>
    <g transform="matrix(1, 0, 0, 1, -494.229584, -290.642029)">
      <path style="stroke-width: 2.34229; vector-effect: non-scaling-stroke; stroke: rgba(0, 0, 0, 0);" d="M 669.035 711.883 C 657.232 692.365 610.058 693.974 608.058 706.197 C 608.042 705.047 607.153 706.589 607.196 703.975 C 608.561 617.998 720.452 642.091 670.39 711.013" transform="matrix(0.998328, -0.057799, 0.057799, 0.998328, -38.245213, 38.431269)"/>
      <path d="M 677.077 672.274 C 677.077 666.374 672.384 661.59 666.589 661.59 C 660.795 661.59 656.097 666.374 656.099 672.274 C 656.098 678.173 660.796 682.957 666.591 682.957 C 672.385 682.957 677.079 678.173 677.077 672.274 Z" style="stroke: rgba(0, 0, 0, 0); fill: rgb(255, 255, 255);" transform="matrix(1, 0.000052, -0.000052, 1, 0.034959, -0.034662)"/>
      <path d="M 631.55 686.429 C 631.55 689.924 628.689 692.755 625.159 692.755 C 621.631 692.755 618.766 689.924 618.765 686.429 C 618.765 682.939 621.63 680.108 625.157 680.108 C 628.688 680.108 631.55 682.939 631.55 686.429 Z" style="fill: rgb(255, 255, 255); stroke: rgba(0, 0, 0, 0);" transform="matrix(1, 0.000052, -0.000052, 1, 0.035695, -0.032507)"/>
      <path d="M 673.602 728.106 C 673.432 739.908 655.846 749.475 634.324 749.475 C 612.802 749.475 595.487 739.908 595.658 728.106 C 595.827 716.301 613.417 706.732 634.938 706.732 C 656.462 706.732 673.77 716.301 673.602 728.106 Z" style="stroke: rgba(0, 0, 0, 0); fill: rgb(204, 61, 0);" transform="matrix(0.980585, -0.196096, 0.196096, 0.980585, -130.456607, 138.584688)"/>
    </g>
    <path style="stroke: rgba(0, 0, 0, 0);" d="M 80.281 370.888 C 107.343 332.446 156.672 350.311 190.337 359.036 C 197.051 360.779 219.371 362.555 215.301 346.716 C 210.61 328.501 185.762 321.225 173.7 318.995 C 138.106 312.395 78.387 313.518 78.389 372.315" transform="matrix(1, 0.000066, -0.000066, 1, 0.022724, -0.009707)"/>
    <path style="stroke: rgba(0, 0, 0, 0);" d="M 298.483 318.883 C 325.545 357.325 374.874 339.46 408.539 330.735 C 415.253 328.992 437.573 327.216 433.503 343.055 C 428.812 361.27 403.964 368.546 391.902 370.776 C 356.308 377.376 296.589 376.253 296.591 317.456" transform="matrix(-1, 0.000066, -0.000066, -1, 730.60886, 690.934844)"/>
    <path style="stroke: rgba(248, 0, 0, 0);" d="M 57.724 442.421 C 29.839 386.652 50.174 247.792 146.06 257.38 C 186.35 261.408 220.965 292.653 261.363 293.644 C 300.768 294.611 358.083 247.472 392.473 251.801 C 455.106 259.685 439.563 382.007 455.703 429.403 C 461.561 446.605 517.128 310.906 471.511 225.764 C 328.948 -40.321 9.125 97.142 25.179 323.4 C 28.661 372.476 38.938 395.366 54.003 440.562"/>
    <path style="stroke: rgba(0, 0, 0, 0); fill: rgb(20, 20, 20);" d="M 97.093 236.77 C 99.985 230.985 117.603 213.56 150.234 217.638 C 181.888 221.595 222.963 246.658 254.392 250.586 C 292.597 255.362 336.182 229.217 373.429 225.078 C 399.109 222.225 449.057 262.274 442.513 237.832 C 394.777 59.534 76.455 60.319 68.397 249.523 C 71.584 268.37 94.654 241.648 97.093 236.77 Z"/>
  </g></svg>