<?xml version="1.0" encoding="utf-8"?>
<svg id="master-artboard" viewBox="0 0 1000 1000" version="1.1" xmlns="http://www.w3.org/2000/svg" x="0px" y="0px" style="enable-background:new 0 0 1400 980;" width="1000px" height="1000px"><defs><path id="text-path-0" d="M 778.8464965820312 213.4612274169922 A 100 18 0 0 1 988.3533935546875 213.4612274169922 A 100 18 0 0 1 778.8464965820312 213.4612274169922 Z" style="fill: none; stroke: red; stroke-width: 2;"/><path id="text-path-1" d="M 664.5464477539062 37.96122741699219 A 100 19 0 0 1 876.5812377929688 37.96122741699219 A 100 19 0 0 1 664.5464477539062 37.96122741699219" style="fill: none; stroke: red; stroke-width: 2;"/><path id="text-path-2" d="M 765.3650512695312 211.70851135253906 A 100 17 0 0 1 991.5017700195312 211.70851135253906 A 100 17 0 0 1 765.3650512695312 211.70851135253906" style="fill: none; stroke: red; stroke-width: 2;"/><path id="path-1" d="M 765.3650512695312 211.70851135253906 A 100 17 0 0 1 991.5017700195312 211.70851135253906 A 100 17 0 0 1 765.3650512695312 211.70851135253906" style="fill: none; stroke: red; stroke-width: 2;"/><path id="path-2" d="M 778.8464965820312 213.4612274169922 A 100 18 0 0 1 988.3533935546875 213.4612274169922 A 100 18 0 0 1 778.8464965820312 213.4612274169922 Z" style="fill: none; stroke: red; stroke-width: 2;"/><path id="path-3" d="M 664.5464477539062 37.96122741699219 A 100 19 0 0 1 876.5812377929688 37.96122741699219 A 100 19 0 0 1 664.5464477539062 37.96122741699219" style="fill: none; stroke: red; stroke-width: 2;"/><path id="path-4" d="M 765.3650512695312 211.70851135253906 A 100 17 0 0 1 991.5017700195312 211.70851135253906 A 100 17 0 0 1 765.3650512695312 211.70851135253906" style="fill: none; stroke: red; stroke-width: 2;"/><path id="path-5" d="M 765.3650512695312 211.70851135253906 A 100 17 0 0 1 991.5017700195312 211.70851135253906 A 100 17 0 0 1 765.3650512695312 211.70851135253906" style="fill: none; stroke: red; stroke-width: 2;"/></defs><rect id="ee-background" x="0" y="0" width="1000" height="1000" style="fill: none; fill-opacity: 1; pointer-events: none;"/>


<path style="fill: rgb(63, 61, 61); fill-opacity: 1; stroke: rgb(0, 0, 0); stroke-opacity: 1; stroke-width: 0; paint-order: fill;" transform="matrix(0.8143787980079651, 0, 0, 0.8143787980079651, 148.22677612304688, 89.73116302490234)"/><path style="fill: rgb(63, 61, 61); fill-opacity: 1; stroke: rgb(0, 0, 0); stroke-opacity: 1; stroke-width: 0; paint-order: fill;" transform="matrix(0.8143787980079651, 0, 0, 0.8143787980079651, 148.22677612304688, 89.73116302490234)"/><path style="fill: rgb(63, 61, 61); fill-opacity: 1; stroke: rgb(0, 0, 0); stroke-opacity: 1; stroke-width: 0; paint-order: fill;" transform="matrix(0.8143787980079651, 0, 0, 0.8143787980079651, 148.22677612304688, 89.73116302490234)"/><g transform="matrix(10, 0, 0, 10, -6019.08740234375, -458.89715576171875)">
    <g id="g-1" transform="matrix(1, 0, 0, 1, 0, 0)">
      <g id="g-2">
        <path class="st0" d="M652,46c27.6,0,50,22.4,50,50s-22.4,50-50,50s-50-22.4-50-50S624.4,46,652,46z" style="fill: rgb(234, 169, 6); fill-opacity: 1;"/>
      </g>
    </g>
  </g><path style="fill: rgb(63, 61, 61); fill-opacity: 1; stroke: rgb(0, 0, 0); stroke-opacity: 1; stroke-width: 0; paint-order: fill;" transform="matrix(0.8143787980079651, 0, 0, 0.8143787980079651, 148.22677612304688, 89.73116302490234)"/><path style="fill: rgb(63, 61, 61); fill-opacity: 1; stroke: rgb(0, 0, 0); stroke-opacity: 1; stroke-width: 0; paint-order: fill;" transform="matrix(0.8143787980079651, 0, 0, 0.8143787980079651, 148.22677612304688, 89.73116302490234)"/><path style="fill: rgb(63, 61, 61); fill-opacity: 1; stroke: rgb(0, 0, 0); stroke-opacity: 1; stroke-width: 0; paint-order: fill;" transform="matrix(0.8143787980079651, 0, 0, 0.8143787980079651, 148.22677612304688, 89.73116302490234)"/><path style="fill: rgb(63, 61, 61); fill-opacity: 1; stroke: rgb(0, 0, 0); stroke-opacity: 1; stroke-width: 0; paint-order: fill;" transform="matrix(0.8143787980079651, 0, 0, 0.8143787980079651, 148.22677612304688, 89.73116302490234)"/><path style="fill: rgb(155, 48, 2); stroke: rgba(0, 0, 0, 0);" d="M 893.713 812.084 C 903.213 842.222 943.496 842.781 966.196 830.779 C 1007.09 809.157 1031.608 779.933 1031.608 731.695 C 1023.63 748.571 1011.178 769.126 1019.022 780.022 C 1042.163 812.168 1091.126 781.388 1077.441 721.311 C 1159.495 715.93 1131.561 616.708 1094.473 604.959 C 1125.976 628.303 1178.219 540.375 1095.914 501.249 C 1154.821 471.464 1095.92 339.984 1034.332 389.15 C 1062.696 353.979 966.967 270.485 915.755 344.833 C 786.242 243.389 725.47 431.485 742.063 389.414 C 755.647 354.972 604.079 318.731 597.648 447.814 C 571.039 425.844 454.687 515.152 542.174 608.762 C 499.821 592.125 486.987 729.96 552.131 744.136 C 517.862 812.624 603.521 885.907 648.3 873.626 C 641.863 866.818 675.924 912.349 689.309 914.119 C 730.026 919.502 762.813 903.235 779.719 867.48 C 777.856 866.822 806.44 896.965 832.348 893.051 C 869.606 887.421 893.713 848.261 893.713 812.084 Z" transform="matrix(1.115689992904663, 0.5053409934043885, -0.5053409934043885, 1.115689992904663, -113.55799865722656, -597.0446166992188)"/><g style="" transform="matrix(3.779287815093994, 0, 0, 3.516352891921997, -518.2594604492188, -139.72616577148438)">
    <path d="M 340.158997 190.423996 A 73.529999 80.882004 0 0 1 266.628998 271.306 A 73.529999 80.882004 0 0 1 193.098999 190.423996 A 73.529999 80.882004 0 0 1 266.628998 109.541992 A 73.529999 80.882004 0 0 1 340.158997 190.423996 Z" style="stroke: rgba(0, 0, 0, 0); fill: rgb(217, 114, 54);"/>
    <path d="M 323.818016 205.457001 A 58.415001 92.727997 0 0 1 265.403015 298.184998 A 58.415001 92.727997 0 0 1 206.988014 205.457001 A 58.415001 92.727997 0 0 1 265.403015 112.729004 A 58.415001 92.727997 0 0 1 323.818016 205.457001 Z" style="stroke: rgba(0, 0, 0, 0); fill: rgb(217, 114, 54);"/>
    <path style="stroke: rgba(0, 0, 0, 0); fill: rgb(217, 114, 54);" d="M 198.965 177.953 C 200.32 184.748 193.752 203.395 195.454 210.106 C 202.076 236.217 222.713 285.676 250.922 294.96"/>
    <path style="stroke: rgba(0, 0, 0, 0); fill: rgb(217, 114, 54);" d="M 290.942 290.564 C 292.467 284.038 285.336 266.202 286.992 259.683 C 293.553 233.847 319.316 185.359 350.968 177.934" transform="matrix(-1, 0, 0, -1, 623.699738, 474.804993)"/>
  </g><path style="stroke: rgba(0, 0, 0, 0); fill: rgb(244, 141, 81);" d="M 466.977 756.376 C 466.292 759.918 492.184 747.271 488.737 737.546 C 485.334 727.942 477.34 741.475 466.351 745.907 C 461.591 747.826 444.242 731.877 439.247 735.314 C 431.656 740.533 463.198 759.769 468.432 756.539" transform="matrix(1.2247990369796753, 0, 0, 1.2247990369796753, -76.24967956542967, -188.05877685546875)"/><g transform="matrix(1.2247990369796753, 0, 0, 1.2392460107803345, -425.34710693359375, -231.52273559570312)" style="">
    <path style="stroke: rgba(0, 0, 0, 0); fill: rgb(251, 40, 68);" d="M 707.95 827.824 C 713.05 874.816 790.625 888.507 793.911 825.423 C 794.868 807.056 710.058 801.459 707.647 829.909" data-bx-origin="0.561 0.519" transform="matrix(0.999954, -0.009621, 0.009621, 0.999954, -8.048174, 7.3128)"/>
    <path style="stroke: rgba(0, 0, 0, 0); fill: rgb(255, 255, 255);" d="M 710.467 829.797 C 737.832 832.592 765.258 830.884 792.338 827.713 C 791.702 822.234 789.496 816.55 764.232 813.494 C 742.197 810.829 712.084 816.398 709.985 829.626"/>
  </g><g transform="matrix(1.2247990369796753, 0, 0, 1.2247990369796753, -78.24349975585939, -256.3905029296875)">
    <path style="stroke: rgba(0, 0, 0, 0); fill: rgb(244, 141, 81);" d="M 278.239 649.66 C 305.301 637.33 355.245 648.622 388.909 651.419 C 395.623 651.979 417.328 646.987 413.259 641.906 C 408.569 636.064 383.72 633.731 371.659 633.016 C 336.065 630.899 276.346 631.259 276.345 650.118" transform="matrix(0.990271, -0.139152, 0.139152, 0.990271, -85.950963, 54.259018)"/>
    <path style="stroke: rgba(0, 0, 0, 0); fill: rgb(244, 141, 81);" d="M 510.699 636.735 C 537.762 649.01 586.476 637.154 620.14 634.368 C 626.854 633.812 649.789 639.396 645.72 644.454 C 641.03 650.27 616.181 652.593 604.12 653.306 C 568.526 655.413 508.808 655.054 508.806 636.279" transform="matrix(-0.990271, -0.139152, 0.139152, -0.990271, 1059.738596, 1362.598834)"/>
  </g><g transform="matrix(1.2247990369796753, 0, 0, 0.7619929909706116, -984.7916870117188, 160.9344024658203)" style="">
    <g>
      <path style="stroke-width: 2.34229; vector-effect: non-scaling-stroke; stroke: rgba(0, 0, 0, 0);" d="M 1145.933 606.79 C 1126.094 577.855 1084.713 572.213 1073.367 610.264 C 1073.367 609.082 1073.451 612.923 1072.475 610.457 C 1057.91 573.574 1078.931 567.672 1084.933 556.669 C 1087.897 556.915 1056.012 566.009 1046.168 563.845 C 1038.838 562.236 1033.339 560.318 1025.362 554.47 C 1022.534 552.398 999.332 532.911 1001.063 532.381 C 1002.29 532.007 1000.696 532.974 1000.696 531.785 C 1015.221 551.772 1064.003 548.355 1083.142 545.85 C 1123.395 540.568 1145.32 569.664 1145.322 607.472" transform="matrix(1, 0.000066, -0.000066, 1, 0.037795, -0.07097)"/>
    </g>
    <g>
      <path style="stroke-width: 2.34229; vector-effect: non-scaling-stroke; stroke: rgba(0, 0, 0, 0);" d="M 1398.796 536.281 C 1376.968 588.288 1327.175 559.014 1326.23 532.807 C 1326.23 533.99 1326.312 530.148 1325.337 532.614 C 1310.777 569.498 1331.799 575.399 1337.802 586.402 C 1340.766 586.156 1308.88 577.062 1299.036 579.226 C 1291.706 580.836 1286.208 582.753 1278.232 588.602 C 1275.404 590.674 1252.205 610.16 1253.936 610.691 C 1255.163 611.064 1253.568 610.098 1253.568 611.286 C 1268.091 591.299 1316.873 594.717 1336.013 597.221 C 1376.266 602.504 1398.187 573.407 1398.185 535.599" transform="matrix(-1, -0.000066, 0.000066, -1, 2652.32622, 1143.143781)"/>
    </g>
  </g><path style="stroke: rgba(0, 0, 0, 0); fill: rgb(155, 48, 2);" d="M 578.161 643.977 C 585.231 665.186 608.645 605.962 627.898 601.149 C 666.857 591.409 706.252 571.943 719.082 533.452 C 752.109 590.57 825.345 565.399 840.659 532.071 C 841.011 591.092 982.282 584.67 981.58 551.413 C 1015.441 598.577 1058.078 598.203 1057.564 667.465 C 1136.942 691.391 1081.971 534.14 1071.381 518.255 C 1055.32 494.164 1007.829 440.496 1007.829 414.637 C 1005.25 430.109 935.302 403.356 919.409 398.059 C 870.854 381.874 799.963 372.211 746.713 382.861 C 678.167 396.571 638.115 441.079 598.885 493.387 C 585.907 510.691 574.879 533.108 565.728 551.412 C 561.075 560.719 593.233 698.312 578.161 643.977 Z" transform="matrix(1.2247990369796753, 0, 0, 1.2247990369796753, -519.1384277343749, -238.93331909179688)"/><path style="stroke: rgba(0, 0, 0, 0); fill: rgb(175, 52, 0);" d="M 702.503 400.822 C 701.637 404.598 584.717 361.791 601.648 482.334 C 596.587 507.187 677.547 579.432 720.462 494.768 C 714.353 518.037 807.722 552.925 839.278 498.913 C 855.544 552.687 969.876 557.703 969.145 514.11 C 958.392 524.863 1015.447 554.623 1032.697 543.123 C 1051.154 530.819 1061.386 507.731 1038.223 496.15 C 1112.167 464.161 1037.873 390.201 969.145 445.032 C 929.098 322.046 835.347 427.525 830.989 409.111 C 818.4 355.918 718.273 332.039 702.503 400.822 Z" transform="matrix(1.2247990369796753, 0, 0, 1.2247990369796753, -519.1384277343749, -238.93331909179688)"/></svg>