<?xml version="1.0" encoding="utf-8"?>
<svg id="master-artboard" viewBox="0 0 1400 980" version="1.1" xmlns="http://www.w3.org/2000/svg" x="0px" y="0px" style="enable-background:new 0 0 1400 980;" width="1400px" height="980px"><rect id="ee-background" x="0" y="0" width="1400" height="980" style="fill: rgb(255, 187, 0); fill-opacity: 1; pointer-events: none;"/><defs><style id="ee-google-fonts">@import url(https://fonts.googleapis.com/css?family=Roboto:100,100italic,300,300italic,400,400italic,500,500italic,700,700italic,900,900italic);</style></defs>























































































































<path d="M 260.79998779296875 86.19999694824219" style="fill: rgb(23, 168, 247); fill-opacity: 1; stroke: rgb(0, 0, 0); stroke-opacity: 1; stroke-width: 0; paint-order: fill;"/><path d="M 343.246994 169.714005 A 138.167999 132.440002 0 0 1 205.078995 302.154007 A 138.167999 132.440002 0 0 1 66.910995 169.714005 A 138.167999 132.440002 0 0 1 205.078995 37.274002 A 138.167999 132.440002 0 0 1 343.246994 169.714005 Z" style="stroke: rgba(255, 255, 255, 0); fill: rgb(219, 160, 0);" transform="matrix(0.8260220289230348, 0.5636377930641174, -0.5636377930641174, 0.8260220289230348, 97.56946067289437, -81.74140732355056)"/><path d="M 343.246994 169.714005 A 138.167999 132.440002 0 0 1 205.078995 302.154007 A 138.167999 132.440002 0 0 1 66.910995 169.714005 A 138.167999 132.440002 0 0 1 205.078995 37.274002 A 138.167999 132.440002 0 0 1 343.246994 169.714005 Z" style="stroke: rgba(255, 255, 255, 0); fill: rgb(219, 160, 0);" transform="matrix(0.8260220289230348, 0.5636377930641174, -0.5636377930641174, 0.8260220289230348, 186.79101829008187, 664.8036022894863)"/><path d="M 309.099998 169.714005 A 104.021004 108.600998 0 0 1 205.078995 278.315002 A 104.021004 108.600998 0 0 1 101.057991 169.714005 A 104.021004 108.600998 0 0 1 205.078995 61.113007 A 104.021004 108.600998 0 0 1 309.099998 169.714005 Z" style="stroke: rgba(255, 255, 255, 0); fill: rgb(219, 160, 0);" transform="matrix(0.8260220289230348, 0.5636377930641174, -0.5636377930641174, 0.8260220289230348, 899.7688167519962, 217.68198974065854)"/><path d="M 309.099998 169.714005 A 104.021004 108.600998 0 0 1 205.078995 278.315002 A 104.021004 108.600998 0 0 1 101.057991 169.714005 A 104.021004 108.600998 0 0 1 205.078995 61.113007 A 104.021004 108.600998 0 0 1 309.099998 169.714005 Z" style="stroke: rgba(255, 255, 255, 0); fill: rgb(219, 160, 0);" transform="matrix(0.8260220289230348, 0.5636377930641174, -0.5636377930641174, 0.8260220289230348, 568.1201351113707, -277.7772387749669)"/><path d="M 273.007996 169.714005 A 67.929001 70.970001 0 0 1 205.078995 240.684006 A 67.929001 70.970001 0 0 1 137.149994 169.714005 A 67.929001 70.970001 0 0 1 205.078995 98.744003 A 67.929001 70.970001 0 0 1 273.007996 169.714005 Z" style="stroke: rgba(255, 255, 255, 0); fill: rgb(219, 160, 0);" transform="matrix(0.8260220289230348, 0.5636377930641174, -0.5636377930641174, 0.8260220289230348, 629.8846614785587, 546.6453991644865)"/><path d="M 321.938995 169.714005 A 116.860001 118.857002 0 0 1 205.078995 288.571007 A 116.860001 118.857002 0 0 1 88.218994 169.714005 A 116.860001 118.857002 0 0 1 205.078995 50.857002 A 116.860001 118.857002 0 0 1 321.938995 169.714005 Z" style="stroke: rgba(255, 255, 255, 0); fill: rgb(219, 160, 0);" transform="matrix(0.8260220289230348, 0.5636377930641174, -0.5636377930641174, 0.8260220289230348, -92.49218483491813, 283.4745922797207)"/><path d="M 261.146996 169.714005 A 56.068001 57.868999 0 0 1 205.078995 227.583004 A 56.068001 57.868999 0 0 1 149.010994 169.714005 A 56.068001 57.868999 0 0 1 205.078995 111.845005 A 56.068001 57.868999 0 0 1 261.146996 169.714005 Z" style="stroke: rgba(255, 255, 255, 0); fill: rgb(219, 160, 0);" transform="matrix(0.8260220289230348, 0.5636377930641174, -0.5636377930641174, 0.8260220289230348, 378.7982051797301, 111.60813720159581)"/><path d="M 282.924995 169.714005 A 77.846001 75.980003 0 0 1 205.078995 245.694008 A 77.846001 75.980003 0 0 1 127.232994 169.714005 A 77.846001 75.980003 0 0 1 205.078995 93.734001 A 77.846001 75.980003 0 0 1 282.924995 169.714005 Z" style="stroke: rgba(255, 255, 255, 0); fill: rgb(219, 160, 0);" transform="matrix(0.8260220289230348, 0.5636377930641174, -0.5636377930641174, 0.8260220289230348, 1125.343584818402, 525.1620007269861)"/><path d="M 290.897995 169.714005 A 85.819 90.045998 0 0 1 205.078995 259.760002 A 85.819 90.045998 0 0 1 119.259995 169.714005 A 85.819 90.045998 0 0 1 205.078995 79.668007 A 85.819 90.045998 0 0 1 290.897995 169.714005 Z" style="stroke: rgba(255, 255, 255, 0); fill: rgb(219, 160, 0);" transform="matrix(0.8260220289230348, 0.5636377930641174, -0.5636377930641174, 0.8260220289230348, 1017.9271419473082, -191.84388153619705)"/><path d="M 353.151001 169.714005 A 148.072006 153.656006 0 0 1 205.078995 323.37001 A 148.072006 153.656006 0 0 1 57.006989 169.714005 A 148.072006 153.656006 0 0 1 205.078995 16.057999 A 148.072006 153.656006 0 0 1 353.151001 169.714005 Z" style="stroke: rgba(255, 255, 255, 0); fill: rgb(219, 160, 0);" transform="matrix(0.8260220289230348, 0.5636377930641174, -0.5636377930641174, 0.8260220289230348, 1329.4351375527774, 43.12999541692784)"/><path d="M 231.929995 169.714005 A 26.851 27.056 0 0 1 205.078995 196.770004 A 26.851 27.056 0 0 1 178.227995 169.714005 A 26.851 27.056 0 0 1 205.078995 142.658005 A 26.851 27.056 0 0 1 231.929995 169.714005 Z" style="stroke: rgba(255, 255, 255, 0); fill: rgb(219, 160, 0);" transform="matrix(0.8260220289230348, 0.5636377930641174, -0.5636377930641174, 0.8260220289230348, 115.33325461820664, 372.02024657659547)"/><path d="M 231.929995 169.714005 A 26.851 27.056 0 0 1 205.078995 196.770004 A 26.851 27.056 0 0 1 178.227995 169.714005 A 26.851 27.056 0 0 1 205.078995 142.658005 A 26.851 27.056 0 0 1 231.929995 169.714005 Z" style="stroke: rgba(255, 255, 255, 0); fill: rgb(219, 160, 0);" transform="matrix(0.8260220289230348, 0.5636377930641174, -0.5636377930641174, 0.8260220289230348, 352.06431846098053, -62.914319921206925)"/><path d="M 231.929995 169.714005 A 26.851 27.056 0 0 1 205.078995 196.770004 A 26.851 27.056 0 0 1 178.227995 169.714005 A 26.851 27.056 0 0 1 205.078995 142.658005 A 26.851 27.056 0 0 1 231.929995 169.714005 Z" style="stroke: rgba(255, 255, 255, 0); fill: rgb(219, 160, 0);" transform="matrix(0.8260220289230348, 0.5636377930641174, -0.5636377930641174, 0.8260220289230348, 785.9820735879327, 650.4517956488611)"/><path d="M 231.929995 169.714005 A 26.851 27.056 0 0 1 205.078995 196.770004 A 26.851 27.056 0 0 1 178.227995 169.714005 A 26.851 27.056 0 0 1 205.078995 142.658005 A 26.851 27.056 0 0 1 231.929995 169.714005 Z" style="stroke: rgba(255, 255, 255, 0); fill: rgb(219, 160, 0);" transform="matrix(0.8260220289230348, 0.5636377930641174, -0.5636377930641174, 0.8260220289230348, 1080.8772762246524, -8.148023534488175)"/><path d="M 226.737995 169.714005 A 21.659 20.962999 0 0 1 205.078995 190.677004 A 21.659 20.962999 0 0 1 183.419994 169.714005 A 21.659 20.962999 0 0 1 205.078995 148.751005 A 21.659 20.962999 0 0 1 226.737995 169.714005 Z" style="stroke: rgba(255, 255, 255, 0); fill: rgb(219, 160, 0);" transform="matrix(0.8260220289230348, 0.5636377930641174, -0.5636377930641174, 0.8260220289230348, 709.4496028848082, 300.0878735297207)"/><path d="M 226.737995 169.714005 A 21.659 20.962999 0 0 1 205.078995 190.677004 A 21.659 20.962999 0 0 1 183.419994 169.714005 A 21.659 20.962999 0 0 1 205.078995 148.751005 A 21.659 20.962999 0 0 1 226.737995 169.714005 Z" style="stroke: rgba(255, 255, 255, 0); fill: rgb(219, 160, 0);" transform="matrix(0.8260220289230348, 0.5636377930641174, -0.5636377930641174, 0.8260220289230348, 741.0455501504337, -112.06361191339454)"/><path d="M 248.981995 169.714005 A 43.903 44.046001 0 0 1 205.078995 213.760006 A 43.903 44.046001 0 0 1 161.175995 169.714005 A 43.903 44.046001 0 0 1 205.078995 125.668003 A 43.903 44.046001 0 0 1 248.981995 169.714005 Z" style="stroke: rgba(255, 255, 255, 0); fill: rgb(219, 160, 0);" transform="matrix(0.8260220289230348, 0.5636377930641174, -0.5636377930641174, 0.8260220289230348, 1229.7295711465274, 364.6840649359709)"/><path d="M 231.929995 169.714005 A 26.851 27.056 0 0 1 205.078995 196.770004 A 26.851 27.056 0 0 1 178.227995 169.714005 A 26.851 27.056 0 0 1 205.078995 142.658005 A 26.851 27.056 0 0 1 231.929995 169.714005 Z" style="stroke: rgba(255, 255, 255, 0); fill: rgb(219, 160, 0);" transform="matrix(0.8260220289230348, 0.5636377930641174, -0.5636377930641174, 0.8260220289230348, 1232.5379207559024, 712.2393933051113)"/><path d="M 231.929995 169.714005 A 26.851 27.056 0 0 1 205.078995 196.770004 A 26.851 27.056 0 0 1 178.227995 169.714005 A 26.851 27.056 0 0 1 205.078995 142.658005 A 26.851 27.056 0 0 1 231.929995 169.714005 Z" style="stroke: rgba(255, 255, 255, 0); fill: rgb(219, 160, 0);" transform="matrix(0.8260220289230348, 0.5636377930641174, -0.5636377930641174, 0.8260220289230348, 229.89343528226937, -252.4900073296542)"/><path d="M 228.395994 169.714005 A 23.316999 24.368 0 0 1 205.078995 194.082005 A 23.316999 24.368 0 0 1 181.761995 169.714005 A 23.316999 24.368 0 0 1 205.078995 145.346004 A 23.316999 24.368 0 0 1 228.395994 169.714005 Z" style="stroke: rgba(255, 255, 255, 0); fill: rgb(219, 160, 0);" transform="matrix(0.8260220289230348, 0.5636377930641174, -0.5636377930641174, 0.8260220289230348, -72.18633766694961, 615.3452282660488)"/><path d="M 224.649994 169.714005 A 19.570999 20.124001 0 0 1 205.078995 189.838005 A 19.570999 20.124001 0 0 1 185.507996 169.714005 A 19.570999 20.124001 0 0 1 205.078995 149.590004 A 19.570999 20.124001 0 0 1 224.649994 169.714005 Z" style="stroke: rgba(255, 255, 255, 0); fill: rgb(219, 160, 0);" transform="matrix(0.8260220289230348, 0.5636377930641174, -0.5636377930641174, 0.8260220289230348, 430.00108603910553, 518.4509411566738)"/><path d="M 231.929995 169.714005 A 26.851 27.056 0 0 1 205.078995 196.770004 A 26.851 27.056 0 0 1 178.227995 169.714005 A 26.851 27.056 0 0 1 205.078995 142.658005 A 26.851 27.056 0 0 1 231.929995 169.714005 Z" style="stroke: rgba(255, 255, 255, 0); fill: rgb(219, 160, 0);" transform="matrix(0.8260220289230348, 0.5636377930641174, -0.5636377930641174, 0.8260220289230348, 363.2984493203551, 344.3221264594084)"/><path d="M 243.055996 169.714005 A 37.977001 38.668999 0 0 1 205.078995 208.383003 A 37.977001 38.668999 0 0 1 167.101994 169.714005 A 37.977001 38.668999 0 0 1 205.078995 131.045006 A 37.977001 38.668999 0 0 1 243.055996 169.714005 Z" style="stroke: rgba(255, 255, 255, 0); fill: rgb(219, 160, 0);" transform="matrix(0.8260220289230348, 0.5636377930641174, -0.5636377930641174, 0.8260220289230348, 545.0262630410582, 255.90171630315842)"/><path d="M 222.790995 169.714005 A 17.712 18.354 0 0 1 205.078995 188.068005 A 17.712 18.354 0 0 1 187.366995 169.714005 A 17.712 18.354 0 0 1 205.078995 151.360004 A 17.712 18.354 0 0 1 222.790995 169.714005 Z" style="stroke: rgba(255, 255, 255, 0); fill: rgb(219, 160, 0);" transform="matrix(0.8260220289230348, 0.5636377930641174, -0.5636377930641174, 0.8260220289230348, 636.0438411660582, 45.704153131771704)"/><path d="M 231.929995 169.714005 A 26.851 27.056 0 0 1 205.078995 196.770004 A 26.851 27.056 0 0 1 178.227995 169.714005 A 26.851 27.056 0 0 1 205.078995 142.658005 A 26.851 27.056 0 0 1 231.929995 169.714005 Z" style="stroke: rgba(255, 255, 255, 0); fill: rgb(219, 160, 0);" transform="matrix(0.8260220289230348, 0.5636377930641174, -0.5636377930641174, 0.8260220289230348, 1258.3587215371524, -253.56770508356044)"/><path d="M 231.929995 169.714005 A 26.851 27.056 0 0 1 205.078995 196.770004 A 26.851 27.056 0 0 1 178.227995 169.714005 A 26.851 27.056 0 0 1 205.078995 142.658005 A 26.851 27.056 0 0 1 231.929995 169.714005 Z" style="stroke: rgba(255, 255, 255, 0); fill: rgb(219, 160, 0);" transform="matrix(0.8260220289230348, 0.5636377930641174, -0.5636377930641174, 0.8260220289230348, 166.99048118070687, 172.41624267034592)"/><g transform="matrix(1, 0, 0, 1, -208.7015964560121, 361.2979565375334)">
    <path d="M 343.246994 169.714005 A 138.167999 132.440002 0 0 1 205.078995 302.154007 A 138.167999 132.440002 0 0 1 66.910995 169.714005 A 138.167999 132.440002 0 0 1 205.078995 37.274002 A 138.167999 132.440002 0 0 1 343.246994 169.714005 Z" style="stroke: rgba(255, 255, 255, 0); fill: rgb(253, 219, 50);" transform="matrix(0.826022, 0.563638, -0.563638, 0.826022, 300.825778, -438.698475)"/>
    <path d="M 343.246994 169.714005 A 138.167999 132.440002 0 0 1 205.078995 302.154007 A 138.167999 132.440002 0 0 1 66.910995 169.714005 A 138.167999 132.440002 0 0 1 205.078995 37.274002 A 138.167999 132.440002 0 0 1 343.246994 169.714005 Z" style="stroke: rgba(255, 255, 255, 0); fill: rgb(253, 219, 50);" transform="matrix(0.826022, 0.563638, -0.563638, 0.826022, 390.047367, 307.846569)"/>
    <path d="M 309.099998 169.714005 A 104.021004 108.600998 0 0 1 205.078995 278.315002 A 104.021004 108.600998 0 0 1 101.057991 169.714005 A 104.021004 108.600998 0 0 1 205.078995 61.113007 A 104.021004 108.600998 0 0 1 309.099998 169.714005 Z" style="stroke: rgba(255, 255, 255, 0); fill: rgb(253, 219, 50);" transform="matrix(0.826022, 0.563638, -0.563638, 0.826022, 1103.02515, -139.275135)"/>
    <path d="M 309.099998 169.714005 A 104.021004 108.600998 0 0 1 205.078995 278.315002 A 104.021004 108.600998 0 0 1 101.057991 169.714005 A 104.021004 108.600998 0 0 1 205.078995 61.113007 A 104.021004 108.600998 0 0 1 309.099998 169.714005 Z" style="stroke: rgba(255, 255, 255, 0); fill: rgb(253, 219, 50);" transform="matrix(0.826022, 0.563638, -0.563638, 0.826022, 771.376407, -634.734303)"/>
    <path d="M 273.007996 169.714005 A 67.929001 70.970001 0 0 1 205.078995 240.684006 A 67.929001 70.970001 0 0 1 137.149994 169.714005 A 67.929001 70.970001 0 0 1 205.078995 98.744003 A 67.929001 70.970001 0 0 1 273.007996 169.714005 Z" style="stroke: rgba(255, 255, 255, 0); fill: rgb(253, 219, 50);" transform="matrix(0.826022, 0.563638, -0.563638, 0.826022, 833.140994, 189.688351)"/>
    <path d="M 321.938995 169.714005 A 116.860001 118.857002 0 0 1 205.078995 288.571007 A 116.860001 118.857002 0 0 1 88.218994 169.714005 A 116.860001 118.857002 0 0 1 205.078995 50.857002 A 116.860001 118.857002 0 0 1 321.938995 169.714005 Z" style="stroke: rgba(255, 255, 255, 0); fill: rgb(253, 219, 50);" transform="matrix(0.826022, 0.563638, -0.563638, 0.826022, 110.764179, -73.482456)"/>
    <path d="M 261.146996 169.714005 A 56.068001 57.868999 0 0 1 205.078995 227.583004 A 56.068001 57.868999 0 0 1 149.010994 169.714005 A 56.068001 57.868999 0 0 1 205.078995 111.845005 A 56.068001 57.868999 0 0 1 261.146996 169.714005 Z" style="stroke: rgba(255, 255, 255, 0); fill: rgb(253, 219, 50);" transform="matrix(0.826022, 0.563638, -0.563638, 0.826022, 582.054569, -245.348988)"/>
    <path d="M 282.924995 169.714005 A 77.846001 75.980003 0 0 1 205.078995 245.694008 A 77.846001 75.980003 0 0 1 127.232994 169.714005 A 77.846001 75.980003 0 0 1 205.078995 93.734001 A 77.846001 75.980003 0 0 1 282.924995 169.714005 Z" style="stroke: rgba(255, 255, 255, 0); fill: rgb(253, 219, 50);" transform="matrix(0.826022, 0.563638, -0.563638, 0.826022, 1328.600101, 168.204891)"/>
    <path d="M 290.897995 169.714005 A 85.819 90.045998 0 0 1 205.078995 259.760002 A 85.819 90.045998 0 0 1 119.259995 169.714005 A 85.819 90.045998 0 0 1 205.078995 79.668007 A 85.819 90.045998 0 0 1 290.897995 169.714005 Z" style="stroke: rgba(255, 255, 255, 0); fill: rgb(253, 219, 50);" transform="matrix(0.826022, 0.563638, -0.563638, 0.826022, 1221.183475, -548.800953)"/>
    <path d="M 353.151001 169.714005 A 148.072006 153.656006 0 0 1 205.078995 323.37001 A 148.072006 153.656006 0 0 1 57.006989 169.714005 A 148.072006 153.656006 0 0 1 205.078995 16.057999 A 148.072006 153.656006 0 0 1 353.151001 169.714005 Z" style="stroke: rgba(255, 255, 255, 0); fill: rgb(253, 219, 50);" transform="matrix(0.826022, 0.563638, -0.563638, 0.826022, 1532.691654, -313.827107)"/>
    <path d="M 231.929995 169.714005 A 26.851 27.056 0 0 1 205.078995 196.770004 A 26.851 27.056 0 0 1 178.227995 169.714005 A 26.851 27.056 0 0 1 205.078995 142.658005 A 26.851 27.056 0 0 1 231.929995 169.714005 Z" style="stroke: rgba(255, 255, 255, 0); fill: rgb(253, 219, 50);" transform="matrix(0.826022, 0.563638, -0.563638, 0.826022, 318.589603, 15.063198)"/>
    <path d="M 231.929995 169.714005 A 26.851 27.056 0 0 1 205.078995 196.770004 A 26.851 27.056 0 0 1 178.227995 169.714005 A 26.851 27.056 0 0 1 205.078995 142.658005 A 26.851 27.056 0 0 1 231.929995 169.714005 Z" style="stroke: rgba(255, 255, 255, 0); fill: rgb(253, 219, 50);" transform="matrix(0.826022, 0.563638, -0.563638, 0.826022, 555.320743, -419.871418)"/>
    <path d="M 231.929995 169.714005 A 26.851 27.056 0 0 1 205.078995 196.770004 A 26.851 27.056 0 0 1 178.227995 169.714005 A 26.851 27.056 0 0 1 205.078995 142.658005 A 26.851 27.056 0 0 1 231.929995 169.714005 Z" style="stroke: rgba(255, 255, 255, 0); fill: rgb(253, 219, 50);" transform="matrix(0.826022, 0.563638, -0.563638, 0.826022, 989.238346, 293.494701)"/>
    <path d="M 231.929995 169.714005 A 26.851 27.056 0 0 1 205.078995 196.770004 A 26.851 27.056 0 0 1 178.227995 169.714005 A 26.851 27.056 0 0 1 205.078995 142.658005 A 26.851 27.056 0 0 1 231.929995 169.714005 Z" style="stroke: rgba(255, 255, 255, 0); fill: rgb(253, 219, 50);" transform="matrix(0.826022, 0.563638, -0.563638, 0.826022, 1284.133792, -365.105122)"/>
    <path d="M 226.737995 169.714005 A 21.659 20.962999 0 0 1 205.078995 190.677004 A 21.659 20.962999 0 0 1 183.419994 169.714005 A 21.659 20.962999 0 0 1 205.078995 148.751005 A 21.659 20.962999 0 0 1 226.737995 169.714005 Z" style="stroke: rgba(255, 255, 255, 0); fill: rgb(253, 219, 50);" transform="matrix(0.826022, 0.563638, -0.563638, 0.826022, 912.705936, -56.869175)"/>
    <path d="M 226.737995 169.714005 A 21.659 20.962999 0 0 1 205.078995 190.677004 A 21.659 20.962999 0 0 1 183.419994 169.714005 A 21.659 20.962999 0 0 1 205.078995 148.751005 A 21.659 20.962999 0 0 1 226.737995 169.714005 Z" style="stroke: rgba(255, 255, 255, 0); fill: rgb(253, 219, 50);" transform="matrix(0.826022, 0.563638, -0.563638, 0.826022, 944.301822, -469.02068)"/>
    <path d="M 248.981995 169.714005 A 43.903 44.046001 0 0 1 205.078995 213.760006 A 43.903 44.046001 0 0 1 161.175995 169.714005 A 43.903 44.046001 0 0 1 205.078995 125.668003 A 43.903 44.046001 0 0 1 248.981995 169.714005 Z" style="stroke: rgba(255, 255, 255, 0); fill: rgb(253, 219, 50);" transform="matrix(0.826022, 0.563638, -0.563638, 0.826022, 1432.985965, 7.726986)"/>
    <path d="M 231.929995 169.714005 A 26.851 27.056 0 0 1 205.078995 196.770004 A 26.851 27.056 0 0 1 178.227995 169.714005 A 26.851 27.056 0 0 1 205.078995 142.658005 A 26.851 27.056 0 0 1 231.929995 169.714005 Z" style="stroke: rgba(255, 255, 255, 0); fill: rgb(253, 219, 50);" transform="matrix(0.826022, 0.563638, -0.563638, 0.826022, 1435.794437, 355.282299)"/>
    <path d="M 231.929995 169.714005 A 26.851 27.056 0 0 1 205.078995 196.770004 A 26.851 27.056 0 0 1 178.227995 169.714005 A 26.851 27.056 0 0 1 205.078995 142.658005 A 26.851 27.056 0 0 1 231.929995 169.714005 Z" style="stroke: rgba(255, 255, 255, 0); fill: rgb(253, 219, 50);" transform="matrix(0.826022, 0.563638, -0.563638, 0.826022, 433.149753, -609.447071)"/>
    <path d="M 228.395994 169.714005 A 23.316999 24.368 0 0 1 205.078995 194.082005 A 23.316999 24.368 0 0 1 181.761995 169.714005 A 23.316999 24.368 0 0 1 205.078995 145.346004 A 23.316999 24.368 0 0 1 228.395994 169.714005 Z" style="stroke: rgba(255, 255, 255, 0); fill: rgb(253, 219, 50);" transform="matrix(0.826022, 0.563638, -0.563638, 0.826022, 131.06998, 258.388134)"/>
    <path d="M 224.649994 169.714005 A 19.570999 20.124001 0 0 1 205.078995 189.838005 A 19.570999 20.124001 0 0 1 185.507996 169.714005 A 19.570999 20.124001 0 0 1 205.078995 149.590004 A 19.570999 20.124001 0 0 1 224.649994 169.714005 Z" style="stroke: rgba(255, 255, 255, 0); fill: rgb(253, 219, 50);" transform="matrix(0.826022, 0.563638, -0.563638, 0.826022, 633.257389, 161.493893)"/>
    <path d="M 231.929995 169.714005 A 26.851 27.056 0 0 1 205.078995 196.770004 A 26.851 27.056 0 0 1 178.227995 169.714005 A 26.851 27.056 0 0 1 205.078995 142.658005 A 26.851 27.056 0 0 1 231.929995 169.714005 Z" style="stroke: rgba(255, 255, 255, 0); fill: rgb(253, 219, 50);" transform="matrix(0.826022, 0.563638, -0.563638, 0.826022, 566.554874, -12.634892)"/>
    <path d="M 243.055996 169.714005 A 37.977001 38.668999 0 0 1 205.078995 208.383003 A 37.977001 38.668999 0 0 1 167.101994 169.714005 A 37.977001 38.668999 0 0 1 205.078995 131.045006 A 37.977001 38.668999 0 0 1 243.055996 169.714005 Z" style="stroke: rgba(255, 255, 255, 0); fill: rgb(253, 219, 50);" transform="matrix(0.826022, 0.563638, -0.563638, 0.826022, 748.282596, -101.055393)"/>
    <path d="M 222.790995 169.714005 A 17.712 18.354 0 0 1 205.078995 188.068005 A 17.712 18.354 0 0 1 187.366995 169.714005 A 17.712 18.354 0 0 1 205.078995 151.360004 A 17.712 18.354 0 0 1 222.790995 169.714005 Z" style="stroke: rgba(255, 255, 255, 0); fill: rgb(253, 219, 50);" transform="matrix(0.826022, 0.563638, -0.563638, 0.826022, 839.300174, -311.252949)"/>
    <path d="M 231.929995 169.714005 A 26.851 27.056 0 0 1 205.078995 196.770004 A 26.851 27.056 0 0 1 178.227995 169.714005 A 26.851 27.056 0 0 1 205.078995 142.658005 A 26.851 27.056 0 0 1 231.929995 169.714005 Z" style="stroke: rgba(255, 255, 255, 0); fill: rgb(253, 219, 50);" transform="matrix(0.826022, 0.563638, -0.563638, 0.826022, 1461.615116, -610.52483)"/>
    <path d="M 231.929995 169.714005 A 26.851 27.056 0 0 1 205.078995 196.770004 A 26.851 27.056 0 0 1 178.227995 169.714005 A 26.851 27.056 0 0 1 205.078995 142.658005 A 26.851 27.056 0 0 1 231.929995 169.714005 Z" style="stroke: rgba(255, 255, 255, 0); fill: rgb(253, 219, 50);" transform="matrix(0.826022, 0.563638, -0.563638, 0.826022, 370.24686, -184.540882)"/>
  </g></svg>