<?xml version="1.0" encoding="utf-8"?>
<svg id="master-artboard" viewBox="0 0 239.82122802734375 321.27374267578125" version="1.1" xmlns="http://www.w3.org/2000/svg" x="0px" y="0px" style="enable-background:new 0 0 1400 980;" width="239.82122802734375px" height="321.27374267578125px"><defs><style id="ee-google-fonts">@import url(https://fonts.googleapis.com/css?family=Rubik:300,300italic,400,400italic,500,500italic,700,700italic,900,900italic);</style></defs><rect id="ee-background" x="0" y="0" width="239.82122802734375" height="321.27374267578125" style="fill: none; fill-opacity: 1; pointer-events: none;"/>








































<g transform="matrix(1.0322420597076416, 0, 0, 1.0322420597076416, -77.65078735351562, -47.637451171875)">
    <path d="M 231.367004 189.429993 A 107.483002 89.029999 0 0 1 123.884003 278.459991 A 107.483002 89.029999 0 0 1 16.401001 189.429993 A 107.483002 89.029999 0 0 1 123.884003 100.399994 A 107.483002 89.029999 0 0 1 231.367004 189.429993 Z" style="stroke-width: 3px; stroke: rgb(184, 146, 8); fill: rgb(184, 146, 8);" transform="matrix(0.002762, 0.999996, -0.999996, 0.002762, 388.287387, 55.593567)"/>
    <path d="M 234.929001 189.397995 A 107.483002 89.029999 0 0 1 127.445999 278.427994 A 107.483002 89.029999 0 0 1 19.962997 189.397995 A 107.483002 89.029999 0 0 1 127.445999 100.367996 A 107.483002 89.029999 0 0 1 234.929001 189.397995 Z" style="fill: rgb(253, 209, 48); stroke-width: 3px; stroke: rgb(184, 146, 8);" transform="matrix(0.002762, 0.999996, -0.999996, 0.002762, 373.145633, 52.030575)"/>
    <path d="M 185.326004 287.049988 H 200.042004 V 288.947988 H 185.326004 V 287.049988 Z" style="stroke: rgb(0, 0, 0); stroke-opacity: 0; fill: rgb(184, 146, 8);"/>
    <path d="M 184.585007 71 H 199.301006 V 72.898 H 184.585007 V 71 Z" style="stroke: rgb(0, 0, 0); stroke-opacity: 0; fill: rgb(184, 146, 8);"/>
    <path d="M 206.990997 189.440002 A 78.981003 61.441002 0 0 1 128.009995 250.881004 A 78.981003 61.441002 0 0 1 49.028992 189.440002 A 78.981003 61.441002 0 0 1 128.009995 127.999001 A 78.981003 61.441002 0 0 1 206.990997 189.440002 Z" style="stroke-width: 3px; fill: rgb(184, 146, 8); stroke: rgb(184, 146, 8);" transform="matrix(0.002762, 0.999996, -0.999996, 0.002762, 371.185428, 51.46764)"/>
    <path d="M 196.795006 189.421997 A 78.981003 60.917999 0 0 1 117.814003 250.339996 A 78.981003 60.917999 0 0 1 38.833 189.421997 A 78.981003 60.917999 0 0 1 117.814003 128.503998 A 78.981003 60.917999 0 0 1 196.795006 189.421997 Z" style="fill: rgb(253, 209, 48); stroke-width: 3px; stroke: rgb(184, 146, 8);" transform="matrix(0.002762, 0.999996, -0.999996, 0.002762, 372.373905, 61.663854)"/>
  </g><path d="M 156.851006 568.109985 A 82.494003 14.109 0 0 1 74.357002 582.218986 A 82.494003 14.109 0 0 1 -8.137001 568.109985 A 82.494003 14.109 0 0 1 74.357002 554.000985 A 82.494003 14.109 0 0 1 156.851006 568.109985 Z" style="stroke: rgba(0, 0, 0, 0); fill: rgb(108, 84, 0);" transform="matrix(0.9998480081558228, 0.017433999106287956, 0.0012170003028586507, 1.0001729726791382, 44.976165771484375, -276.8959045410156)"/></svg>