<?xml version="1.0" encoding="utf-8"?>
<svg id="master-artboard" viewBox="0 0 389.4794006347656 373.6876220703125" version="1.1" xmlns="http://www.w3.org/2000/svg" x="0px" y="0px" style="enable-background:new 0 0 1400 980;" width="389.4794006347656px" height="373.6876220703125px"><defs><style id="ee-google-fonts">@import url(https://fonts.googleapis.com/css?family=Fjalla+One:400|Roboto:100,100italic,300,300italic,400,400italic,500,500italic,700,700italic,900,900italic);</style><style id="style-1">@import url(https://fonts.googleapis.com/css?family=Anton:400|Roboto+Slab:100,300,400,700);</style><path id="text-path-0" d="M 778.8464965820312 213.4612274169922 A 100 18 0 0 1 988.3533935546875 213.4612274169922 A 100 18 0 0 1 778.8464965820312 213.4612274169922 Z" style="fill: none; stroke: red; stroke-width: 2;"/><path id="text-path-1" d="M 664.5464477539062 37.96122741699219 A 100 19 0 0 1 876.5812377929688 37.96122741699219 A 100 19 0 0 1 664.5464477539062 37.96122741699219" style="fill: none; stroke: red; stroke-width: 2;"/><path id="text-path-2" d="M 765.3650512695312 211.70851135253906 A 100 17 0 0 1 991.5017700195312 211.70851135253906 A 100 17 0 0 1 765.3650512695312 211.70851135253906" style="fill: none; stroke: red; stroke-width: 2;"/><path id="path-1" d="M 765.3650512695312 211.70851135253906 A 100 17 0 0 1 991.5017700195312 211.70851135253906 A 100 17 0 0 1 765.3650512695312 211.70851135253906" style="fill: none; stroke: red; stroke-width: 2;"/></defs>











































<g transform="matrix(1, 0, 0, 1, -426.03710412979126, -240.9805908203125)">
		<path class="st13" d="M448.4,599.9" style="fill: rgb(223, 243, 251);"/>
	</g>





















































<g transform="matrix(1, 0, 0, 1, -730.327570438385, -279.72918701171875)"><rect id="ee-background" x="0" y="0" width="389.4794006347656" height="373.6876220703125" style="fill: black; fill-opacity: 0; pointer-events: none;"/><path style="fill: rgb(63, 61, 61); fill-opacity: 1; stroke: rgb(0, 0, 0); stroke-opacity: 1; stroke-width: 0; paint-order: fill;"/><path style="fill: rgb(63, 61, 61); fill-opacity: 1; stroke: rgb(0, 0, 0); stroke-opacity: 1; stroke-width: 0; paint-order: fill;"/><path d="M 880.3870239257812 239.90606689453125" style="fill: rgb(63, 61, 61); fill-opacity: 1; stroke: rgb(0, 0, 0); stroke-opacity: 1; stroke-width: 0; paint-order: fill;"/><path d="M 864.144775390625 229.48651123046875" style="fill: rgb(63, 61, 61); fill-opacity: 1; stroke: rgb(0, 0, 0); stroke-opacity: 1; stroke-width: 0; paint-order: fill;"/><path style="fill: rgb(63, 61, 61); fill-opacity: 1; stroke: rgb(0, 0, 0); stroke-opacity: 1; stroke-width: 0; paint-order: fill;"/><path style="fill: rgb(63, 61, 61); fill-opacity: 1; stroke: rgb(0, 0, 0); stroke-opacity: 1; stroke-width: 0; paint-order: fill;"/><path style="fill: rgb(63, 61, 61); fill-opacity: 1; stroke: rgb(0, 0, 0); stroke-opacity: 1; stroke-width: 0; paint-order: fill;"/><path style="fill: rgb(63, 61, 61); fill-opacity: 1; stroke: rgb(0, 0, 0); stroke-opacity: 1; stroke-width: 0; paint-order: fill;"/><path style="stroke-opacity: 0.51; stroke: rgba(188, 66, 66, 0); fill: rgb(178, 98, 0);" d="M 85.175 202.367 C 81.463 217.137 81.184 242.313 85.988 256.652 C 89.235 266.339 89.175 278.247 91.689 288.252 C 96.303 306.607 107.97 318.213 116.122 334.433 C 123.236 348.587 153.18 375.891 167.429 380.617 C 187.712 387.342 191.528 398.872 241.54 409.785 C 249.981 411.626 289.296 416.241 294.477 417.077 C 321.57 421.447 341.474 409.577 358.815 404.923 C 393.896 395.51 438.448 348.28 448.399 298.784 C 456.799 257 469.175 251.841 462.244 210.469 C 455.922 172.737 471.002 153.059 421.524 110.812 C 397.108 89.965 353.825 51.796 307.508 54.907 C 301.192 55.331 269.338 59.752 249.684 56.527 C 192.429 47.128 124.598 93.379 102.277 154.564 C 91.944 182.884 90.945 173.19 85.08 202.361" transform="matrix(1, 0, 0, 1, 650.7987135308184, 231.28521613857927)"/><path style="stroke-opacity: 0.51; stroke: rgba(188, 66, 66, 0); fill: rgb(220, 125, 8);" d="M 89.698 201.832 C 86.08 216.369 85.808 241.147 90.493 255.26 C 93.657 264.795 101.017 281.911 103.468 291.756 C 107.967 309.823 111.922 315.851 119.871 331.815 C 126.805 345.745 158.022 368.573 171.915 373.224 C 191.687 379.843 193.386 395.236 242.143 405.977 C 250.373 407.79 288.701 412.332 293.753 413.155 C 320.167 417.456 340.92 401.051 357.826 396.471 C 392.028 387.206 434.114 345.444 443.815 296.728 C 452.004 255.602 464.07 250.527 457.312 209.807 C 451.151 172.669 465.179 158.023 416.94 116.443 C 393.137 95.924 351.613 53.636 306.456 56.699 C 300.299 57.117 273.965 64.84 254.804 61.665 C 198.984 52.415 132.854 97.936 111.094 158.157 C 101.02 186.03 95.464 173.134 89.746 201.843" transform="matrix(1, 0, 0, 1, 650.7987135308184, 231.28521613857927)"/><path style="stroke: rgba(0, 0, 0, 0); fill: rgb(255, 159, 42);" d="M 104.315 187.709 C 91.468 226.763 99.106 254.147 116.67 289.741 C 121.662 299.857 120.263 317.679 125.318 327.926 C 129.05 335.486 146.144 340.262 151.882 346.078 C 158.837 353.124 162.232 356.565 168.564 362.98 C 174.097 368.588 199.528 374.572 201.304 379.257 C 203.728 385.645 238.022 398.534 253.197 400.538 C 263.504 401.899 277.876 397.706 287.175 402.416 C 291.816 404.768 309.2 407.219 313.739 404.92 C 315.22 404.169 328.641 402.691 332.888 400.538 C 341.999 395.924 353.831 387.457 360.072 381.134 C 365.002 376.137 367.992 374.304 375.515 370.491 C 387.877 364.229 404.803 367.294 413.818 353.592 C 420.616 343.255 427.651 334.075 431.114 323.545 C 433.975 314.85 435.721 304.821 439.763 296.628 C 445.387 285.229 438.859 267.456 442.851 255.315 C 444.277 250.978 441.434 244.415 443.471 240.29 C 447.487 232.15 444.28 221.549 447.175 212.749 C 448.589 208.451 448.585 199.506 447.175 195.221 C 444.798 187.992 448.292 178.585 445.94 171.434 C 441.681 158.49 438.446 148.108 432.349 135.755 C 429.826 130.643 420.812 126.155 416.287 123.861 C 411.277 121.323 406.861 116.449 402.078 113.221 C 394.58 108.155 388.456 105.687 381.074 100.7 C 366.651 90.957 362.067 78.239 347.099 70.655 C 338.85 66.477 316.17 71.28 306.942 71.28 C 302.599 71.28 283.156 68.31 279.761 70.029 C 277.388 71.23 252.896 60.205 240.224 65.647 C 237.625 66.762 197.163 81.441 186.479 85.052 C 164.396 92.509 150.066 111.27 140.145 131.372 C 136.854 138.044 128.979 139.559 124.702 143.893 C 119.74 148.92 119.793 158.257 115.435 162.672 C 107.84 170.366 100.608 189.773 100.608 203.359" transform="matrix(1, 0, 0, 1, 650.7987135308184, 231.28521613857927)"/><path style="stroke: rgba(0, 0, 0, 0); fill: rgb(220, 125, 8);" d="M 116.332 184.161 C 103.96 221.999 106.373 217.856 123.288 252.344 C 128.095 262.143 132.306 310.082 137.175 320.011 C 140.768 327.335 152.286 335.093 157.815 340.727 C 164.511 347.553 167.78 350.886 173.877 357.103 C 179.205 362.535 203.696 368.332 205.405 372.872 C 207.739 379.061 240.761 391.549 255.377 393.49 C 265.301 394.81 292.731 392.625 301.686 397.189 C 306.156 399.466 332.953 385.106 336.463 382.585 C 344.459 376.843 364.022 370.175 370.03 364.049 C 374.779 359.21 382.601 362.438 389.845 358.745 C 401.749 352.679 401.367 361.281 410.048 348.006 C 416.596 337.991 423.37 329.097 426.705 318.896 C 429.459 310.472 424.962 300.127 428.855 292.191 C 434.272 281.147 433.545 269.559 437.391 257.796 C 438.764 253.596 432.993 229.578 433.523 225.241 C 441.116 163.151 443.247 178.45 440.983 171.52 C 436.882 158.98 433.766 148.92 427.896 136.953 C 425.465 132.001 416.784 127.651 412.428 125.429 C 407.602 122.97 403.35 118.249 398.746 115.121 C 391.524 110.212 385.626 107.821 378.52 102.99 C 364.629 93.548 358.98 90.617 344.566 83.27 C 336.621 79.223 316.636 74.485 307.75 74.485 C 303.568 74.485 284.486 79.258 280.956 78.28 C 249.019 69.429 254.469 68.136 237.324 72.784 C 234.695 73.496 203.887 88.088 193.6 91.584 C 172.336 98.81 156.064 113.231 146.511 132.707 C 143.34 139.171 142.554 145.646 138.434 149.843 C 133.657 154.714 126.911 158.753 122.715 163.032" transform="matrix(1, 0, 0, 1, 650.7987135308184, 231.28521613857927)"/><path style="stroke-opacity: 0.51; stroke: rgba(188, 66, 66, 0); fill: rgb(178, 98, 0);" d="M 121.285 205.39 C 118.317 217.843 123.557 237.849 127.401 249.936 C 129.995 258.102 129.949 268.139 131.959 276.573 C 135.648 292.045 144.372 306.683 150.89 320.357 C 156.579 332.286 181.133 350.447 192.529 354.43 C 208.748 360.1 213.992 390.758 254.223 382.658 C 283.033 376.857 289.985 384.458 294.129 385.163 C 315.795 388.849 332.32 373.985 346.188 370.062 C 374.243 362.127 412.299 346.599 420.257 304.876 C 426.974 269.655 433.836 245.881 428.293 211.008 C 423.238 179.201 447.44 165.649 407.265 133.681 C 386.709 117.325 341.591 77.256 304.55 79.879 C 299.499 80.237 274.03 83.938 258.308 81.244 C 212.521 73.399 158.276 113.667 140.426 163.885 C 131.965 187.688 125.9 182.618 121.211 207.208" transform="matrix(1, 0, 0, 1, 650.7987135308184, 231.28521613857927)"/><g transform="matrix(1, 0, 0, 1, 650.7987135308184, 231.28521613857927)">
    <path style="stroke: rgba(0, 0, 0, 0); fill: rgb(190, 22, 0);" d="M 130.915 220.401 C 124.671 201.668 135.415 200.222 140.628 184.584 C 142.57 178.757 145.208 171.782 147.913 166.373 C 149.96 162.278 148.207 153.937 151.555 150.589 C 156.108 146.036 161.489 138.226 166.125 133.591 C 176.709 123.007 179.818 110.354 195.264 102.631 C 205.133 97.697 202.408 94.88 229.866 88.669 C 231.587 88.28 243.949 90.55 245.042 91.097 C 248.732 92.942 257.488 91.805 261.433 90.49 C 277.263 85.213 297.423 85.72 311.82 92.918 C 317.082 95.549 329.486 91.158 333.674 95.346 C 335.612 97.284 341.098 97.307 343.387 99.596 C 351.952 108.161 364.335 106.582 371.311 113.558 C 373.764 116.011 383.555 120.591 386.488 122.057 C 391.322 124.475 396.641 132.9 401.665 135.412 C 411.867 140.513 406.691 150.759 413.199 157.267 C 415.751 159.819 419.769 164.338 421.697 168.194 C 422.145 169.089 422.839 179.047 423.519 179.728 C 425.639 181.847 422.305 195.385 422.305 199.154 C 422.305 208.706 414.158 219.283 418.663 228.293 C 419.979 230.925 417.957 235.38 419.27 238.006 C 425.439 250.345 427.636 270.312 419.877 278.072 C 415.714 282.235 415.711 292.475 413.199 297.498 C 411.867 300.161 408.507 304.011 406.521 305.997 C 405.025 307.493 404.828 315.455 403.486 318.138 C 398.825 327.459 392.17 337.954 384.667 345.456 C 380.732 349.391 371.532 352.741 365.848 352.741 C 362.839 352.741 357.53 353.773 355.528 355.776 C 352.79 358.514 344.488 361.074 340.351 362.453 C 332.594 365.039 324.04 367.875 316.676 371.56 C 309.272 375.265 320.592 376.896 289.358 377.63 C 284.292 377.749 284.565 382.931 257.184 375.201 C 251.397 373.567 238.71 380.231 233.509 377.631 C 226.202 373.977 228.443 372.167 217.725 367.918 C 212.564 364.503 209.702 356.014 206.798 354.562 C 193.692 348.009 178.507 334.248 164.91 323.602 C 148.654 310.874 154.963 305.203 141.235 282.322 C 137.818 276.627 140.167 268.797 138.2 262.896 C 137.484 260.748 132.534 245.695 130.915 244.076 C 130.2 243.361 131.927 220.401 130.915 220.401 Z"/>
  </g></g></svg>