<?xml version="1.0" encoding="utf-8"?>
<svg id="master-artboard" viewBox="0 0 1400 980" version="1.1" xmlns="http://www.w3.org/2000/svg" x="0px" y="0px" style="enable-background:new 0 0 1400 980;" width="1400px" height="980px"><rect id="ee-background" x="0" y="0" width="1400" height="980" style="fill: rgb(80, 80, 80); fill-opacity: 1; pointer-events: none;"/><defs><style id="ee-google-fonts">@import url(https://fonts.googleapis.com/css?family=Roboto:100,100italic,300,300italic,400,400italic,500,500italic,700,700italic,900,900italic);</style></defs>























































































































<path d="M 260.79998779296875 86.19999694824219" style="fill: rgb(23, 168, 247); fill-opacity: 1; stroke: rgb(0, 0, 0); stroke-opacity: 1; stroke-width: 0; paint-order: fill;"/><g transform="matrix(0.9187132120132446, 0, 0, 0.9187132120132446, 70.57068634033203, 120.13987731933592)">
    <path style="stroke: rgba(0, 0, 0, 0);" d="M 65.787 191.699 C -55.916 191.699 -41.254 -84.823 102.344 -67.811 C 219.449 -53.933 279.485 152.378 139.185 185.611 C 114.126 191.568 87.281 196.292 63.745 191.268" transform="matrix(-0.945519, 0.325568, -0.325568, -0.945519, 219.005431, 88.174066)"/>
    <path style="stroke: rgba(0, 0, 0, 0); fill: rgb(80, 80, 80);" d="M 77.135 134.878 C 6.209 134.878 14.775 -13.736 98.45 -4.589 C 166.662 2.881 201.655 113.727 119.905 131.595 C 105.288 134.793 89.659 137.334 75.953 134.634" transform="matrix(-0.945519, 0.325568, -0.325568, -0.945519, 212.54943, 95.209888)"/>
    <path style="stroke: rgba(0, 0, 0, 0); fill: rgb(36, 36, 36);" d="M 169.61 32.343 C 159.926 60.65 165.491 91.831 171.513 120.05 C 173.483 129.194 171.132 150.631 159.025 145.925 C 146.369 140.985 141.706 114.299 139.817 100.939 C 133.23 54.637 147.318 5.049 179.896 -26.71 C 191.072 -37.624 212.406 -52.16 207.064 -27.227 C 203.617 -10.976 186.835 2.29 177.125 13.656" transform="matrix(-0.945519, 0.325568, -0.325568, -0.945519, 353.907614, 46.406358)"/>
    <path style="stroke: rgba(0, 0, 0, 0); fill: rgb(46, 46, 46);" d="M 28.095 105.059 C 37.414 97.746 40.667 78.24 43.622 64.212 C 48.572 40.789 40.834 12.281 24.593 -5.758 C 16.211 -15.063 24.062 -25.678 34.535 -19.787 C 43.018 -15.026 56.937 0.885 60.429 10.982 C 70.865 41.026 69.146 82.636 57.159 111.795 C 52.672 122.693 44.886 133.56 36.308 139.799 C 27.612 146.122 16.349 157.893 7.651 151.561 C -3.99 143.102 5.636 131.82 16.237 120.726" transform="matrix(-0.945519, 0.325568, -0.325568, -0.945519, 89.22245, 116.9622)"/>
    <path style="stroke: rgba(0, 0, 0, 0); fill: rgb(85, 85, 85);" d="M 23.043 103.558 C 28.906 97.556 30.95 81.541 32.817 70.014 C 35.932 50.782 31.043 27.378 20.831 12.569 C 15.544 4.917 20.497 -3.793 27.094 1.053 C 32.428 4.957 41.172 18.017 43.383 26.317 C 49.953 50.971 48.874 85.144 41.32 109.091 C 38.494 118.041 33.607 126.971 28.209 132.078 C 22.736 137.274 15.647 146.946 10.174 141.744 C 2.843 134.799 8.902 125.54 15.571 116.433" transform="matrix(-0.945519, 0.325568, -0.325568, -0.945519, 76.31825, 130.119097)"/>
  </g><g transform="matrix(0.9187132120132446, 0, 0, 0.9187132120132446, 61.2501564025879, 122.11076354980469)">
    <path style="stroke: rgba(0, 0, 0, 0);" d="M 320.027 191.036 C 198.316 191.036 212.98 -85.481 356.591 -68.469 C 473.697 -54.591 533.733 151.715 393.432 184.948 C 368.373 190.905 341.526 195.629 317.985 190.605" transform="matrix(-0.945519, 0.325568, -0.325568, -0.945519, 713.422056, 4.116262)"/>
    <path style="stroke: rgba(0, 0, 0, 0); fill: rgb(80, 80, 80);" d="M 331.379 134.215 C 260.452 134.215 269.018 -14.395 352.697 -5.248 C 420.909 2.222 455.902 113.064 374.152 130.932 C 359.535 134.13 343.906 136.671 330.197 133.971" transform="matrix(-0.945519, 0.325568, -0.325568, -0.945519, 706.973135, 11.149801)"/>
    <path style="stroke: rgba(0, 0, 0, 0); fill: rgb(36, 36, 36);" d="M 423.853 31.683 C 414.169 59.987 419.734 91.168 425.756 119.387 C 427.726 128.531 425.375 149.968 413.268 145.262 C 400.612 140.322 395.949 113.636 394.06 100.276 C 387.473 53.974 401.561 4.389 434.139 -27.369 C 445.315 -38.283 466.649 -52.819 461.307 -27.886 C 457.86 -11.636 441.078 1.63 431.368 12.996" transform="matrix(-0.945519, 0.325568, -0.325568, -0.945519, 848.326929, -37.652972)"/>
    <path style="stroke: rgba(0, 0, 0, 0); fill: rgb(46, 46, 46);" d="M 282.342 104.398 C 291.661 97.086 294.914 77.58 297.869 63.552 C 302.819 40.13 295.081 11.622 278.84 -6.416 C 270.458 -15.721 278.309 -26.336 288.782 -20.445 C 297.265 -15.684 311.184 0.227 314.676 10.323 C 325.112 40.367 323.393 81.976 311.406 111.134 C 306.919 122.03 299.133 132.897 290.555 139.136 C 281.859 145.459 270.596 157.23 261.898 150.898 C 250.257 142.439 259.883 131.157 270.484 120.063" transform="matrix(-0.945519, 0.325568, -0.325568, -0.945519, 583.649696, 32.902524)"/>
    <path style="stroke: rgba(0, 0, 0, 0); fill: rgb(85, 85, 85);" d="M 277.29 102.898 C 283.153 96.896 285.197 80.882 287.064 69.355 C 290.179 50.123 285.29 26.72 275.078 11.911 C 269.791 4.259 274.744 -4.451 281.341 0.395 C 286.675 4.299 295.419 17.359 297.63 25.659 C 304.2 50.312 303.121 84.485 295.567 108.431 C 292.741 117.38 287.854 126.31 282.456 131.417 C 276.983 136.612 269.894 146.283 264.421 141.082 C 257.09 134.138 263.149 124.879 269.818 115.772" transform="matrix(-0.945519, 0.325568, -0.325568, -0.945519, 570.745581, 46.060045)"/>
  </g><g transform="matrix(0.9187132120132446, 0, 0, 0.9187132120132446, 285.1142578125, 120.76078796386719)">
    <path style="stroke: rgba(0, 0, 0, 0);" d="M 320.027 191.036 C 198.316 191.036 212.98 -85.481 356.591 -68.469 C 473.697 -54.591 533.733 151.715 393.432 184.948 C 368.373 190.905 341.526 195.629 317.985 190.605" transform="matrix(-0.945519, 0.325568, -0.325568, -0.945519, 713.422056, 4.116262)"/>
    <path style="stroke: rgba(0, 0, 0, 0); fill: rgb(80, 80, 80);" d="M 331.379 134.215 C 260.452 134.215 269.018 -14.395 352.697 -5.248 C 420.909 2.222 455.902 113.064 374.152 130.932 C 359.535 134.13 343.906 136.671 330.197 133.971" transform="matrix(-0.945519, 0.325568, -0.325568, -0.945519, 706.973135, 11.149801)"/>
    <path style="stroke: rgba(0, 0, 0, 0); fill: rgb(36, 36, 36);" d="M 423.853 31.683 C 414.169 59.987 419.734 91.168 425.756 119.387 C 427.726 128.531 425.375 149.968 413.268 145.262 C 400.612 140.322 395.949 113.636 394.06 100.276 C 387.473 53.974 401.561 4.389 434.139 -27.369 C 445.315 -38.283 466.649 -52.819 461.307 -27.886 C 457.86 -11.636 441.078 1.63 431.368 12.996" transform="matrix(-0.945519, 0.325568, -0.325568, -0.945519, 848.326929, -37.652972)"/>
    <path style="stroke: rgba(0, 0, 0, 0); fill: rgb(46, 46, 46);" d="M 282.342 104.398 C 291.661 97.086 294.914 77.58 297.869 63.552 C 302.819 40.13 295.081 11.622 278.84 -6.416 C 270.458 -15.721 278.309 -26.336 288.782 -20.445 C 297.265 -15.684 311.184 0.227 314.676 10.323 C 325.112 40.367 323.393 81.976 311.406 111.134 C 306.919 122.03 299.133 132.897 290.555 139.136 C 281.859 145.459 270.596 157.23 261.898 150.898 C 250.257 142.439 259.883 131.157 270.484 120.063" transform="matrix(-0.945519, 0.325568, -0.325568, -0.945519, 583.649696, 32.902524)"/>
    <path style="stroke: rgba(0, 0, 0, 0); fill: rgb(85, 85, 85);" d="M 277.29 102.898 C 283.153 96.896 285.197 80.882 287.064 69.355 C 290.179 50.123 285.29 26.72 275.078 11.911 C 269.791 4.259 274.744 -4.451 281.341 0.395 C 286.675 4.299 295.419 17.359 297.63 25.659 C 304.2 50.312 303.121 84.485 295.567 108.431 C 292.741 117.38 287.854 126.31 282.456 131.417 C 276.983 136.612 269.894 146.283 264.421 141.082 C 257.09 134.138 263.149 124.879 269.818 115.772" transform="matrix(-0.945519, 0.325568, -0.325568, -0.945519, 570.745581, 46.060045)"/>
  </g><g transform="matrix(0.9187132120132446, 0, 0, 0.9187132120132446, 508.9055480957031, 120.80525207519531)">
    <path style="stroke: rgba(0, 0, 0, 0);" d="M 320.027 191.036 C 198.316 191.036 212.98 -85.481 356.591 -68.469 C 473.697 -54.591 533.733 151.715 393.432 184.948 C 368.373 190.905 341.526 195.629 317.985 190.605" transform="matrix(-0.945519, 0.325568, -0.325568, -0.945519, 713.422056, 4.116262)"/>
    <path style="stroke: rgba(0, 0, 0, 0); fill: rgb(80, 80, 80);" d="M 331.379 134.215 C 260.452 134.215 269.018 -14.395 352.697 -5.248 C 420.909 2.222 455.902 113.064 374.152 130.932 C 359.535 134.13 343.906 136.671 330.197 133.971" transform="matrix(-0.945519, 0.325568, -0.325568, -0.945519, 706.973135, 11.149801)"/>
    <path style="stroke: rgba(0, 0, 0, 0); fill: rgb(36, 36, 36);" d="M 423.853 31.683 C 414.169 59.987 419.734 91.168 425.756 119.387 C 427.726 128.531 425.375 149.968 413.268 145.262 C 400.612 140.322 395.949 113.636 394.06 100.276 C 387.473 53.974 401.561 4.389 434.139 -27.369 C 445.315 -38.283 466.649 -52.819 461.307 -27.886 C 457.86 -11.636 441.078 1.63 431.368 12.996" transform="matrix(-0.945519, 0.325568, -0.325568, -0.945519, 848.326929, -37.652972)"/>
    <path style="stroke: rgba(0, 0, 0, 0); fill: rgb(46, 46, 46);" d="M 282.342 104.398 C 291.661 97.086 294.914 77.58 297.869 63.552 C 302.819 40.13 295.081 11.622 278.84 -6.416 C 270.458 -15.721 278.309 -26.336 288.782 -20.445 C 297.265 -15.684 311.184 0.227 314.676 10.323 C 325.112 40.367 323.393 81.976 311.406 111.134 C 306.919 122.03 299.133 132.897 290.555 139.136 C 281.859 145.459 270.596 157.23 261.898 150.898 C 250.257 142.439 259.883 131.157 270.484 120.063" transform="matrix(-0.945519, 0.325568, -0.325568, -0.945519, 583.649696, 32.902524)"/>
    <path style="stroke: rgba(0, 0, 0, 0); fill: rgb(85, 85, 85);" d="M 277.29 102.898 C 283.153 96.896 285.197 80.882 287.064 69.355 C 290.179 50.123 285.29 26.72 275.078 11.911 C 269.791 4.259 274.744 -4.451 281.341 0.395 C 286.675 4.299 295.419 17.359 297.63 25.659 C 304.2 50.312 303.121 84.485 295.567 108.431 C 292.741 117.38 287.854 126.31 282.456 131.417 C 276.983 136.612 269.894 146.283 264.421 141.082 C 257.09 134.138 263.149 124.879 269.818 115.772" transform="matrix(-0.945519, 0.325568, -0.325568, -0.945519, 570.745581, 46.060045)"/>
    <path style="stroke: rgba(0, 0, 0, 0);" d="M 564.031 192.085 C 442.32 192.085 456.984 -84.433 600.595 -67.421 C 717.701 -53.543 777.737 152.763 637.436 185.997 C 612.377 191.954 585.53 196.678 561.989 191.654" transform="matrix(-0.945519, 0.325568, -0.325568, -0.945519, 1188.477773, -73.283855)"/>
    <path style="stroke: rgba(0, 0, 0, 0); fill: rgb(80, 80, 80);" d="M 575.383 135.263 C 504.456 135.263 513.022 -13.347 596.701 -4.2 C 664.913 3.27 699.906 114.112 618.156 131.98 C 603.539 135.178 587.91 137.719 574.201 135.019" transform="matrix(-0.945519, 0.325568, -0.325568, -0.945519, 1182.028663, -66.251169)"/>
    <path style="stroke: rgba(0, 0, 0, 0); fill: rgb(36, 36, 36);" d="M 667.857 32.731 C 658.173 61.035 663.738 92.216 669.76 120.436 C 671.73 129.58 669.379 151.017 657.272 146.311 C 644.616 141.371 639.953 114.685 638.064 101.325 C 631.477 55.022 645.565 5.437 678.143 -26.321 C 689.319 -37.235 710.653 -51.771 705.311 -26.838 C 701.864 -10.588 685.082 2.678 675.372 14.044" transform="matrix(-0.945519, 0.325568, -0.325568, -0.945519, 1323.382625, -115.05294)"/>
    <path style="stroke: rgba(0, 0, 0, 0); fill: rgb(46, 46, 46);" d="M 526.346 105.446 C 535.665 98.134 538.918 78.628 541.873 64.6 C 546.823 41.178 539.085 12.67 522.844 -5.368 C 514.462 -14.673 522.313 -25.288 532.786 -19.397 C 541.269 -14.636 555.188 1.275 558.68 11.371 C 569.116 41.415 567.397 83.024 555.41 112.182 C 550.923 123.078 543.137 133.945 534.559 140.184 C 525.863 146.507 514.6 158.278 505.902 151.946 C 494.261 143.487 503.887 132.205 514.488 121.111" transform="matrix(-0.945519, 0.325568, -0.325568, -0.945519, 1058.70523, -44.498417)"/>
    <path style="stroke: rgba(0, 0, 0, 0); fill: rgb(85, 85, 85);" d="M 521.294 103.946 C 527.157 97.944 529.201 81.93 531.068 70.403 C 534.183 51.171 529.294 27.768 519.082 12.959 C 513.795 5.307 518.748 -3.403 525.345 1.443 C 530.679 5.347 539.423 18.407 541.634 26.707 C 548.204 51.36 547.125 85.533 539.571 109.479 C 536.745 118.428 531.858 127.358 526.46 132.465 C 520.987 137.66 513.898 147.331 508.425 142.13 C 501.094 135.186 507.153 125.927 513.822 116.82" transform="matrix(-0.945519, 0.325568, -0.325568, -0.945519, 1045.801111, -31.340916)"/>
    <path style="stroke: rgba(0, 0, 0, 0);" d="M 808.647 192.376 C 686.932 192.376 701.596 -84.143 845.211 -67.131 C 962.317 -53.253 1022.353 153.054 882.052 186.288 C 856.993 192.245 830.146 196.969 806.605 191.945" transform="matrix(-0.945519, 0.325568, -0.325568, -0.945519, 1664.474509, -152.357222)"/>
    <path style="stroke: rgba(0, 0, 0, 0); fill: rgb(80, 80, 80);" d="M 819.999 135.554 C 749.069 135.554 757.635 -13.057 841.317 -3.91 C 909.529 3.56 944.522 114.403 862.772 132.271 C 848.155 135.469 832.526 138.01 818.817 135.31" transform="matrix(-0.945519, 0.325568, -0.325568, -0.945519, 1658.02603, -145.324779)"/>
    <path style="stroke: rgba(0, 0, 0, 0); fill: rgb(36, 36, 36);" d="M 912.471 33.022 C 902.787 61.326 908.352 92.507 914.374 120.727 C 916.345 129.871 913.993 151.308 901.886 146.602 C 889.23 141.662 884.567 114.976 882.678 101.616 C 876.091 55.313 890.179 5.728 922.759 -26.03 C 933.935 -36.945 955.269 -51.481 949.927 -26.547 C 946.48 -10.297 929.698 2.969 919.988 14.335" transform="matrix(-0.945519, 0.325568, -0.325568, -0.945519, 1799.380282, -194.126271)"/>
    <path style="stroke: rgba(0, 0, 0, 0); fill: rgb(46, 46, 46);" d="M 770.962 105.737 C 780.281 98.425 783.534 78.919 786.489 64.891 C 791.439 41.468 783.701 12.96 767.46 -5.078 C 759.078 -14.383 766.929 -24.998 777.402 -19.107 C 785.885 -14.346 799.804 1.565 803.296 11.661 C 813.732 41.705 812.013 83.315 800.026 112.473 C 795.539 123.369 787.753 134.236 779.175 140.475 C 770.479 146.798 759.216 158.569 750.518 152.237 C 738.877 143.778 748.503 132.496 759.104 121.402" transform="matrix(-0.945519, 0.325568, -0.325568, -0.945519, 1534.704771, -123.572337)"/>
    <path style="stroke: rgba(0, 0, 0, 0); fill: rgb(85, 85, 85);" d="M 765.91 104.237 C 771.773 98.235 773.817 82.221 775.684 70.694 C 778.799 51.461 773.91 28.058 763.698 13.249 C 758.411 5.597 763.364 -3.113 769.961 1.733 C 775.295 5.637 784.039 18.697 786.25 26.997 C 792.82 51.65 791.741 85.824 784.187 109.77 C 781.361 118.719 776.474 127.649 771.076 132.756 C 765.603 137.951 758.514 147.622 753.041 142.421 C 745.71 135.477 751.769 126.218 758.438 117.111" transform="matrix(-0.945519, 0.325568, -0.325568, -0.945519, 1521.800743, -110.414846)"/>
  </g><g transform="matrix(0.9187132120132446, 0, 0, 0.9187132120132446, 1181.455078125, 122.73162841796875)">
    <path style="stroke: rgba(0, 0, 0, 0);" d="M 320.027 191.036 C 198.316 191.036 212.98 -85.481 356.591 -68.469 C 473.697 -54.591 533.733 151.715 393.432 184.948 C 368.373 190.905 341.526 195.629 317.985 190.605" transform="matrix(-0.945519, 0.325568, -0.325568, -0.945519, 713.422056, 4.116262)"/>
    <path style="stroke: rgba(0, 0, 0, 0); fill: rgb(80, 80, 80);" d="M 331.379 134.215 C 260.452 134.215 269.018 -14.395 352.697 -5.248 C 420.909 2.222 455.902 113.064 374.152 130.932 C 359.535 134.13 343.906 136.671 330.197 133.971" transform="matrix(-0.945519, 0.325568, -0.325568, -0.945519, 706.973135, 11.149801)"/>
    <path style="stroke: rgba(0, 0, 0, 0); fill: rgb(36, 36, 36);" d="M 423.853 31.683 C 414.169 59.987 419.734 91.168 425.756 119.387 C 427.726 128.531 425.375 149.968 413.268 145.262 C 400.612 140.322 395.949 113.636 394.06 100.276 C 387.473 53.974 401.561 4.389 434.139 -27.369 C 445.315 -38.283 466.649 -52.819 461.307 -27.886 C 457.86 -11.636 441.078 1.63 431.368 12.996" transform="matrix(-0.945519, 0.325568, -0.325568, -0.945519, 848.326929, -37.652972)"/>
    <path style="stroke: rgba(0, 0, 0, 0); fill: rgb(46, 46, 46);" d="M 282.342 104.398 C 291.661 97.086 294.914 77.58 297.869 63.552 C 302.819 40.13 295.081 11.622 278.84 -6.416 C 270.458 -15.721 278.309 -26.336 288.782 -20.445 C 297.265 -15.684 311.184 0.227 314.676 10.323 C 325.112 40.367 323.393 81.976 311.406 111.134 C 306.919 122.03 299.133 132.897 290.555 139.136 C 281.859 145.459 270.596 157.23 261.898 150.898 C 250.257 142.439 259.883 131.157 270.484 120.063" transform="matrix(-0.945519, 0.325568, -0.325568, -0.945519, 583.649696, 32.902524)"/>
    <path style="stroke: rgba(0, 0, 0, 0); fill: rgb(85, 85, 85);" d="M 277.29 102.898 C 283.153 96.896 285.197 80.882 287.064 69.355 C 290.179 50.123 285.29 26.72 275.078 11.911 C 269.791 4.259 274.744 -4.451 281.341 0.395 C 286.675 4.299 295.419 17.359 297.63 25.659 C 304.2 50.312 303.121 84.485 295.567 108.431 C 292.741 117.38 287.854 126.31 282.456 131.417 C 276.983 136.612 269.894 146.283 264.421 141.082 C 257.09 134.138 263.149 124.879 269.818 115.772" transform="matrix(-0.945519, 0.325568, -0.325568, -0.945519, 570.745581, 46.060045)"/>
  </g><g transform="matrix(0.9187132120132446, 0, 0, 0.9187132120132446, -30.070783615112305, 328.5872497558594)">
    <path style="stroke: rgba(0, 0, 0, 0);" d="M 65.787 191.699 C -55.916 191.699 -41.254 -84.823 102.344 -67.811 C 219.449 -53.933 279.485 152.378 139.185 185.611 C 114.126 191.568 87.281 196.292 63.745 191.268" transform="matrix(-0.945519, 0.325568, -0.325568, -0.945519, 219.005431, 88.174066)"/>
    <path style="stroke: rgba(0, 0, 0, 0); fill: rgb(80, 80, 80);" d="M 77.135 134.878 C 6.209 134.878 14.775 -13.736 98.45 -4.589 C 166.662 2.881 201.655 113.727 119.905 131.595 C 105.288 134.793 89.659 137.334 75.953 134.634" transform="matrix(-0.945519, 0.325568, -0.325568, -0.945519, 212.54943, 95.209888)"/>
    <path style="stroke: rgba(0, 0, 0, 0); fill: rgb(36, 36, 36);" d="M 169.61 32.343 C 159.926 60.65 165.491 91.831 171.513 120.05 C 173.483 129.194 171.132 150.631 159.025 145.925 C 146.369 140.985 141.706 114.299 139.817 100.939 C 133.23 54.637 147.318 5.049 179.896 -26.71 C 191.072 -37.624 212.406 -52.16 207.064 -27.227 C 203.617 -10.976 186.835 2.29 177.125 13.656" transform="matrix(-0.945519, 0.325568, -0.325568, -0.945519, 353.907614, 46.406358)"/>
    <path style="stroke: rgba(0, 0, 0, 0); fill: rgb(46, 46, 46);" d="M 28.095 105.059 C 37.414 97.746 40.667 78.24 43.622 64.212 C 48.572 40.789 40.834 12.281 24.593 -5.758 C 16.211 -15.063 24.062 -25.678 34.535 -19.787 C 43.018 -15.026 56.937 0.885 60.429 10.982 C 70.865 41.026 69.146 82.636 57.159 111.795 C 52.672 122.693 44.886 133.56 36.308 139.799 C 27.612 146.122 16.349 157.893 7.651 151.561 C -3.99 143.102 5.636 131.82 16.237 120.726" transform="matrix(-0.945519, 0.325568, -0.325568, -0.945519, 89.22245, 116.9622)"/>
    <path style="stroke: rgba(0, 0, 0, 0); fill: rgb(85, 85, 85);" d="M 23.043 103.558 C 28.906 97.556 30.95 81.541 32.817 70.014 C 35.932 50.782 31.043 27.378 20.831 12.569 C 15.544 4.917 20.497 -3.793 27.094 1.053 C 32.428 4.957 41.172 18.017 43.383 26.317 C 49.953 50.971 48.874 85.144 41.32 109.091 C 38.494 118.041 33.607 126.971 28.209 132.078 C 22.736 137.274 15.647 146.946 10.174 141.744 C 2.843 134.799 8.902 125.54 15.571 116.433" transform="matrix(-0.945519, 0.325568, -0.325568, -0.945519, 76.31825, 130.119097)"/>
  </g><g transform="matrix(0.9187132120132446, 0, 0, 0.9187132120132446, -39.39131546020507, 330.5581359863281)">
    <path style="stroke: rgba(0, 0, 0, 0);" d="M 320.027 191.036 C 198.316 191.036 212.98 -85.481 356.591 -68.469 C 473.697 -54.591 533.733 151.715 393.432 184.948 C 368.373 190.905 341.526 195.629 317.985 190.605" transform="matrix(-0.945519, 0.325568, -0.325568, -0.945519, 713.422056, 4.116262)"/>
    <path style="stroke: rgba(0, 0, 0, 0); fill: rgb(80, 80, 80);" d="M 331.379 134.215 C 260.452 134.215 269.018 -14.395 352.697 -5.248 C 420.909 2.222 455.902 113.064 374.152 130.932 C 359.535 134.13 343.906 136.671 330.197 133.971" transform="matrix(-0.945519, 0.325568, -0.325568, -0.945519, 706.973135, 11.149801)"/>
    <path style="stroke: rgba(0, 0, 0, 0); fill: rgb(36, 36, 36);" d="M 423.853 31.683 C 414.169 59.987 419.734 91.168 425.756 119.387 C 427.726 128.531 425.375 149.968 413.268 145.262 C 400.612 140.322 395.949 113.636 394.06 100.276 C 387.473 53.974 401.561 4.389 434.139 -27.369 C 445.315 -38.283 466.649 -52.819 461.307 -27.886 C 457.86 -11.636 441.078 1.63 431.368 12.996" transform="matrix(-0.945519, 0.325568, -0.325568, -0.945519, 848.326929, -37.652972)"/>
    <path style="stroke: rgba(0, 0, 0, 0); fill: rgb(46, 46, 46);" d="M 282.342 104.398 C 291.661 97.086 294.914 77.58 297.869 63.552 C 302.819 40.13 295.081 11.622 278.84 -6.416 C 270.458 -15.721 278.309 -26.336 288.782 -20.445 C 297.265 -15.684 311.184 0.227 314.676 10.323 C 325.112 40.367 323.393 81.976 311.406 111.134 C 306.919 122.03 299.133 132.897 290.555 139.136 C 281.859 145.459 270.596 157.23 261.898 150.898 C 250.257 142.439 259.883 131.157 270.484 120.063" transform="matrix(-0.945519, 0.325568, -0.325568, -0.945519, 583.649696, 32.902524)"/>
    <path style="stroke: rgba(0, 0, 0, 0); fill: rgb(85, 85, 85);" d="M 277.29 102.898 C 283.153 96.896 285.197 80.882 287.064 69.355 C 290.179 50.123 285.29 26.72 275.078 11.911 C 269.791 4.259 274.744 -4.451 281.341 0.395 C 286.675 4.299 295.419 17.359 297.63 25.659 C 304.2 50.312 303.121 84.485 295.567 108.431 C 292.741 117.38 287.854 126.31 282.456 131.417 C 276.983 136.612 269.894 146.283 264.421 141.082 C 257.09 134.138 263.149 124.879 269.818 115.772" transform="matrix(-0.945519, 0.325568, -0.325568, -0.945519, 570.745581, 46.060045)"/>
  </g><g transform="matrix(0.9187132120132446, 0, 0, 0.9187132120132446, 184.47279357910156, 329.2081604003906)">
    <path style="stroke: rgba(0, 0, 0, 0);" d="M 320.027 191.036 C 198.316 191.036 212.98 -85.481 356.591 -68.469 C 473.697 -54.591 533.733 151.715 393.432 184.948 C 368.373 190.905 341.526 195.629 317.985 190.605" transform="matrix(-0.945519, 0.325568, -0.325568, -0.945519, 713.422056, 4.116262)"/>
    <path style="stroke: rgba(0, 0, 0, 0); fill: rgb(80, 80, 80);" d="M 331.379 134.215 C 260.452 134.215 269.018 -14.395 352.697 -5.248 C 420.909 2.222 455.902 113.064 374.152 130.932 C 359.535 134.13 343.906 136.671 330.197 133.971" transform="matrix(-0.945519, 0.325568, -0.325568, -0.945519, 706.973135, 11.149801)"/>
    <path style="stroke: rgba(0, 0, 0, 0); fill: rgb(36, 36, 36);" d="M 423.853 31.683 C 414.169 59.987 419.734 91.168 425.756 119.387 C 427.726 128.531 425.375 149.968 413.268 145.262 C 400.612 140.322 395.949 113.636 394.06 100.276 C 387.473 53.974 401.561 4.389 434.139 -27.369 C 445.315 -38.283 466.649 -52.819 461.307 -27.886 C 457.86 -11.636 441.078 1.63 431.368 12.996" transform="matrix(-0.945519, 0.325568, -0.325568, -0.945519, 848.326929, -37.652972)"/>
    <path style="stroke: rgba(0, 0, 0, 0); fill: rgb(46, 46, 46);" d="M 282.342 104.398 C 291.661 97.086 294.914 77.58 297.869 63.552 C 302.819 40.13 295.081 11.622 278.84 -6.416 C 270.458 -15.721 278.309 -26.336 288.782 -20.445 C 297.265 -15.684 311.184 0.227 314.676 10.323 C 325.112 40.367 323.393 81.976 311.406 111.134 C 306.919 122.03 299.133 132.897 290.555 139.136 C 281.859 145.459 270.596 157.23 261.898 150.898 C 250.257 142.439 259.883 131.157 270.484 120.063" transform="matrix(-0.945519, 0.325568, -0.325568, -0.945519, 583.649696, 32.902524)"/>
    <path style="stroke: rgba(0, 0, 0, 0); fill: rgb(85, 85, 85);" d="M 277.29 102.898 C 283.153 96.896 285.197 80.882 287.064 69.355 C 290.179 50.123 285.29 26.72 275.078 11.911 C 269.791 4.259 274.744 -4.451 281.341 0.395 C 286.675 4.299 295.419 17.359 297.63 25.659 C 304.2 50.312 303.121 84.485 295.567 108.431 C 292.741 117.38 287.854 126.31 282.456 131.417 C 276.983 136.612 269.894 146.283 264.421 141.082 C 257.09 134.138 263.149 124.879 269.818 115.772" transform="matrix(-0.945519, 0.325568, -0.325568, -0.945519, 570.745581, 46.060045)"/>
  </g><g transform="matrix(0.9187132120132446, 0, 0, 0.9187132120132446, 408.26409912109375, 329.2525939941406)">
    <path style="stroke: rgba(0, 0, 0, 0);" d="M 320.027 191.036 C 198.316 191.036 212.98 -85.481 356.591 -68.469 C 473.697 -54.591 533.733 151.715 393.432 184.948 C 368.373 190.905 341.526 195.629 317.985 190.605" transform="matrix(-0.945519, 0.325568, -0.325568, -0.945519, 713.422056, 4.116262)"/>
    <path style="stroke: rgba(0, 0, 0, 0); fill: rgb(80, 80, 80);" d="M 331.379 134.215 C 260.452 134.215 269.018 -14.395 352.697 -5.248 C 420.909 2.222 455.902 113.064 374.152 130.932 C 359.535 134.13 343.906 136.671 330.197 133.971" transform="matrix(-0.945519, 0.325568, -0.325568, -0.945519, 706.973135, 11.149801)"/>
    <path style="stroke: rgba(0, 0, 0, 0); fill: rgb(36, 36, 36);" d="M 423.853 31.683 C 414.169 59.987 419.734 91.168 425.756 119.387 C 427.726 128.531 425.375 149.968 413.268 145.262 C 400.612 140.322 395.949 113.636 394.06 100.276 C 387.473 53.974 401.561 4.389 434.139 -27.369 C 445.315 -38.283 466.649 -52.819 461.307 -27.886 C 457.86 -11.636 441.078 1.63 431.368 12.996" transform="matrix(-0.945519, 0.325568, -0.325568, -0.945519, 848.326929, -37.652972)"/>
    <path style="stroke: rgba(0, 0, 0, 0); fill: rgb(46, 46, 46);" d="M 282.342 104.398 C 291.661 97.086 294.914 77.58 297.869 63.552 C 302.819 40.13 295.081 11.622 278.84 -6.416 C 270.458 -15.721 278.309 -26.336 288.782 -20.445 C 297.265 -15.684 311.184 0.227 314.676 10.323 C 325.112 40.367 323.393 81.976 311.406 111.134 C 306.919 122.03 299.133 132.897 290.555 139.136 C 281.859 145.459 270.596 157.23 261.898 150.898 C 250.257 142.439 259.883 131.157 270.484 120.063" transform="matrix(-0.945519, 0.325568, -0.325568, -0.945519, 583.649696, 32.902524)"/>
    <path style="stroke: rgba(0, 0, 0, 0); fill: rgb(85, 85, 85);" d="M 277.29 102.898 C 283.153 96.896 285.197 80.882 287.064 69.355 C 290.179 50.123 285.29 26.72 275.078 11.911 C 269.791 4.259 274.744 -4.451 281.341 0.395 C 286.675 4.299 295.419 17.359 297.63 25.659 C 304.2 50.312 303.121 84.485 295.567 108.431 C 292.741 117.38 287.854 126.31 282.456 131.417 C 276.983 136.612 269.894 146.283 264.421 141.082 C 257.09 134.138 263.149 124.879 269.818 115.772" transform="matrix(-0.945519, 0.325568, -0.325568, -0.945519, 570.745581, 46.060045)"/>
    <path style="stroke: rgba(0, 0, 0, 0);" d="M 564.031 192.085 C 442.32 192.085 456.984 -84.433 600.595 -67.421 C 717.701 -53.543 777.737 152.763 637.436 185.997 C 612.377 191.954 585.53 196.678 561.989 191.654" transform="matrix(-0.945519, 0.325568, -0.325568, -0.945519, 1188.477773, -73.283855)"/>
    <path style="stroke: rgba(0, 0, 0, 0); fill: rgb(80, 80, 80);" d="M 575.383 135.263 C 504.456 135.263 513.022 -13.347 596.701 -4.2 C 664.913 3.27 699.906 114.112 618.156 131.98 C 603.539 135.178 587.91 137.719 574.201 135.019" transform="matrix(-0.945519, 0.325568, -0.325568, -0.945519, 1182.028663, -66.251169)"/>
    <path style="stroke: rgba(0, 0, 0, 0); fill: rgb(36, 36, 36);" d="M 667.857 32.731 C 658.173 61.035 663.738 92.216 669.76 120.436 C 671.73 129.58 669.379 151.017 657.272 146.311 C 644.616 141.371 639.953 114.685 638.064 101.325 C 631.477 55.022 645.565 5.437 678.143 -26.321 C 689.319 -37.235 710.653 -51.771 705.311 -26.838 C 701.864 -10.588 685.082 2.678 675.372 14.044" transform="matrix(-0.945519, 0.325568, -0.325568, -0.945519, 1323.382625, -115.05294)"/>
    <path style="stroke: rgba(0, 0, 0, 0); fill: rgb(46, 46, 46);" d="M 526.346 105.446 C 535.665 98.134 538.918 78.628 541.873 64.6 C 546.823 41.178 539.085 12.67 522.844 -5.368 C 514.462 -14.673 522.313 -25.288 532.786 -19.397 C 541.269 -14.636 555.188 1.275 558.68 11.371 C 569.116 41.415 567.397 83.024 555.41 112.182 C 550.923 123.078 543.137 133.945 534.559 140.184 C 525.863 146.507 514.6 158.278 505.902 151.946 C 494.261 143.487 503.887 132.205 514.488 121.111" transform="matrix(-0.945519, 0.325568, -0.325568, -0.945519, 1058.70523, -44.498417)"/>
    <path style="stroke: rgba(0, 0, 0, 0); fill: rgb(85, 85, 85);" d="M 521.294 103.946 C 527.157 97.944 529.201 81.93 531.068 70.403 C 534.183 51.171 529.294 27.768 519.082 12.959 C 513.795 5.307 518.748 -3.403 525.345 1.443 C 530.679 5.347 539.423 18.407 541.634 26.707 C 548.204 51.36 547.125 85.533 539.571 109.479 C 536.745 118.428 531.858 127.358 526.46 132.465 C 520.987 137.66 513.898 147.331 508.425 142.13 C 501.094 135.186 507.153 125.927 513.822 116.82" transform="matrix(-0.945519, 0.325568, -0.325568, -0.945519, 1045.801111, -31.340916)"/>
    <path style="stroke: rgba(0, 0, 0, 0);" d="M 808.647 192.376 C 686.932 192.376 701.596 -84.143 845.211 -67.131 C 962.317 -53.253 1022.353 153.054 882.052 186.288 C 856.993 192.245 830.146 196.969 806.605 191.945" transform="matrix(-0.945519, 0.325568, -0.325568, -0.945519, 1664.474509, -152.357222)"/>
    <path style="stroke: rgba(0, 0, 0, 0); fill: rgb(80, 80, 80);" d="M 819.999 135.554 C 749.069 135.554 757.635 -13.057 841.317 -3.91 C 909.529 3.56 944.522 114.403 862.772 132.271 C 848.155 135.469 832.526 138.01 818.817 135.31" transform="matrix(-0.945519, 0.325568, -0.325568, -0.945519, 1658.02603, -145.324779)"/>
    <path style="stroke: rgba(0, 0, 0, 0); fill: rgb(36, 36, 36);" d="M 912.471 33.022 C 902.787 61.326 908.352 92.507 914.374 120.727 C 916.345 129.871 913.993 151.308 901.886 146.602 C 889.23 141.662 884.567 114.976 882.678 101.616 C 876.091 55.313 890.179 5.728 922.759 -26.03 C 933.935 -36.945 955.269 -51.481 949.927 -26.547 C 946.48 -10.297 929.698 2.969 919.988 14.335" transform="matrix(-0.945519, 0.325568, -0.325568, -0.945519, 1799.380282, -194.126271)"/>
    <path style="stroke: rgba(0, 0, 0, 0); fill: rgb(46, 46, 46);" d="M 770.962 105.737 C 780.281 98.425 783.534 78.919 786.489 64.891 C 791.439 41.468 783.701 12.96 767.46 -5.078 C 759.078 -14.383 766.929 -24.998 777.402 -19.107 C 785.885 -14.346 799.804 1.565 803.296 11.661 C 813.732 41.705 812.013 83.315 800.026 112.473 C 795.539 123.369 787.753 134.236 779.175 140.475 C 770.479 146.798 759.216 158.569 750.518 152.237 C 738.877 143.778 748.503 132.496 759.104 121.402" transform="matrix(-0.945519, 0.325568, -0.325568, -0.945519, 1534.704771, -123.572337)"/>
    <path style="stroke: rgba(0, 0, 0, 0); fill: rgb(85, 85, 85);" d="M 765.91 104.237 C 771.773 98.235 773.817 82.221 775.684 70.694 C 778.799 51.461 773.91 28.058 763.698 13.249 C 758.411 5.597 763.364 -3.113 769.961 1.733 C 775.295 5.637 784.039 18.697 786.25 26.997 C 792.82 51.65 791.741 85.824 784.187 109.77 C 781.361 118.719 776.474 127.649 771.076 132.756 C 765.603 137.951 758.514 147.622 753.041 142.421 C 745.71 135.477 751.769 126.218 758.438 117.111" transform="matrix(-0.945519, 0.325568, -0.325568, -0.945519, 1521.800743, -110.414846)"/>
  </g><g transform="matrix(0.9187132120132446, 0, 0, 0.9187132120132446, 1080.8134765625, 331.17901611328125)">
    <path style="stroke: rgba(0, 0, 0, 0);" d="M 320.027 191.036 C 198.316 191.036 212.98 -85.481 356.591 -68.469 C 473.697 -54.591 533.733 151.715 393.432 184.948 C 368.373 190.905 341.526 195.629 317.985 190.605" transform="matrix(-0.945519, 0.325568, -0.325568, -0.945519, 713.422056, 4.116262)"/>
    <path style="stroke: rgba(0, 0, 0, 0); fill: rgb(80, 80, 80);" d="M 331.379 134.215 C 260.452 134.215 269.018 -14.395 352.697 -5.248 C 420.909 2.222 455.902 113.064 374.152 130.932 C 359.535 134.13 343.906 136.671 330.197 133.971" transform="matrix(-0.945519, 0.325568, -0.325568, -0.945519, 706.973135, 11.149801)"/>
    <path style="stroke: rgba(0, 0, 0, 0); fill: rgb(36, 36, 36);" d="M 423.853 31.683 C 414.169 59.987 419.734 91.168 425.756 119.387 C 427.726 128.531 425.375 149.968 413.268 145.262 C 400.612 140.322 395.949 113.636 394.06 100.276 C 387.473 53.974 401.561 4.389 434.139 -27.369 C 445.315 -38.283 466.649 -52.819 461.307 -27.886 C 457.86 -11.636 441.078 1.63 431.368 12.996" transform="matrix(-0.945519, 0.325568, -0.325568, -0.945519, 848.326929, -37.652972)"/>
    <path style="stroke: rgba(0, 0, 0, 0); fill: rgb(46, 46, 46);" d="M 282.342 104.398 C 291.661 97.086 294.914 77.58 297.869 63.552 C 302.819 40.13 295.081 11.622 278.84 -6.416 C 270.458 -15.721 278.309 -26.336 288.782 -20.445 C 297.265 -15.684 311.184 0.227 314.676 10.323 C 325.112 40.367 323.393 81.976 311.406 111.134 C 306.919 122.03 299.133 132.897 290.555 139.136 C 281.859 145.459 270.596 157.23 261.898 150.898 C 250.257 142.439 259.883 131.157 270.484 120.063" transform="matrix(-0.945519, 0.325568, -0.325568, -0.945519, 583.649696, 32.902524)"/>
    <path style="stroke: rgba(0, 0, 0, 0); fill: rgb(85, 85, 85);" d="M 277.29 102.898 C 283.153 96.896 285.197 80.882 287.064 69.355 C 290.179 50.123 285.29 26.72 275.078 11.911 C 269.791 4.259 274.744 -4.451 281.341 0.395 C 286.675 4.299 295.419 17.359 297.63 25.659 C 304.2 50.312 303.121 84.485 295.567 108.431 C 292.741 117.38 287.854 126.31 282.456 131.417 C 276.983 136.612 269.894 146.283 264.421 141.082 C 257.09 134.138 263.149 124.879 269.818 115.772" transform="matrix(-0.945519, 0.325568, -0.325568, -0.945519, 570.745581, 46.060045)"/>
  </g><g transform="matrix(0.9187132120132446, 0, 0, 0.9187132120132446, -49.557044982910156, -88.070556640625)">
    <path style="stroke: rgba(0, 0, 0, 0);" d="M 65.787 191.699 C -55.916 191.699 -41.254 -84.823 102.344 -67.811 C 219.449 -53.933 279.485 152.378 139.185 185.611 C 114.126 191.568 87.281 196.292 63.745 191.268" transform="matrix(-0.945519, 0.325568, -0.325568, -0.945519, 219.005431, 88.174066)"/>
    <path style="stroke: rgba(0, 0, 0, 0); fill: rgb(80, 80, 80);" d="M 77.135 134.878 C 6.209 134.878 14.775 -13.736 98.45 -4.589 C 166.662 2.881 201.655 113.727 119.905 131.595 C 105.288 134.793 89.659 137.334 75.953 134.634" transform="matrix(-0.945519, 0.325568, -0.325568, -0.945519, 212.54943, 95.209888)"/>
    <path style="stroke: rgba(0, 0, 0, 0); fill: rgb(36, 36, 36);" d="M 169.61 32.343 C 159.926 60.65 165.491 91.831 171.513 120.05 C 173.483 129.194 171.132 150.631 159.025 145.925 C 146.369 140.985 141.706 114.299 139.817 100.939 C 133.23 54.637 147.318 5.049 179.896 -26.71 C 191.072 -37.624 212.406 -52.16 207.064 -27.227 C 203.617 -10.976 186.835 2.29 177.125 13.656" transform="matrix(-0.945519, 0.325568, -0.325568, -0.945519, 353.907614, 46.406358)"/>
    <path style="stroke: rgba(0, 0, 0, 0); fill: rgb(46, 46, 46);" d="M 28.095 105.059 C 37.414 97.746 40.667 78.24 43.622 64.212 C 48.572 40.789 40.834 12.281 24.593 -5.758 C 16.211 -15.063 24.062 -25.678 34.535 -19.787 C 43.018 -15.026 56.937 0.885 60.429 10.982 C 70.865 41.026 69.146 82.636 57.159 111.795 C 52.672 122.693 44.886 133.56 36.308 139.799 C 27.612 146.122 16.349 157.893 7.651 151.561 C -3.99 143.102 5.636 131.82 16.237 120.726" transform="matrix(-0.945519, 0.325568, -0.325568, -0.945519, 89.22245, 116.9622)"/>
    <path style="stroke: rgba(0, 0, 0, 0); fill: rgb(85, 85, 85);" d="M 23.043 103.558 C 28.906 97.556 30.95 81.541 32.817 70.014 C 35.932 50.782 31.043 27.378 20.831 12.569 C 15.544 4.917 20.497 -3.793 27.094 1.053 C 32.428 4.957 41.172 18.017 43.383 26.317 C 49.953 50.971 48.874 85.144 41.32 109.091 C 38.494 118.041 33.607 126.971 28.209 132.078 C 22.736 137.274 15.647 146.946 10.174 141.744 C 2.843 134.799 8.902 125.54 15.571 116.433" transform="matrix(-0.945519, 0.325568, -0.325568, -0.945519, 76.31825, 130.119097)"/>
  </g><g transform="matrix(0.9187132120132446, 0, 0, 0.9187132120132446, -58.877632141113274, -86.09967803955078)">
    <path style="stroke: rgba(0, 0, 0, 0);" d="M 320.027 191.036 C 198.316 191.036 212.98 -85.481 356.591 -68.469 C 473.697 -54.591 533.733 151.715 393.432 184.948 C 368.373 190.905 341.526 195.629 317.985 190.605" transform="matrix(-0.945519, 0.325568, -0.325568, -0.945519, 713.422056, 4.116262)"/>
    <path style="stroke: rgba(0, 0, 0, 0); fill: rgb(80, 80, 80);" d="M 331.379 134.215 C 260.452 134.215 269.018 -14.395 352.697 -5.248 C 420.909 2.222 455.902 113.064 374.152 130.932 C 359.535 134.13 343.906 136.671 330.197 133.971" transform="matrix(-0.945519, 0.325568, -0.325568, -0.945519, 706.973135, 11.149801)"/>
    <path style="stroke: rgba(0, 0, 0, 0); fill: rgb(36, 36, 36);" d="M 423.853 31.683 C 414.169 59.987 419.734 91.168 425.756 119.387 C 427.726 128.531 425.375 149.968 413.268 145.262 C 400.612 140.322 395.949 113.636 394.06 100.276 C 387.473 53.974 401.561 4.389 434.139 -27.369 C 445.315 -38.283 466.649 -52.819 461.307 -27.886 C 457.86 -11.636 441.078 1.63 431.368 12.996" transform="matrix(-0.945519, 0.325568, -0.325568, -0.945519, 848.326929, -37.652972)"/>
    <path style="stroke: rgba(0, 0, 0, 0); fill: rgb(46, 46, 46);" d="M 282.342 104.398 C 291.661 97.086 294.914 77.58 297.869 63.552 C 302.819 40.13 295.081 11.622 278.84 -6.416 C 270.458 -15.721 278.309 -26.336 288.782 -20.445 C 297.265 -15.684 311.184 0.227 314.676 10.323 C 325.112 40.367 323.393 81.976 311.406 111.134 C 306.919 122.03 299.133 132.897 290.555 139.136 C 281.859 145.459 270.596 157.23 261.898 150.898 C 250.257 142.439 259.883 131.157 270.484 120.063" transform="matrix(-0.945519, 0.325568, -0.325568, -0.945519, 583.649696, 32.902524)"/>
    <path style="stroke: rgba(0, 0, 0, 0); fill: rgb(85, 85, 85);" d="M 277.29 102.898 C 283.153 96.896 285.197 80.882 287.064 69.355 C 290.179 50.123 285.29 26.72 275.078 11.911 C 269.791 4.259 274.744 -4.451 281.341 0.395 C 286.675 4.299 295.419 17.359 297.63 25.659 C 304.2 50.312 303.121 84.485 295.567 108.431 C 292.741 117.38 287.854 126.31 282.456 131.417 C 276.983 136.612 269.894 146.283 264.421 141.082 C 257.09 134.138 263.149 124.879 269.818 115.772" transform="matrix(-0.945519, 0.325568, -0.325568, -0.945519, 570.745581, 46.060045)"/>
  </g><g transform="matrix(0.9187132120132446, 0, 0, 0.9187132120132446, 164.98651123046878, -87.44965362548828)">
    <path style="stroke: rgba(0, 0, 0, 0);" d="M 320.027 191.036 C 198.316 191.036 212.98 -85.481 356.591 -68.469 C 473.697 -54.591 533.733 151.715 393.432 184.948 C 368.373 190.905 341.526 195.629 317.985 190.605" transform="matrix(-0.945519, 0.325568, -0.325568, -0.945519, 713.422056, 4.116262)"/>
    <path style="stroke: rgba(0, 0, 0, 0); fill: rgb(80, 80, 80);" d="M 331.379 134.215 C 260.452 134.215 269.018 -14.395 352.697 -5.248 C 420.909 2.222 455.902 113.064 374.152 130.932 C 359.535 134.13 343.906 136.671 330.197 133.971" transform="matrix(-0.945519, 0.325568, -0.325568, -0.945519, 706.973135, 11.149801)"/>
    <path style="stroke: rgba(0, 0, 0, 0); fill: rgb(36, 36, 36);" d="M 423.853 31.683 C 414.169 59.987 419.734 91.168 425.756 119.387 C 427.726 128.531 425.375 149.968 413.268 145.262 C 400.612 140.322 395.949 113.636 394.06 100.276 C 387.473 53.974 401.561 4.389 434.139 -27.369 C 445.315 -38.283 466.649 -52.819 461.307 -27.886 C 457.86 -11.636 441.078 1.63 431.368 12.996" transform="matrix(-0.945519, 0.325568, -0.325568, -0.945519, 848.326929, -37.652972)"/>
    <path style="stroke: rgba(0, 0, 0, 0); fill: rgb(46, 46, 46);" d="M 282.342 104.398 C 291.661 97.086 294.914 77.58 297.869 63.552 C 302.819 40.13 295.081 11.622 278.84 -6.416 C 270.458 -15.721 278.309 -26.336 288.782 -20.445 C 297.265 -15.684 311.184 0.227 314.676 10.323 C 325.112 40.367 323.393 81.976 311.406 111.134 C 306.919 122.03 299.133 132.897 290.555 139.136 C 281.859 145.459 270.596 157.23 261.898 150.898 C 250.257 142.439 259.883 131.157 270.484 120.063" transform="matrix(-0.945519, 0.325568, -0.325568, -0.945519, 583.649696, 32.902524)"/>
    <path style="stroke: rgba(0, 0, 0, 0); fill: rgb(85, 85, 85);" d="M 277.29 102.898 C 283.153 96.896 285.197 80.882 287.064 69.355 C 290.179 50.123 285.29 26.72 275.078 11.911 C 269.791 4.259 274.744 -4.451 281.341 0.395 C 286.675 4.299 295.419 17.359 297.63 25.659 C 304.2 50.312 303.121 84.485 295.567 108.431 C 292.741 117.38 287.854 126.31 282.456 131.417 C 276.983 136.612 269.894 146.283 264.421 141.082 C 257.09 134.138 263.149 124.879 269.818 115.772" transform="matrix(-0.945519, 0.325568, -0.325568, -0.945519, 570.745581, 46.060045)"/>
  </g><g transform="matrix(0.9187132120132446, 0, 0, 0.9187132120132446, 388.7777709960937, -87.40518951416016)">
    <path style="stroke: rgba(0, 0, 0, 0);" d="M 320.027 191.036 C 198.316 191.036 212.98 -85.481 356.591 -68.469 C 473.697 -54.591 533.733 151.715 393.432 184.948 C 368.373 190.905 341.526 195.629 317.985 190.605" transform="matrix(-0.945519, 0.325568, -0.325568, -0.945519, 713.422056, 4.116262)"/>
    <path style="stroke: rgba(0, 0, 0, 0); fill: rgb(80, 80, 80);" d="M 331.379 134.215 C 260.452 134.215 269.018 -14.395 352.697 -5.248 C 420.909 2.222 455.902 113.064 374.152 130.932 C 359.535 134.13 343.906 136.671 330.197 133.971" transform="matrix(-0.945519, 0.325568, -0.325568, -0.945519, 706.973135, 11.149801)"/>
    <path style="stroke: rgba(0, 0, 0, 0); fill: rgb(36, 36, 36);" d="M 423.853 31.683 C 414.169 59.987 419.734 91.168 425.756 119.387 C 427.726 128.531 425.375 149.968 413.268 145.262 C 400.612 140.322 395.949 113.636 394.06 100.276 C 387.473 53.974 401.561 4.389 434.139 -27.369 C 445.315 -38.283 466.649 -52.819 461.307 -27.886 C 457.86 -11.636 441.078 1.63 431.368 12.996" transform="matrix(-0.945519, 0.325568, -0.325568, -0.945519, 848.326929, -37.652972)"/>
    <path style="stroke: rgba(0, 0, 0, 0); fill: rgb(46, 46, 46);" d="M 282.342 104.398 C 291.661 97.086 294.914 77.58 297.869 63.552 C 302.819 40.13 295.081 11.622 278.84 -6.416 C 270.458 -15.721 278.309 -26.336 288.782 -20.445 C 297.265 -15.684 311.184 0.227 314.676 10.323 C 325.112 40.367 323.393 81.976 311.406 111.134 C 306.919 122.03 299.133 132.897 290.555 139.136 C 281.859 145.459 270.596 157.23 261.898 150.898 C 250.257 142.439 259.883 131.157 270.484 120.063" transform="matrix(-0.945519, 0.325568, -0.325568, -0.945519, 583.649696, 32.902524)"/>
    <path style="stroke: rgba(0, 0, 0, 0); fill: rgb(85, 85, 85);" d="M 277.29 102.898 C 283.153 96.896 285.197 80.882 287.064 69.355 C 290.179 50.123 285.29 26.72 275.078 11.911 C 269.791 4.259 274.744 -4.451 281.341 0.395 C 286.675 4.299 295.419 17.359 297.63 25.659 C 304.2 50.312 303.121 84.485 295.567 108.431 C 292.741 117.38 287.854 126.31 282.456 131.417 C 276.983 136.612 269.894 146.283 264.421 141.082 C 257.09 134.138 263.149 124.879 269.818 115.772" transform="matrix(-0.945519, 0.325568, -0.325568, -0.945519, 570.745581, 46.060045)"/>
    <path style="stroke: rgba(0, 0, 0, 0);" d="M 564.031 192.085 C 442.32 192.085 456.984 -84.433 600.595 -67.421 C 717.701 -53.543 777.737 152.763 637.436 185.997 C 612.377 191.954 585.53 196.678 561.989 191.654" transform="matrix(-0.945519, 0.325568, -0.325568, -0.945519, 1188.477773, -73.283855)"/>
    <path style="stroke: rgba(0, 0, 0, 0); fill: rgb(80, 80, 80);" d="M 575.383 135.263 C 504.456 135.263 513.022 -13.347 596.701 -4.2 C 664.913 3.27 699.906 114.112 618.156 131.98 C 603.539 135.178 587.91 137.719 574.201 135.019" transform="matrix(-0.945519, 0.325568, -0.325568, -0.945519, 1182.028663, -66.251169)"/>
    <path style="stroke: rgba(0, 0, 0, 0); fill: rgb(36, 36, 36);" d="M 667.857 32.731 C 658.173 61.035 663.738 92.216 669.76 120.436 C 671.73 129.58 669.379 151.017 657.272 146.311 C 644.616 141.371 639.953 114.685 638.064 101.325 C 631.477 55.022 645.565 5.437 678.143 -26.321 C 689.319 -37.235 710.653 -51.771 705.311 -26.838 C 701.864 -10.588 685.082 2.678 675.372 14.044" transform="matrix(-0.945519, 0.325568, -0.325568, -0.945519, 1323.382625, -115.05294)"/>
    <path style="stroke: rgba(0, 0, 0, 0); fill: rgb(46, 46, 46);" d="M 526.346 105.446 C 535.665 98.134 538.918 78.628 541.873 64.6 C 546.823 41.178 539.085 12.67 522.844 -5.368 C 514.462 -14.673 522.313 -25.288 532.786 -19.397 C 541.269 -14.636 555.188 1.275 558.68 11.371 C 569.116 41.415 567.397 83.024 555.41 112.182 C 550.923 123.078 543.137 133.945 534.559 140.184 C 525.863 146.507 514.6 158.278 505.902 151.946 C 494.261 143.487 503.887 132.205 514.488 121.111" transform="matrix(-0.945519, 0.325568, -0.325568, -0.945519, 1058.70523, -44.498417)"/>
    <path style="stroke: rgba(0, 0, 0, 0); fill: rgb(85, 85, 85);" d="M 521.294 103.946 C 527.157 97.944 529.201 81.93 531.068 70.403 C 534.183 51.171 529.294 27.768 519.082 12.959 C 513.795 5.307 518.748 -3.403 525.345 1.443 C 530.679 5.347 539.423 18.407 541.634 26.707 C 548.204 51.36 547.125 85.533 539.571 109.479 C 536.745 118.428 531.858 127.358 526.46 132.465 C 520.987 137.66 513.898 147.331 508.425 142.13 C 501.094 135.186 507.153 125.927 513.822 116.82" transform="matrix(-0.945519, 0.325568, -0.325568, -0.945519, 1045.801111, -31.340916)"/>
    <path style="stroke: rgba(0, 0, 0, 0);" d="M 808.647 192.376 C 686.932 192.376 701.596 -84.143 845.211 -67.131 C 962.317 -53.253 1022.353 153.054 882.052 186.288 C 856.993 192.245 830.146 196.969 806.605 191.945" transform="matrix(-0.945519, 0.325568, -0.325568, -0.945519, 1664.474509, -152.357222)"/>
    <path style="stroke: rgba(0, 0, 0, 0); fill: rgb(80, 80, 80);" d="M 819.999 135.554 C 749.069 135.554 757.635 -13.057 841.317 -3.91 C 909.529 3.56 944.522 114.403 862.772 132.271 C 848.155 135.469 832.526 138.01 818.817 135.31" transform="matrix(-0.945519, 0.325568, -0.325568, -0.945519, 1658.02603, -145.324779)"/>
    <path style="stroke: rgba(0, 0, 0, 0); fill: rgb(36, 36, 36);" d="M 912.471 33.022 C 902.787 61.326 908.352 92.507 914.374 120.727 C 916.345 129.871 913.993 151.308 901.886 146.602 C 889.23 141.662 884.567 114.976 882.678 101.616 C 876.091 55.313 890.179 5.728 922.759 -26.03 C 933.935 -36.945 955.269 -51.481 949.927 -26.547 C 946.48 -10.297 929.698 2.969 919.988 14.335" transform="matrix(-0.945519, 0.325568, -0.325568, -0.945519, 1799.380282, -194.126271)"/>
    <path style="stroke: rgba(0, 0, 0, 0); fill: rgb(46, 46, 46);" d="M 770.962 105.737 C 780.281 98.425 783.534 78.919 786.489 64.891 C 791.439 41.468 783.701 12.96 767.46 -5.078 C 759.078 -14.383 766.929 -24.998 777.402 -19.107 C 785.885 -14.346 799.804 1.565 803.296 11.661 C 813.732 41.705 812.013 83.315 800.026 112.473 C 795.539 123.369 787.753 134.236 779.175 140.475 C 770.479 146.798 759.216 158.569 750.518 152.237 C 738.877 143.778 748.503 132.496 759.104 121.402" transform="matrix(-0.945519, 0.325568, -0.325568, -0.945519, 1534.704771, -123.572337)"/>
    <path style="stroke: rgba(0, 0, 0, 0); fill: rgb(85, 85, 85);" d="M 765.91 104.237 C 771.773 98.235 773.817 82.221 775.684 70.694 C 778.799 51.461 773.91 28.058 763.698 13.249 C 758.411 5.597 763.364 -3.113 769.961 1.733 C 775.295 5.637 784.039 18.697 786.25 26.997 C 792.82 51.65 791.741 85.824 784.187 109.77 C 781.361 118.719 776.474 127.649 771.076 132.756 C 765.603 137.951 758.514 147.622 753.041 142.421 C 745.71 135.477 751.769 126.218 758.438 117.111" transform="matrix(-0.945519, 0.325568, -0.325568, -0.945519, 1521.800743, -110.414846)"/>
  </g><g transform="matrix(0.9187132120132446, 0, 0, 0.9187132120132446, 1061.3272705078125, -85.47883605957031)">
    <path style="stroke: rgba(0, 0, 0, 0);" d="M 320.027 191.036 C 198.316 191.036 212.98 -85.481 356.591 -68.469 C 473.697 -54.591 533.733 151.715 393.432 184.948 C 368.373 190.905 341.526 195.629 317.985 190.605" transform="matrix(-0.945519, 0.325568, -0.325568, -0.945519, 713.422056, 4.116262)"/>
    <path style="stroke: rgba(0, 0, 0, 0); fill: rgb(80, 80, 80);" d="M 331.379 134.215 C 260.452 134.215 269.018 -14.395 352.697 -5.248 C 420.909 2.222 455.902 113.064 374.152 130.932 C 359.535 134.13 343.906 136.671 330.197 133.971" transform="matrix(-0.945519, 0.325568, -0.325568, -0.945519, 706.973135, 11.149801)"/>
    <path style="stroke: rgba(0, 0, 0, 0); fill: rgb(36, 36, 36);" d="M 423.853 31.683 C 414.169 59.987 419.734 91.168 425.756 119.387 C 427.726 128.531 425.375 149.968 413.268 145.262 C 400.612 140.322 395.949 113.636 394.06 100.276 C 387.473 53.974 401.561 4.389 434.139 -27.369 C 445.315 -38.283 466.649 -52.819 461.307 -27.886 C 457.86 -11.636 441.078 1.63 431.368 12.996" transform="matrix(-0.945519, 0.325568, -0.325568, -0.945519, 848.326929, -37.652972)"/>
    <path style="stroke: rgba(0, 0, 0, 0); fill: rgb(46, 46, 46);" d="M 282.342 104.398 C 291.661 97.086 294.914 77.58 297.869 63.552 C 302.819 40.13 295.081 11.622 278.84 -6.416 C 270.458 -15.721 278.309 -26.336 288.782 -20.445 C 297.265 -15.684 311.184 0.227 314.676 10.323 C 325.112 40.367 323.393 81.976 311.406 111.134 C 306.919 122.03 299.133 132.897 290.555 139.136 C 281.859 145.459 270.596 157.23 261.898 150.898 C 250.257 142.439 259.883 131.157 270.484 120.063" transform="matrix(-0.945519, 0.325568, -0.325568, -0.945519, 583.649696, 32.902524)"/>
    <path style="stroke: rgba(0, 0, 0, 0); fill: rgb(85, 85, 85);" d="M 277.29 102.898 C 283.153 96.896 285.197 80.882 287.064 69.355 C 290.179 50.123 285.29 26.72 275.078 11.911 C 269.791 4.259 274.744 -4.451 281.341 0.395 C 286.675 4.299 295.419 17.359 297.63 25.659 C 304.2 50.312 303.121 84.485 295.567 108.431 C 292.741 117.38 287.854 126.31 282.456 131.417 C 276.983 136.612 269.894 146.283 264.421 141.082 C 257.09 134.138 263.149 124.879 269.818 115.772" transform="matrix(-0.945519, 0.325568, -0.325568, -0.945519, 570.745581, 46.060045)"/>
  </g><g transform="matrix(0.9187132120132446, 0, 0, 0.9187132120132446, -132.92385864257812, 537.9973754882812)">
    <path style="stroke: rgba(0, 0, 0, 0);" d="M 65.787 191.699 C -55.916 191.699 -41.254 -84.823 102.344 -67.811 C 219.449 -53.933 279.485 152.378 139.185 185.611 C 114.126 191.568 87.281 196.292 63.745 191.268" transform="matrix(-0.945519, 0.325568, -0.325568, -0.945519, 219.005431, 88.174066)"/>
    <path style="stroke: rgba(0, 0, 0, 0); fill: rgb(80, 80, 80);" d="M 77.135 134.878 C 6.209 134.878 14.775 -13.736 98.45 -4.589 C 166.662 2.881 201.655 113.727 119.905 131.595 C 105.288 134.793 89.659 137.334 75.953 134.634" transform="matrix(-0.945519, 0.325568, -0.325568, -0.945519, 212.54943, 95.209888)"/>
    <path style="stroke: rgba(0, 0, 0, 0); fill: rgb(36, 36, 36);" d="M 169.61 32.343 C 159.926 60.65 165.491 91.831 171.513 120.05 C 173.483 129.194 171.132 150.631 159.025 145.925 C 146.369 140.985 141.706 114.299 139.817 100.939 C 133.23 54.637 147.318 5.049 179.896 -26.71 C 191.072 -37.624 212.406 -52.16 207.064 -27.227 C 203.617 -10.976 186.835 2.29 177.125 13.656" transform="matrix(-0.945519, 0.325568, -0.325568, -0.945519, 353.907614, 46.406358)"/>
    <path style="stroke: rgba(0, 0, 0, 0); fill: rgb(46, 46, 46);" d="M 28.095 105.059 C 37.414 97.746 40.667 78.24 43.622 64.212 C 48.572 40.789 40.834 12.281 24.593 -5.758 C 16.211 -15.063 24.062 -25.678 34.535 -19.787 C 43.018 -15.026 56.937 0.885 60.429 10.982 C 70.865 41.026 69.146 82.636 57.159 111.795 C 52.672 122.693 44.886 133.56 36.308 139.799 C 27.612 146.122 16.349 157.893 7.651 151.561 C -3.99 143.102 5.636 131.82 16.237 120.726" transform="matrix(-0.945519, 0.325568, -0.325568, -0.945519, 89.22245, 116.9622)"/>
    <path style="stroke: rgba(0, 0, 0, 0); fill: rgb(85, 85, 85);" d="M 23.043 103.558 C 28.906 97.556 30.95 81.541 32.817 70.014 C 35.932 50.782 31.043 27.378 20.831 12.569 C 15.544 4.917 20.497 -3.793 27.094 1.053 C 32.428 4.957 41.172 18.017 43.383 26.317 C 49.953 50.971 48.874 85.144 41.32 109.091 C 38.494 118.041 33.607 126.971 28.209 132.078 C 22.736 137.274 15.647 146.946 10.174 141.744 C 2.843 134.799 8.902 125.54 15.571 116.433" transform="matrix(-0.945519, 0.325568, -0.325568, -0.945519, 76.31825, 130.119097)"/>
  </g><g transform="matrix(0.9187132120132446, 0, 0, 0.9187132120132446, -142.24444580078125, 539.96826171875)">
    <path style="stroke: rgba(0, 0, 0, 0);" d="M 320.027 191.036 C 198.316 191.036 212.98 -85.481 356.591 -68.469 C 473.697 -54.591 533.733 151.715 393.432 184.948 C 368.373 190.905 341.526 195.629 317.985 190.605" transform="matrix(-0.945519, 0.325568, -0.325568, -0.945519, 713.422056, 4.116262)"/>
    <path style="stroke: rgba(0, 0, 0, 0); fill: rgb(80, 80, 80);" d="M 331.379 134.215 C 260.452 134.215 269.018 -14.395 352.697 -5.248 C 420.909 2.222 455.902 113.064 374.152 130.932 C 359.535 134.13 343.906 136.671 330.197 133.971" transform="matrix(-0.945519, 0.325568, -0.325568, -0.945519, 706.973135, 11.149801)"/>
    <path style="stroke: rgba(0, 0, 0, 0); fill: rgb(36, 36, 36);" d="M 423.853 31.683 C 414.169 59.987 419.734 91.168 425.756 119.387 C 427.726 128.531 425.375 149.968 413.268 145.262 C 400.612 140.322 395.949 113.636 394.06 100.276 C 387.473 53.974 401.561 4.389 434.139 -27.369 C 445.315 -38.283 466.649 -52.819 461.307 -27.886 C 457.86 -11.636 441.078 1.63 431.368 12.996" transform="matrix(-0.945519, 0.325568, -0.325568, -0.945519, 848.326929, -37.652972)"/>
    <path style="stroke: rgba(0, 0, 0, 0); fill: rgb(46, 46, 46);" d="M 282.342 104.398 C 291.661 97.086 294.914 77.58 297.869 63.552 C 302.819 40.13 295.081 11.622 278.84 -6.416 C 270.458 -15.721 278.309 -26.336 288.782 -20.445 C 297.265 -15.684 311.184 0.227 314.676 10.323 C 325.112 40.367 323.393 81.976 311.406 111.134 C 306.919 122.03 299.133 132.897 290.555 139.136 C 281.859 145.459 270.596 157.23 261.898 150.898 C 250.257 142.439 259.883 131.157 270.484 120.063" transform="matrix(-0.945519, 0.325568, -0.325568, -0.945519, 583.649696, 32.902524)"/>
    <path style="stroke: rgba(0, 0, 0, 0); fill: rgb(85, 85, 85);" d="M 277.29 102.898 C 283.153 96.896 285.197 80.882 287.064 69.355 C 290.179 50.123 285.29 26.72 275.078 11.911 C 269.791 4.259 274.744 -4.451 281.341 0.395 C 286.675 4.299 295.419 17.359 297.63 25.659 C 304.2 50.312 303.121 84.485 295.567 108.431 C 292.741 117.38 287.854 126.31 282.456 131.417 C 276.983 136.612 269.894 146.283 264.421 141.082 C 257.09 134.138 263.149 124.879 269.818 115.772" transform="matrix(-0.945519, 0.325568, -0.325568, -0.945519, 570.745581, 46.060045)"/>
  </g><g transform="matrix(0.9187132120132446, 0, 0, 0.9187132120132446, 81.61974334716797, 538.6182861328125)">
    <path style="stroke: rgba(0, 0, 0, 0);" d="M 320.027 191.036 C 198.316 191.036 212.98 -85.481 356.591 -68.469 C 473.697 -54.591 533.733 151.715 393.432 184.948 C 368.373 190.905 341.526 195.629 317.985 190.605" transform="matrix(-0.945519, 0.325568, -0.325568, -0.945519, 713.422056, 4.116262)"/>
    <path style="stroke: rgba(0, 0, 0, 0); fill: rgb(80, 80, 80);" d="M 331.379 134.215 C 260.452 134.215 269.018 -14.395 352.697 -5.248 C 420.909 2.222 455.902 113.064 374.152 130.932 C 359.535 134.13 343.906 136.671 330.197 133.971" transform="matrix(-0.945519, 0.325568, -0.325568, -0.945519, 706.973135, 11.149801)"/>
    <path style="stroke: rgba(0, 0, 0, 0); fill: rgb(36, 36, 36);" d="M 423.853 31.683 C 414.169 59.987 419.734 91.168 425.756 119.387 C 427.726 128.531 425.375 149.968 413.268 145.262 C 400.612 140.322 395.949 113.636 394.06 100.276 C 387.473 53.974 401.561 4.389 434.139 -27.369 C 445.315 -38.283 466.649 -52.819 461.307 -27.886 C 457.86 -11.636 441.078 1.63 431.368 12.996" transform="matrix(-0.945519, 0.325568, -0.325568, -0.945519, 848.326929, -37.652972)"/>
    <path style="stroke: rgba(0, 0, 0, 0); fill: rgb(46, 46, 46);" d="M 282.342 104.398 C 291.661 97.086 294.914 77.58 297.869 63.552 C 302.819 40.13 295.081 11.622 278.84 -6.416 C 270.458 -15.721 278.309 -26.336 288.782 -20.445 C 297.265 -15.684 311.184 0.227 314.676 10.323 C 325.112 40.367 323.393 81.976 311.406 111.134 C 306.919 122.03 299.133 132.897 290.555 139.136 C 281.859 145.459 270.596 157.23 261.898 150.898 C 250.257 142.439 259.883 131.157 270.484 120.063" transform="matrix(-0.945519, 0.325568, -0.325568, -0.945519, 583.649696, 32.902524)"/>
    <path style="stroke: rgba(0, 0, 0, 0); fill: rgb(85, 85, 85);" d="M 277.29 102.898 C 283.153 96.896 285.197 80.882 287.064 69.355 C 290.179 50.123 285.29 26.72 275.078 11.911 C 269.791 4.259 274.744 -4.451 281.341 0.395 C 286.675 4.299 295.419 17.359 297.63 25.659 C 304.2 50.312 303.121 84.485 295.567 108.431 C 292.741 117.38 287.854 126.31 282.456 131.417 C 276.983 136.612 269.894 146.283 264.421 141.082 C 257.09 134.138 263.149 124.879 269.818 115.772" transform="matrix(-0.945519, 0.325568, -0.325568, -0.945519, 570.745581, 46.060045)"/>
  </g><g transform="matrix(0.9187132120132446, 0, 0, 0.9187132120132446, 305.41107177734375, 538.6627807617188)">
    <path style="stroke: rgba(0, 0, 0, 0);" d="M 320.027 191.036 C 198.316 191.036 212.98 -85.481 356.591 -68.469 C 473.697 -54.591 533.733 151.715 393.432 184.948 C 368.373 190.905 341.526 195.629 317.985 190.605" transform="matrix(-0.945519, 0.325568, -0.325568, -0.945519, 713.422056, 4.116262)"/>
    <path style="stroke: rgba(0, 0, 0, 0); fill: rgb(80, 80, 80);" d="M 331.379 134.215 C 260.452 134.215 269.018 -14.395 352.697 -5.248 C 420.909 2.222 455.902 113.064 374.152 130.932 C 359.535 134.13 343.906 136.671 330.197 133.971" transform="matrix(-0.945519, 0.325568, -0.325568, -0.945519, 706.973135, 11.149801)"/>
    <path style="stroke: rgba(0, 0, 0, 0); fill: rgb(36, 36, 36);" d="M 423.853 31.683 C 414.169 59.987 419.734 91.168 425.756 119.387 C 427.726 128.531 425.375 149.968 413.268 145.262 C 400.612 140.322 395.949 113.636 394.06 100.276 C 387.473 53.974 401.561 4.389 434.139 -27.369 C 445.315 -38.283 466.649 -52.819 461.307 -27.886 C 457.86 -11.636 441.078 1.63 431.368 12.996" transform="matrix(-0.945519, 0.325568, -0.325568, -0.945519, 848.326929, -37.652972)"/>
    <path style="stroke: rgba(0, 0, 0, 0); fill: rgb(46, 46, 46);" d="M 282.342 104.398 C 291.661 97.086 294.914 77.58 297.869 63.552 C 302.819 40.13 295.081 11.622 278.84 -6.416 C 270.458 -15.721 278.309 -26.336 288.782 -20.445 C 297.265 -15.684 311.184 0.227 314.676 10.323 C 325.112 40.367 323.393 81.976 311.406 111.134 C 306.919 122.03 299.133 132.897 290.555 139.136 C 281.859 145.459 270.596 157.23 261.898 150.898 C 250.257 142.439 259.883 131.157 270.484 120.063" transform="matrix(-0.945519, 0.325568, -0.325568, -0.945519, 583.649696, 32.902524)"/>
    <path style="stroke: rgba(0, 0, 0, 0); fill: rgb(85, 85, 85);" d="M 277.29 102.898 C 283.153 96.896 285.197 80.882 287.064 69.355 C 290.179 50.123 285.29 26.72 275.078 11.911 C 269.791 4.259 274.744 -4.451 281.341 0.395 C 286.675 4.299 295.419 17.359 297.63 25.659 C 304.2 50.312 303.121 84.485 295.567 108.431 C 292.741 117.38 287.854 126.31 282.456 131.417 C 276.983 136.612 269.894 146.283 264.421 141.082 C 257.09 134.138 263.149 124.879 269.818 115.772" transform="matrix(-0.945519, 0.325568, -0.325568, -0.945519, 570.745581, 46.060045)"/>
    <path style="stroke: rgba(0, 0, 0, 0);" d="M 564.031 192.085 C 442.32 192.085 456.984 -84.433 600.595 -67.421 C 717.701 -53.543 777.737 152.763 637.436 185.997 C 612.377 191.954 585.53 196.678 561.989 191.654" transform="matrix(-0.945519, 0.325568, -0.325568, -0.945519, 1188.477773, -73.283855)"/>
    <path style="stroke: rgba(0, 0, 0, 0); fill: rgb(80, 80, 80);" d="M 575.383 135.263 C 504.456 135.263 513.022 -13.347 596.701 -4.2 C 664.913 3.27 699.906 114.112 618.156 131.98 C 603.539 135.178 587.91 137.719 574.201 135.019" transform="matrix(-0.945519, 0.325568, -0.325568, -0.945519, 1182.028663, -66.251169)"/>
    <path style="stroke: rgba(0, 0, 0, 0); fill: rgb(36, 36, 36);" d="M 667.857 32.731 C 658.173 61.035 663.738 92.216 669.76 120.436 C 671.73 129.58 669.379 151.017 657.272 146.311 C 644.616 141.371 639.953 114.685 638.064 101.325 C 631.477 55.022 645.565 5.437 678.143 -26.321 C 689.319 -37.235 710.653 -51.771 705.311 -26.838 C 701.864 -10.588 685.082 2.678 675.372 14.044" transform="matrix(-0.945519, 0.325568, -0.325568, -0.945519, 1323.382625, -115.05294)"/>
    <path style="stroke: rgba(0, 0, 0, 0); fill: rgb(46, 46, 46);" d="M 526.346 105.446 C 535.665 98.134 538.918 78.628 541.873 64.6 C 546.823 41.178 539.085 12.67 522.844 -5.368 C 514.462 -14.673 522.313 -25.288 532.786 -19.397 C 541.269 -14.636 555.188 1.275 558.68 11.371 C 569.116 41.415 567.397 83.024 555.41 112.182 C 550.923 123.078 543.137 133.945 534.559 140.184 C 525.863 146.507 514.6 158.278 505.902 151.946 C 494.261 143.487 503.887 132.205 514.488 121.111" transform="matrix(-0.945519, 0.325568, -0.325568, -0.945519, 1058.70523, -44.498417)"/>
    <path style="stroke: rgba(0, 0, 0, 0); fill: rgb(85, 85, 85);" d="M 521.294 103.946 C 527.157 97.944 529.201 81.93 531.068 70.403 C 534.183 51.171 529.294 27.768 519.082 12.959 C 513.795 5.307 518.748 -3.403 525.345 1.443 C 530.679 5.347 539.423 18.407 541.634 26.707 C 548.204 51.36 547.125 85.533 539.571 109.479 C 536.745 118.428 531.858 127.358 526.46 132.465 C 520.987 137.66 513.898 147.331 508.425 142.13 C 501.094 135.186 507.153 125.927 513.822 116.82" transform="matrix(-0.945519, 0.325568, -0.325568, -0.945519, 1045.801111, -31.340916)"/>
    <path style="stroke: rgba(0, 0, 0, 0);" d="M 808.647 192.376 C 686.932 192.376 701.596 -84.143 845.211 -67.131 C 962.317 -53.253 1022.353 153.054 882.052 186.288 C 856.993 192.245 830.146 196.969 806.605 191.945" transform="matrix(-0.945519, 0.325568, -0.325568, -0.945519, 1664.474509, -152.357222)"/>
    <path style="stroke: rgba(0, 0, 0, 0); fill: rgb(80, 80, 80);" d="M 819.999 135.554 C 749.069 135.554 757.635 -13.057 841.317 -3.91 C 909.529 3.56 944.522 114.403 862.772 132.271 C 848.155 135.469 832.526 138.01 818.817 135.31" transform="matrix(-0.945519, 0.325568, -0.325568, -0.945519, 1658.02603, -145.324779)"/>
    <path style="stroke: rgba(0, 0, 0, 0); fill: rgb(36, 36, 36);" d="M 912.471 33.022 C 902.787 61.326 908.352 92.507 914.374 120.727 C 916.345 129.871 913.993 151.308 901.886 146.602 C 889.23 141.662 884.567 114.976 882.678 101.616 C 876.091 55.313 890.179 5.728 922.759 -26.03 C 933.935 -36.945 955.269 -51.481 949.927 -26.547 C 946.48 -10.297 929.698 2.969 919.988 14.335" transform="matrix(-0.945519, 0.325568, -0.325568, -0.945519, 1799.380282, -194.126271)"/>
    <path style="stroke: rgba(0, 0, 0, 0); fill: rgb(46, 46, 46);" d="M 770.962 105.737 C 780.281 98.425 783.534 78.919 786.489 64.891 C 791.439 41.468 783.701 12.96 767.46 -5.078 C 759.078 -14.383 766.929 -24.998 777.402 -19.107 C 785.885 -14.346 799.804 1.565 803.296 11.661 C 813.732 41.705 812.013 83.315 800.026 112.473 C 795.539 123.369 787.753 134.236 779.175 140.475 C 770.479 146.798 759.216 158.569 750.518 152.237 C 738.877 143.778 748.503 132.496 759.104 121.402" transform="matrix(-0.945519, 0.325568, -0.325568, -0.945519, 1534.704771, -123.572337)"/>
    <path style="stroke: rgba(0, 0, 0, 0); fill: rgb(85, 85, 85);" d="M 765.91 104.237 C 771.773 98.235 773.817 82.221 775.684 70.694 C 778.799 51.461 773.91 28.058 763.698 13.249 C 758.411 5.597 763.364 -3.113 769.961 1.733 C 775.295 5.637 784.039 18.697 786.25 26.997 C 792.82 51.65 791.741 85.824 784.187 109.77 C 781.361 118.719 776.474 127.649 771.076 132.756 C 765.603 137.951 758.514 147.622 753.041 142.421 C 745.71 135.477 751.769 126.218 758.438 117.111" transform="matrix(-0.945519, 0.325568, -0.325568, -0.945519, 1521.800743, -110.414846)"/>
  </g><g transform="matrix(0.9187132120132446, 0, 0, 0.9187132120132446, 977.9605102539062, 540.5891723632812)">
    <path style="stroke: rgba(0, 0, 0, 0);" d="M 320.027 191.036 C 198.316 191.036 212.98 -85.481 356.591 -68.469 C 473.697 -54.591 533.733 151.715 393.432 184.948 C 368.373 190.905 341.526 195.629 317.985 190.605" transform="matrix(-0.945519, 0.325568, -0.325568, -0.945519, 713.422056, 4.116262)"/>
    <path style="stroke: rgba(0, 0, 0, 0); fill: rgb(80, 80, 80);" d="M 331.379 134.215 C 260.452 134.215 269.018 -14.395 352.697 -5.248 C 420.909 2.222 455.902 113.064 374.152 130.932 C 359.535 134.13 343.906 136.671 330.197 133.971" transform="matrix(-0.945519, 0.325568, -0.325568, -0.945519, 706.973135, 11.149801)"/>
    <path style="stroke: rgba(0, 0, 0, 0); fill: rgb(36, 36, 36);" d="M 423.853 31.683 C 414.169 59.987 419.734 91.168 425.756 119.387 C 427.726 128.531 425.375 149.968 413.268 145.262 C 400.612 140.322 395.949 113.636 394.06 100.276 C 387.473 53.974 401.561 4.389 434.139 -27.369 C 445.315 -38.283 466.649 -52.819 461.307 -27.886 C 457.86 -11.636 441.078 1.63 431.368 12.996" transform="matrix(-0.945519, 0.325568, -0.325568, -0.945519, 848.326929, -37.652972)"/>
    <path style="stroke: rgba(0, 0, 0, 0); fill: rgb(46, 46, 46);" d="M 282.342 104.398 C 291.661 97.086 294.914 77.58 297.869 63.552 C 302.819 40.13 295.081 11.622 278.84 -6.416 C 270.458 -15.721 278.309 -26.336 288.782 -20.445 C 297.265 -15.684 311.184 0.227 314.676 10.323 C 325.112 40.367 323.393 81.976 311.406 111.134 C 306.919 122.03 299.133 132.897 290.555 139.136 C 281.859 145.459 270.596 157.23 261.898 150.898 C 250.257 142.439 259.883 131.157 270.484 120.063" transform="matrix(-0.945519, 0.325568, -0.325568, -0.945519, 583.649696, 32.902524)"/>
    <path style="stroke: rgba(0, 0, 0, 0); fill: rgb(85, 85, 85);" d="M 277.29 102.898 C 283.153 96.896 285.197 80.882 287.064 69.355 C 290.179 50.123 285.29 26.72 275.078 11.911 C 269.791 4.259 274.744 -4.451 281.341 0.395 C 286.675 4.299 295.419 17.359 297.63 25.659 C 304.2 50.312 303.121 84.485 295.567 108.431 C 292.741 117.38 287.854 126.31 282.456 131.417 C 276.983 136.612 269.894 146.283 264.421 141.082 C 257.09 134.138 263.149 124.879 269.818 115.772" transform="matrix(-0.945519, 0.325568, -0.325568, -0.945519, 570.745581, 46.060045)"/>
  </g><g transform="matrix(0.9187132120132446, 0, 0, 0.9187132120132446, -12.370586395263674, 747.1115112304688)">
    <path style="stroke: rgba(0, 0, 0, 0);" d="M 65.787 191.699 C -55.916 191.699 -41.254 -84.823 102.344 -67.811 C 219.449 -53.933 279.485 152.378 139.185 185.611 C 114.126 191.568 87.281 196.292 63.745 191.268" transform="matrix(-0.945519, 0.325568, -0.325568, -0.945519, 219.005431, 88.174066)"/>
    <path style="stroke: rgba(0, 0, 0, 0); fill: rgb(80, 80, 80);" d="M 77.135 134.878 C 6.209 134.878 14.775 -13.736 98.45 -4.589 C 166.662 2.881 201.655 113.727 119.905 131.595 C 105.288 134.793 89.659 137.334 75.953 134.634" transform="matrix(-0.945519, 0.325568, -0.325568, -0.945519, 212.54943, 95.209888)"/>
    <path style="stroke: rgba(0, 0, 0, 0); fill: rgb(36, 36, 36);" d="M 169.61 32.343 C 159.926 60.65 165.491 91.831 171.513 120.05 C 173.483 129.194 171.132 150.631 159.025 145.925 C 146.369 140.985 141.706 114.299 139.817 100.939 C 133.23 54.637 147.318 5.049 179.896 -26.71 C 191.072 -37.624 212.406 -52.16 207.064 -27.227 C 203.617 -10.976 186.835 2.29 177.125 13.656" transform="matrix(-0.945519, 0.325568, -0.325568, -0.945519, 353.907614, 46.406358)"/>
    <path style="stroke: rgba(0, 0, 0, 0); fill: rgb(46, 46, 46);" d="M 28.095 105.059 C 37.414 97.746 40.667 78.24 43.622 64.212 C 48.572 40.789 40.834 12.281 24.593 -5.758 C 16.211 -15.063 24.062 -25.678 34.535 -19.787 C 43.018 -15.026 56.937 0.885 60.429 10.982 C 70.865 41.026 69.146 82.636 57.159 111.795 C 52.672 122.693 44.886 133.56 36.308 139.799 C 27.612 146.122 16.349 157.893 7.651 151.561 C -3.99 143.102 5.636 131.82 16.237 120.726" transform="matrix(-0.945519, 0.325568, -0.325568, -0.945519, 89.22245, 116.9622)"/>
    <path style="stroke: rgba(0, 0, 0, 0); fill: rgb(85, 85, 85);" d="M 23.043 103.558 C 28.906 97.556 30.95 81.541 32.817 70.014 C 35.932 50.782 31.043 27.378 20.831 12.569 C 15.544 4.917 20.497 -3.793 27.094 1.053 C 32.428 4.957 41.172 18.017 43.383 26.317 C 49.953 50.971 48.874 85.144 41.32 109.091 C 38.494 118.041 33.607 126.971 28.209 132.078 C 22.736 137.274 15.647 146.946 10.174 141.744 C 2.843 134.799 8.902 125.54 15.571 116.433" transform="matrix(-0.945519, 0.325568, -0.325568, -0.945519, 76.31825, 130.119097)"/>
  </g><g transform="matrix(0.9187132120132446, 0, 0, 0.9187132120132446, -21.691171646118164, 749.0823974609375)">
    <path style="stroke: rgba(0, 0, 0, 0);" d="M 320.027 191.036 C 198.316 191.036 212.98 -85.481 356.591 -68.469 C 473.697 -54.591 533.733 151.715 393.432 184.948 C 368.373 190.905 341.526 195.629 317.985 190.605" transform="matrix(-0.945519, 0.325568, -0.325568, -0.945519, 713.422056, 4.116262)"/>
    <path style="stroke: rgba(0, 0, 0, 0); fill: rgb(80, 80, 80);" d="M 331.379 134.215 C 260.452 134.215 269.018 -14.395 352.697 -5.248 C 420.909 2.222 455.902 113.064 374.152 130.932 C 359.535 134.13 343.906 136.671 330.197 133.971" transform="matrix(-0.945519, 0.325568, -0.325568, -0.945519, 706.973135, 11.149801)"/>
    <path style="stroke: rgba(0, 0, 0, 0); fill: rgb(36, 36, 36);" d="M 423.853 31.683 C 414.169 59.987 419.734 91.168 425.756 119.387 C 427.726 128.531 425.375 149.968 413.268 145.262 C 400.612 140.322 395.949 113.636 394.06 100.276 C 387.473 53.974 401.561 4.389 434.139 -27.369 C 445.315 -38.283 466.649 -52.819 461.307 -27.886 C 457.86 -11.636 441.078 1.63 431.368 12.996" transform="matrix(-0.945519, 0.325568, -0.325568, -0.945519, 848.326929, -37.652972)"/>
    <path style="stroke: rgba(0, 0, 0, 0); fill: rgb(46, 46, 46);" d="M 282.342 104.398 C 291.661 97.086 294.914 77.58 297.869 63.552 C 302.819 40.13 295.081 11.622 278.84 -6.416 C 270.458 -15.721 278.309 -26.336 288.782 -20.445 C 297.265 -15.684 311.184 0.227 314.676 10.323 C 325.112 40.367 323.393 81.976 311.406 111.134 C 306.919 122.03 299.133 132.897 290.555 139.136 C 281.859 145.459 270.596 157.23 261.898 150.898 C 250.257 142.439 259.883 131.157 270.484 120.063" transform="matrix(-0.945519, 0.325568, -0.325568, -0.945519, 583.649696, 32.902524)"/>
    <path style="stroke: rgba(0, 0, 0, 0); fill: rgb(85, 85, 85);" d="M 277.29 102.898 C 283.153 96.896 285.197 80.882 287.064 69.355 C 290.179 50.123 285.29 26.72 275.078 11.911 C 269.791 4.259 274.744 -4.451 281.341 0.395 C 286.675 4.299 295.419 17.359 297.63 25.659 C 304.2 50.312 303.121 84.485 295.567 108.431 C 292.741 117.38 287.854 126.31 282.456 131.417 C 276.983 136.612 269.894 146.283 264.421 141.082 C 257.09 134.138 263.149 124.879 269.818 115.772" transform="matrix(-0.945519, 0.325568, -0.325568, -0.945519, 570.745581, 46.060045)"/>
  </g><g transform="matrix(0.9187132120132446, 0, 0, 0.9187132120132446, 202.1729888916016, 747.7323608398438)">
    <path style="stroke: rgba(0, 0, 0, 0);" d="M 320.027 191.036 C 198.316 191.036 212.98 -85.481 356.591 -68.469 C 473.697 -54.591 533.733 151.715 393.432 184.948 C 368.373 190.905 341.526 195.629 317.985 190.605" transform="matrix(-0.945519, 0.325568, -0.325568, -0.945519, 713.422056, 4.116262)"/>
    <path style="stroke: rgba(0, 0, 0, 0); fill: rgb(80, 80, 80);" d="M 331.379 134.215 C 260.452 134.215 269.018 -14.395 352.697 -5.248 C 420.909 2.222 455.902 113.064 374.152 130.932 C 359.535 134.13 343.906 136.671 330.197 133.971" transform="matrix(-0.945519, 0.325568, -0.325568, -0.945519, 706.973135, 11.149801)"/>
    <path style="stroke: rgba(0, 0, 0, 0); fill: rgb(36, 36, 36);" d="M 423.853 31.683 C 414.169 59.987 419.734 91.168 425.756 119.387 C 427.726 128.531 425.375 149.968 413.268 145.262 C 400.612 140.322 395.949 113.636 394.06 100.276 C 387.473 53.974 401.561 4.389 434.139 -27.369 C 445.315 -38.283 466.649 -52.819 461.307 -27.886 C 457.86 -11.636 441.078 1.63 431.368 12.996" transform="matrix(-0.945519, 0.325568, -0.325568, -0.945519, 848.326929, -37.652972)"/>
    <path style="stroke: rgba(0, 0, 0, 0); fill: rgb(46, 46, 46);" d="M 282.342 104.398 C 291.661 97.086 294.914 77.58 297.869 63.552 C 302.819 40.13 295.081 11.622 278.84 -6.416 C 270.458 -15.721 278.309 -26.336 288.782 -20.445 C 297.265 -15.684 311.184 0.227 314.676 10.323 C 325.112 40.367 323.393 81.976 311.406 111.134 C 306.919 122.03 299.133 132.897 290.555 139.136 C 281.859 145.459 270.596 157.23 261.898 150.898 C 250.257 142.439 259.883 131.157 270.484 120.063" transform="matrix(-0.945519, 0.325568, -0.325568, -0.945519, 583.649696, 32.902524)"/>
    <path style="stroke: rgba(0, 0, 0, 0); fill: rgb(85, 85, 85);" d="M 277.29 102.898 C 283.153 96.896 285.197 80.882 287.064 69.355 C 290.179 50.123 285.29 26.72 275.078 11.911 C 269.791 4.259 274.744 -4.451 281.341 0.395 C 286.675 4.299 295.419 17.359 297.63 25.659 C 304.2 50.312 303.121 84.485 295.567 108.431 C 292.741 117.38 287.854 126.31 282.456 131.417 C 276.983 136.612 269.894 146.283 264.421 141.082 C 257.09 134.138 263.149 124.879 269.818 115.772" transform="matrix(-0.945519, 0.325568, -0.325568, -0.945519, 570.745581, 46.060045)"/>
  </g><g transform="matrix(0.9187132120132446, 0, 0, 0.9187132120132446, 425.9643249511719, 747.77685546875)">
    <path style="stroke: rgba(0, 0, 0, 0);" d="M 320.027 191.036 C 198.316 191.036 212.98 -85.481 356.591 -68.469 C 473.697 -54.591 533.733 151.715 393.432 184.948 C 368.373 190.905 341.526 195.629 317.985 190.605" transform="matrix(-0.945519, 0.325568, -0.325568, -0.945519, 713.422056, 4.116262)"/>
    <path style="stroke: rgba(0, 0, 0, 0); fill: rgb(80, 80, 80);" d="M 331.379 134.215 C 260.452 134.215 269.018 -14.395 352.697 -5.248 C 420.909 2.222 455.902 113.064 374.152 130.932 C 359.535 134.13 343.906 136.671 330.197 133.971" transform="matrix(-0.945519, 0.325568, -0.325568, -0.945519, 706.973135, 11.149801)"/>
    <path style="stroke: rgba(0, 0, 0, 0); fill: rgb(36, 36, 36);" d="M 423.853 31.683 C 414.169 59.987 419.734 91.168 425.756 119.387 C 427.726 128.531 425.375 149.968 413.268 145.262 C 400.612 140.322 395.949 113.636 394.06 100.276 C 387.473 53.974 401.561 4.389 434.139 -27.369 C 445.315 -38.283 466.649 -52.819 461.307 -27.886 C 457.86 -11.636 441.078 1.63 431.368 12.996" transform="matrix(-0.945519, 0.325568, -0.325568, -0.945519, 848.326929, -37.652972)"/>
    <path style="stroke: rgba(0, 0, 0, 0); fill: rgb(46, 46, 46);" d="M 282.342 104.398 C 291.661 97.086 294.914 77.58 297.869 63.552 C 302.819 40.13 295.081 11.622 278.84 -6.416 C 270.458 -15.721 278.309 -26.336 288.782 -20.445 C 297.265 -15.684 311.184 0.227 314.676 10.323 C 325.112 40.367 323.393 81.976 311.406 111.134 C 306.919 122.03 299.133 132.897 290.555 139.136 C 281.859 145.459 270.596 157.23 261.898 150.898 C 250.257 142.439 259.883 131.157 270.484 120.063" transform="matrix(-0.945519, 0.325568, -0.325568, -0.945519, 583.649696, 32.902524)"/>
    <path style="stroke: rgba(0, 0, 0, 0); fill: rgb(85, 85, 85);" d="M 277.29 102.898 C 283.153 96.896 285.197 80.882 287.064 69.355 C 290.179 50.123 285.29 26.72 275.078 11.911 C 269.791 4.259 274.744 -4.451 281.341 0.395 C 286.675 4.299 295.419 17.359 297.63 25.659 C 304.2 50.312 303.121 84.485 295.567 108.431 C 292.741 117.38 287.854 126.31 282.456 131.417 C 276.983 136.612 269.894 146.283 264.421 141.082 C 257.09 134.138 263.149 124.879 269.818 115.772" transform="matrix(-0.945519, 0.325568, -0.325568, -0.945519, 570.745581, 46.060045)"/>
    <path style="stroke: rgba(0, 0, 0, 0);" d="M 564.031 192.085 C 442.32 192.085 456.984 -84.433 600.595 -67.421 C 717.701 -53.543 777.737 152.763 637.436 185.997 C 612.377 191.954 585.53 196.678 561.989 191.654" transform="matrix(-0.945519, 0.325568, -0.325568, -0.945519, 1188.477773, -73.283855)"/>
    <path style="stroke: rgba(0, 0, 0, 0); fill: rgb(80, 80, 80);" d="M 575.383 135.263 C 504.456 135.263 513.022 -13.347 596.701 -4.2 C 664.913 3.27 699.906 114.112 618.156 131.98 C 603.539 135.178 587.91 137.719 574.201 135.019" transform="matrix(-0.945519, 0.325568, -0.325568, -0.945519, 1182.028663, -66.251169)"/>
    <path style="stroke: rgba(0, 0, 0, 0); fill: rgb(36, 36, 36);" d="M 667.857 32.731 C 658.173 61.035 663.738 92.216 669.76 120.436 C 671.73 129.58 669.379 151.017 657.272 146.311 C 644.616 141.371 639.953 114.685 638.064 101.325 C 631.477 55.022 645.565 5.437 678.143 -26.321 C 689.319 -37.235 710.653 -51.771 705.311 -26.838 C 701.864 -10.588 685.082 2.678 675.372 14.044" transform="matrix(-0.945519, 0.325568, -0.325568, -0.945519, 1323.382625, -115.05294)"/>
    <path style="stroke: rgba(0, 0, 0, 0); fill: rgb(46, 46, 46);" d="M 526.346 105.446 C 535.665 98.134 538.918 78.628 541.873 64.6 C 546.823 41.178 539.085 12.67 522.844 -5.368 C 514.462 -14.673 522.313 -25.288 532.786 -19.397 C 541.269 -14.636 555.188 1.275 558.68 11.371 C 569.116 41.415 567.397 83.024 555.41 112.182 C 550.923 123.078 543.137 133.945 534.559 140.184 C 525.863 146.507 514.6 158.278 505.902 151.946 C 494.261 143.487 503.887 132.205 514.488 121.111" transform="matrix(-0.945519, 0.325568, -0.325568, -0.945519, 1058.70523, -44.498417)"/>
    <path style="stroke: rgba(0, 0, 0, 0); fill: rgb(85, 85, 85);" d="M 521.294 103.946 C 527.157 97.944 529.201 81.93 531.068 70.403 C 534.183 51.171 529.294 27.768 519.082 12.959 C 513.795 5.307 518.748 -3.403 525.345 1.443 C 530.679 5.347 539.423 18.407 541.634 26.707 C 548.204 51.36 547.125 85.533 539.571 109.479 C 536.745 118.428 531.858 127.358 526.46 132.465 C 520.987 137.66 513.898 147.331 508.425 142.13 C 501.094 135.186 507.153 125.927 513.822 116.82" transform="matrix(-0.945519, 0.325568, -0.325568, -0.945519, 1045.801111, -31.340916)"/>
    <path style="stroke: rgba(0, 0, 0, 0);" d="M 808.647 192.376 C 686.932 192.376 701.596 -84.143 845.211 -67.131 C 962.317 -53.253 1022.353 153.054 882.052 186.288 C 856.993 192.245 830.146 196.969 806.605 191.945" transform="matrix(-0.945519, 0.325568, -0.325568, -0.945519, 1664.474509, -152.357222)"/>
    <path style="stroke: rgba(0, 0, 0, 0); fill: rgb(80, 80, 80);" d="M 819.999 135.554 C 749.069 135.554 757.635 -13.057 841.317 -3.91 C 909.529 3.56 944.522 114.403 862.772 132.271 C 848.155 135.469 832.526 138.01 818.817 135.31" transform="matrix(-0.945519, 0.325568, -0.325568, -0.945519, 1658.02603, -145.324779)"/>
    <path style="stroke: rgba(0, 0, 0, 0); fill: rgb(36, 36, 36);" d="M 912.471 33.022 C 902.787 61.326 908.352 92.507 914.374 120.727 C 916.345 129.871 913.993 151.308 901.886 146.602 C 889.23 141.662 884.567 114.976 882.678 101.616 C 876.091 55.313 890.179 5.728 922.759 -26.03 C 933.935 -36.945 955.269 -51.481 949.927 -26.547 C 946.48 -10.297 929.698 2.969 919.988 14.335" transform="matrix(-0.945519, 0.325568, -0.325568, -0.945519, 1799.380282, -194.126271)"/>
    <path style="stroke: rgba(0, 0, 0, 0); fill: rgb(46, 46, 46);" d="M 770.962 105.737 C 780.281 98.425 783.534 78.919 786.489 64.891 C 791.439 41.468 783.701 12.96 767.46 -5.078 C 759.078 -14.383 766.929 -24.998 777.402 -19.107 C 785.885 -14.346 799.804 1.565 803.296 11.661 C 813.732 41.705 812.013 83.315 800.026 112.473 C 795.539 123.369 787.753 134.236 779.175 140.475 C 770.479 146.798 759.216 158.569 750.518 152.237 C 738.877 143.778 748.503 132.496 759.104 121.402" transform="matrix(-0.945519, 0.325568, -0.325568, -0.945519, 1534.704771, -123.572337)"/>
    <path style="stroke: rgba(0, 0, 0, 0); fill: rgb(85, 85, 85);" d="M 765.91 104.237 C 771.773 98.235 773.817 82.221 775.684 70.694 C 778.799 51.461 773.91 28.058 763.698 13.249 C 758.411 5.597 763.364 -3.113 769.961 1.733 C 775.295 5.637 784.039 18.697 786.25 26.997 C 792.82 51.65 791.741 85.824 784.187 109.77 C 781.361 118.719 776.474 127.649 771.076 132.756 C 765.603 137.951 758.514 147.622 753.041 142.421 C 745.71 135.477 751.769 126.218 758.438 117.111" transform="matrix(-0.945519, 0.325568, -0.325568, -0.945519, 1521.800743, -110.414846)"/>
  </g><g transform="matrix(0.9187132120132446, 0, 0, 0.9187132120132446, 1098.5137939453125, 749.7032470703125)">
    <path style="stroke: rgba(0, 0, 0, 0);" d="M 320.027 191.036 C 198.316 191.036 212.98 -85.481 356.591 -68.469 C 473.697 -54.591 533.733 151.715 393.432 184.948 C 368.373 190.905 341.526 195.629 317.985 190.605" transform="matrix(-0.945519, 0.325568, -0.325568, -0.945519, 713.422056, 4.116262)"/>
    <path style="stroke: rgba(0, 0, 0, 0); fill: rgb(80, 80, 80);" d="M 331.379 134.215 C 260.452 134.215 269.018 -14.395 352.697 -5.248 C 420.909 2.222 455.902 113.064 374.152 130.932 C 359.535 134.13 343.906 136.671 330.197 133.971" transform="matrix(-0.945519, 0.325568, -0.325568, -0.945519, 706.973135, 11.149801)"/>
    <path style="stroke: rgba(0, 0, 0, 0); fill: rgb(36, 36, 36);" d="M 423.853 31.683 C 414.169 59.987 419.734 91.168 425.756 119.387 C 427.726 128.531 425.375 149.968 413.268 145.262 C 400.612 140.322 395.949 113.636 394.06 100.276 C 387.473 53.974 401.561 4.389 434.139 -27.369 C 445.315 -38.283 466.649 -52.819 461.307 -27.886 C 457.86 -11.636 441.078 1.63 431.368 12.996" transform="matrix(-0.945519, 0.325568, -0.325568, -0.945519, 848.326929, -37.652972)"/>
    <path style="stroke: rgba(0, 0, 0, 0); fill: rgb(46, 46, 46);" d="M 282.342 104.398 C 291.661 97.086 294.914 77.58 297.869 63.552 C 302.819 40.13 295.081 11.622 278.84 -6.416 C 270.458 -15.721 278.309 -26.336 288.782 -20.445 C 297.265 -15.684 311.184 0.227 314.676 10.323 C 325.112 40.367 323.393 81.976 311.406 111.134 C 306.919 122.03 299.133 132.897 290.555 139.136 C 281.859 145.459 270.596 157.23 261.898 150.898 C 250.257 142.439 259.883 131.157 270.484 120.063" transform="matrix(-0.945519, 0.325568, -0.325568, -0.945519, 583.649696, 32.902524)"/>
    <path style="stroke: rgba(0, 0, 0, 0); fill: rgb(85, 85, 85);" d="M 277.29 102.898 C 283.153 96.896 285.197 80.882 287.064 69.355 C 290.179 50.123 285.29 26.72 275.078 11.911 C 269.791 4.259 274.744 -4.451 281.341 0.395 C 286.675 4.299 295.419 17.359 297.63 25.659 C 304.2 50.312 303.121 84.485 295.567 108.431 C 292.741 117.38 287.854 126.31 282.456 131.417 C 276.983 136.612 269.894 146.283 264.421 141.082 C 257.09 134.138 263.149 124.879 269.818 115.772" transform="matrix(-0.945519, 0.325568, -0.325568, -0.945519, 570.745581, 46.060045)"/>
  </g><g transform="matrix(0.9187132120132446, 0, 0, 0.9187132120132446, -115.20146179199219, 955.0400390625)">
    <path style="stroke: rgba(0, 0, 0, 0);" d="M 65.787 191.699 C -55.916 191.699 -41.254 -84.823 102.344 -67.811 C 219.449 -53.933 279.485 152.378 139.185 185.611 C 114.126 191.568 87.281 196.292 63.745 191.268" transform="matrix(-0.945519, 0.325568, -0.325568, -0.945519, 219.005431, 88.174066)"/>
    <path style="stroke: rgba(0, 0, 0, 0); fill: rgb(80, 80, 80);" d="M 77.135 134.878 C 6.209 134.878 14.775 -13.736 98.45 -4.589 C 166.662 2.881 201.655 113.727 119.905 131.595 C 105.288 134.793 89.659 137.334 75.953 134.634" transform="matrix(-0.945519, 0.325568, -0.325568, -0.945519, 212.54943, 95.209888)"/>
    <path style="stroke: rgba(0, 0, 0, 0); fill: rgb(36, 36, 36);" d="M 169.61 32.343 C 159.926 60.65 165.491 91.831 171.513 120.05 C 173.483 129.194 171.132 150.631 159.025 145.925 C 146.369 140.985 141.706 114.299 139.817 100.939 C 133.23 54.637 147.318 5.049 179.896 -26.71 C 191.072 -37.624 212.406 -52.16 207.064 -27.227 C 203.617 -10.976 186.835 2.29 177.125 13.656" transform="matrix(-0.945519, 0.325568, -0.325568, -0.945519, 353.907614, 46.406358)"/>
    <path style="stroke: rgba(0, 0, 0, 0); fill: rgb(46, 46, 46);" d="M 28.095 105.059 C 37.414 97.746 40.667 78.24 43.622 64.212 C 48.572 40.789 40.834 12.281 24.593 -5.758 C 16.211 -15.063 24.062 -25.678 34.535 -19.787 C 43.018 -15.026 56.937 0.885 60.429 10.982 C 70.865 41.026 69.146 82.636 57.159 111.795 C 52.672 122.693 44.886 133.56 36.308 139.799 C 27.612 146.122 16.349 157.893 7.651 151.561 C -3.99 143.102 5.636 131.82 16.237 120.726" transform="matrix(-0.945519, 0.325568, -0.325568, -0.945519, 89.22245, 116.9622)"/>
    <path style="stroke: rgba(0, 0, 0, 0); fill: rgb(85, 85, 85);" d="M 23.043 103.558 C 28.906 97.556 30.95 81.541 32.817 70.014 C 35.932 50.782 31.043 27.378 20.831 12.569 C 15.544 4.917 20.497 -3.793 27.094 1.053 C 32.428 4.957 41.172 18.017 43.383 26.317 C 49.953 50.971 48.874 85.144 41.32 109.091 C 38.494 118.041 33.607 126.971 28.209 132.078 C 22.736 137.274 15.647 146.946 10.174 141.744 C 2.843 134.799 8.902 125.54 15.571 116.433" transform="matrix(-0.945519, 0.325568, -0.325568, -0.945519, 76.31825, 130.119097)"/>
  </g><g transform="matrix(0.9187132120132446, 0, 0, 0.9187132120132446, -124.52204132080078, 957.0109252929688)">
    <path style="stroke: rgba(0, 0, 0, 0);" d="M 320.027 191.036 C 198.316 191.036 212.98 -85.481 356.591 -68.469 C 473.697 -54.591 533.733 151.715 393.432 184.948 C 368.373 190.905 341.526 195.629 317.985 190.605" transform="matrix(-0.945519, 0.325568, -0.325568, -0.945519, 713.422056, 4.116262)"/>
    <path style="stroke: rgba(0, 0, 0, 0); fill: rgb(80, 80, 80);" d="M 331.379 134.215 C 260.452 134.215 269.018 -14.395 352.697 -5.248 C 420.909 2.222 455.902 113.064 374.152 130.932 C 359.535 134.13 343.906 136.671 330.197 133.971" transform="matrix(-0.945519, 0.325568, -0.325568, -0.945519, 706.973135, 11.149801)"/>
    <path style="stroke: rgba(0, 0, 0, 0); fill: rgb(36, 36, 36);" d="M 423.853 31.683 C 414.169 59.987 419.734 91.168 425.756 119.387 C 427.726 128.531 425.375 149.968 413.268 145.262 C 400.612 140.322 395.949 113.636 394.06 100.276 C 387.473 53.974 401.561 4.389 434.139 -27.369 C 445.315 -38.283 466.649 -52.819 461.307 -27.886 C 457.86 -11.636 441.078 1.63 431.368 12.996" transform="matrix(-0.945519, 0.325568, -0.325568, -0.945519, 848.326929, -37.652972)"/>
    <path style="stroke: rgba(0, 0, 0, 0); fill: rgb(46, 46, 46);" d="M 282.342 104.398 C 291.661 97.086 294.914 77.58 297.869 63.552 C 302.819 40.13 295.081 11.622 278.84 -6.416 C 270.458 -15.721 278.309 -26.336 288.782 -20.445 C 297.265 -15.684 311.184 0.227 314.676 10.323 C 325.112 40.367 323.393 81.976 311.406 111.134 C 306.919 122.03 299.133 132.897 290.555 139.136 C 281.859 145.459 270.596 157.23 261.898 150.898 C 250.257 142.439 259.883 131.157 270.484 120.063" transform="matrix(-0.945519, 0.325568, -0.325568, -0.945519, 583.649696, 32.902524)"/>
    <path style="stroke: rgba(0, 0, 0, 0); fill: rgb(85, 85, 85);" d="M 277.29 102.898 C 283.153 96.896 285.197 80.882 287.064 69.355 C 290.179 50.123 285.29 26.72 275.078 11.911 C 269.791 4.259 274.744 -4.451 281.341 0.395 C 286.675 4.299 295.419 17.359 297.63 25.659 C 304.2 50.312 303.121 84.485 295.567 108.431 C 292.741 117.38 287.854 126.31 282.456 131.417 C 276.983 136.612 269.894 146.283 264.421 141.082 C 257.09 134.138 263.149 124.879 269.818 115.772" transform="matrix(-0.945519, 0.325568, -0.325568, -0.945519, 570.745581, 46.060045)"/>
  </g><g transform="matrix(0.9187132120132446, 0, 0, 0.9187132120132446, 99.34215545654297, 955.6610107421876)">
    <path style="stroke: rgba(0, 0, 0, 0);" d="M 320.027 191.036 C 198.316 191.036 212.98 -85.481 356.591 -68.469 C 473.697 -54.591 533.733 151.715 393.432 184.948 C 368.373 190.905 341.526 195.629 317.985 190.605" transform="matrix(-0.945519, 0.325568, -0.325568, -0.945519, 713.422056, 4.116262)"/>
    <path style="stroke: rgba(0, 0, 0, 0); fill: rgb(80, 80, 80);" d="M 331.379 134.215 C 260.452 134.215 269.018 -14.395 352.697 -5.248 C 420.909 2.222 455.902 113.064 374.152 130.932 C 359.535 134.13 343.906 136.671 330.197 133.971" transform="matrix(-0.945519, 0.325568, -0.325568, -0.945519, 706.973135, 11.149801)"/>
    <path style="stroke: rgba(0, 0, 0, 0); fill: rgb(36, 36, 36);" d="M 423.853 31.683 C 414.169 59.987 419.734 91.168 425.756 119.387 C 427.726 128.531 425.375 149.968 413.268 145.262 C 400.612 140.322 395.949 113.636 394.06 100.276 C 387.473 53.974 401.561 4.389 434.139 -27.369 C 445.315 -38.283 466.649 -52.819 461.307 -27.886 C 457.86 -11.636 441.078 1.63 431.368 12.996" transform="matrix(-0.945519, 0.325568, -0.325568, -0.945519, 848.326929, -37.652972)"/>
    <path style="stroke: rgba(0, 0, 0, 0); fill: rgb(46, 46, 46);" d="M 282.342 104.398 C 291.661 97.086 294.914 77.58 297.869 63.552 C 302.819 40.13 295.081 11.622 278.84 -6.416 C 270.458 -15.721 278.309 -26.336 288.782 -20.445 C 297.265 -15.684 311.184 0.227 314.676 10.323 C 325.112 40.367 323.393 81.976 311.406 111.134 C 306.919 122.03 299.133 132.897 290.555 139.136 C 281.859 145.459 270.596 157.23 261.898 150.898 C 250.257 142.439 259.883 131.157 270.484 120.063" transform="matrix(-0.945519, 0.325568, -0.325568, -0.945519, 583.649696, 32.902524)"/>
    <path style="stroke: rgba(0, 0, 0, 0); fill: rgb(85, 85, 85);" d="M 277.29 102.898 C 283.153 96.896 285.197 80.882 287.064 69.355 C 290.179 50.123 285.29 26.72 275.078 11.911 C 269.791 4.259 274.744 -4.451 281.341 0.395 C 286.675 4.299 295.419 17.359 297.63 25.659 C 304.2 50.312 303.121 84.485 295.567 108.431 C 292.741 117.38 287.854 126.31 282.456 131.417 C 276.983 136.612 269.894 146.283 264.421 141.082 C 257.09 134.138 263.149 124.879 269.818 115.772" transform="matrix(-0.945519, 0.325568, -0.325568, -0.945519, 570.745581, 46.060045)"/>
  </g><g transform="matrix(0.9187132120132446, 0, 0, 0.9187132120132446, 323.1334228515625, 955.7053222656249)">
    <path style="stroke: rgba(0, 0, 0, 0);" d="M 320.027 191.036 C 198.316 191.036 212.98 -85.481 356.591 -68.469 C 473.697 -54.591 533.733 151.715 393.432 184.948 C 368.373 190.905 341.526 195.629 317.985 190.605" transform="matrix(-0.945519, 0.325568, -0.325568, -0.945519, 713.422056, 4.116262)"/>
    <path style="stroke: rgba(0, 0, 0, 0); fill: rgb(80, 80, 80);" d="M 331.379 134.215 C 260.452 134.215 269.018 -14.395 352.697 -5.248 C 420.909 2.222 455.902 113.064 374.152 130.932 C 359.535 134.13 343.906 136.671 330.197 133.971" transform="matrix(-0.945519, 0.325568, -0.325568, -0.945519, 706.973135, 11.149801)"/>
    <path style="stroke: rgba(0, 0, 0, 0); fill: rgb(36, 36, 36);" d="M 423.853 31.683 C 414.169 59.987 419.734 91.168 425.756 119.387 C 427.726 128.531 425.375 149.968 413.268 145.262 C 400.612 140.322 395.949 113.636 394.06 100.276 C 387.473 53.974 401.561 4.389 434.139 -27.369 C 445.315 -38.283 466.649 -52.819 461.307 -27.886 C 457.86 -11.636 441.078 1.63 431.368 12.996" transform="matrix(-0.945519, 0.325568, -0.325568, -0.945519, 848.326929, -37.652972)"/>
    <path style="stroke: rgba(0, 0, 0, 0); fill: rgb(46, 46, 46);" d="M 282.342 104.398 C 291.661 97.086 294.914 77.58 297.869 63.552 C 302.819 40.13 295.081 11.622 278.84 -6.416 C 270.458 -15.721 278.309 -26.336 288.782 -20.445 C 297.265 -15.684 311.184 0.227 314.676 10.323 C 325.112 40.367 323.393 81.976 311.406 111.134 C 306.919 122.03 299.133 132.897 290.555 139.136 C 281.859 145.459 270.596 157.23 261.898 150.898 C 250.257 142.439 259.883 131.157 270.484 120.063" transform="matrix(-0.945519, 0.325568, -0.325568, -0.945519, 583.649696, 32.902524)"/>
    <path style="stroke: rgba(0, 0, 0, 0); fill: rgb(85, 85, 85);" d="M 277.29 102.898 C 283.153 96.896 285.197 80.882 287.064 69.355 C 290.179 50.123 285.29 26.72 275.078 11.911 C 269.791 4.259 274.744 -4.451 281.341 0.395 C 286.675 4.299 295.419 17.359 297.63 25.659 C 304.2 50.312 303.121 84.485 295.567 108.431 C 292.741 117.38 287.854 126.31 282.456 131.417 C 276.983 136.612 269.894 146.283 264.421 141.082 C 257.09 134.138 263.149 124.879 269.818 115.772" transform="matrix(-0.945519, 0.325568, -0.325568, -0.945519, 570.745581, 46.060045)"/>
    <path style="stroke: rgba(0, 0, 0, 0);" d="M 564.031 192.085 C 442.32 192.085 456.984 -84.433 600.595 -67.421 C 717.701 -53.543 777.737 152.763 637.436 185.997 C 612.377 191.954 585.53 196.678 561.989 191.654" transform="matrix(-0.945519, 0.325568, -0.325568, -0.945519, 1188.477773, -73.283855)"/>
    <path style="stroke: rgba(0, 0, 0, 0); fill: rgb(80, 80, 80);" d="M 575.383 135.263 C 504.456 135.263 513.022 -13.347 596.701 -4.2 C 664.913 3.27 699.906 114.112 618.156 131.98 C 603.539 135.178 587.91 137.719 574.201 135.019" transform="matrix(-0.945519, 0.325568, -0.325568, -0.945519, 1182.028663, -66.251169)"/>
    <path style="stroke: rgba(0, 0, 0, 0); fill: rgb(36, 36, 36);" d="M 667.857 32.731 C 658.173 61.035 663.738 92.216 669.76 120.436 C 671.73 129.58 669.379 151.017 657.272 146.311 C 644.616 141.371 639.953 114.685 638.064 101.325 C 631.477 55.022 645.565 5.437 678.143 -26.321 C 689.319 -37.235 710.653 -51.771 705.311 -26.838 C 701.864 -10.588 685.082 2.678 675.372 14.044" transform="matrix(-0.945519, 0.325568, -0.325568, -0.945519, 1323.382625, -115.05294)"/>
    <path style="stroke: rgba(0, 0, 0, 0); fill: rgb(46, 46, 46);" d="M 526.346 105.446 C 535.665 98.134 538.918 78.628 541.873 64.6 C 546.823 41.178 539.085 12.67 522.844 -5.368 C 514.462 -14.673 522.313 -25.288 532.786 -19.397 C 541.269 -14.636 555.188 1.275 558.68 11.371 C 569.116 41.415 567.397 83.024 555.41 112.182 C 550.923 123.078 543.137 133.945 534.559 140.184 C 525.863 146.507 514.6 158.278 505.902 151.946 C 494.261 143.487 503.887 132.205 514.488 121.111" transform="matrix(-0.945519, 0.325568, -0.325568, -0.945519, 1058.70523, -44.498417)"/>
    <path style="stroke: rgba(0, 0, 0, 0); fill: rgb(85, 85, 85);" d="M 521.294 103.946 C 527.157 97.944 529.201 81.93 531.068 70.403 C 534.183 51.171 529.294 27.768 519.082 12.959 C 513.795 5.307 518.748 -3.403 525.345 1.443 C 530.679 5.347 539.423 18.407 541.634 26.707 C 548.204 51.36 547.125 85.533 539.571 109.479 C 536.745 118.428 531.858 127.358 526.46 132.465 C 520.987 137.66 513.898 147.331 508.425 142.13 C 501.094 135.186 507.153 125.927 513.822 116.82" transform="matrix(-0.945519, 0.325568, -0.325568, -0.945519, 1045.801111, -31.340916)"/>
    <path style="stroke: rgba(0, 0, 0, 0);" d="M 808.647 192.376 C 686.932 192.376 701.596 -84.143 845.211 -67.131 C 962.317 -53.253 1022.353 153.054 882.052 186.288 C 856.993 192.245 830.146 196.969 806.605 191.945" transform="matrix(-0.945519, 0.325568, -0.325568, -0.945519, 1664.474509, -152.357222)"/>
    <path style="stroke: rgba(0, 0, 0, 0); fill: rgb(80, 80, 80);" d="M 819.999 135.554 C 749.069 135.554 757.635 -13.057 841.317 -3.91 C 909.529 3.56 944.522 114.403 862.772 132.271 C 848.155 135.469 832.526 138.01 818.817 135.31" transform="matrix(-0.945519, 0.325568, -0.325568, -0.945519, 1658.02603, -145.324779)"/>
    <path style="stroke: rgba(0, 0, 0, 0); fill: rgb(36, 36, 36);" d="M 912.471 33.022 C 902.787 61.326 908.352 92.507 914.374 120.727 C 916.345 129.871 913.993 151.308 901.886 146.602 C 889.23 141.662 884.567 114.976 882.678 101.616 C 876.091 55.313 890.179 5.728 922.759 -26.03 C 933.935 -36.945 955.269 -51.481 949.927 -26.547 C 946.48 -10.297 929.698 2.969 919.988 14.335" transform="matrix(-0.945519, 0.325568, -0.325568, -0.945519, 1799.380282, -194.126271)"/>
    <path style="stroke: rgba(0, 0, 0, 0); fill: rgb(46, 46, 46);" d="M 770.962 105.737 C 780.281 98.425 783.534 78.919 786.489 64.891 C 791.439 41.468 783.701 12.96 767.46 -5.078 C 759.078 -14.383 766.929 -24.998 777.402 -19.107 C 785.885 -14.346 799.804 1.565 803.296 11.661 C 813.732 41.705 812.013 83.315 800.026 112.473 C 795.539 123.369 787.753 134.236 779.175 140.475 C 770.479 146.798 759.216 158.569 750.518 152.237 C 738.877 143.778 748.503 132.496 759.104 121.402" transform="matrix(-0.945519, 0.325568, -0.325568, -0.945519, 1534.704771, -123.572337)"/>
    <path style="stroke: rgba(0, 0, 0, 0); fill: rgb(85, 85, 85);" d="M 765.91 104.237 C 771.773 98.235 773.817 82.221 775.684 70.694 C 778.799 51.461 773.91 28.058 763.698 13.249 C 758.411 5.597 763.364 -3.113 769.961 1.733 C 775.295 5.637 784.039 18.697 786.25 26.997 C 792.82 51.65 791.741 85.824 784.187 109.77 C 781.361 118.719 776.474 127.649 771.076 132.756 C 765.603 137.951 758.514 147.622 753.041 142.421 C 745.71 135.477 751.769 126.218 758.438 117.111" transform="matrix(-0.945519, 0.325568, -0.325568, -0.945519, 1521.800743, -110.414846)"/>
  </g><g transform="matrix(0.9187132120132446, 0, 0, 0.9187132120132446, 995.6829833984375, 957.6318359375)">
    <path style="stroke: rgba(0, 0, 0, 0);" d="M 320.027 191.036 C 198.316 191.036 212.98 -85.481 356.591 -68.469 C 473.697 -54.591 533.733 151.715 393.432 184.948 C 368.373 190.905 341.526 195.629 317.985 190.605" transform="matrix(-0.945519, 0.325568, -0.325568, -0.945519, 713.422056, 4.116262)"/>
    <path style="stroke: rgba(0, 0, 0, 0); fill: rgb(80, 80, 80);" d="M 331.379 134.215 C 260.452 134.215 269.018 -14.395 352.697 -5.248 C 420.909 2.222 455.902 113.064 374.152 130.932 C 359.535 134.13 343.906 136.671 330.197 133.971" transform="matrix(-0.945519, 0.325568, -0.325568, -0.945519, 706.973135, 11.149801)"/>
    <path style="stroke: rgba(0, 0, 0, 0); fill: rgb(36, 36, 36);" d="M 423.853 31.683 C 414.169 59.987 419.734 91.168 425.756 119.387 C 427.726 128.531 425.375 149.968 413.268 145.262 C 400.612 140.322 395.949 113.636 394.06 100.276 C 387.473 53.974 401.561 4.389 434.139 -27.369 C 445.315 -38.283 466.649 -52.819 461.307 -27.886 C 457.86 -11.636 441.078 1.63 431.368 12.996" transform="matrix(-0.945519, 0.325568, -0.325568, -0.945519, 848.326929, -37.652972)"/>
    <path style="stroke: rgba(0, 0, 0, 0); fill: rgb(46, 46, 46);" d="M 282.342 104.398 C 291.661 97.086 294.914 77.58 297.869 63.552 C 302.819 40.13 295.081 11.622 278.84 -6.416 C 270.458 -15.721 278.309 -26.336 288.782 -20.445 C 297.265 -15.684 311.184 0.227 314.676 10.323 C 325.112 40.367 323.393 81.976 311.406 111.134 C 306.919 122.03 299.133 132.897 290.555 139.136 C 281.859 145.459 270.596 157.23 261.898 150.898 C 250.257 142.439 259.883 131.157 270.484 120.063" transform="matrix(-0.945519, 0.325568, -0.325568, -0.945519, 583.649696, 32.902524)"/>
    <path style="stroke: rgba(0, 0, 0, 0); fill: rgb(85, 85, 85);" d="M 277.29 102.898 C 283.153 96.896 285.197 80.882 287.064 69.355 C 290.179 50.123 285.29 26.72 275.078 11.911 C 269.791 4.259 274.744 -4.451 281.341 0.395 C 286.675 4.299 295.419 17.359 297.63 25.659 C 304.2 50.312 303.121 84.485 295.567 108.431 C 292.741 117.38 287.854 126.31 282.456 131.417 C 276.983 136.612 269.894 146.283 264.421 141.082 C 257.09 134.138 263.149 124.879 269.818 115.772" transform="matrix(-0.945519, 0.325568, -0.325568, -0.945519, 570.745581, 46.060045)"/>
  </g><g transform="matrix(0.9187132120132446, 0, 0, 0.9187132120132446, -152.8114471435547, 120.42091369628906)">
    <path style="stroke: rgba(0, 0, 0, 0);" d="M 65.787 191.699 C -55.916 191.699 -41.254 -84.823 102.344 -67.811 C 219.449 -53.933 279.485 152.378 139.185 185.611 C 114.126 191.568 87.281 196.292 63.745 191.268" transform="matrix(-0.945519, 0.325568, -0.325568, -0.945519, 219.005431, 88.174066)"/>
    <path style="stroke: rgba(0, 0, 0, 0); fill: rgb(80, 80, 80);" d="M 77.135 134.878 C 6.209 134.878 14.775 -13.736 98.45 -4.589 C 166.662 2.881 201.655 113.727 119.905 131.595 C 105.288 134.793 89.659 137.334 75.953 134.634" transform="matrix(-0.945519, 0.325568, -0.325568, -0.945519, 212.54943, 95.209888)"/>
    <path style="stroke: rgba(0, 0, 0, 0); fill: rgb(36, 36, 36);" d="M 169.61 32.343 C 159.926 60.65 165.491 91.831 171.513 120.05 C 173.483 129.194 171.132 150.631 159.025 145.925 C 146.369 140.985 141.706 114.299 139.817 100.939 C 133.23 54.637 147.318 5.049 179.896 -26.71 C 191.072 -37.624 212.406 -52.16 207.064 -27.227 C 203.617 -10.976 186.835 2.29 177.125 13.656" transform="matrix(-0.945519, 0.325568, -0.325568, -0.945519, 353.907614, 46.406358)"/>
    <path style="stroke: rgba(0, 0, 0, 0); fill: rgb(46, 46, 46);" d="M 28.095 105.059 C 37.414 97.746 40.667 78.24 43.622 64.212 C 48.572 40.789 40.834 12.281 24.593 -5.758 C 16.211 -15.063 24.062 -25.678 34.535 -19.787 C 43.018 -15.026 56.937 0.885 60.429 10.982 C 70.865 41.026 69.146 82.636 57.159 111.795 C 52.672 122.693 44.886 133.56 36.308 139.799 C 27.612 146.122 16.349 157.893 7.651 151.561 C -3.99 143.102 5.636 131.82 16.237 120.726" transform="matrix(-0.945519, 0.325568, -0.325568, -0.945519, 89.22245, 116.9622)"/>
    <path style="stroke: rgba(0, 0, 0, 0); fill: rgb(85, 85, 85);" d="M 23.043 103.558 C 28.906 97.556 30.95 81.541 32.817 70.014 C 35.932 50.782 31.043 27.378 20.831 12.569 C 15.544 4.917 20.497 -3.793 27.094 1.053 C 32.428 4.957 41.172 18.017 43.383 26.317 C 49.953 50.971 48.874 85.144 41.32 109.091 C 38.494 118.041 33.607 126.971 28.209 132.078 C 22.736 137.274 15.647 146.946 10.174 141.744 C 2.843 134.799 8.902 125.54 15.571 116.433" transform="matrix(-0.945519, 0.325568, -0.325568, -0.945519, 76.31825, 130.119097)"/>
  </g></svg>