<?xml version="1.0" encoding="utf-8"?>
<svg id="master-artboard" viewBox="0 0 389.4794006347656 373.6876220703125" version="1.1" xmlns="http://www.w3.org/2000/svg" x="0px" y="0px" style="enable-background:new 0 0 1400 980;" width="389.4794006347656px" height="373.6876220703125px"><defs><style id="ee-google-fonts">@import url(https://fonts.googleapis.com/css?family=Fjalla+One:400|Roboto:100,100italic,300,300italic,400,400italic,500,500italic,700,700italic,900,900italic);</style><style id="style-1">@import url(https://fonts.googleapis.com/css?family=Anton:400|Roboto+Slab:100,300,400,700);</style><path id="text-path-0" d="M 778.8464965820312 213.4612274169922 A 100 18 0 0 1 988.3533935546875 213.4612274169922 A 100 18 0 0 1 778.8464965820312 213.4612274169922 Z" style="fill: none; stroke: red; stroke-width: 2;"/><path id="text-path-1" d="M 664.5464477539062 37.96122741699219 A 100 19 0 0 1 876.5812377929688 37.96122741699219 A 100 19 0 0 1 664.5464477539062 37.96122741699219" style="fill: none; stroke: red; stroke-width: 2;"/><path id="text-path-2" d="M 765.3650512695312 211.70851135253906 A 100 17 0 0 1 991.5017700195312 211.70851135253906 A 100 17 0 0 1 765.3650512695312 211.70851135253906" style="fill: none; stroke: red; stroke-width: 2;"/><path id="path-1" d="M 765.3650512695312 211.70851135253906 A 100 17 0 0 1 991.5017700195312 211.70851135253906 A 100 17 0 0 1 765.3650512695312 211.70851135253906" style="fill: none; stroke: red; stroke-width: 2;"/><path id="path-2" d="M 778.8464965820312 213.4612274169922 A 100 18 0 0 1 988.3533935546875 213.4612274169922 A 100 18 0 0 1 778.8464965820312 213.4612274169922 Z" style="fill: none; stroke: red; stroke-width: 2;"/><path id="path-3" d="M 664.5464477539062 37.96122741699219 A 100 19 0 0 1 876.5812377929688 37.96122741699219 A 100 19 0 0 1 664.5464477539062 37.96122741699219" style="fill: none; stroke: red; stroke-width: 2;"/><path id="path-4" d="M 765.3650512695312 211.70851135253906 A 100 17 0 0 1 991.5017700195312 211.70851135253906 A 100 17 0 0 1 765.3650512695312 211.70851135253906" style="fill: none; stroke: red; stroke-width: 2;"/><path id="path-5" d="M 765.3650512695312 211.70851135253906 A 100 17 0 0 1 991.5017700195312 211.70851135253906 A 100 17 0 0 1 765.3650512695312 211.70851135253906" style="fill: none; stroke: red; stroke-width: 2;"/></defs>











































<g transform="matrix(1, 0, 0, 1, -426.03710412979126, -240.9805908203125)">
		<path class="st13" d="M448.4,599.9" style="fill: rgb(223, 243, 251);"/>
	</g>





















































<g transform="matrix(1.2528609037399294, 0, 0, 1.2528609037399294, -431.340807418396, -404.5013227525104)"><rect id="rect-1" x="0" y="0" width="1400" height="980" style="fill: none; fill-opacity: 1; pointer-events: none;"/><path style="fill: rgb(63, 61, 61); fill-opacity: 1; stroke: rgb(0, 0, 0); stroke-opacity: 1; stroke-width: 0; paint-order: fill;"/><path style="fill: rgb(63, 61, 61); fill-opacity: 1; stroke: rgb(0, 0, 0); stroke-opacity: 1; stroke-width: 0; paint-order: fill;"/><path d="M 880.3870239257812 239.90606689453125" style="fill: rgb(63, 61, 61); fill-opacity: 1; stroke: rgb(0, 0, 0); stroke-opacity: 1; stroke-width: 0; paint-order: fill;"/><path d="M 864.144775390625 229.48651123046875" style="fill: rgb(63, 61, 61); fill-opacity: 1; stroke: rgb(0, 0, 0); stroke-opacity: 1; stroke-width: 0; paint-order: fill;"/><path style="fill: rgb(63, 61, 61); fill-opacity: 1; stroke: rgb(0, 0, 0); stroke-opacity: 1; stroke-width: 0; paint-order: fill;"/><path style="fill: rgb(63, 61, 61); fill-opacity: 1; stroke: rgb(0, 0, 0); stroke-opacity: 1; stroke-width: 0; paint-order: fill;"/><path style="fill: rgb(63, 61, 61); fill-opacity: 1; stroke: rgb(0, 0, 0); stroke-opacity: 1; stroke-width: 0; paint-order: fill;"/><path style="fill: rgb(63, 61, 61); fill-opacity: 1; stroke: rgb(0, 0, 0); stroke-opacity: 1; stroke-width: 0; paint-order: fill;"/><path style="stroke: rgba(0, 0, 0, 0); fill: rgb(22, 56, 0);" d="M 814.653 365.598 C 809.454 371.078 801.281 378.143 796.804 385.024 C 768.314 428.815 773.422 434.327 764.56 453.014 C 760.483 461.613 757.14 492.587 760.269 498.488 C 760.606 499.125 768.708 510.686 768.016 510.686 C 767.057 510.686 756.116 508.865 757.076 508.865 C 744.807 504.553 749.447 464.804 751.895 453.622 C 757.835 426.479 773.52 397.472 791.622 374.097 C 797.855 366.049 804.182 363.777 814.653 363.777" transform="matrix(-1, 0, 0, -1, 1378.8951682023603, 938.6377977923368)"/><path style="stroke: rgba(0, 0, 0, 0); fill: rgb(45, 118, 0);" d="M 810.895 364.365 C 805.842 369.9 797.895 377.035 793.543 383.987 C 765.846 428.218 770.81 433.785 762.196 452.661 C 758.231 461.344 754.982 492.631 758.023 498.592 C 758.352 499.235 766.227 510.913 765.553 510.913 C 764.622 510.913 753.985 509.075 754.92 509.075 C 742.991 504.719 747.502 464.569 749.88 453.275 C 755.656 425.858 770.906 396.56 788.503 372.948 C 794.563 364.82 800.715 362.525 810.895 362.525" transform="matrix(-1, 0, 0, -1, 1373.2054709367353, 937.6127733782743)"/><path style="stroke: rgba(0, 0, 0, 0); fill: rgb(22, 56, 0);" d="M 722.377 366.635 C 718.044 371.117 711.231 376.896 707.5 382.523 C 683.754 418.34 688.011 422.848 680.625 438.132 C 677.227 445.165 674.44 470.499 677.048 475.325 C 677.329 475.846 684.082 485.302 683.505 485.302 C 682.706 485.302 673.587 483.812 674.387 483.812 C 664.161 480.286 668.028 447.775 670.069 438.629 C 675.02 416.429 688.093 392.705 703.181 373.586 C 708.376 367.004 713.649 365.146 722.377 365.146" transform="matrix(0.7986359000205993, 0.601815104484558, -0.601815104484558, 0.7986359000205993, 211.13216771407895, -268.4626660748506)"/><path style="stroke: rgba(0, 0, 0, 0); fill: rgb(45, 118, 0);" d="M 723.256 367.808 C 719.045 372.335 712.421 378.17 708.794 383.856 C 685.708 420.033 689.846 424.586 682.666 440.024 C 679.361 447.126 676.653 472.716 679.188 477.591 C 679.462 478.117 686.026 487.668 685.464 487.668 C 684.688 487.668 675.822 486.165 676.602 486.165 C 666.659 482.602 670.419 449.764 672.401 440.527 C 677.215 418.102 689.926 394.14 704.593 374.828 C 709.644 368.18 714.771 366.303 723.256 366.303" transform="matrix(0.7986359000205993, 0.601815104484558, -0.601815104484558, 0.7986359000205993, 212.5225790910323, -269.0951428814912)"/><path style="stroke: rgba(0, 0, 0, 0); fill: rgb(22, 56, 0);" d="M 714.898 267.004 C 710.565 271.486 703.752 277.265 700.021 282.892 C 676.275 318.709 680.532 323.217 673.146 338.501 C 669.748 345.534 666.961 370.868 669.569 375.694 C 669.85 376.215 676.603 385.671 676.026 385.671 C 675.227 385.671 666.108 384.181 666.908 384.181 C 656.682 380.655 660.549 348.144 662.59 338.998 C 667.541 316.798 680.614 293.074 695.702 273.955 C 700.897 267.373 706.17 265.515 714.898 265.515" transform="matrix(0.9455191493034363, 0.32556799054145813, -0.32556799054145813, 0.9455191493034363, -41.262867075960116, -141.92174200258512)"/><path style="stroke: rgba(0, 0, 0, 0); fill: rgb(45, 118, 0);" d="M 716.24 267.583 C 712.029 272.11 705.405 277.945 701.778 283.631 C 678.692 319.809 682.83 324.362 675.65 339.8 C 672.345 346.902 669.637 372.492 672.172 377.367 C 672.446 377.893 679.01 387.444 678.448 387.444 C 677.672 387.444 668.806 385.941 669.586 385.941 C 659.643 382.378 663.403 349.54 665.385 340.303 C 670.199 317.878 682.91 293.915 697.577 274.603 C 702.628 267.955 707.755 266.078 716.24 266.078" transform="matrix(0.9455191493034363, 0.32556799054145813, -0.32556799054145813, 0.9455191493034363, -40.76800928787418, -142.54289678774137)"/><path style="stroke: rgba(0, 0, 0, 0); fill: rgb(22, 56, 0);" d="M 612.176 369.573 C 607.843 374.055 601.03 379.834 597.299 385.461 C 573.552 421.278 577.809 425.786 570.423 441.07 C 567.025 448.103 564.238 473.437 566.846 478.263 C 567.127 478.784 573.88 488.24 573.303 488.24 C 572.504 488.24 563.385 486.75 564.185 486.75 C 553.959 483.224 557.826 450.713 559.867 441.567 C 564.818 419.367 577.891 395.643 592.98 376.524 C 598.175 369.942 603.448 368.084 612.176 368.084" transform="matrix(0.7880110144615173, -0.6156620979309082, 0.6156620979309082, 0.7880110144615173, -324.35411463455387, 514.979655702493)"/><path style="stroke: rgba(0, 0, 0, 0); fill: rgb(45, 118, 0);" d="M 613.54 367.856 C 609.329 372.383 602.705 378.218 599.078 383.904 C 575.992 420.081 580.13 424.634 572.95 440.072 C 569.645 447.174 566.937 472.764 569.472 477.639 C 569.746 478.165 576.31 487.716 575.748 487.716 C 574.972 487.716 566.106 486.213 566.886 486.213 C 556.943 482.65 560.703 449.812 562.685 440.575 C 567.499 418.15 580.21 394.188 594.877 374.876 C 599.928 368.228 605.055 366.351 613.54 366.351" transform="matrix(0.7880110144615173, -0.6156620979309082, 0.6156620979309082, 0.7880110144615173, -323.20868311599907, 516.049235780618)"/><path style="stroke: rgba(0, 0, 0, 0); fill: rgb(22, 56, 0);" d="M 691.847 457.948 C 689.593 461.112 685.614 465.191 684.279 469.163 C 675.786 494.446 681.057 497.628 679.836 508.417 C 679.275 513.381 685.526 531.264 689.463 534.671 C 689.887 535.039 699.039 541.714 698.534 541.714 C 697.835 541.714 689.345 540.662 690.045 540.662 C 679.884 538.173 672.12 515.224 670.771 508.768 C 667.489 493.097 670.79 476.35 677.435 462.855 C 679.723 458.208 683.699 456.897 691.336 456.897" transform="matrix(0.9006291031837464, -0.434587985277176, 0.434587985277176, 0.9006291031837464, -333.7431832380693, 411.0585741595245)"/><path style="stroke: rgba(0, 0, 0, 0); fill: rgb(45, 118, 0);" d="M 693.104 456.836 C 690.972 460.031 687.178 464.15 685.955 468.164 C 678.163 493.701 683.345 496.914 682.358 507.812 C 681.902 512.825 688.309 530.889 692.199 534.33 C 692.619 534.701 701.638 541.443 701.147 541.443 C 700.468 541.443 692.195 540.382 692.877 540.382 C 682.955 537.867 674.983 514.687 673.549 508.167 C 670.07 492.337 672.973 475.423 679.183 461.791 C 681.322 457.098 685.164 455.773 692.588 455.773" transform="matrix(0.9006291031837464, -0.434587985277176, 0.434587985277176, 0.9006291031837464, -333.1826363630693, 412.11509271421187)"/><path style="stroke: rgba(0, 0, 0, 0); fill: rgb(22, 56, 0);" d="M 622.812 319.391 C 620.558 322.555 616.579 326.634 615.244 330.606 C 606.751 355.889 612.022 359.071 610.801 369.86 C 610.24 374.824 616.491 392.707 620.428 396.114 C 620.852 396.482 630.004 403.157 629.499 403.157 C 628.8 403.157 620.31 402.105 621.01 402.105 C 610.849 399.616 603.085 376.667 601.736 370.211 C 598.454 354.54 601.755 337.793 608.4 324.298 C 610.688 319.651 614.664 318.34 622.301 318.34" transform="matrix(-0.7100738883018493, 0.704127013683319, -0.704127013683319, -0.7100738883018493, 1120.9621848039226, 248.05291314878212)"/><path style="stroke: rgba(0, 0, 0, 0); fill: rgb(45, 118, 0);" d="M 619.257 320.479 C 617.125 323.674 613.331 327.793 612.108 331.807 C 604.316 357.344 609.498 360.557 608.511 371.455 C 608.055 376.468 614.462 394.532 618.352 397.973 C 618.772 398.344 627.791 405.086 627.3 405.086 C 626.621 405.086 618.348 404.025 619.03 404.025 C 609.108 401.51 601.136 378.33 599.702 371.81 C 596.223 355.98 599.126 339.066 605.336 325.434 C 607.475 320.741 611.317 319.416 618.741 319.416" transform="matrix(-0.7100738883018493, 0.704127013683319, -0.704127013683319, -0.7100738883018493, 1118.2212180070476, 252.18647332944607)"/></g></svg>