<?xml version="1.0" encoding="utf-8"?>
<svg id="master-artboard" viewBox="0 0 1000 1000" version="1.1" xmlns="http://www.w3.org/2000/svg" x="0px" y="0px" style="enable-background:new 0 0 1400 980;" width="1000px" height="1000px"><rect id="ee-background" x="0" y="0" width="1000" height="1000" style="fill: white; fill-opacity: 0; pointer-events: none;"/><defs><style id="ee-google-fonts">@import url(https://fonts.googleapis.com/css?family=Fjalla+One:400|Roboto:100,100italic,300,300italic,400,400italic,500,500italic,700,700italic,900,900italic);</style></defs>











































<g transform="matrix(0.9999999999999999, 0, 0, 0.9999999999999999, 1.8189894035458565e-12, 4.547473508864641e-13)">
		<path class="st13" d="M448.4,599.9" style="fill: rgb(223, 243, 251);"/>
	</g>





















































<path d="M 260.79998779296875 86.19999694824219" style="fill: rgb(23, 168, 247); fill-opacity: 1; stroke: rgb(0, 0, 0); stroke-opacity: 1; stroke-width: 0; paint-order: fill;" transform="matrix(1, 0, 0, 1, -30.89025115966797, 99.75399780273438)"/><path style="fill: rgb(63, 61, 61); fill-opacity: 1; stroke: rgb(0, 0, 0); stroke-opacity: 1; stroke-width: 0; paint-order: fill;" transform="matrix(0.8143787980079651, 0, 0, 0.8143787980079651, 147.57847595214844, 88.30940246582031)"/><path style="fill: rgb(63, 61, 61); fill-opacity: 1; stroke: rgb(0, 0, 0); stroke-opacity: 1; stroke-width: 0; paint-order: fill;" transform="matrix(0.8143787980079651, 0, 0, 0.8143787980079651, 147.57847595214844, 88.30940246582031)"/><path style="fill: rgb(63, 61, 61); fill-opacity: 1; stroke: rgb(0, 0, 0); stroke-opacity: 1; stroke-width: 0; paint-order: fill;" transform="matrix(0.8143787980079651, 0, 0, 0.8143787980079651, 147.57847595214844, 88.30940246582031)"/><path style="fill: rgb(63, 61, 61); fill-opacity: 1; stroke: rgb(0, 0, 0); stroke-opacity: 1; stroke-width: 0; paint-order: fill;" transform="matrix(0.8143787980079651, 0, 0, 0.8143787980079651, 147.57847595214844, 88.30940246582031)"/><path style="fill: rgb(63, 61, 61); fill-opacity: 1; stroke: rgb(0, 0, 0); stroke-opacity: 1; stroke-width: 0; paint-order: fill;" transform="matrix(0.8143787980079651, 0, 0, 0.8143787980079651, 147.57847595214844, 88.30940246582031)"/><path style="fill: rgb(63, 61, 61); fill-opacity: 1; stroke: rgb(0, 0, 0); stroke-opacity: 1; stroke-width: 0; paint-order: fill;" transform="matrix(0.8143787980079651, 0, 0, 0.8143787980079651, 147.57847595214844, 88.30940246582031)"/><path style="fill: rgb(63, 61, 61); fill-opacity: 1; stroke: rgb(0, 0, 0); stroke-opacity: 1; stroke-width: 0; paint-order: fill;" transform="matrix(0.8143787980079651, 0, 0, 0.8143787980079651, 147.57847595214844, 88.30940246582031)"/><path style="stroke: rgba(0, 0, 0, 0); fill: rgb(255, 255, 255);" d="M 398.313 848.151 C 434.5 844.452 454.167 846.206 484.723 849.384 C 481.839 854.966 475.475 864.356 453.749 868.284 C 431.547 872.297 406.58 862.613 398.766 848.574" transform="matrix(0.8143787980079651, 0, 0, 0.8143787980079651, 147.57847595214844, 88.30940246582031)"/><path style="fill: rgb(63, 61, 61); fill-opacity: 1; stroke: rgb(0, 0, 0); stroke-opacity: 1; stroke-width: 0; paint-order: fill;" transform="matrix(0.8143787980079651, 0, 0, 0.8143787980079651, 146.07000732421875, 88.58634948730469)"/><path style="fill: rgb(63, 61, 61); fill-opacity: 1; stroke: rgb(0, 0, 0); stroke-opacity: 1; stroke-width: 0; paint-order: fill;" transform="matrix(0.8143787980079651, 0, 0, 0.8143787980079651, 146.07000732421875, 88.58634948730469)"/><path style="fill: rgb(63, 61, 61); fill-opacity: 1; stroke: rgb(0, 0, 0); stroke-opacity: 1; stroke-width: 0; paint-order: fill;" transform="matrix(0.8143787980079651, 0, 0, 0.8143787980079651, 146.07000732421875, 88.58634948730469)"/><g transform="matrix(10, 0, 0, 10, -6021.244140625, -460.04193115234375)"><g id="g-1" transform="matrix(1, 0, 0, 1, 0, 0)"><g id="g-2"><path class="st0" d="M652,46c27.6,0,50,22.4,50,50s-22.4,50-50,50s-50-22.4-50-50S624.4,46,652,46z" style="fill: rgb(235, 22, 47); fill-opacity: 1;"/></g></g></g><path style="fill: rgb(63, 61, 61); fill-opacity: 1; stroke: rgb(0, 0, 0); stroke-opacity: 1; stroke-width: 0; paint-order: fill;" transform="matrix(0.8143787980079651, 0, 0, 0.8143787980079651, 146.07000732421875, 88.58634948730469)"/><path style="fill: rgb(63, 61, 61); fill-opacity: 1; stroke: rgb(0, 0, 0); stroke-opacity: 1; stroke-width: 0; paint-order: fill;" transform="matrix(0.8143787980079651, 0, 0, 0.8143787980079651, 146.07000732421875, 88.58634948730469)"/><path style="fill: rgb(63, 61, 61); fill-opacity: 1; stroke: rgb(0, 0, 0); stroke-opacity: 1; stroke-width: 0; paint-order: fill;" transform="matrix(0.8143787980079651, 0, 0, 0.8143787980079651, 146.07000732421875, 88.58634948730469)"/><path style="fill: rgb(63, 61, 61); fill-opacity: 1; stroke: rgb(0, 0, 0); stroke-opacity: 1; stroke-width: 0; paint-order: fill;" transform="matrix(0.8143787980079651, 0, 0, 0.8143787980079651, 146.07000732421875, 88.58634948730469)"/><g style="" transform="matrix(3.7109150886535645, 0, 0, 3.5580339431762695, -479.5816040039063, -160.4389801025391)"><path d="M 340.158997 190.423996 A 73.529999 80.882004 0 0 1 266.628998 271.306 A 73.529999 80.882004 0 0 1 193.098999 190.423996 A 73.529999 80.882004 0 0 1 266.628998 109.541992 A 73.529999 80.882004 0 0 1 340.158997 190.423996 Z" style="stroke: rgba(0, 0, 0, 0); fill: rgb(226, 152, 88);"/><path d="M 323.818016 205.457001 A 58.415001 92.727997 0 0 1 265.403015 298.184998 A 58.415001 92.727997 0 0 1 206.988014 205.457001 A 58.415001 92.727997 0 0 1 265.403015 112.729004 A 58.415001 92.727997 0 0 1 323.818016 205.457001 Z" style="stroke: rgba(0, 0, 0, 0); fill: rgb(226, 152, 88);"/><path style="stroke: rgba(0, 0, 0, 0); fill: rgb(226, 152, 88);" d="M 198.965 177.953 C 200.32 184.748 193.735 203.399 195.454 210.106 C 202.141 236.167 219.432 273.442 239.92 288.654"/><path style="stroke: rgba(0, 0, 0, 0); fill: rgb(226, 152, 88);" d="M 290.942 290.564 C 292.467 284.038 285.055 266.124 286.992 259.683 C 294.516 234.652 313.976 198.851 337.033 184.241" transform="matrix(-1, 0, 0, -1, 623.699738, 474.804993)"/></g><g style="" transform="matrix(3.2342560291290283, 0, 0, 3.2342560291290283, -307.4927978515625, -103.08885955810545)"><g><path style="stroke: rgba(0, 0, 0, 0); fill: rgb(51, 7, 7);" d="M 168.865 225.244 C 159.214 196.243 168.642 137.067 191.742 117.489 C 215.435 97.407 257.334 86.484 285.546 101.445 C 316.41 117.813 337.415 147.605 339.278 202.072 C 334.309 203.859 278.797 205.586 221.222 159.225 C 220.17 156.061 205.603 202.767 168.985 225.805"/><path style="stroke: rgba(0, 0, 0, 0); fill: rgb(51, 7, 7);" d="M 167.812 205.939 C 162.999 223.079 181.983 259.702 182.581 260.378 C 182.93 260.772 182.143 246.354 181.868 241.092 C 181.085 226.202 182.406 216.616 187.883 209.999"/><path style="stroke: rgba(0, 0, 0, 0); fill: rgb(51, 7, 7);" d="M 284.436 192.118 C 305.234 199.061 316.528 200.776 322.403 221.828 C 324.583 229.634 330.542 256.522 319.634 276.498 C 318.685 278.236 335.01 241.928 336.641 232.129 C 341.083 205.432 342.734 185.148 322.403 164.784"/></g><path d="M 298.675999 101.672997 A 50.993 43.710999 0 0 1 247.682999 145.383995 A 50.993 43.710999 0 0 1 196.689999 101.672997 A 50.993 43.710999 0 0 1 247.682999 57.961998 A 50.993 43.710999 0 0 1 298.675999 101.672997 Z" style="stroke: rgba(187, 218, 85, 0); fill: rgb(51, 7, 7);"/></g><g style="stroke-width: 3.38868; vector-effect: non-scaling-stroke;" transform="matrix(3.234267950057983, 0.0002140000578947365, 0, 3.234267950057983, -307.49682617187494, -103.14382171630857)"><g><path d="M 236.917996 248.078995 A 14.647 6.966 0 0 1 222.270996 255.044995 A 14.647 6.966 0 0 1 207.623996 248.078995 A 14.647 6.966 0 0 1 222.270996 241.112995 A 14.647 6.966 0 0 1 236.917996 248.078995 Z" style="stroke: rgba(0, 0, 0, 0); fill: rgb(255, 111, 111);"/><path style="stroke: rgba(0, 0, 0, 0); fill: rgb(24, 0, 0);" d="M 196.126 213.239 C 206.014 204.669 221.253 210.922 232.61 212.89 C 234.875 213.283 242.405 213.684 241.032 210.111 C 239.45 206.002 231.067 204.361 226.998 203.858 C 214.99 202.369 194.522 202.408 194.522 215.671"/></g><g transform="matrix(-1, 0, 0, 1, 506.197998, -0.010495)" style="pointer-events: none;"><path d="M 236.917996 248.078995 A 14.647 6.966 0 0 1 222.270996 255.044995 A 14.647 6.966 0 0 1 207.623996 248.078995 A 14.647 6.966 0 0 1 222.270996 241.112995 A 14.647 6.966 0 0 1 236.917996 248.078995 Z" style="stroke: rgba(0, 0, 0, 0); fill: rgb(255, 111, 111);"/><path style="stroke: rgba(0, 0, 0, 0); fill: rgb(24, 0, 0);" d="M 196.126 213.239 C 206.014 204.669 221.253 210.922 232.61 212.89 C 234.875 213.283 242.405 213.684 241.032 210.111 C 239.45 206.002 231.067 204.361 226.998 203.858 C 214.99 202.369 194.522 202.408 194.522 215.671"/></g></g><path style="stroke: rgba(0, 0, 0, 0); fill: rgb(217, 128, 50);" d="M 254.526 261.666 C 254.295 262.644 263.03 259.151 261.867 256.465 C 260.719 253.812 258.022 257.55 254.315 258.774 C 252.709 259.304 246.856 254.899 245.171 255.848 C 242.61 257.29 253.251 262.603 255.017 261.711" transform="matrix(3.2342560291290283, 0, 0, 3.2342560291290283, -307.4927978515625, -103.08885955810545)"/><path d="M 282.851997 93.530998 A 34.540001 31.400999 0 0 1 248.311996 124.931997 A 34.540001 31.400999 0 0 1 213.771996 93.530998 A 34.540001 31.400999 0 0 1 248.311996 62.129999 A 34.540001 31.400999 0 0 1 282.851997 93.530998 Z" style="stroke: rgba(0, 0, 0, 0); fill: rgb(77, 17, 17);" transform="matrix(3.2342560291290283, 0, 0, 3.2342560291290283, -307.4927978515625, -103.08885955810545)"/><path d="M 309.449993 130.733002 A 60.967999 28.26 0 0 1 248.481995 158.993002 A 60.967999 28.26 0 0 1 187.513996 130.733002 A 60.967999 28.26 0 0 1 248.481995 102.473001 A 60.967999 28.26 0 0 1 309.449993 130.733002 Z" style="stroke: rgba(0, 0, 0, 0); fill: rgb(51, 7, 7);" transform="matrix(3.2342560291290283, 0, 0, 3.2342560291290283, -307.4927978515625, -103.08885955810545)"/><path style="stroke: rgba(0, 0, 0, 0); fill: rgb(77, 17, 17);" d="M 175.391 223.904 C 170.264 213.65 177.557 203.302 183.626 194.805 C 192.957 181.742 208.421 166.7 205.038 149.785 C 203.938 144.283 195.718 141.543 191.312 143.746 C 184.775 147.014 182.525 150.524 179.783 156.923 C 171.89 175.339 169.374 196.039 172.645 215.668" transform="matrix(3.2342560291290283, 0, 0, 3.2342560291290283, -307.4927978515625, -103.08885955810545)"/><path style="stroke: rgba(0, 0, 0, 0); fill: rgb(77, 17, 17);" d="M 327.471 211.825 C 327.471 162.099 253.593 193.915 248.96 147.589 C 245.873 116.722 280.361 114.059 299.471 128.922 C 321.068 145.72 321.494 173.476 326.942 197.992" transform="matrix(3.2342560291290283, 0, 0, 3.2342560291290283, -307.4927978515625, -103.08885955810545)"/><g transform="matrix(1.3385449647903442, 0, 0, 1.286882996559143, -491.81219482421875, -263.41619873046875)" style=""><path style="stroke: rgba(0, 0, 0, 0); fill: rgb(255, 19, 19);" d="M 707.95 827.824 C 713.05 874.816 790.625 888.507 793.911 825.423 C 794.868 807.056 710.058 801.459 707.647 829.909" data-bx-origin="0.561 0.519" transform="matrix(0.999954, -0.009621, 0.009621, 0.999954, -8.048174, 7.3128)"/><path style="stroke: rgba(0, 0, 0, 0); fill: rgb(255, 255, 255);" d="M 710.467 829.797 C 737.832 832.592 765.258 830.884 792.338 827.713 C 791.702 822.234 789.496 816.55 764.232 813.494 C 742.197 810.829 712.084 816.398 709.985 829.626"/></g><g transform="matrix(1.25164794921875, 0, 0, 0.7619929313659668, -991.5014038085939, 188.6975860595703)" style=""><g><path style="stroke-width: 2.34229; vector-effect: non-scaling-stroke; stroke: rgba(0, 0, 0, 0);" d="M 1145.933 606.79 C 1126.094 577.855 1084.713 572.213 1073.367 610.264 C 1073.367 609.082 1073.451 612.923 1072.475 610.457 C 1057.91 573.574 1078.931 567.672 1084.933 556.669 C 1087.897 556.915 1056.012 566.009 1046.168 563.845 C 1038.838 562.236 1033.339 560.318 1025.362 554.47 C 1022.534 552.398 999.332 532.911 1001.063 532.381 C 1002.29 532.007 1000.696 532.974 1000.696 531.785 C 1015.221 551.772 1064.003 548.355 1083.142 545.85 C 1123.395 540.568 1145.32 569.664 1145.322 607.472" transform="matrix(1, 0.000066, -0.000066, 1, 0.037795, -0.07097)"/></g><g><path style="stroke-width: 2.34229; vector-effect: non-scaling-stroke; stroke: rgba(0, 0, 0, 0);" d="M 1398.796 536.281 C 1376.968 588.288 1327.175 559.014 1326.23 532.807 C 1326.23 533.99 1326.312 530.148 1325.337 532.614 C 1310.777 569.498 1331.799 575.399 1337.802 586.402 C 1340.766 586.156 1308.88 577.062 1299.036 579.226 C 1291.706 580.836 1286.208 582.753 1278.232 588.602 C 1275.404 590.674 1252.205 610.16 1253.936 610.691 C 1255.163 611.064 1253.568 610.098 1253.568 611.286 C 1268.091 591.299 1316.873 594.717 1336.013 597.221 C 1376.266 602.504 1398.187 573.407 1398.185 535.599" transform="matrix(-1, -0.000066, 0.000066, -1, 2652.32622, 1143.143781)"/></g></g></svg>