<?xml version="1.0" encoding="utf-8"?>
<svg id="master-artboard" viewBox="0 0 1000 1000" version="1.1" xmlns="http://www.w3.org/2000/svg" x="0px" y="0px" style="enable-background:new 0 0 336 235.2;" width="1000px" height="1000px"><rect id="ee-background" x="0" y="0" width="1000" height="1000" style="fill: white; fill-opacity: 0; pointer-events: none;"/>














<path d="M 260.79998779296875 86.19999694824219" style="fill: rgb(23, 168, 247); fill-opacity: 1; stroke: rgb(0, 0, 0); stroke-opacity: 1; stroke-width: 0; paint-order: fill;" transform="matrix(1, 0, 0, 1, -29.895431518554688, 100.28984832763672)"/><path style="fill: rgb(63, 61, 61); fill-opacity: 1; stroke: rgb(0, 0, 0); stroke-opacity: 1; stroke-width: 0; paint-order: fill;" transform="matrix(0.8143787980079651, 0, 0, 0.8143787980079651, 148.57330322265625, 88.84526824951172)"/><path style="fill: rgb(63, 61, 61); fill-opacity: 1; stroke: rgb(0, 0, 0); stroke-opacity: 1; stroke-width: 0; paint-order: fill;" transform="matrix(0.8143787980079651, 0, 0, 0.8143787980079651, 148.57330322265625, 88.84526824951172)"/><path style="fill: rgb(63, 61, 61); fill-opacity: 1; stroke: rgb(0, 0, 0); stroke-opacity: 1; stroke-width: 0; paint-order: fill;" transform="matrix(0.8143787980079651, 0, 0, 0.8143787980079651, 148.57330322265625, 88.84526824951172)"/><path style="fill: rgb(63, 61, 61); fill-opacity: 1; stroke: rgb(0, 0, 0); stroke-opacity: 1; stroke-width: 0; paint-order: fill;" transform="matrix(0.8143787980079651, 0, 0, 0.8143787980079651, 148.57330322265625, 88.84526824951172)"/><path style="fill: rgb(63, 61, 61); fill-opacity: 1; stroke: rgb(0, 0, 0); stroke-opacity: 1; stroke-width: 0; paint-order: fill;" transform="matrix(0.8143787980079651, 0, 0, 0.8143787980079651, 148.57330322265625, 88.84526824951172)"/><path style="fill: rgb(63, 61, 61); fill-opacity: 1; stroke: rgb(0, 0, 0); stroke-opacity: 1; stroke-width: 0; paint-order: fill;" transform="matrix(0.8143787980079651, 0, 0, 0.8143787980079651, 148.57330322265625, 88.84526824951172)"/><path style="fill: rgb(63, 61, 61); fill-opacity: 1; stroke: rgb(0, 0, 0); stroke-opacity: 1; stroke-width: 0; paint-order: fill;" transform="matrix(0.8143787980079651, 0, 0, 0.8143787980079651, 148.57330322265625, 88.84526824951172)"/><path style="fill: rgb(63, 61, 61); fill-opacity: 1; stroke: rgb(0, 0, 0); stroke-opacity: 1; stroke-width: 0; paint-order: fill;" transform="matrix(0.8143787980079651, 0, 0, 0.8143787980079651, 147.0648193359375, 89.1222152709961)"/><path style="fill: rgb(63, 61, 61); fill-opacity: 1; stroke: rgb(0, 0, 0); stroke-opacity: 1; stroke-width: 0; paint-order: fill;" transform="matrix(0.8143787980079651, 0, 0, 0.8143787980079651, 147.0648193359375, 89.1222152709961)"/><path style="fill: rgb(63, 61, 61); fill-opacity: 1; stroke: rgb(0, 0, 0); stroke-opacity: 1; stroke-width: 0; paint-order: fill;" transform="matrix(0.8143787980079651, 0, 0, 0.8143787980079651, 147.0648193359375, 89.1222152709961)"/><path style="fill: rgb(63, 61, 61); fill-opacity: 1; stroke: rgb(0, 0, 0); stroke-opacity: 1; stroke-width: 0; paint-order: fill;" transform="matrix(0.8143787980079651, 0, 0, 0.8143787980079651, 147.0648193359375, 89.1222152709961)"/><path style="fill: rgb(63, 61, 61); fill-opacity: 1; stroke: rgb(0, 0, 0); stroke-opacity: 1; stroke-width: 0; paint-order: fill;" transform="matrix(0.8143787980079651, 0, 0, 0.8143787980079651, 147.0648193359375, 89.1222152709961)"/><path style="fill: rgb(63, 61, 61); fill-opacity: 1; stroke: rgb(0, 0, 0); stroke-opacity: 1; stroke-width: 0; paint-order: fill;" transform="matrix(0.8143787980079651, 0, 0, 0.8143787980079651, 147.0648193359375, 89.1222152709961)"/><path style="fill: rgb(63, 61, 61); fill-opacity: 1; stroke: rgb(0, 0, 0); stroke-opacity: 1; stroke-width: 0; paint-order: fill;" transform="matrix(0.8143787980079651, 0, 0, 0.8143787980079651, 147.0648193359375, 89.1222152709961)"/><g transform="matrix(1, 0, 0, 1, 1.0625569820404053, 0.09820251166820526)">
    <path class="st13" d="M448.4,599.9" style="fill: rgb(223, 243, 251);"/>
  </g><path d="M 260.79998779296875 86.19999694824219" style="fill: rgb(23, 168, 247); fill-opacity: 1; stroke: rgb(0, 0, 0); stroke-opacity: 1; stroke-width: 0; paint-order: fill;" transform="matrix(1, 0, 0, 1, -29.827693939208984, 99.85220336914062)"/><path style="fill: rgb(63, 61, 61); fill-opacity: 1; stroke: rgb(0, 0, 0); stroke-opacity: 1; stroke-width: 0; paint-order: fill;" transform="matrix(0.8143787980079651, 0, 0, 0.8143787980079651, 148.64102172851562, 88.40760803222656)"/><path style="fill: rgb(63, 61, 61); fill-opacity: 1; stroke: rgb(0, 0, 0); stroke-opacity: 1; stroke-width: 0; paint-order: fill;" transform="matrix(0.8143787980079651, 0, 0, 0.8143787980079651, 148.64102172851562, 88.40760803222656)"/><path style="fill: rgb(63, 61, 61); fill-opacity: 1; stroke: rgb(0, 0, 0); stroke-opacity: 1; stroke-width: 0; paint-order: fill;" transform="matrix(0.8143787980079651, 0, 0, 0.8143787980079651, 148.64102172851562, 88.40760803222656)"/><path style="fill: rgb(63, 61, 61); fill-opacity: 1; stroke: rgb(0, 0, 0); stroke-opacity: 1; stroke-width: 0; paint-order: fill;" transform="matrix(0.8143787980079651, 0, 0, 0.8143787980079651, 148.64102172851562, 88.40760803222656)"/><path style="fill: rgb(63, 61, 61); fill-opacity: 1; stroke: rgb(0, 0, 0); stroke-opacity: 1; stroke-width: 0; paint-order: fill;" transform="matrix(0.8143787980079651, 0, 0, 0.8143787980079651, 148.64102172851562, 88.40760803222656)"/><path style="fill: rgb(63, 61, 61); fill-opacity: 1; stroke: rgb(0, 0, 0); stroke-opacity: 1; stroke-width: 0; paint-order: fill;" transform="matrix(0.8143787980079651, 0, 0, 0.8143787980079651, 148.64102172851562, 88.40760803222656)"/><path style="fill: rgb(63, 61, 61); fill-opacity: 1; stroke: rgb(0, 0, 0); stroke-opacity: 1; stroke-width: 0; paint-order: fill;" transform="matrix(0.8143787980079651, 0, 0, 0.8143787980079651, 148.64102172851562, 88.40760803222656)"/><path style="fill: rgb(63, 61, 61); fill-opacity: 1; stroke: rgb(0, 0, 0); stroke-opacity: 1; stroke-width: 0; paint-order: fill;" transform="matrix(0.8143787980079651, 0, 0, 0.8143787980079651, 147.13255310058594, 88.68455505371094)"/><path style="fill: rgb(63, 61, 61); fill-opacity: 1; stroke: rgb(0, 0, 0); stroke-opacity: 1; stroke-width: 0; paint-order: fill;" transform="matrix(0.8143787980079651, 0, 0, 0.8143787980079651, 147.13255310058594, 88.68455505371094)"/><path style="fill: rgb(63, 61, 61); fill-opacity: 1; stroke: rgb(0, 0, 0); stroke-opacity: 1; stroke-width: 0; paint-order: fill;" transform="matrix(0.8143787980079651, 0, 0, 0.8143787980079651, 147.13255310058594, 88.68455505371094)"/><path style="fill: rgb(63, 61, 61); fill-opacity: 1; stroke: rgb(0, 0, 0); stroke-opacity: 1; stroke-width: 0; paint-order: fill;" transform="matrix(0.8143787980079651, 0, 0, 0.8143787980079651, 147.13255310058594, 88.68455505371094)"/><path style="fill: rgb(63, 61, 61); fill-opacity: 1; stroke: rgb(0, 0, 0); stroke-opacity: 1; stroke-width: 0; paint-order: fill;" transform="matrix(0.8143787980079651, 0, 0, 0.8143787980079651, 147.13255310058594, 88.68455505371094)"/><path style="fill: rgb(63, 61, 61); fill-opacity: 1; stroke: rgb(0, 0, 0); stroke-opacity: 1; stroke-width: 0; paint-order: fill;" transform="matrix(0.8143787980079651, 0, 0, 0.8143787980079651, 147.13255310058594, 88.68455505371094)"/><path style="fill: rgb(63, 61, 61); fill-opacity: 1; stroke: rgb(0, 0, 0); stroke-opacity: 1; stroke-width: 0; paint-order: fill;" transform="matrix(0.8143787980079651, 0, 0, 0.8143787980079651, 147.13255310058594, 88.68455505371094)"/><g transform="matrix(1, 0, 0, 1, 0.5461416244506837, -0.6729218959808352)">
    <path class="st13" d="M448.4,599.9" style="fill: rgb(223, 243, 251);"/>
  </g><path d="M 260.79998779296875 86.19999694824219" style="fill: rgb(23, 168, 247); fill-opacity: 1; stroke: rgb(0, 0, 0); stroke-opacity: 1; stroke-width: 0; paint-order: fill;" transform="matrix(1, 0, 0, 1, -54.344108581542976, 99.08104705810548)"/><path style="fill: rgb(63, 61, 61); fill-opacity: 1; stroke: rgb(0, 0, 0); stroke-opacity: 1; stroke-width: 0; paint-order: fill;" transform="matrix(0.8143787980079652, 0, 0, 0.8143787980079652, 124.12461853027344, 87.63646697998047)"/><path style="fill: rgb(63, 61, 61); fill-opacity: 1; stroke: rgb(0, 0, 0); stroke-opacity: 1; stroke-width: 0; paint-order: fill;" transform="matrix(0.8143787980079652, 0, 0, 0.8143787980079652, 124.12461853027344, 87.63646697998047)"/><path style="fill: rgb(63, 61, 61); fill-opacity: 1; stroke: rgb(0, 0, 0); stroke-opacity: 1; stroke-width: 0; paint-order: fill;" transform="matrix(0.8143787980079652, 0, 0, 0.8143787980079652, 124.12461853027344, 87.63646697998047)"/><path style="fill: rgb(63, 61, 61); fill-opacity: 1; stroke: rgb(0, 0, 0); stroke-opacity: 1; stroke-width: 0; paint-order: fill;" transform="matrix(0.8143787980079652, 0, 0, 0.8143787980079652, 124.12461853027344, 87.63646697998047)"/><path style="fill: rgb(63, 61, 61); fill-opacity: 1; stroke: rgb(0, 0, 0); stroke-opacity: 1; stroke-width: 0; paint-order: fill;" transform="matrix(0.8143787980079652, 0, 0, 0.8143787980079652, 124.12461853027344, 87.63646697998047)"/><path style="fill: rgb(63, 61, 61); fill-opacity: 1; stroke: rgb(0, 0, 0); stroke-opacity: 1; stroke-width: 0; paint-order: fill;" transform="matrix(0.8143787980079652, 0, 0, 0.8143787980079652, 124.12461853027344, 87.63646697998047)"/><path style="fill: rgb(63, 61, 61); fill-opacity: 1; stroke: rgb(0, 0, 0); stroke-opacity: 1; stroke-width: 0; paint-order: fill;" transform="matrix(0.8143787980079652, 0, 0, 0.8143787980079652, 124.12461853027344, 87.63646697998047)"/><path style="fill: rgb(63, 61, 61); fill-opacity: 1; stroke: rgb(0, 0, 0); stroke-opacity: 1; stroke-width: 0; paint-order: fill;" transform="matrix(0.8143787980079652, 0, 0, 0.8143787980079652, 122.6161346435547, 87.91344451904297)"/><path style="fill: rgb(63, 61, 61); fill-opacity: 1; stroke: rgb(0, 0, 0); stroke-opacity: 1; stroke-width: 0; paint-order: fill;" transform="matrix(0.8143787980079652, 0, 0, 0.8143787980079652, 122.6161346435547, 87.91344451904297)"/><path style="fill: rgb(63, 61, 61); fill-opacity: 1; stroke: rgb(0, 0, 0); stroke-opacity: 1; stroke-width: 0; paint-order: fill;" transform="matrix(0.8143787980079652, 0, 0, 0.8143787980079652, 122.6161346435547, 87.91344451904297)"/><path style="fill: rgb(63, 61, 61); fill-opacity: 1; stroke: rgb(0, 0, 0); stroke-opacity: 1; stroke-width: 0; paint-order: fill;" transform="matrix(0.8143787980079652, 0, 0, 0.8143787980079652, 122.6161346435547, 87.91344451904297)"/><path style="fill: rgb(63, 61, 61); fill-opacity: 1; stroke: rgb(0, 0, 0); stroke-opacity: 1; stroke-width: 0; paint-order: fill;" transform="matrix(0.8143787980079652, 0, 0, 0.8143787980079652, 122.6161346435547, 87.91344451904297)"/><path style="fill: rgb(63, 61, 61); fill-opacity: 1; stroke: rgb(0, 0, 0); stroke-opacity: 1; stroke-width: 0; paint-order: fill;" transform="matrix(0.8143787980079652, 0, 0, 0.8143787980079652, 122.6161346435547, 87.91344451904297)"/><path style="fill: rgb(63, 61, 61); fill-opacity: 1; stroke: rgb(0, 0, 0); stroke-opacity: 1; stroke-width: 0; paint-order: fill;" transform="matrix(0.8143787980079652, 0, 0, 0.8143787980079652, 122.6161346435547, 87.91344451904297)"/><path style="fill: rgb(63, 61, 61); fill-opacity: 1; stroke: rgb(0, 0, 0); stroke-opacity: 1; stroke-width: 0; paint-order: fill;" transform="matrix(0.8143787980079652, 0, 0, 0.8143787980079652, 147.0269317626953, 88.28069305419922)"/><path style="fill: rgb(63, 61, 61); fill-opacity: 1; stroke: rgb(0, 0, 0); stroke-opacity: 1; stroke-width: 0; paint-order: fill;" transform="matrix(0.8143787980079652, 0, 0, 0.8143787980079652, 147.0269317626953, 88.28069305419922)"/><path style="fill: rgb(63, 61, 61); fill-opacity: 1; stroke: rgb(0, 0, 0); stroke-opacity: 1; stroke-width: 0; paint-order: fill;" transform="matrix(0.8143787980079652, 0, 0, 0.8143787980079652, 147.0269317626953, 88.28069305419922)"/><path style="fill: rgb(63, 61, 61); fill-opacity: 1; stroke: rgb(0, 0, 0); stroke-opacity: 1; stroke-width: 0; paint-order: fill;" transform="matrix(0.8143787980079652, 0, 0, 0.8143787980079652, 147.0269317626953, 88.28069305419922)"/><path style="fill: rgb(63, 61, 61); fill-opacity: 1; stroke: rgb(0, 0, 0); stroke-opacity: 1; stroke-width: 0; paint-order: fill;" transform="matrix(0.8143787980079652, 0, 0, 0.8143787980079652, 147.0269317626953, 88.28069305419922)"/><path style="fill: rgb(63, 61, 61); fill-opacity: 1; stroke: rgb(0, 0, 0); stroke-opacity: 1; stroke-width: 0; paint-order: fill;" transform="matrix(0.8143787980079652, 0, 0, 0.8143787980079652, 147.0269317626953, 88.28069305419922)"/><path style="fill: rgb(63, 61, 61); fill-opacity: 1; stroke: rgb(0, 0, 0); stroke-opacity: 1; stroke-width: 0; paint-order: fill;" transform="matrix(0.8143787980079652, 0, 0, 0.8143787980079652, 147.0269317626953, 88.28069305419922)"/><g transform="matrix(1, 0, 0, 1, 0.4257883727550507, 0.5491493046283723)">
    <path class="st13" d="M448.4,599.9" style="fill: rgb(223, 243, 251);"/>
  </g><path d="M 260.79998779296875 86.19999694824219" style="fill: rgb(23, 168, 247); fill-opacity: 1; stroke: rgb(0, 0, 0); stroke-opacity: 1; stroke-width: 0; paint-order: fill;" transform="matrix(1, 0, 0, 1, -54.46446609497071, 100.30315399169923)"/><path style="fill: rgb(63, 61, 61); fill-opacity: 1; stroke: rgb(0, 0, 0); stroke-opacity: 1; stroke-width: 0; paint-order: fill;" transform="matrix(0.8143787980079652, 0, 0, 0.8143787980079652, 124.00426483154297, 88.85855865478516)"/><path style="fill: rgb(63, 61, 61); fill-opacity: 1; stroke: rgb(0, 0, 0); stroke-opacity: 1; stroke-width: 0; paint-order: fill;" transform="matrix(0.8143787980079652, 0, 0, 0.8143787980079652, 124.00426483154297, 88.85855865478516)"/><path style="fill: rgb(63, 61, 61); fill-opacity: 1; stroke: rgb(0, 0, 0); stroke-opacity: 1; stroke-width: 0; paint-order: fill;" transform="matrix(0.8143787980079652, 0, 0, 0.8143787980079652, 124.00426483154297, 88.85855865478516)"/><path style="fill: rgb(63, 61, 61); fill-opacity: 1; stroke: rgb(0, 0, 0); stroke-opacity: 1; stroke-width: 0; paint-order: fill;" transform="matrix(0.8143787980079652, 0, 0, 0.8143787980079652, 124.00426483154297, 88.85855865478516)"/><path style="fill: rgb(63, 61, 61); fill-opacity: 1; stroke: rgb(0, 0, 0); stroke-opacity: 1; stroke-width: 0; paint-order: fill;" transform="matrix(0.8143787980079652, 0, 0, 0.8143787980079652, 124.00426483154297, 88.85855865478516)"/><path style="fill: rgb(63, 61, 61); fill-opacity: 1; stroke: rgb(0, 0, 0); stroke-opacity: 1; stroke-width: 0; paint-order: fill;" transform="matrix(0.8143787980079652, 0, 0, 0.8143787980079652, 124.00426483154297, 88.85855865478516)"/><path style="fill: rgb(63, 61, 61); fill-opacity: 1; stroke: rgb(0, 0, 0); stroke-opacity: 1; stroke-width: 0; paint-order: fill;" transform="matrix(0.8143787980079652, 0, 0, 0.8143787980079652, 124.00426483154297, 88.85855865478516)"/><path style="fill: rgb(63, 61, 61); fill-opacity: 1; stroke: rgb(0, 0, 0); stroke-opacity: 1; stroke-width: 0; paint-order: fill;" transform="matrix(0.8143787980079652, 0, 0, 0.8143787980079652, 122.49578094482422, 89.13550567626953)"/><path style="fill: rgb(63, 61, 61); fill-opacity: 1; stroke: rgb(0, 0, 0); stroke-opacity: 1; stroke-width: 0; paint-order: fill;" transform="matrix(0.8143787980079652, 0, 0, 0.8143787980079652, 122.49578094482422, 89.13550567626953)"/><path style="fill: rgb(63, 61, 61); fill-opacity: 1; stroke: rgb(0, 0, 0); stroke-opacity: 1; stroke-width: 0; paint-order: fill;" transform="matrix(0.8143787980079652, 0, 0, 0.8143787980079652, 122.49578094482422, 89.13550567626953)"/><path style="fill: rgb(63, 61, 61); fill-opacity: 1; stroke: rgb(0, 0, 0); stroke-opacity: 1; stroke-width: 0; paint-order: fill;" transform="matrix(0.8143787980079652, 0, 0, 0.8143787980079652, 122.49578094482422, 89.13550567626953)"/><path style="fill: rgb(63, 61, 61); fill-opacity: 1; stroke: rgb(0, 0, 0); stroke-opacity: 1; stroke-width: 0; paint-order: fill;" transform="matrix(0.8143787980079652, 0, 0, 0.8143787980079652, 122.49578094482422, 89.13550567626953)"/><path style="fill: rgb(63, 61, 61); fill-opacity: 1; stroke: rgb(0, 0, 0); stroke-opacity: 1; stroke-width: 0; paint-order: fill;" transform="matrix(0.8143787980079652, 0, 0, 0.8143787980079652, 122.49578094482422, 89.13550567626953)"/><path style="fill: rgb(63, 61, 61); fill-opacity: 1; stroke: rgb(0, 0, 0); stroke-opacity: 1; stroke-width: 0; paint-order: fill;" transform="matrix(0.8143787980079652, 0, 0, 0.8143787980079652, 122.49578094482422, 89.13550567626953)"/><path style="fill: rgb(63, 61, 61); fill-opacity: 1; stroke: rgb(0, 0, 0); stroke-opacity: 1; stroke-width: 0; paint-order: fill;" transform="matrix(0.8143787980079652, 0, 0, 0.8143787980079652, 145.90658569335938, 89.50276947021484)"/><path style="fill: rgb(63, 61, 61); fill-opacity: 1; stroke: rgb(0, 0, 0); stroke-opacity: 1; stroke-width: 0; paint-order: fill;" transform="matrix(0.8143787980079652, 0, 0, 0.8143787980079652, 145.90658569335938, 89.50276947021484)"/><path style="fill: rgb(63, 61, 61); fill-opacity: 1; stroke: rgb(0, 0, 0); stroke-opacity: 1; stroke-width: 0; paint-order: fill;" transform="matrix(0.8143787980079652, 0, 0, 0.8143787980079652, 145.90658569335938, 89.50276947021484)"/><path style="fill: rgb(63, 61, 61); fill-opacity: 1; stroke: rgb(0, 0, 0); stroke-opacity: 1; stroke-width: 0; paint-order: fill;" transform="matrix(0.8143787980079652, 0, 0, 0.8143787980079652, 145.90658569335938, 89.50276947021484)"/><path style="fill: rgb(63, 61, 61); fill-opacity: 1; stroke: rgb(0, 0, 0); stroke-opacity: 1; stroke-width: 0; paint-order: fill;" transform="matrix(0.8143787980079652, 0, 0, 0.8143787980079652, 145.90658569335938, 89.50276947021484)"/><path style="fill: rgb(63, 61, 61); fill-opacity: 1; stroke: rgb(0, 0, 0); stroke-opacity: 1; stroke-width: 0; paint-order: fill;" transform="matrix(0.8143787980079652, 0, 0, 0.8143787980079652, 145.90658569335938, 89.50276947021484)"/><path style="fill: rgb(63, 61, 61); fill-opacity: 1; stroke: rgb(0, 0, 0); stroke-opacity: 1; stroke-width: 0; paint-order: fill;" transform="matrix(0.8143787980079652, 0, 0, 0.8143787980079652, 145.90658569335938, 89.50276947021484)"/><path d="M 260.79998779296875 86.19999694824219" style="fill: rgb(23, 168, 247); fill-opacity: 1; stroke: rgb(0, 0, 0); stroke-opacity: 1; stroke-width: 0; paint-order: fill;" transform="matrix(1, 0, 0, 1, -29.14033889770508, 101.47537994384767)"/><path style="fill: rgb(63, 61, 61); fill-opacity: 1; stroke: rgb(0, 0, 0); stroke-opacity: 1; stroke-width: 0; paint-order: fill;" transform="matrix(0.8143787980079652, 0, 0, 0.8143787980079652, 149.32838439941406, 90.0307846069336)"/><path style="fill: rgb(63, 61, 61); fill-opacity: 1; stroke: rgb(0, 0, 0); stroke-opacity: 1; stroke-width: 0; paint-order: fill;" transform="matrix(0.8143787980079652, 0, 0, 0.8143787980079652, 149.32838439941406, 90.0307846069336)"/><path style="fill: rgb(63, 61, 61); fill-opacity: 1; stroke: rgb(0, 0, 0); stroke-opacity: 1; stroke-width: 0; paint-order: fill;" transform="matrix(0.8143787980079652, 0, 0, 0.8143787980079652, 149.32838439941406, 90.0307846069336)"/><path style="fill: rgb(63, 61, 61); fill-opacity: 1; stroke: rgb(0, 0, 0); stroke-opacity: 1; stroke-width: 0; paint-order: fill;" transform="matrix(0.8143787980079652, 0, 0, 0.8143787980079652, 149.32838439941406, 90.0307846069336)"/><path style="fill: rgb(63, 61, 61); fill-opacity: 1; stroke: rgb(0, 0, 0); stroke-opacity: 1; stroke-width: 0; paint-order: fill;" transform="matrix(0.8143787980079652, 0, 0, 0.8143787980079652, 149.32838439941406, 90.0307846069336)"/><path style="fill: rgb(63, 61, 61); fill-opacity: 1; stroke: rgb(0, 0, 0); stroke-opacity: 1; stroke-width: 0; paint-order: fill;" transform="matrix(0.8143787980079652, 0, 0, 0.8143787980079652, 149.32838439941406, 90.0307846069336)"/><path style="fill: rgb(63, 61, 61); fill-opacity: 1; stroke: rgb(0, 0, 0); stroke-opacity: 1; stroke-width: 0; paint-order: fill;" transform="matrix(0.8143787980079652, 0, 0, 0.8143787980079652, 149.32838439941406, 90.0307846069336)"/><path style="fill: rgb(63, 61, 61); fill-opacity: 1; stroke: rgb(0, 0, 0); stroke-opacity: 1; stroke-width: 0; paint-order: fill;" transform="matrix(0.8143787980079652, 0, 0, 0.8143787980079652, 147.8199005126953, 90.30773162841797)"/><path style="fill: rgb(63, 61, 61); fill-opacity: 1; stroke: rgb(0, 0, 0); stroke-opacity: 1; stroke-width: 0; paint-order: fill;" transform="matrix(0.8143787980079652, 0, 0, 0.8143787980079652, 147.8199005126953, 90.30773162841797)"/><path style="fill: rgb(63, 61, 61); fill-opacity: 1; stroke: rgb(0, 0, 0); stroke-opacity: 1; stroke-width: 0; paint-order: fill;" transform="matrix(0.8143787980079652, 0, 0, 0.8143787980079652, 147.8199005126953, 90.30773162841797)"/><path style="fill: rgb(63, 61, 61); fill-opacity: 1; stroke: rgb(0, 0, 0); stroke-opacity: 1; stroke-width: 0; paint-order: fill;" transform="matrix(0.8143787980079652, 0, 0, 0.8143787980079652, 147.8199005126953, 90.30773162841797)"/><path style="fill: rgb(63, 61, 61); fill-opacity: 1; stroke: rgb(0, 0, 0); stroke-opacity: 1; stroke-width: 0; paint-order: fill;" transform="matrix(0.8143787980079652, 0, 0, 0.8143787980079652, 147.8199005126953, 90.30773162841797)"/><path style="fill: rgb(63, 61, 61); fill-opacity: 1; stroke: rgb(0, 0, 0); stroke-opacity: 1; stroke-width: 0; paint-order: fill;" transform="matrix(0.8143787980079652, 0, 0, 0.8143787980079652, 147.8199005126953, 90.30773162841797)"/><path style="fill: rgb(63, 61, 61); fill-opacity: 1; stroke: rgb(0, 0, 0); stroke-opacity: 1; stroke-width: 0; paint-order: fill;" transform="matrix(0.8143787980079652, 0, 0, 0.8143787980079652, 147.8199005126953, 90.30773162841797)"/><path style="fill: rgb(63, 61, 61); fill-opacity: 1; stroke: rgb(0, 0, 0); stroke-opacity: 1; stroke-width: 0; paint-order: fill;" transform="matrix(0.8143787980079652, 0, 0, 0.8143787980079652, 147.62628173828125, 90.51728057861327)"/><path style="fill: rgb(63, 61, 61); fill-opacity: 1; stroke: rgb(0, 0, 0); stroke-opacity: 1; stroke-width: 0; paint-order: fill;" transform="matrix(0.8143787980079652, 0, 0, 0.8143787980079652, 147.62628173828125, 90.51728057861327)"/><path style="fill: rgb(63, 61, 61); fill-opacity: 1; stroke: rgb(0, 0, 0); stroke-opacity: 1; stroke-width: 0; paint-order: fill;" transform="matrix(0.8143787980079652, 0, 0, 0.8143787980079652, 147.62628173828125, 90.51728057861327)"/><path style="fill: rgb(63, 61, 61); fill-opacity: 1; stroke: rgb(0, 0, 0); stroke-opacity: 1; stroke-width: 0; paint-order: fill;" transform="matrix(0.8143787980079652, 0, 0, 0.8143787980079652, 147.62628173828125, 90.51728057861327)"/><path style="fill: rgb(63, 61, 61); fill-opacity: 1; stroke: rgb(0, 0, 0); stroke-opacity: 1; stroke-width: 0; paint-order: fill;" transform="matrix(0.8143787980079652, 0, 0, 0.8143787980079652, 147.62628173828125, 90.51728057861327)"/><path style="fill: rgb(63, 61, 61); fill-opacity: 1; stroke: rgb(0, 0, 0); stroke-opacity: 1; stroke-width: 0; paint-order: fill;" transform="matrix(0.8143787980079652, 0, 0, 0.8143787980079652, 147.62628173828125, 90.51728057861327)"/><path style="fill: rgb(63, 61, 61); fill-opacity: 1; stroke: rgb(0, 0, 0); stroke-opacity: 1; stroke-width: 0; paint-order: fill;" transform="matrix(0.8143787980079652, 0, 0, 0.8143787980079652, 147.62628173828125, 90.51728057861327)"/><path style="fill: rgb(63, 61, 61); fill-opacity: 1; stroke: rgb(0, 0, 0); stroke-opacity: 1; stroke-width: 0; paint-order: fill;" transform="matrix(0.8143787980079652, 0, 0, 0.8143787980079652, 147.6663360595703, 88.38654327392578)"/><path style="fill: rgb(63, 61, 61); fill-opacity: 1; stroke: rgb(0, 0, 0); stroke-opacity: 1; stroke-width: 0; paint-order: fill;" transform="matrix(0.8143787980079652, 0, 0, 0.8143787980079652, 147.6663360595703, 88.38654327392578)"/><path style="fill: rgb(63, 61, 61); fill-opacity: 1; stroke: rgb(0, 0, 0); stroke-opacity: 1; stroke-width: 0; paint-order: fill;" transform="matrix(0.8143787980079652, 0, 0, 0.8143787980079652, 147.6663360595703, 88.38654327392578)"/><path style="fill: rgb(63, 61, 61); fill-opacity: 1; stroke: rgb(0, 0, 0); stroke-opacity: 1; stroke-width: 0; paint-order: fill;" transform="matrix(0.8143787980079652, 0, 0, 0.8143787980079652, 147.6663360595703, 88.38654327392578)"/><path style="fill: rgb(63, 61, 61); fill-opacity: 1; stroke: rgb(0, 0, 0); stroke-opacity: 1; stroke-width: 0; paint-order: fill;" transform="matrix(0.8143787980079652, 0, 0, 0.8143787980079652, 147.6663360595703, 88.38654327392578)"/><path style="fill: rgb(63, 61, 61); fill-opacity: 1; stroke: rgb(0, 0, 0); stroke-opacity: 1; stroke-width: 0; paint-order: fill;" transform="matrix(0.8143787980079652, 0, 0, 0.8143787980079652, 147.6663360595703, 88.38654327392578)"/><path style="fill: rgb(63, 61, 61); fill-opacity: 1; stroke: rgb(0, 0, 0); stroke-opacity: 1; stroke-width: 0; paint-order: fill;" transform="matrix(0.8143787980079652, 0, 0, 0.8143787980079652, 147.6663360595703, 88.38654327392578)"/><g transform="matrix(1, 0, 0, 1, -0.6831924617290499, -1.6873685121536257)">
    <path class="st13" d="M448.4,599.9" style="fill: rgb(223, 243, 251);"/>
  </g><path d="M 260.79998779296875 86.19999694824219" style="fill: rgb(23, 168, 247); fill-opacity: 1; stroke: rgb(0, 0, 0); stroke-opacity: 1; stroke-width: 0; paint-order: fill;" transform="matrix(1, 0, 0, 1, -55.57344055175782, 98.06662750244142)"/><path style="fill: rgb(63, 61, 61); fill-opacity: 1; stroke: rgb(0, 0, 0); stroke-opacity: 1; stroke-width: 0; paint-order: fill;" transform="matrix(0.8143787980079652, 0, 0, 0.8143787980079652, 122.89529418945314, 86.62203216552734)"/><path style="fill: rgb(63, 61, 61); fill-opacity: 1; stroke: rgb(0, 0, 0); stroke-opacity: 1; stroke-width: 0; paint-order: fill;" transform="matrix(0.8143787980079652, 0, 0, 0.8143787980079652, 122.89529418945314, 86.62203216552734)"/><path style="fill: rgb(63, 61, 61); fill-opacity: 1; stroke: rgb(0, 0, 0); stroke-opacity: 1; stroke-width: 0; paint-order: fill;" transform="matrix(0.8143787980079652, 0, 0, 0.8143787980079652, 122.89529418945314, 86.62203216552734)"/><path style="fill: rgb(63, 61, 61); fill-opacity: 1; stroke: rgb(0, 0, 0); stroke-opacity: 1; stroke-width: 0; paint-order: fill;" transform="matrix(0.8143787980079652, 0, 0, 0.8143787980079652, 122.89529418945314, 86.62203216552734)"/><path style="fill: rgb(63, 61, 61); fill-opacity: 1; stroke: rgb(0, 0, 0); stroke-opacity: 1; stroke-width: 0; paint-order: fill;" transform="matrix(0.8143787980079652, 0, 0, 0.8143787980079652, 122.89529418945314, 86.62203216552734)"/><path style="fill: rgb(63, 61, 61); fill-opacity: 1; stroke: rgb(0, 0, 0); stroke-opacity: 1; stroke-width: 0; paint-order: fill;" transform="matrix(0.8143787980079652, 0, 0, 0.8143787980079652, 122.89529418945314, 86.62203216552734)"/><path style="fill: rgb(63, 61, 61); fill-opacity: 1; stroke: rgb(0, 0, 0); stroke-opacity: 1; stroke-width: 0; paint-order: fill;" transform="matrix(0.8143787980079652, 0, 0, 0.8143787980079652, 122.89529418945314, 86.62203216552734)"/><path style="fill: rgb(63, 61, 61); fill-opacity: 1; stroke: rgb(0, 0, 0); stroke-opacity: 1; stroke-width: 0; paint-order: fill;" transform="matrix(0.8143787980079652, 0, 0, 0.8143787980079652, 121.38680267333983, 86.89897918701172)"/><path style="fill: rgb(63, 61, 61); fill-opacity: 1; stroke: rgb(0, 0, 0); stroke-opacity: 1; stroke-width: 0; paint-order: fill;" transform="matrix(0.8143787980079652, 0, 0, 0.8143787980079652, 121.38680267333983, 86.89897918701172)"/><path style="fill: rgb(63, 61, 61); fill-opacity: 1; stroke: rgb(0, 0, 0); stroke-opacity: 1; stroke-width: 0; paint-order: fill;" transform="matrix(0.8143787980079652, 0, 0, 0.8143787980079652, 121.38680267333983, 86.89897918701172)"/><path style="fill: rgb(63, 61, 61); fill-opacity: 1; stroke: rgb(0, 0, 0); stroke-opacity: 1; stroke-width: 0; paint-order: fill;" transform="matrix(0.8143787980079652, 0, 0, 0.8143787980079652, 121.38680267333983, 86.89897918701172)"/><path style="fill: rgb(63, 61, 61); fill-opacity: 1; stroke: rgb(0, 0, 0); stroke-opacity: 1; stroke-width: 0; paint-order: fill;" transform="matrix(0.8143787980079652, 0, 0, 0.8143787980079652, 121.38680267333983, 86.89897918701172)"/><path style="fill: rgb(63, 61, 61); fill-opacity: 1; stroke: rgb(0, 0, 0); stroke-opacity: 1; stroke-width: 0; paint-order: fill;" transform="matrix(0.8143787980079652, 0, 0, 0.8143787980079652, 121.38680267333983, 86.89897918701172)"/><path style="fill: rgb(63, 61, 61); fill-opacity: 1; stroke: rgb(0, 0, 0); stroke-opacity: 1; stroke-width: 0; paint-order: fill;" transform="matrix(0.8143787980079652, 0, 0, 0.8143787980079652, 121.38680267333983, 86.89897918701172)"/><path style="fill: rgb(63, 61, 61); fill-opacity: 1; stroke: rgb(0, 0, 0); stroke-opacity: 1; stroke-width: 0; paint-order: fill;" transform="matrix(0.8143787980079652, 0, 0, 0.8143787980079652, 144.79762268066406, 87.26624298095703)"/><path style="fill: rgb(63, 61, 61); fill-opacity: 1; stroke: rgb(0, 0, 0); stroke-opacity: 1; stroke-width: 0; paint-order: fill;" transform="matrix(0.8143787980079652, 0, 0, 0.8143787980079652, 144.79762268066406, 87.26624298095703)"/><path style="fill: rgb(63, 61, 61); fill-opacity: 1; stroke: rgb(0, 0, 0); stroke-opacity: 1; stroke-width: 0; paint-order: fill;" transform="matrix(0.8143787980079652, 0, 0, 0.8143787980079652, 144.79762268066406, 87.26624298095703)"/><path style="fill: rgb(63, 61, 61); fill-opacity: 1; stroke: rgb(0, 0, 0); stroke-opacity: 1; stroke-width: 0; paint-order: fill;" transform="matrix(0.8143787980079652, 0, 0, 0.8143787980079652, 144.79762268066406, 87.26624298095703)"/><path style="fill: rgb(63, 61, 61); fill-opacity: 1; stroke: rgb(0, 0, 0); stroke-opacity: 1; stroke-width: 0; paint-order: fill;" transform="matrix(0.8143787980079652, 0, 0, 0.8143787980079652, 144.79762268066406, 87.26624298095703)"/><path style="fill: rgb(63, 61, 61); fill-opacity: 1; stroke: rgb(0, 0, 0); stroke-opacity: 1; stroke-width: 0; paint-order: fill;" transform="matrix(0.8143787980079652, 0, 0, 0.8143787980079652, 144.79762268066406, 87.26624298095703)"/><path style="fill: rgb(63, 61, 61); fill-opacity: 1; stroke: rgb(0, 0, 0); stroke-opacity: 1; stroke-width: 0; paint-order: fill;" transform="matrix(0.8143787980079652, 0, 0, 0.8143787980079652, 144.79762268066406, 87.26624298095703)"/><path d="M 260.79998779296875 86.19999694824219" style="fill: rgb(23, 168, 247); fill-opacity: 1; stroke: rgb(0, 0, 0); stroke-opacity: 1; stroke-width: 0; paint-order: fill;" transform="matrix(1, 0, 0, 1, -30.249322891235355, 99.23885345458986)"/><path style="fill: rgb(63, 61, 61); fill-opacity: 1; stroke: rgb(0, 0, 0); stroke-opacity: 1; stroke-width: 0; paint-order: fill;" transform="matrix(0.8143787980079652, 0, 0, 0.8143787980079652, 148.21942138671875, 87.79425811767578)"/><path style="fill: rgb(63, 61, 61); fill-opacity: 1; stroke: rgb(0, 0, 0); stroke-opacity: 1; stroke-width: 0; paint-order: fill;" transform="matrix(0.8143787980079652, 0, 0, 0.8143787980079652, 148.21942138671875, 87.79425811767578)"/><path style="fill: rgb(63, 61, 61); fill-opacity: 1; stroke: rgb(0, 0, 0); stroke-opacity: 1; stroke-width: 0; paint-order: fill;" transform="matrix(0.8143787980079652, 0, 0, 0.8143787980079652, 148.21942138671875, 87.79425811767578)"/><path style="fill: rgb(63, 61, 61); fill-opacity: 1; stroke: rgb(0, 0, 0); stroke-opacity: 1; stroke-width: 0; paint-order: fill;" transform="matrix(0.8143787980079652, 0, 0, 0.8143787980079652, 148.21942138671875, 87.79425811767578)"/><path style="fill: rgb(63, 61, 61); fill-opacity: 1; stroke: rgb(0, 0, 0); stroke-opacity: 1; stroke-width: 0; paint-order: fill;" transform="matrix(0.8143787980079652, 0, 0, 0.8143787980079652, 148.21942138671875, 87.79425811767578)"/><path style="fill: rgb(63, 61, 61); fill-opacity: 1; stroke: rgb(0, 0, 0); stroke-opacity: 1; stroke-width: 0; paint-order: fill;" transform="matrix(0.8143787980079652, 0, 0, 0.8143787980079652, 148.21942138671875, 87.79425811767578)"/><path style="fill: rgb(63, 61, 61); fill-opacity: 1; stroke: rgb(0, 0, 0); stroke-opacity: 1; stroke-width: 0; paint-order: fill;" transform="matrix(0.8143787980079652, 0, 0, 0.8143787980079652, 148.21942138671875, 87.79425811767578)"/><path style="fill: rgb(63, 61, 61); fill-opacity: 1; stroke: rgb(0, 0, 0); stroke-opacity: 1; stroke-width: 0; paint-order: fill;" transform="matrix(0.8143787980079652, 0, 0, 0.8143787980079652, 146.7109375, 88.07120513916016)"/><path style="fill: rgb(63, 61, 61); fill-opacity: 1; stroke: rgb(0, 0, 0); stroke-opacity: 1; stroke-width: 0; paint-order: fill;" transform="matrix(0.8143787980079652, 0, 0, 0.8143787980079652, 146.7109375, 88.07120513916016)"/><path style="fill: rgb(63, 61, 61); fill-opacity: 1; stroke: rgb(0, 0, 0); stroke-opacity: 1; stroke-width: 0; paint-order: fill;" transform="matrix(0.8143787980079652, 0, 0, 0.8143787980079652, 146.7109375, 88.07120513916016)"/><path style="fill: rgb(63, 61, 61); fill-opacity: 1; stroke: rgb(0, 0, 0); stroke-opacity: 1; stroke-width: 0; paint-order: fill;" transform="matrix(0.8143787980079652, 0, 0, 0.8143787980079652, 146.7109375, 88.07120513916016)"/><path style="fill: rgb(63, 61, 61); fill-opacity: 1; stroke: rgb(0, 0, 0); stroke-opacity: 1; stroke-width: 0; paint-order: fill;" transform="matrix(0.8143787980079652, 0, 0, 0.8143787980079652, 146.7109375, 88.07120513916016)"/><path style="fill: rgb(63, 61, 61); fill-opacity: 1; stroke: rgb(0, 0, 0); stroke-opacity: 1; stroke-width: 0; paint-order: fill;" transform="matrix(0.8143787980079652, 0, 0, 0.8143787980079652, 146.7109375, 88.07120513916016)"/><path style="fill: rgb(63, 61, 61); fill-opacity: 1; stroke: rgb(0, 0, 0); stroke-opacity: 1; stroke-width: 0; paint-order: fill;" transform="matrix(0.8143787980079652, 0, 0, 0.8143787980079652, 146.7109375, 88.07120513916016)"/><path style="fill: rgb(63, 61, 61); fill-opacity: 1; stroke: rgb(0, 0, 0); stroke-opacity: 1; stroke-width: 0; paint-order: fill;" transform="matrix(0.8143787980079652, 0, 0, 0.8143787980079652, 146.51731872558594, 88.28075408935547)"/><path style="fill: rgb(63, 61, 61); fill-opacity: 1; stroke: rgb(0, 0, 0); stroke-opacity: 1; stroke-width: 0; paint-order: fill;" transform="matrix(0.8143787980079652, 0, 0, 0.8143787980079652, 146.51731872558594, 88.28075408935547)"/><path style="fill: rgb(63, 61, 61); fill-opacity: 1; stroke: rgb(0, 0, 0); stroke-opacity: 1; stroke-width: 0; paint-order: fill;" transform="matrix(0.8143787980079652, 0, 0, 0.8143787980079652, 146.51731872558594, 88.28075408935547)"/><g transform="matrix(10, 0, 0, 10, -6020.79736328125, -460.34753417968756)">
    <g id="g-1" transform="matrix(1, 0, 0, 1, 0, 0)">
      <g id="g-2">
        <path class="st0" d="M652,46c27.6,0,50,22.4,50,50s-22.4,50-50,50s-50-22.4-50-50S624.4,46,652,46z" style="fill: rgb(23, 23, 23); fill-opacity: 1;"/>
      </g>
    </g>
  </g><path style="fill: rgb(63, 61, 61); fill-opacity: 1; stroke: rgb(0, 0, 0); stroke-opacity: 1; stroke-width: 0; paint-order: fill;" transform="matrix(0.8143787980079652, 0, 0, 0.8143787980079652, 146.51731872558594, 88.28075408935547)"/><path style="fill: rgb(63, 61, 61); fill-opacity: 1; stroke: rgb(0, 0, 0); stroke-opacity: 1; stroke-width: 0; paint-order: fill;" transform="matrix(0.8143787980079652, 0, 0, 0.8143787980079652, 146.51731872558594, 88.28075408935547)"/><path style="fill: rgb(63, 61, 61); fill-opacity: 1; stroke: rgb(0, 0, 0); stroke-opacity: 1; stroke-width: 0; paint-order: fill;" transform="matrix(0.8143787980079652, 0, 0, 0.8143787980079652, 146.51731872558594, 88.28075408935547)"/><path style="fill: rgb(63, 61, 61); fill-opacity: 1; stroke: rgb(0, 0, 0); stroke-opacity: 1; stroke-width: 0; paint-order: fill;" transform="matrix(0.8143787980079652, 0, 0, 0.8143787980079652, 146.51731872558594, 88.28075408935547)"/><g style="" transform="matrix(3.6833479404449467, 0, 0, 3.701168060302734, -481.21331787109375, -259.9743957519531)">
    <path d="M 340.158997 190.423996 A 73.529999 80.882004 0 0 1 266.628998 271.306 A 73.529999 80.882004 0 0 1 193.098999 190.423996 A 73.529999 80.882004 0 0 1 266.628998 109.541992 A 73.529999 80.882004 0 0 1 340.158997 190.423996 Z" style="fill: rgb(254, 215, 167); stroke: rgba(0, 0, 0, 0);"/>
    <path d="M 323.818016 205.457001 A 58.415001 92.727997 0 0 1 265.403015 298.184998 A 58.415001 92.727997 0 0 1 206.988014 205.457001 A 58.415001 92.727997 0 0 1 265.403015 112.729004 A 58.415001 92.727997 0 0 1 323.818016 205.457001 Z" style="fill: rgb(254, 215, 167); stroke: rgba(0, 0, 0, 0);"/>
    <path style="fill: rgb(254, 215, 167); stroke: rgba(0, 0, 0, 0);" d="M 198.965 177.953 C 200.32 184.748 193.752 203.395 195.454 210.106 C 202.076 236.217 211.711 279.37 239.92 288.654"/>
    <path style="fill: rgb(254, 215, 167); stroke: rgba(0, 0, 0, 0);" d="M 290.942 290.564 C 292.467 284.038 285.336 266.202 286.992 259.683 C 293.553 233.847 305.381 191.666 337.033 184.241" transform="matrix(-1, 0, 0, -1, 623.699738, 474.804993)"/>
  </g><path style="stroke: rgba(0, 0, 0, 0); fill: rgb(255, 193, 117);" d="M 249.061 400.212 C 248.376 403.754 274.268 391.107 270.821 381.382 C 267.418 371.778 259.424 385.311 248.435 389.743 C 243.675 391.662 226.326 375.713 221.331 379.15 C 213.74 384.369 245.282 403.605 250.516 400.375" transform="matrix(1.3580009937286377, 0, 0, 1.3580009937286377, 155.54644775390625, 75.98064422607422)"/><g transform="matrix(1.6248700618743899, 0, 0, 1.9994421005249026, -314.71536254882807, -1076.0477294921875)" style="">
    <path style="stroke: rgba(0, 0, 0, 0); fill: rgb(200, 0, 0);" d="M 454.541 877.321 C 459.675 924.313 538.994 938.07 540.5 874.92 C 540.613 870.203 455.089 876.278 454.24 879.406" data-bx-origin="0.561 0.519" transform="matrix(0.997287, 0.076565, -0.070769, 0.997287, 64.786898, -36.052723)"/>
    <path style="stroke: rgba(0, 0, 0, 0); fill: rgb(255, 255, 255);" d="M 458.107 877.893 C 485.472 875.098 512.898 876.806 539.978 879.977 C 539.342 885.456 537.136 891.14 511.872 894.196 C 489.837 896.861 459.724 891.292 457.625 878.064"/>
  </g><g transform="matrix(2.0392189025878906, 0, 0, 1.8729846477508547, -1032.5750732421875, -821.5791015625001)" style="">
    <path style="stroke: rgba(0, 0, 0, 0); fill: rgb(94, 94, 94);" d="M 747.687 781.688 C 785.894 747.671 839.76 789.625 844.727 794.39 C 875.132 823.556 899.034 773.36 884.314 798.69 C 860.211 828.065 823.299 829.982 747.731 797.464 C 731.134 818.297 630.73 833.043 610.658 793.548 C 609.024 794.805 629.075 807.861 642.723 799.813 C 665.598 786.324 705.822 747.822 747.689 780.9"/>
  </g><path d="M 373.776993 259.826996 A 38.429001 36.140999 0 0 1 335.347992 295.967995 A 38.429001 36.140999 0 0 1 296.918991 259.826996 A 38.429001 36.140999 0 0 1 335.347992 223.685997 A 38.429001 36.140999 0 0 1 373.776993 259.826996 Z" style="stroke: rgba(0, 0, 0, 0); fill: rgb(254, 215, 167);" transform="matrix(1.3580009937286377, 0, 0, 1.3580009937286377, 155.54644775390625, 68.98064422607422)"/><path d="M 207.507004 255.912003 A 38.429001 36.140999 0 0 1 169.078003 292.053001 A 38.429001 36.140999 0 0 1 130.649002 255.912003 A 38.429001 36.140999 0 0 1 169.078003 219.771004 A 38.429001 36.140999 0 0 1 207.507004 255.912003 Z" style="stroke: rgba(0, 0, 0, 0); fill: rgb(254, 215, 167);" transform="matrix(1.3580009937286377, 0, 0, 1.3580009937286377, 155.54644775390625, 75.98064422607422)"/><g transform="matrix(1.3580000400543213, 0, 0, 1.3580000400543213, 154.51068115234378, 17.392274856567383)">
    <path style="stroke: rgba(0, 0, 0, 0); fill: rgb(94, 94, 94);" d="M 75.948 330.4 C 103.01 318.07 152.954 329.362 186.618 332.159 C 193.332 332.719 215.037 327.727 210.968 322.646 C 206.278 316.804 181.429 314.471 169.368 313.756 C 133.774 311.639 74.055 311.999 74.054 330.858" transform="matrix(0.961268, -0.275617, 0.275617, 0.961268, -83.368384, 51.840722)"/>
    <path style="stroke: rgba(0, 0, 0, 0); fill: rgb(94, 94, 94);" d="M 290.578 314.73 C 317.641 327.005 366.355 315.149 400.019 312.363 C 406.733 311.807 429.668 317.391 425.599 322.449 C 420.909 328.265 396.06 330.588 383.999 331.301 C 348.405 333.408 288.687 333.049 288.685 314.274" transform="matrix(-0.961268, -0.275617, 0.275617, -0.961268, 612.104927, 730.515139)"/>
  </g><path style="stroke: rgba(0, 0, 0, 0); fill: rgb(255, 227, 194);" d="M 291.369 362.054 C 295.041 385.527 340.421 350.856 378.238 347.23 C 421.968 343.037 462.231 360.908 500.365 362.457 C 544.863 364.264 567.73 339.307 611.016 340.827 C 638.866 341.804 737.376 388.057 730.89 354.868 C 687.129 130.927 300.653 126.412 291.369 362.054 Z" transform="matrix(1, 0, 0, 1, -1.4806622564792637, -0.5924168825149537)"/><path style="stroke-width: 2.34229; vector-effect: non-scaling-stroke; stroke: rgba(0, 0, 0, 0);" d="M 425.237 525.383 C 401.836 500.358 353.021 494.634 339.635 527.883 C 339.635 527.032 338.817 529.925 338.583 528.022 C 332.22 476.23 426.91 482.309 424.517 525.874" transform="matrix(0.9999999999999999, 0.00004000000990345143, -0.00004000000990345143, 0.9999999999999999, -0.6480555832386017, -0.9063434600830077)"/><path style="stroke-width: 2.34229; vector-effect: non-scaling-stroke; stroke: rgba(0, 0, 0, 0);" d="M 652.321 494.503 C 628.92 519.528 580.105 525.252 566.719 492.003 C 566.719 492.854 565.901 489.961 565.667 491.864 C 559.304 543.656 653.994 537.577 651.601 494.012" transform="matrix(-0.9999999999999999, 0.00004000000990345143, -0.00004000000990345143, -0.9999999999999999, 1217.0329589843748, 1018.9987792968748)"/></svg>