<?xml version="1.0" encoding="utf-8"?>
<svg id="master-artboard" viewBox="0 0 1000 1000" version="1.1" xmlns="http://www.w3.org/2000/svg" x="0px" y="0px" style="enable-background:new 0 0 336 235.2;" width="1000px" height="1000px"><rect id="ee-background" x="0" y="0" width="1000" height="1000" style="fill: white; fill-opacity: 0; pointer-events: none;"/>














<path d="M 260.79998779296875 86.19999694824219" style="fill: rgb(23, 168, 247); fill-opacity: 1; stroke: rgb(0, 0, 0); stroke-opacity: 1; stroke-width: 0; paint-order: fill;" transform="matrix(1, 0, 0, 1, -29.895431518554688, 100.28984832763672)"/><path style="fill: rgb(63, 61, 61); fill-opacity: 1; stroke: rgb(0, 0, 0); stroke-opacity: 1; stroke-width: 0; paint-order: fill;" transform="matrix(0.8143787980079651, 0, 0, 0.8143787980079651, 148.57330322265625, 88.84526824951172)"/><path style="fill: rgb(63, 61, 61); fill-opacity: 1; stroke: rgb(0, 0, 0); stroke-opacity: 1; stroke-width: 0; paint-order: fill;" transform="matrix(0.8143787980079651, 0, 0, 0.8143787980079651, 148.57330322265625, 88.84526824951172)"/><path style="fill: rgb(63, 61, 61); fill-opacity: 1; stroke: rgb(0, 0, 0); stroke-opacity: 1; stroke-width: 0; paint-order: fill;" transform="matrix(0.8143787980079651, 0, 0, 0.8143787980079651, 148.57330322265625, 88.84526824951172)"/><path style="fill: rgb(63, 61, 61); fill-opacity: 1; stroke: rgb(0, 0, 0); stroke-opacity: 1; stroke-width: 0; paint-order: fill;" transform="matrix(0.8143787980079651, 0, 0, 0.8143787980079651, 148.57330322265625, 88.84526824951172)"/><path style="fill: rgb(63, 61, 61); fill-opacity: 1; stroke: rgb(0, 0, 0); stroke-opacity: 1; stroke-width: 0; paint-order: fill;" transform="matrix(0.8143787980079651, 0, 0, 0.8143787980079651, 148.57330322265625, 88.84526824951172)"/><path style="fill: rgb(63, 61, 61); fill-opacity: 1; stroke: rgb(0, 0, 0); stroke-opacity: 1; stroke-width: 0; paint-order: fill;" transform="matrix(0.8143787980079651, 0, 0, 0.8143787980079651, 148.57330322265625, 88.84526824951172)"/><path style="fill: rgb(63, 61, 61); fill-opacity: 1; stroke: rgb(0, 0, 0); stroke-opacity: 1; stroke-width: 0; paint-order: fill;" transform="matrix(0.8143787980079651, 0, 0, 0.8143787980079651, 148.57330322265625, 88.84526824951172)"/><path style="fill: rgb(63, 61, 61); fill-opacity: 1; stroke: rgb(0, 0, 0); stroke-opacity: 1; stroke-width: 0; paint-order: fill;" transform="matrix(0.8143787980079651, 0, 0, 0.8143787980079651, 147.0648193359375, 89.1222152709961)"/><path style="fill: rgb(63, 61, 61); fill-opacity: 1; stroke: rgb(0, 0, 0); stroke-opacity: 1; stroke-width: 0; paint-order: fill;" transform="matrix(0.8143787980079651, 0, 0, 0.8143787980079651, 147.0648193359375, 89.1222152709961)"/><path style="fill: rgb(63, 61, 61); fill-opacity: 1; stroke: rgb(0, 0, 0); stroke-opacity: 1; stroke-width: 0; paint-order: fill;" transform="matrix(0.8143787980079651, 0, 0, 0.8143787980079651, 147.0648193359375, 89.1222152709961)"/><path style="fill: rgb(63, 61, 61); fill-opacity: 1; stroke: rgb(0, 0, 0); stroke-opacity: 1; stroke-width: 0; paint-order: fill;" transform="matrix(0.8143787980079651, 0, 0, 0.8143787980079651, 147.0648193359375, 89.1222152709961)"/><path style="fill: rgb(63, 61, 61); fill-opacity: 1; stroke: rgb(0, 0, 0); stroke-opacity: 1; stroke-width: 0; paint-order: fill;" transform="matrix(0.8143787980079651, 0, 0, 0.8143787980079651, 147.0648193359375, 89.1222152709961)"/><path style="fill: rgb(63, 61, 61); fill-opacity: 1; stroke: rgb(0, 0, 0); stroke-opacity: 1; stroke-width: 0; paint-order: fill;" transform="matrix(0.8143787980079651, 0, 0, 0.8143787980079651, 147.0648193359375, 89.1222152709961)"/><path style="fill: rgb(63, 61, 61); fill-opacity: 1; stroke: rgb(0, 0, 0); stroke-opacity: 1; stroke-width: 0; paint-order: fill;" transform="matrix(0.8143787980079651, 0, 0, 0.8143787980079651, 147.0648193359375, 89.1222152709961)"/><g transform="matrix(1, 0, 0, 1, 1.0625569820404053, 0.09820251166820526)">
    <path class="st13" d="M448.4,599.9" style="fill: rgb(223, 243, 251);"/>
  </g><path d="M 260.79998779296875 86.19999694824219" style="fill: rgb(23, 168, 247); fill-opacity: 1; stroke: rgb(0, 0, 0); stroke-opacity: 1; stroke-width: 0; paint-order: fill;" transform="matrix(1, 0, 0, 1, -29.827693939208984, 99.85220336914062)"/><path style="fill: rgb(63, 61, 61); fill-opacity: 1; stroke: rgb(0, 0, 0); stroke-opacity: 1; stroke-width: 0; paint-order: fill;" transform="matrix(0.8143787980079651, 0, 0, 0.8143787980079651, 148.64102172851562, 88.40760803222656)"/><path style="fill: rgb(63, 61, 61); fill-opacity: 1; stroke: rgb(0, 0, 0); stroke-opacity: 1; stroke-width: 0; paint-order: fill;" transform="matrix(0.8143787980079651, 0, 0, 0.8143787980079651, 148.64102172851562, 88.40760803222656)"/><path style="fill: rgb(63, 61, 61); fill-opacity: 1; stroke: rgb(0, 0, 0); stroke-opacity: 1; stroke-width: 0; paint-order: fill;" transform="matrix(0.8143787980079651, 0, 0, 0.8143787980079651, 148.64102172851562, 88.40760803222656)"/><path style="fill: rgb(63, 61, 61); fill-opacity: 1; stroke: rgb(0, 0, 0); stroke-opacity: 1; stroke-width: 0; paint-order: fill;" transform="matrix(0.8143787980079651, 0, 0, 0.8143787980079651, 148.64102172851562, 88.40760803222656)"/><path style="fill: rgb(63, 61, 61); fill-opacity: 1; stroke: rgb(0, 0, 0); stroke-opacity: 1; stroke-width: 0; paint-order: fill;" transform="matrix(0.8143787980079651, 0, 0, 0.8143787980079651, 148.64102172851562, 88.40760803222656)"/><path style="fill: rgb(63, 61, 61); fill-opacity: 1; stroke: rgb(0, 0, 0); stroke-opacity: 1; stroke-width: 0; paint-order: fill;" transform="matrix(0.8143787980079651, 0, 0, 0.8143787980079651, 148.64102172851562, 88.40760803222656)"/><path style="fill: rgb(63, 61, 61); fill-opacity: 1; stroke: rgb(0, 0, 0); stroke-opacity: 1; stroke-width: 0; paint-order: fill;" transform="matrix(0.8143787980079651, 0, 0, 0.8143787980079651, 148.64102172851562, 88.40760803222656)"/><path style="fill: rgb(63, 61, 61); fill-opacity: 1; stroke: rgb(0, 0, 0); stroke-opacity: 1; stroke-width: 0; paint-order: fill;" transform="matrix(0.8143787980079651, 0, 0, 0.8143787980079651, 147.13255310058594, 88.68455505371094)"/><path style="fill: rgb(63, 61, 61); fill-opacity: 1; stroke: rgb(0, 0, 0); stroke-opacity: 1; stroke-width: 0; paint-order: fill;" transform="matrix(0.8143787980079651, 0, 0, 0.8143787980079651, 147.13255310058594, 88.68455505371094)"/><path style="fill: rgb(63, 61, 61); fill-opacity: 1; stroke: rgb(0, 0, 0); stroke-opacity: 1; stroke-width: 0; paint-order: fill;" transform="matrix(0.8143787980079651, 0, 0, 0.8143787980079651, 147.13255310058594, 88.68455505371094)"/><path style="fill: rgb(63, 61, 61); fill-opacity: 1; stroke: rgb(0, 0, 0); stroke-opacity: 1; stroke-width: 0; paint-order: fill;" transform="matrix(0.8143787980079651, 0, 0, 0.8143787980079651, 147.13255310058594, 88.68455505371094)"/><path style="fill: rgb(63, 61, 61); fill-opacity: 1; stroke: rgb(0, 0, 0); stroke-opacity: 1; stroke-width: 0; paint-order: fill;" transform="matrix(0.8143787980079651, 0, 0, 0.8143787980079651, 147.13255310058594, 88.68455505371094)"/><path style="fill: rgb(63, 61, 61); fill-opacity: 1; stroke: rgb(0, 0, 0); stroke-opacity: 1; stroke-width: 0; paint-order: fill;" transform="matrix(0.8143787980079651, 0, 0, 0.8143787980079651, 147.13255310058594, 88.68455505371094)"/><path style="fill: rgb(63, 61, 61); fill-opacity: 1; stroke: rgb(0, 0, 0); stroke-opacity: 1; stroke-width: 0; paint-order: fill;" transform="matrix(0.8143787980079651, 0, 0, 0.8143787980079651, 147.13255310058594, 88.68455505371094)"/><g transform="matrix(1, 0, 0, 1, 0.5461416244506837, -0.6729218959808352)">
    <path class="st13" d="M448.4,599.9" style="fill: rgb(223, 243, 251);"/>
  </g><path d="M 260.79998779296875 86.19999694824219" style="fill: rgb(23, 168, 247); fill-opacity: 1; stroke: rgb(0, 0, 0); stroke-opacity: 1; stroke-width: 0; paint-order: fill;" transform="matrix(1, 0, 0, 1, -54.344108581542976, 99.08104705810548)"/><path style="fill: rgb(63, 61, 61); fill-opacity: 1; stroke: rgb(0, 0, 0); stroke-opacity: 1; stroke-width: 0; paint-order: fill;" transform="matrix(0.8143787980079652, 0, 0, 0.8143787980079652, 124.12461853027344, 87.63646697998047)"/><path style="fill: rgb(63, 61, 61); fill-opacity: 1; stroke: rgb(0, 0, 0); stroke-opacity: 1; stroke-width: 0; paint-order: fill;" transform="matrix(0.8143787980079652, 0, 0, 0.8143787980079652, 124.12461853027344, 87.63646697998047)"/><path style="fill: rgb(63, 61, 61); fill-opacity: 1; stroke: rgb(0, 0, 0); stroke-opacity: 1; stroke-width: 0; paint-order: fill;" transform="matrix(0.8143787980079652, 0, 0, 0.8143787980079652, 124.12461853027344, 87.63646697998047)"/><path style="fill: rgb(63, 61, 61); fill-opacity: 1; stroke: rgb(0, 0, 0); stroke-opacity: 1; stroke-width: 0; paint-order: fill;" transform="matrix(0.8143787980079652, 0, 0, 0.8143787980079652, 124.12461853027344, 87.63646697998047)"/><path style="fill: rgb(63, 61, 61); fill-opacity: 1; stroke: rgb(0, 0, 0); stroke-opacity: 1; stroke-width: 0; paint-order: fill;" transform="matrix(0.8143787980079652, 0, 0, 0.8143787980079652, 124.12461853027344, 87.63646697998047)"/><path style="fill: rgb(63, 61, 61); fill-opacity: 1; stroke: rgb(0, 0, 0); stroke-opacity: 1; stroke-width: 0; paint-order: fill;" transform="matrix(0.8143787980079652, 0, 0, 0.8143787980079652, 124.12461853027344, 87.63646697998047)"/><path style="fill: rgb(63, 61, 61); fill-opacity: 1; stroke: rgb(0, 0, 0); stroke-opacity: 1; stroke-width: 0; paint-order: fill;" transform="matrix(0.8143787980079652, 0, 0, 0.8143787980079652, 124.12461853027344, 87.63646697998047)"/><path style="fill: rgb(63, 61, 61); fill-opacity: 1; stroke: rgb(0, 0, 0); stroke-opacity: 1; stroke-width: 0; paint-order: fill;" transform="matrix(0.8143787980079652, 0, 0, 0.8143787980079652, 122.6161346435547, 87.91344451904297)"/><path style="fill: rgb(63, 61, 61); fill-opacity: 1; stroke: rgb(0, 0, 0); stroke-opacity: 1; stroke-width: 0; paint-order: fill;" transform="matrix(0.8143787980079652, 0, 0, 0.8143787980079652, 122.6161346435547, 87.91344451904297)"/><path style="fill: rgb(63, 61, 61); fill-opacity: 1; stroke: rgb(0, 0, 0); stroke-opacity: 1; stroke-width: 0; paint-order: fill;" transform="matrix(0.8143787980079652, 0, 0, 0.8143787980079652, 122.6161346435547, 87.91344451904297)"/><path style="fill: rgb(63, 61, 61); fill-opacity: 1; stroke: rgb(0, 0, 0); stroke-opacity: 1; stroke-width: 0; paint-order: fill;" transform="matrix(0.8143787980079652, 0, 0, 0.8143787980079652, 122.6161346435547, 87.91344451904297)"/><path style="fill: rgb(63, 61, 61); fill-opacity: 1; stroke: rgb(0, 0, 0); stroke-opacity: 1; stroke-width: 0; paint-order: fill;" transform="matrix(0.8143787980079652, 0, 0, 0.8143787980079652, 122.6161346435547, 87.91344451904297)"/><path style="fill: rgb(63, 61, 61); fill-opacity: 1; stroke: rgb(0, 0, 0); stroke-opacity: 1; stroke-width: 0; paint-order: fill;" transform="matrix(0.8143787980079652, 0, 0, 0.8143787980079652, 122.6161346435547, 87.91344451904297)"/><path style="fill: rgb(63, 61, 61); fill-opacity: 1; stroke: rgb(0, 0, 0); stroke-opacity: 1; stroke-width: 0; paint-order: fill;" transform="matrix(0.8143787980079652, 0, 0, 0.8143787980079652, 122.6161346435547, 87.91344451904297)"/><path style="fill: rgb(63, 61, 61); fill-opacity: 1; stroke: rgb(0, 0, 0); stroke-opacity: 1; stroke-width: 0; paint-order: fill;" transform="matrix(0.8143787980079652, 0, 0, 0.8143787980079652, 147.0269317626953, 88.28069305419922)"/><path style="fill: rgb(63, 61, 61); fill-opacity: 1; stroke: rgb(0, 0, 0); stroke-opacity: 1; stroke-width: 0; paint-order: fill;" transform="matrix(0.8143787980079652, 0, 0, 0.8143787980079652, 147.0269317626953, 88.28069305419922)"/><path style="fill: rgb(63, 61, 61); fill-opacity: 1; stroke: rgb(0, 0, 0); stroke-opacity: 1; stroke-width: 0; paint-order: fill;" transform="matrix(0.8143787980079652, 0, 0, 0.8143787980079652, 147.0269317626953, 88.28069305419922)"/><g transform="matrix(10, 0, 0, 10, -6020.28759765625, -460.34759521484375)">
    <g id="g-1" transform="matrix(1, 0, 0, 1, 0, 0)">
      <g id="g-2">
        <path class="st0" d="M652,46c27.6,0,50,22.4,50,50s-22.4,50-50,50s-50-22.4-50-50S624.4,46,652,46z" style="fill: rgb(122, 75, 0); fill-opacity: 1;"/>
      </g>
    </g>
  </g><path style="fill: rgb(63, 61, 61); fill-opacity: 1; stroke: rgb(0, 0, 0); stroke-opacity: 1; stroke-width: 0; paint-order: fill;" transform="matrix(0.8143787980079652, 0, 0, 0.8143787980079652, 147.0269317626953, 88.28069305419922)"/><path style="fill: rgb(63, 61, 61); fill-opacity: 1; stroke: rgb(0, 0, 0); stroke-opacity: 1; stroke-width: 0; paint-order: fill;" transform="matrix(0.8143787980079652, 0, 0, 0.8143787980079652, 147.0269317626953, 88.28069305419922)"/><path style="fill: rgb(63, 61, 61); fill-opacity: 1; stroke: rgb(0, 0, 0); stroke-opacity: 1; stroke-width: 0; paint-order: fill;" transform="matrix(0.8143787980079652, 0, 0, 0.8143787980079652, 147.0269317626953, 88.28069305419922)"/><path style="fill: rgb(63, 61, 61); fill-opacity: 1; stroke: rgb(0, 0, 0); stroke-opacity: 1; stroke-width: 0; paint-order: fill;" transform="matrix(0.8143787980079652, 0, 0, 0.8143787980079652, 147.0269317626953, 88.28069305419922)"/><path style="stroke: rgba(0, 0, 0, 0); fill: rgb(255, 244, 161);" d="M 396.826 820.278 C 257.605 856.455 573.788 941.525 39.602 865.498 C 2.397 860.203 31.883 275.171 137.518 160.049 C 319.707 -38.504 595.151 -18.935 740.292 161.778 C 888.466 346.269 854.993 607.183 854.993 838.135 C 789.475 909.24 219.221 934.717 394.756 822.006" transform="matrix(0.8143787980079652, 0, 0, 0.8143787980079652, 147.0269317626953, 88.28069305419922)"/><g style="" transform="matrix(3.5213718414306645, 0, 0, 3.5840759277343754, -428.7249755859376, -207.3631134033203)">
    <path d="M 340.158997 190.423996 A 73.529999 80.882004 0 0 1 266.628998 271.306 A 73.529999 80.882004 0 0 1 193.098999 190.423996 A 73.529999 80.882004 0 0 1 266.628998 109.541992 A 73.529999 80.882004 0 0 1 340.158997 190.423996 Z" style="stroke: rgba(0, 0, 0, 0); fill: rgb(255, 204, 152);"/>
    <path d="M 323.818016 205.457001 A 58.415001 92.727997 0 0 1 265.403015 298.184998 A 58.415001 92.727997 0 0 1 206.988014 205.457001 A 58.415001 92.727997 0 0 1 265.403015 112.729004 A 58.415001 92.727997 0 0 1 323.818016 205.457001 Z" style="stroke: rgba(0, 0, 0, 0); fill: rgb(255, 204, 152);"/>
    <path style="stroke: rgba(0, 0, 0, 0); fill: rgb(255, 204, 152);" d="M 198.965 177.953 C 200.32 184.748 193.735 203.399 195.454 210.106 C 202.141 236.167 219.432 273.442 239.92 288.654"/>
    <path style="stroke: rgba(0, 0, 0, 0); fill: rgb(255, 204, 152);" d="M 290.942 290.564 C 292.467 284.038 285.055 266.124 286.992 259.683 C 294.516 234.652 313.976 198.851 337.033 184.241" transform="matrix(-1, 0, 0, -1, 623.699738, 474.804993)"/>
  </g><g style="stroke-width: 3.38868; vector-effect: non-scaling-stroke;" transform="matrix(3.266277074813843, 0.00021600008767563858, 0, 3.266277074813843, -324.62322998046875, -150.5063629150391)">
    <g>
      <path d="M 235.247 244.451 C 235.247 248.813 228.46 252.349 220.088 252.349 C 211.716 252.349 204.928 248.813 204.928 244.451 C 204.928 240.087 211.716 236.552 220.088 236.552 C 228.46 236.552 235.247 240.087 235.247 244.451 Z" style="stroke: rgba(0, 0, 0, 0); fill: rgb(247, 174, 102);" transform="matrix(1, 0.000006, -0.000006, 1, 0.00157, -0.001414)"/>
      <path style="stroke: rgba(0, 0, 0, 0); fill: rgb(203, 116, 29);" d="M 196.126 213.239 C 206.014 204.669 221.253 210.922 232.61 212.89 C 234.875 213.283 242.405 213.684 241.032 210.111 C 239.45 206.002 231.067 204.361 226.998 203.858 C 214.99 202.369 194.522 202.408 194.522 215.671"/>
    </g>
    <g transform="matrix(-1, 0, 0, 1, 506.197998, -0.010495)" style="">
      <path d="M 237.456 244.45 C 237.456 248.811 230.668 252.348 222.296 252.348 C 213.924 252.348 207.137 248.811 207.136 244.45 C 207.136 240.087 213.924 236.552 222.296 236.552 C 230.668 236.552 237.456 240.087 237.456 244.45 Z" style="stroke: rgba(0, 0, 0, 0); fill: rgb(247, 174, 102);" transform="matrix(1, -0.000006, 0.000006, 1, -0.00157, 0.001428)"/>
      <path style="stroke: rgba(0, 0, 0, 0); fill: rgb(203, 116, 29);" d="M 196.126 213.239 C 206.014 204.669 221.253 210.922 232.61 212.89 C 234.875 213.283 242.405 213.684 241.032 210.111 C 239.45 206.002 231.067 204.361 226.998 203.858 C 214.99 202.369 194.522 202.408 194.522 215.671"/>
    </g>
  </g><path style="stroke: rgba(0, 0, 0, 0); fill: rgb(217, 128, 50);" d="M 441.689 756.331 C 440.762 760.254 475.796 746.244 471.132 735.471 C 466.527 724.832 455.711 739.824 440.842 744.733 C 434.401 746.859 410.926 729.191 404.168 732.998 C 393.897 738.781 436.575 760.09 443.657 756.511" transform="matrix(0.8143787980079652, 0, 0, 0.8143787980079652, 147.0269317626953, 88.28069305419922)"/><g transform="matrix(1.1019209623336792, 0, 0, 1.1019209623336792, -308.4803466796875, -154.5377960205078)">
    <g>
      <path style="stroke: rgba(0, 0, 0, 0); fill: rgb(255, 244, 161);" d="M 481.493 545.966 C 597.521 603.981 780.685 513.044 905.372 513.044 C 882.679 542.68 949.443 788.603 983.564 842.27 C 1071.727 754.104 1002.209 602.284 983.563 490.41 C 976.362 447.2 958.859 393.006 919.776 366.95 C 829.462 306.741 729.474 269.348 625.529 299.047 C 583.278 311.119 551.296 309.929 530.877 383.411 C 515.543 438.591 512.992 389.106 500.012 441.026"/>
      <path style="stroke: rgba(0, 0, 0, 0); fill: rgb(255, 244, 161);" d="M 514.267 521.048 C 514.267 624.304 547.332 728.458 547.332 834.04 C 548.363 834.04 532.909 820.502 521.352 805.586 C 504.54 783.885 489.936 757.472 481.202 732.419 C 465.658 687.833 446.015 502.756 530.8 502.756"/>
    </g>
    <path style="stroke: rgba(0, 0, 0, 0); fill: rgb(255, 246, 180);" d="M 510.325 474.544 C 521.564 519.501 593.946 530.354 634.571 526.444 C 722.561 517.976 802.882 498.744 861.047 476.116 C 891.226 464.375 968.205 501.527 974.285 469.825 C 1004.213 313.773 621.818 107.925 508.753 472.971"/>
  </g><g transform="matrix(1.1796410083770752, 0, 0, 0.7196147441864014, -917.5106201171876, 167.5829010009766)" style="">
    <g>
      <path style="stroke-width: 2.34229; vector-effect: non-scaling-stroke; stroke: rgba(0, 0, 0, 0);" d="M 1145.933 606.79 C 1126.094 572.014 1084.712 564.06 1073.367 610.264 C 1073.367 609.082 1073.451 612.923 1072.475 610.457 C 1057.91 573.574 1078.931 567.672 1084.933 556.669 C 1087.897 556.915 1056.012 566.009 1046.168 563.845 C 1038.838 562.236 1033.339 560.318 1025.362 554.47 C 1022.534 552.398 999.332 532.911 1001.063 532.381 C 1002.29 532.007 1000.696 532.974 1000.696 531.785 C 1015.221 551.772 1064.003 548.355 1083.142 545.85 C 1123.395 540.568 1145.32 569.664 1145.322 607.472" transform="matrix(1, 0.000066, -0.000066, 1, 0.037795, -0.07097)"/>
    </g>
    <g>
      <path style="stroke-width: 2.34229; vector-effect: non-scaling-stroke; stroke: rgba(0, 0, 0, 0);" d="M 1398.796 536.281 C 1378.306 590.481 1329.239 562.397 1326.23 532.807 C 1326.23 533.99 1326.312 530.148 1325.337 532.614 C 1310.777 569.498 1331.799 575.399 1337.802 586.402 C 1340.766 586.156 1308.88 577.062 1299.036 579.226 C 1291.706 580.836 1286.208 582.753 1278.232 588.602 C 1275.404 590.674 1252.205 610.16 1253.936 610.691 C 1255.163 611.064 1253.568 610.098 1253.568 611.286 C 1268.091 591.299 1316.873 594.717 1336.013 597.221 C 1376.266 602.504 1398.187 573.407 1398.185 535.599" transform="matrix(-1, -0.000066, 0.000066, -1, 2652.32622, 1143.143781)"/>
    </g>
  </g><g transform="matrix(1.3385449647903442, 0, 0, 1.286882996559143, -321.4919738769531, -369.6110229492187)" style="">
    <path style="stroke: rgba(0, 0, 0, 0); fill: rgb(255, 95, 95);" d="M 572.567 867.22 C 577.701 914.212 657.02 927.969 658.526 864.819 C 658.639 860.102 573.115 866.177 572.266 869.305" data-bx-origin="0.561 0.519" transform="matrix(0.997287, 0.076565, -0.070769, 0.997287, 64.392252, -45.116789)"/>
    <path style="stroke: rgba(0, 0, 0, 0); fill: rgb(255, 255, 255);" d="M 576.133 867.792 C 603.498 864.997 630.924 866.705 658.004 869.876 C 657.368 875.355 655.162 881.039 629.898 884.095 C 607.863 886.76 577.75 881.191 575.651 867.963"/>
  </g></svg>