<?xml version="1.0" encoding="utf-8"?>
<svg id="master-artboard" viewBox="0 0 1000 1000" version="1.1" xmlns="http://www.w3.org/2000/svg" x="0px" y="0px" style="enable-background:new 0 0 336 235.2;" width="1000px" height="1000px"><rect id="ee-background" x="0" y="0" width="1000" height="1000" style="fill: white; fill-opacity: 0; pointer-events: none;"/>














<path d="M 260.79998779296875 86.19999694824219" style="fill: rgb(23, 168, 247); fill-opacity: 1; stroke: rgb(0, 0, 0); stroke-opacity: 1; stroke-width: 0; paint-order: fill;" transform="matrix(1, 0, 0, 1, -29.895431518554688, 100.28984832763672)"/><path style="fill: rgb(63, 61, 61); fill-opacity: 1; stroke: rgb(0, 0, 0); stroke-opacity: 1; stroke-width: 0; paint-order: fill;" transform="matrix(0.8143787980079651, 0, 0, 0.8143787980079651, 148.57330322265625, 88.84526824951172)"/><path style="fill: rgb(63, 61, 61); fill-opacity: 1; stroke: rgb(0, 0, 0); stroke-opacity: 1; stroke-width: 0; paint-order: fill;" transform="matrix(0.8143787980079651, 0, 0, 0.8143787980079651, 148.57330322265625, 88.84526824951172)"/><path style="fill: rgb(63, 61, 61); fill-opacity: 1; stroke: rgb(0, 0, 0); stroke-opacity: 1; stroke-width: 0; paint-order: fill;" transform="matrix(0.8143787980079651, 0, 0, 0.8143787980079651, 148.57330322265625, 88.84526824951172)"/><path style="fill: rgb(63, 61, 61); fill-opacity: 1; stroke: rgb(0, 0, 0); stroke-opacity: 1; stroke-width: 0; paint-order: fill;" transform="matrix(0.8143787980079651, 0, 0, 0.8143787980079651, 148.57330322265625, 88.84526824951172)"/><path style="fill: rgb(63, 61, 61); fill-opacity: 1; stroke: rgb(0, 0, 0); stroke-opacity: 1; stroke-width: 0; paint-order: fill;" transform="matrix(0.8143787980079651, 0, 0, 0.8143787980079651, 148.57330322265625, 88.84526824951172)"/><path style="fill: rgb(63, 61, 61); fill-opacity: 1; stroke: rgb(0, 0, 0); stroke-opacity: 1; stroke-width: 0; paint-order: fill;" transform="matrix(0.8143787980079651, 0, 0, 0.8143787980079651, 148.57330322265625, 88.84526824951172)"/><path style="fill: rgb(63, 61, 61); fill-opacity: 1; stroke: rgb(0, 0, 0); stroke-opacity: 1; stroke-width: 0; paint-order: fill;" transform="matrix(0.8143787980079651, 0, 0, 0.8143787980079651, 148.57330322265625, 88.84526824951172)"/><path style="fill: rgb(63, 61, 61); fill-opacity: 1; stroke: rgb(0, 0, 0); stroke-opacity: 1; stroke-width: 0; paint-order: fill;" transform="matrix(0.8143787980079651, 0, 0, 0.8143787980079651, 147.0648193359375, 89.1222152709961)"/><path style="fill: rgb(63, 61, 61); fill-opacity: 1; stroke: rgb(0, 0, 0); stroke-opacity: 1; stroke-width: 0; paint-order: fill;" transform="matrix(0.8143787980079651, 0, 0, 0.8143787980079651, 147.0648193359375, 89.1222152709961)"/><path style="fill: rgb(63, 61, 61); fill-opacity: 1; stroke: rgb(0, 0, 0); stroke-opacity: 1; stroke-width: 0; paint-order: fill;" transform="matrix(0.8143787980079651, 0, 0, 0.8143787980079651, 147.0648193359375, 89.1222152709961)"/><path style="fill: rgb(63, 61, 61); fill-opacity: 1; stroke: rgb(0, 0, 0); stroke-opacity: 1; stroke-width: 0; paint-order: fill;" transform="matrix(0.8143787980079651, 0, 0, 0.8143787980079651, 147.0648193359375, 89.1222152709961)"/><path style="fill: rgb(63, 61, 61); fill-opacity: 1; stroke: rgb(0, 0, 0); stroke-opacity: 1; stroke-width: 0; paint-order: fill;" transform="matrix(0.8143787980079651, 0, 0, 0.8143787980079651, 147.0648193359375, 89.1222152709961)"/><path style="fill: rgb(63, 61, 61); fill-opacity: 1; stroke: rgb(0, 0, 0); stroke-opacity: 1; stroke-width: 0; paint-order: fill;" transform="matrix(0.8143787980079651, 0, 0, 0.8143787980079651, 147.0648193359375, 89.1222152709961)"/><path style="fill: rgb(63, 61, 61); fill-opacity: 1; stroke: rgb(0, 0, 0); stroke-opacity: 1; stroke-width: 0; paint-order: fill;" transform="matrix(0.8143787980079651, 0, 0, 0.8143787980079651, 147.0648193359375, 89.1222152709961)"/><g transform="matrix(1, 0, 0, 1, 1.0625569820404053, 0.09820251166820526)">
    <path class="st13" d="M448.4,599.9" style="fill: rgb(223, 243, 251);"/>
  </g><path d="M 260.79998779296875 86.19999694824219" style="fill: rgb(23, 168, 247); fill-opacity: 1; stroke: rgb(0, 0, 0); stroke-opacity: 1; stroke-width: 0; paint-order: fill;" transform="matrix(1, 0, 0, 1, -29.827693939208984, 99.85220336914062)"/><path style="fill: rgb(63, 61, 61); fill-opacity: 1; stroke: rgb(0, 0, 0); stroke-opacity: 1; stroke-width: 0; paint-order: fill;" transform="matrix(0.8143787980079651, 0, 0, 0.8143787980079651, 148.64102172851562, 88.40760803222656)"/><path style="fill: rgb(63, 61, 61); fill-opacity: 1; stroke: rgb(0, 0, 0); stroke-opacity: 1; stroke-width: 0; paint-order: fill;" transform="matrix(0.8143787980079651, 0, 0, 0.8143787980079651, 148.64102172851562, 88.40760803222656)"/><path style="fill: rgb(63, 61, 61); fill-opacity: 1; stroke: rgb(0, 0, 0); stroke-opacity: 1; stroke-width: 0; paint-order: fill;" transform="matrix(0.8143787980079651, 0, 0, 0.8143787980079651, 148.64102172851562, 88.40760803222656)"/><path style="fill: rgb(63, 61, 61); fill-opacity: 1; stroke: rgb(0, 0, 0); stroke-opacity: 1; stroke-width: 0; paint-order: fill;" transform="matrix(0.8143787980079651, 0, 0, 0.8143787980079651, 148.64102172851562, 88.40760803222656)"/><path style="fill: rgb(63, 61, 61); fill-opacity: 1; stroke: rgb(0, 0, 0); stroke-opacity: 1; stroke-width: 0; paint-order: fill;" transform="matrix(0.8143787980079651, 0, 0, 0.8143787980079651, 148.64102172851562, 88.40760803222656)"/><path style="fill: rgb(63, 61, 61); fill-opacity: 1; stroke: rgb(0, 0, 0); stroke-opacity: 1; stroke-width: 0; paint-order: fill;" transform="matrix(0.8143787980079651, 0, 0, 0.8143787980079651, 148.64102172851562, 88.40760803222656)"/><path style="fill: rgb(63, 61, 61); fill-opacity: 1; stroke: rgb(0, 0, 0); stroke-opacity: 1; stroke-width: 0; paint-order: fill;" transform="matrix(0.8143787980079651, 0, 0, 0.8143787980079651, 148.64102172851562, 88.40760803222656)"/><path style="fill: rgb(63, 61, 61); fill-opacity: 1; stroke: rgb(0, 0, 0); stroke-opacity: 1; stroke-width: 0; paint-order: fill;" transform="matrix(0.8143787980079651, 0, 0, 0.8143787980079651, 147.13255310058594, 88.68455505371094)"/><path style="fill: rgb(63, 61, 61); fill-opacity: 1; stroke: rgb(0, 0, 0); stroke-opacity: 1; stroke-width: 0; paint-order: fill;" transform="matrix(0.8143787980079651, 0, 0, 0.8143787980079651, 147.13255310058594, 88.68455505371094)"/><path style="fill: rgb(63, 61, 61); fill-opacity: 1; stroke: rgb(0, 0, 0); stroke-opacity: 1; stroke-width: 0; paint-order: fill;" transform="matrix(0.8143787980079651, 0, 0, 0.8143787980079651, 147.13255310058594, 88.68455505371094)"/><path style="fill: rgb(63, 61, 61); fill-opacity: 1; stroke: rgb(0, 0, 0); stroke-opacity: 1; stroke-width: 0; paint-order: fill;" transform="matrix(0.8143787980079651, 0, 0, 0.8143787980079651, 147.13255310058594, 88.68455505371094)"/><path style="fill: rgb(63, 61, 61); fill-opacity: 1; stroke: rgb(0, 0, 0); stroke-opacity: 1; stroke-width: 0; paint-order: fill;" transform="matrix(0.8143787980079651, 0, 0, 0.8143787980079651, 147.13255310058594, 88.68455505371094)"/><path style="fill: rgb(63, 61, 61); fill-opacity: 1; stroke: rgb(0, 0, 0); stroke-opacity: 1; stroke-width: 0; paint-order: fill;" transform="matrix(0.8143787980079651, 0, 0, 0.8143787980079651, 147.13255310058594, 88.68455505371094)"/><path style="fill: rgb(63, 61, 61); fill-opacity: 1; stroke: rgb(0, 0, 0); stroke-opacity: 1; stroke-width: 0; paint-order: fill;" transform="matrix(0.8143787980079651, 0, 0, 0.8143787980079651, 147.13255310058594, 88.68455505371094)"/><g transform="matrix(1, 0, 0, 1, 0.5461416244506837, -0.6729218959808352)">
    <path class="st13" d="M448.4,599.9" style="fill: rgb(223, 243, 251);"/>
  </g><path d="M 260.79998779296875 86.19999694824219" style="fill: rgb(23, 168, 247); fill-opacity: 1; stroke: rgb(0, 0, 0); stroke-opacity: 1; stroke-width: 0; paint-order: fill;" transform="matrix(1, 0, 0, 1, -54.344108581542976, 99.08104705810548)"/><path style="fill: rgb(63, 61, 61); fill-opacity: 1; stroke: rgb(0, 0, 0); stroke-opacity: 1; stroke-width: 0; paint-order: fill;" transform="matrix(0.8143787980079652, 0, 0, 0.8143787980079652, 124.12461853027344, 87.63646697998047)"/><path style="fill: rgb(63, 61, 61); fill-opacity: 1; stroke: rgb(0, 0, 0); stroke-opacity: 1; stroke-width: 0; paint-order: fill;" transform="matrix(0.8143787980079652, 0, 0, 0.8143787980079652, 124.12461853027344, 87.63646697998047)"/><path style="fill: rgb(63, 61, 61); fill-opacity: 1; stroke: rgb(0, 0, 0); stroke-opacity: 1; stroke-width: 0; paint-order: fill;" transform="matrix(0.8143787980079652, 0, 0, 0.8143787980079652, 124.12461853027344, 87.63646697998047)"/><path style="fill: rgb(63, 61, 61); fill-opacity: 1; stroke: rgb(0, 0, 0); stroke-opacity: 1; stroke-width: 0; paint-order: fill;" transform="matrix(0.8143787980079652, 0, 0, 0.8143787980079652, 124.12461853027344, 87.63646697998047)"/><path style="fill: rgb(63, 61, 61); fill-opacity: 1; stroke: rgb(0, 0, 0); stroke-opacity: 1; stroke-width: 0; paint-order: fill;" transform="matrix(0.8143787980079652, 0, 0, 0.8143787980079652, 124.12461853027344, 87.63646697998047)"/><path style="fill: rgb(63, 61, 61); fill-opacity: 1; stroke: rgb(0, 0, 0); stroke-opacity: 1; stroke-width: 0; paint-order: fill;" transform="matrix(0.8143787980079652, 0, 0, 0.8143787980079652, 124.12461853027344, 87.63646697998047)"/><path style="fill: rgb(63, 61, 61); fill-opacity: 1; stroke: rgb(0, 0, 0); stroke-opacity: 1; stroke-width: 0; paint-order: fill;" transform="matrix(0.8143787980079652, 0, 0, 0.8143787980079652, 124.12461853027344, 87.63646697998047)"/><path style="fill: rgb(63, 61, 61); fill-opacity: 1; stroke: rgb(0, 0, 0); stroke-opacity: 1; stroke-width: 0; paint-order: fill;" transform="matrix(0.8143787980079652, 0, 0, 0.8143787980079652, 122.6161346435547, 87.91344451904297)"/><path style="fill: rgb(63, 61, 61); fill-opacity: 1; stroke: rgb(0, 0, 0); stroke-opacity: 1; stroke-width: 0; paint-order: fill;" transform="matrix(0.8143787980079652, 0, 0, 0.8143787980079652, 122.6161346435547, 87.91344451904297)"/><path style="fill: rgb(63, 61, 61); fill-opacity: 1; stroke: rgb(0, 0, 0); stroke-opacity: 1; stroke-width: 0; paint-order: fill;" transform="matrix(0.8143787980079652, 0, 0, 0.8143787980079652, 122.6161346435547, 87.91344451904297)"/><path style="fill: rgb(63, 61, 61); fill-opacity: 1; stroke: rgb(0, 0, 0); stroke-opacity: 1; stroke-width: 0; paint-order: fill;" transform="matrix(0.8143787980079652, 0, 0, 0.8143787980079652, 122.6161346435547, 87.91344451904297)"/><path style="fill: rgb(63, 61, 61); fill-opacity: 1; stroke: rgb(0, 0, 0); stroke-opacity: 1; stroke-width: 0; paint-order: fill;" transform="matrix(0.8143787980079652, 0, 0, 0.8143787980079652, 122.6161346435547, 87.91344451904297)"/><path style="fill: rgb(63, 61, 61); fill-opacity: 1; stroke: rgb(0, 0, 0); stroke-opacity: 1; stroke-width: 0; paint-order: fill;" transform="matrix(0.8143787980079652, 0, 0, 0.8143787980079652, 122.6161346435547, 87.91344451904297)"/><path style="fill: rgb(63, 61, 61); fill-opacity: 1; stroke: rgb(0, 0, 0); stroke-opacity: 1; stroke-width: 0; paint-order: fill;" transform="matrix(0.8143787980079652, 0, 0, 0.8143787980079652, 122.6161346435547, 87.91344451904297)"/><path style="fill: rgb(63, 61, 61); fill-opacity: 1; stroke: rgb(0, 0, 0); stroke-opacity: 1; stroke-width: 0; paint-order: fill;" transform="matrix(0.8143787980079652, 0, 0, 0.8143787980079652, 147.0269317626953, 88.28069305419922)"/><path style="fill: rgb(63, 61, 61); fill-opacity: 1; stroke: rgb(0, 0, 0); stroke-opacity: 1; stroke-width: 0; paint-order: fill;" transform="matrix(0.8143787980079652, 0, 0, 0.8143787980079652, 147.0269317626953, 88.28069305419922)"/><path style="fill: rgb(63, 61, 61); fill-opacity: 1; stroke: rgb(0, 0, 0); stroke-opacity: 1; stroke-width: 0; paint-order: fill;" transform="matrix(0.8143787980079652, 0, 0, 0.8143787980079652, 147.0269317626953, 88.28069305419922)"/><path style="fill: rgb(63, 61, 61); fill-opacity: 1; stroke: rgb(0, 0, 0); stroke-opacity: 1; stroke-width: 0; paint-order: fill;" transform="matrix(0.8143787980079652, 0, 0, 0.8143787980079652, 147.0269317626953, 88.28069305419922)"/><path style="fill: rgb(63, 61, 61); fill-opacity: 1; stroke: rgb(0, 0, 0); stroke-opacity: 1; stroke-width: 0; paint-order: fill;" transform="matrix(0.8143787980079652, 0, 0, 0.8143787980079652, 147.0269317626953, 88.28069305419922)"/><path style="fill: rgb(63, 61, 61); fill-opacity: 1; stroke: rgb(0, 0, 0); stroke-opacity: 1; stroke-width: 0; paint-order: fill;" transform="matrix(0.8143787980079652, 0, 0, 0.8143787980079652, 147.0269317626953, 88.28069305419922)"/><path style="fill: rgb(63, 61, 61); fill-opacity: 1; stroke: rgb(0, 0, 0); stroke-opacity: 1; stroke-width: 0; paint-order: fill;" transform="matrix(0.8143787980079652, 0, 0, 0.8143787980079652, 147.0269317626953, 88.28069305419922)"/><g transform="matrix(1, 0, 0, 1, 0.4257883727550507, 0.5491493046283723)">
    <path class="st13" d="M448.4,599.9" style="fill: rgb(223, 243, 251);"/>
  </g><path d="M 260.79998779296875 86.19999694824219" style="fill: rgb(23, 168, 247); fill-opacity: 1; stroke: rgb(0, 0, 0); stroke-opacity: 1; stroke-width: 0; paint-order: fill;" transform="matrix(1, 0, 0, 1, -54.46446609497071, 100.30315399169923)"/><path style="fill: rgb(63, 61, 61); fill-opacity: 1; stroke: rgb(0, 0, 0); stroke-opacity: 1; stroke-width: 0; paint-order: fill;" transform="matrix(0.8143787980079652, 0, 0, 0.8143787980079652, 124.00426483154297, 88.85855865478516)"/><path style="fill: rgb(63, 61, 61); fill-opacity: 1; stroke: rgb(0, 0, 0); stroke-opacity: 1; stroke-width: 0; paint-order: fill;" transform="matrix(0.8143787980079652, 0, 0, 0.8143787980079652, 124.00426483154297, 88.85855865478516)"/><path style="fill: rgb(63, 61, 61); fill-opacity: 1; stroke: rgb(0, 0, 0); stroke-opacity: 1; stroke-width: 0; paint-order: fill;" transform="matrix(0.8143787980079652, 0, 0, 0.8143787980079652, 124.00426483154297, 88.85855865478516)"/><path style="fill: rgb(63, 61, 61); fill-opacity: 1; stroke: rgb(0, 0, 0); stroke-opacity: 1; stroke-width: 0; paint-order: fill;" transform="matrix(0.8143787980079652, 0, 0, 0.8143787980079652, 124.00426483154297, 88.85855865478516)"/><path style="fill: rgb(63, 61, 61); fill-opacity: 1; stroke: rgb(0, 0, 0); stroke-opacity: 1; stroke-width: 0; paint-order: fill;" transform="matrix(0.8143787980079652, 0, 0, 0.8143787980079652, 124.00426483154297, 88.85855865478516)"/><path style="fill: rgb(63, 61, 61); fill-opacity: 1; stroke: rgb(0, 0, 0); stroke-opacity: 1; stroke-width: 0; paint-order: fill;" transform="matrix(0.8143787980079652, 0, 0, 0.8143787980079652, 124.00426483154297, 88.85855865478516)"/><path style="fill: rgb(63, 61, 61); fill-opacity: 1; stroke: rgb(0, 0, 0); stroke-opacity: 1; stroke-width: 0; paint-order: fill;" transform="matrix(0.8143787980079652, 0, 0, 0.8143787980079652, 124.00426483154297, 88.85855865478516)"/><path style="fill: rgb(63, 61, 61); fill-opacity: 1; stroke: rgb(0, 0, 0); stroke-opacity: 1; stroke-width: 0; paint-order: fill;" transform="matrix(0.8143787980079652, 0, 0, 0.8143787980079652, 122.49578094482422, 89.13550567626953)"/><path style="fill: rgb(63, 61, 61); fill-opacity: 1; stroke: rgb(0, 0, 0); stroke-opacity: 1; stroke-width: 0; paint-order: fill;" transform="matrix(0.8143787980079652, 0, 0, 0.8143787980079652, 122.49578094482422, 89.13550567626953)"/><path style="fill: rgb(63, 61, 61); fill-opacity: 1; stroke: rgb(0, 0, 0); stroke-opacity: 1; stroke-width: 0; paint-order: fill;" transform="matrix(0.8143787980079652, 0, 0, 0.8143787980079652, 122.49578094482422, 89.13550567626953)"/><path style="fill: rgb(63, 61, 61); fill-opacity: 1; stroke: rgb(0, 0, 0); stroke-opacity: 1; stroke-width: 0; paint-order: fill;" transform="matrix(0.8143787980079652, 0, 0, 0.8143787980079652, 122.49578094482422, 89.13550567626953)"/><path style="fill: rgb(63, 61, 61); fill-opacity: 1; stroke: rgb(0, 0, 0); stroke-opacity: 1; stroke-width: 0; paint-order: fill;" transform="matrix(0.8143787980079652, 0, 0, 0.8143787980079652, 122.49578094482422, 89.13550567626953)"/><path style="fill: rgb(63, 61, 61); fill-opacity: 1; stroke: rgb(0, 0, 0); stroke-opacity: 1; stroke-width: 0; paint-order: fill;" transform="matrix(0.8143787980079652, 0, 0, 0.8143787980079652, 122.49578094482422, 89.13550567626953)"/><path style="fill: rgb(63, 61, 61); fill-opacity: 1; stroke: rgb(0, 0, 0); stroke-opacity: 1; stroke-width: 0; paint-order: fill;" transform="matrix(0.8143787980079652, 0, 0, 0.8143787980079652, 122.49578094482422, 89.13550567626953)"/><path style="fill: rgb(63, 61, 61); fill-opacity: 1; stroke: rgb(0, 0, 0); stroke-opacity: 1; stroke-width: 0; paint-order: fill;" transform="matrix(0.8143787980079652, 0, 0, 0.8143787980079652, 145.90658569335938, 89.50276947021484)"/><path style="fill: rgb(63, 61, 61); fill-opacity: 1; stroke: rgb(0, 0, 0); stroke-opacity: 1; stroke-width: 0; paint-order: fill;" transform="matrix(0.8143787980079652, 0, 0, 0.8143787980079652, 145.90658569335938, 89.50276947021484)"/><path style="fill: rgb(63, 61, 61); fill-opacity: 1; stroke: rgb(0, 0, 0); stroke-opacity: 1; stroke-width: 0; paint-order: fill;" transform="matrix(0.8143787980079652, 0, 0, 0.8143787980079652, 145.90658569335938, 89.50276947021484)"/><path style="fill: rgb(63, 61, 61); fill-opacity: 1; stroke: rgb(0, 0, 0); stroke-opacity: 1; stroke-width: 0; paint-order: fill;" transform="matrix(0.8143787980079652, 0, 0, 0.8143787980079652, 145.90658569335938, 89.50276947021484)"/><path style="fill: rgb(63, 61, 61); fill-opacity: 1; stroke: rgb(0, 0, 0); stroke-opacity: 1; stroke-width: 0; paint-order: fill;" transform="matrix(0.8143787980079652, 0, 0, 0.8143787980079652, 145.90658569335938, 89.50276947021484)"/><path style="fill: rgb(63, 61, 61); fill-opacity: 1; stroke: rgb(0, 0, 0); stroke-opacity: 1; stroke-width: 0; paint-order: fill;" transform="matrix(0.8143787980079652, 0, 0, 0.8143787980079652, 145.90658569335938, 89.50276947021484)"/><path style="fill: rgb(63, 61, 61); fill-opacity: 1; stroke: rgb(0, 0, 0); stroke-opacity: 1; stroke-width: 0; paint-order: fill;" transform="matrix(0.8143787980079652, 0, 0, 0.8143787980079652, 145.90658569335938, 89.50276947021484)"/><path d="M 260.79998779296875 86.19999694824219" style="fill: rgb(23, 168, 247); fill-opacity: 1; stroke: rgb(0, 0, 0); stroke-opacity: 1; stroke-width: 0; paint-order: fill;" transform="matrix(1, 0, 0, 1, -29.14033889770508, 101.47537994384767)"/><path style="fill: rgb(63, 61, 61); fill-opacity: 1; stroke: rgb(0, 0, 0); stroke-opacity: 1; stroke-width: 0; paint-order: fill;" transform="matrix(0.8143787980079652, 0, 0, 0.8143787980079652, 149.32838439941406, 90.0307846069336)"/><path style="fill: rgb(63, 61, 61); fill-opacity: 1; stroke: rgb(0, 0, 0); stroke-opacity: 1; stroke-width: 0; paint-order: fill;" transform="matrix(0.8143787980079652, 0, 0, 0.8143787980079652, 149.32838439941406, 90.0307846069336)"/><path style="fill: rgb(63, 61, 61); fill-opacity: 1; stroke: rgb(0, 0, 0); stroke-opacity: 1; stroke-width: 0; paint-order: fill;" transform="matrix(0.8143787980079652, 0, 0, 0.8143787980079652, 149.32838439941406, 90.0307846069336)"/><path style="fill: rgb(63, 61, 61); fill-opacity: 1; stroke: rgb(0, 0, 0); stroke-opacity: 1; stroke-width: 0; paint-order: fill;" transform="matrix(0.8143787980079652, 0, 0, 0.8143787980079652, 149.32838439941406, 90.0307846069336)"/><path style="fill: rgb(63, 61, 61); fill-opacity: 1; stroke: rgb(0, 0, 0); stroke-opacity: 1; stroke-width: 0; paint-order: fill;" transform="matrix(0.8143787980079652, 0, 0, 0.8143787980079652, 149.32838439941406, 90.0307846069336)"/><path style="fill: rgb(63, 61, 61); fill-opacity: 1; stroke: rgb(0, 0, 0); stroke-opacity: 1; stroke-width: 0; paint-order: fill;" transform="matrix(0.8143787980079652, 0, 0, 0.8143787980079652, 149.32838439941406, 90.0307846069336)"/><path style="fill: rgb(63, 61, 61); fill-opacity: 1; stroke: rgb(0, 0, 0); stroke-opacity: 1; stroke-width: 0; paint-order: fill;" transform="matrix(0.8143787980079652, 0, 0, 0.8143787980079652, 149.32838439941406, 90.0307846069336)"/><path style="fill: rgb(63, 61, 61); fill-opacity: 1; stroke: rgb(0, 0, 0); stroke-opacity: 1; stroke-width: 0; paint-order: fill;" transform="matrix(0.8143787980079652, 0, 0, 0.8143787980079652, 147.8199005126953, 90.30773162841797)"/><path style="fill: rgb(63, 61, 61); fill-opacity: 1; stroke: rgb(0, 0, 0); stroke-opacity: 1; stroke-width: 0; paint-order: fill;" transform="matrix(0.8143787980079652, 0, 0, 0.8143787980079652, 147.8199005126953, 90.30773162841797)"/><path style="fill: rgb(63, 61, 61); fill-opacity: 1; stroke: rgb(0, 0, 0); stroke-opacity: 1; stroke-width: 0; paint-order: fill;" transform="matrix(0.8143787980079652, 0, 0, 0.8143787980079652, 147.8199005126953, 90.30773162841797)"/><path style="fill: rgb(63, 61, 61); fill-opacity: 1; stroke: rgb(0, 0, 0); stroke-opacity: 1; stroke-width: 0; paint-order: fill;" transform="matrix(0.8143787980079652, 0, 0, 0.8143787980079652, 147.8199005126953, 90.30773162841797)"/><path style="fill: rgb(63, 61, 61); fill-opacity: 1; stroke: rgb(0, 0, 0); stroke-opacity: 1; stroke-width: 0; paint-order: fill;" transform="matrix(0.8143787980079652, 0, 0, 0.8143787980079652, 147.8199005126953, 90.30773162841797)"/><path style="fill: rgb(63, 61, 61); fill-opacity: 1; stroke: rgb(0, 0, 0); stroke-opacity: 1; stroke-width: 0; paint-order: fill;" transform="matrix(0.8143787980079652, 0, 0, 0.8143787980079652, 147.8199005126953, 90.30773162841797)"/><path style="fill: rgb(63, 61, 61); fill-opacity: 1; stroke: rgb(0, 0, 0); stroke-opacity: 1; stroke-width: 0; paint-order: fill;" transform="matrix(0.8143787980079652, 0, 0, 0.8143787980079652, 147.8199005126953, 90.30773162841797)"/><path style="fill: rgb(63, 61, 61); fill-opacity: 1; stroke: rgb(0, 0, 0); stroke-opacity: 1; stroke-width: 0; paint-order: fill;" transform="matrix(0.8143787980079652, 0, 0, 0.8143787980079652, 147.62628173828125, 90.51728057861327)"/><path style="fill: rgb(63, 61, 61); fill-opacity: 1; stroke: rgb(0, 0, 0); stroke-opacity: 1; stroke-width: 0; paint-order: fill;" transform="matrix(0.8143787980079652, 0, 0, 0.8143787980079652, 147.62628173828125, 90.51728057861327)"/><path style="fill: rgb(63, 61, 61); fill-opacity: 1; stroke: rgb(0, 0, 0); stroke-opacity: 1; stroke-width: 0; paint-order: fill;" transform="matrix(0.8143787980079652, 0, 0, 0.8143787980079652, 147.62628173828125, 90.51728057861327)"/><path style="fill: rgb(63, 61, 61); fill-opacity: 1; stroke: rgb(0, 0, 0); stroke-opacity: 1; stroke-width: 0; paint-order: fill;" transform="matrix(0.8143787980079652, 0, 0, 0.8143787980079652, 147.62628173828125, 90.51728057861327)"/><path style="fill: rgb(63, 61, 61); fill-opacity: 1; stroke: rgb(0, 0, 0); stroke-opacity: 1; stroke-width: 0; paint-order: fill;" transform="matrix(0.8143787980079652, 0, 0, 0.8143787980079652, 147.62628173828125, 90.51728057861327)"/><path style="fill: rgb(63, 61, 61); fill-opacity: 1; stroke: rgb(0, 0, 0); stroke-opacity: 1; stroke-width: 0; paint-order: fill;" transform="matrix(0.8143787980079652, 0, 0, 0.8143787980079652, 147.62628173828125, 90.51728057861327)"/><path style="fill: rgb(63, 61, 61); fill-opacity: 1; stroke: rgb(0, 0, 0); stroke-opacity: 1; stroke-width: 0; paint-order: fill;" transform="matrix(0.8143787980079652, 0, 0, 0.8143787980079652, 147.62628173828125, 90.51728057861327)"/><g transform="matrix(10, 0, 0, 10, -6020.39306640625, -459.24182128906256)">
    <g id="g-1" transform="matrix(1, 0, 0, 1, 0, 0)">
      <g id="g-2">
        <path class="st0" d="M652,46c27.6,0,50,22.4,50,50s-22.4,50-50,50s-50-22.4-50-50S624.4,46,652,46z" style="fill: rgb(234, 106, 234);"/>
      </g>
    </g>
  </g><g transform="matrix(1.4235559701919553, 0, 0, 1.4235559701919553, 137.27983093261716, -20.792783737182614)">
    <g style="" transform="matrix(3.123122, 0, 0, 2.929405, -577.151245, -238.756622)">
      <path d="M 340.158997 190.423996 A 73.529999 80.882004 0 0 1 266.628998 271.306 A 73.529999 80.882004 0 0 1 193.098999 190.423996 A 73.529999 80.882004 0 0 1 266.628998 109.541992 A 73.529999 80.882004 0 0 1 340.158997 190.423996 Z" style="stroke: rgba(0, 0, 0, 0); fill: rgb(151, 45, 0);"/>
      <path d="M 323.818016 205.457001 A 58.415001 92.727997 0 0 1 265.403015 298.184998 A 58.415001 92.727997 0 0 1 206.988014 205.457001 A 58.415001 92.727997 0 0 1 265.403015 112.729004 A 58.415001 92.727997 0 0 1 323.818016 205.457001 Z" style="stroke: rgba(0, 0, 0, 0); fill: rgb(151, 45, 0);"/>
      <path style="stroke: rgba(0, 0, 0, 0); fill: rgb(151, 45, 0);" d="M 198.965 177.953 C 200.32 184.748 193.735 203.399 195.454 210.106 C 202.141 236.167 219.432 273.442 239.92 288.654"/>
      <path style="stroke: rgba(0, 0, 0, 0); fill: rgb(151, 45, 0);" d="M 290.942 290.564 C 292.467 284.038 285.055 266.124 286.992 259.683 C 294.516 234.652 313.976 198.851 337.033 184.241" transform="matrix(-1, 0, 0, -1, 623.699738, 474.804993)"/>
    </g>
    <path style="stroke: rgba(0, 0, 0, 0); fill: rgb(204, 61, 0);" d="M 257.771 491.736 C 257.086 494.635 282.978 484.281 279.531 476.319 C 276.128 468.456 268.134 479.536 257.145 483.164 C 252.385 484.735 235.036 471.678 230.041 474.491 C 222.45 478.765 253.992 494.514 259.226 491.869"/>
    <g transform="matrix(1, 0, 0, 1, -494.229584, -290.642029)">
      <path d="M 903.43 731.913 C 903.26 720.111 885.674 710.544 864.152 710.544 C 842.63 710.544 825.316 720.111 825.487 731.913 C 825.656 743.718 843.245 753.287 864.766 753.287 C 886.29 753.287 903.598 743.718 903.43 731.913 Z" style="stroke: rgba(0, 0, 0, 0); fill: rgb(204, 61, 0);" transform="matrix(-0.980585, -0.196096, 0.196096, -0.980585, 1568.607578, 1619.137431)"/>
    </g>
    <g transform="matrix(1, 0, 0, 1, -494.229584, -290.642029)">
      <path d="M 673.602 728.106 C 673.432 739.908 655.846 749.475 634.324 749.475 C 612.802 749.475 595.487 739.908 595.658 728.106 C 595.827 716.301 613.417 706.732 634.938 706.732 C 656.462 706.732 673.77 716.301 673.602 728.106 Z" style="stroke: rgba(0, 0, 0, 0); fill: rgb(204, 61, 0);" transform="matrix(0.980585, -0.196096, 0.196096, 0.980585, -130.456607, 138.584688)"/>
    </g>
    <path style="stroke: rgba(0, 0, 0, 0);" d="M 80.281 370.888 C 107.343 332.446 156.672 350.311 190.337 359.036 C 197.051 360.779 219.371 362.555 215.301 346.716 C 210.61 328.501 185.762 321.225 173.7 318.995 C 138.106 312.395 78.387 313.518 78.389 372.315" transform="matrix(1, 0.000066, -0.000066, 1, 0.022724, -0.009707)"/>
    <path style="stroke: rgba(0, 0, 0, 0);" d="M 298.483 318.883 C 325.545 357.325 374.874 339.46 408.539 330.735 C 415.253 328.992 437.573 327.216 433.503 343.055 C 428.812 361.27 403.964 368.546 391.902 370.776 C 356.308 377.376 296.589 376.253 296.591 317.456" transform="matrix(-1, 0.000066, -0.000066, -1, 730.60886, 690.934844)"/>
    <path style="stroke: rgba(248, 0, 0, 0);" d="M 57.724 442.421 C 29.839 386.652 50.174 247.792 146.06 257.38 C 186.35 261.408 220.965 292.653 261.363 293.644 C 300.768 294.611 358.083 247.472 392.473 251.801 C 455.106 259.685 439.563 382.007 455.703 429.403 C 461.561 446.605 517.128 310.906 471.511 225.764 C 328.948 -40.321 9.125 97.142 25.179 323.4 C 28.661 372.476 38.938 395.366 54.003 440.562"/>
    <path style="stroke: rgba(0, 0, 0, 0); fill: rgb(20, 20, 20);" d="M 97.093 236.77 C 99.985 230.985 117.603 213.56 150.234 217.638 C 181.888 221.595 222.963 246.658 254.392 250.586 C 292.597 255.362 336.182 229.217 373.429 225.078 C 399.109 222.225 449.057 262.274 442.513 237.832 C 394.777 59.534 76.455 60.319 68.397 249.523 C 71.584 268.37 94.654 241.648 97.093 236.77 Z"/>
    <path style="stroke-width: 2.34229; vector-effect: non-scaling-stroke; stroke: rgba(0, 0, 0, 0);" d="M 174.793 403.012 C 156.916 385.433 119.624 381.412 109.397 404.768 C 109.397 404.17 108.772 406.203 108.594 404.866 C 103.733 368.484 176.071 372.754 174.243 403.357" transform="matrix(1, 0.000037, -0.000037, 1, 0.014424, -0.005207)"/>
    <path style="stroke-width: 2.34229; vector-effect: non-scaling-stroke; stroke: rgba(0, 0, 0, 0);" d="M 401.717 381.32 C 383.84 398.899 346.548 402.92 336.321 379.564 C 336.321 380.162 335.696 378.129 335.518 379.466 C 330.657 415.848 402.995 411.578 401.167 380.975" transform="matrix(-1, 0.000037, -0.000037, -1, 737.014912, 784.338039)"/>
  </g><g transform="matrix(1.6248700618743899, 0, 0, 1.7891529798507693, -310.39471435546875, -827.8753051757814)" style="">
    <path style="stroke: rgba(0, 0, 0, 0); fill: rgb(255, 65, 65);" d="M 454.541 877.321 C 459.675 924.313 538.994 938.07 540.5 874.92 C 540.613 870.203 455.089 876.278 454.24 879.406" data-bx-origin="0.561 0.519" transform="matrix(0.997287, 0.076565, -0.070769, 0.997287, 64.786898, -36.052723)"/>
    <path style="stroke: rgba(0, 0, 0, 0); fill: rgb(255, 255, 255);" d="M 458.107 877.893 C 485.472 875.098 512.898 876.806 539.978 879.977 C 539.342 885.456 537.136 891.14 511.872 894.196 C 489.837 896.861 459.724 891.292 457.625 878.064"/>
  </g></svg>