<?xml version="1.0" encoding="utf-8"?>
<svg id="master-artboard" viewBox="0 0 1000 1000" version="1.1" xmlns="http://www.w3.org/2000/svg" x="0px" y="0px" style="enable-background:new 0 0 1400 980;" width="1000px" height="1000px"><rect id="ee-background" x="0" y="0" width="1000" height="1000" style="fill: none; fill-opacity: 1; pointer-events: none;"/><defs><style id="ee-google-fonts">@import url(https://fonts.googleapis.com/css?family=Roboto:100,100italic,300,300italic,400,400italic,500,500italic,700,700italic,900,900italic);</style></defs>























































































































<path d="M 260.79998779296875 86.19999694824219" style="fill: rgb(23, 168, 247); fill-opacity: 1; stroke: rgb(0, 0, 0); stroke-opacity: 1; stroke-width: 0; paint-order: fill;" transform="matrix(1, 0, 0, 1, -29.58087158203125, 100.12992858886719)"/><path style="fill: rgb(63, 61, 61); fill-opacity: 1; stroke: rgb(0, 0, 0); stroke-opacity: 1; stroke-width: 0; paint-order: fill;" transform="matrix(0.8143787980079651, 0, 0, 0.8143787980079651, 148.8878631591797, 88.68533325195312)"/><path style="fill: rgb(63, 61, 61); fill-opacity: 1; stroke: rgb(0, 0, 0); stroke-opacity: 1; stroke-width: 0; paint-order: fill;" transform="matrix(0.8143787980079651, 0, 0, 0.8143787980079651, 148.8878631591797, 88.68533325195312)"/><path style="fill: rgb(63, 61, 61); fill-opacity: 1; stroke: rgb(0, 0, 0); stroke-opacity: 1; stroke-width: 0; paint-order: fill;" transform="matrix(0.8143787980079651, 0, 0, 0.8143787980079651, 148.8878631591797, 88.68533325195312)"/><path style="fill: rgb(63, 61, 61); fill-opacity: 1; stroke: rgb(0, 0, 0); stroke-opacity: 1; stroke-width: 0; paint-order: fill;" transform="matrix(0.8143787980079651, 0, 0, 0.8143787980079651, 148.8878631591797, 88.68533325195312)"/><path style="fill: rgb(63, 61, 61); fill-opacity: 1; stroke: rgb(0, 0, 0); stroke-opacity: 1; stroke-width: 0; paint-order: fill;" transform="matrix(0.8143787980079651, 0, 0, 0.8143787980079651, 148.8878631591797, 88.68533325195312)"/><path style="fill: rgb(63, 61, 61); fill-opacity: 1; stroke: rgb(0, 0, 0); stroke-opacity: 1; stroke-width: 0; paint-order: fill;" transform="matrix(0.8143787980079651, 0, 0, 0.8143787980079651, 148.8878631591797, 88.68533325195312)"/><path style="fill: rgb(63, 61, 61); fill-opacity: 1; stroke: rgb(0, 0, 0); stroke-opacity: 1; stroke-width: 0; paint-order: fill;" transform="matrix(0.8143787980079651, 0, 0, 0.8143787980079651, 148.8878631591797, 88.68533325195312)"/><path style="fill: rgb(63, 61, 61); fill-opacity: 1; stroke: rgb(0, 0, 0); stroke-opacity: 1; stroke-width: 0; paint-order: fill;" transform="matrix(0.8143787980079651, 0, 0, 0.8143787980079651, 147.37937927246094, 88.9622802734375)"/><path style="fill: rgb(63, 61, 61); fill-opacity: 1; stroke: rgb(0, 0, 0); stroke-opacity: 1; stroke-width: 0; paint-order: fill;" transform="matrix(0.8143787980079651, 0, 0, 0.8143787980079651, 147.37937927246094, 88.9622802734375)"/><path style="fill: rgb(63, 61, 61); fill-opacity: 1; stroke: rgb(0, 0, 0); stroke-opacity: 1; stroke-width: 0; paint-order: fill;" transform="matrix(0.8143787980079651, 0, 0, 0.8143787980079651, 147.37937927246094, 88.9622802734375)"/><path style="fill: rgb(63, 61, 61); fill-opacity: 1; stroke: rgb(0, 0, 0); stroke-opacity: 1; stroke-width: 0; paint-order: fill;" transform="matrix(0.8143787980079651, 0, 0, 0.8143787980079651, 147.37937927246094, 88.9622802734375)"/><path style="fill: rgb(63, 61, 61); fill-opacity: 1; stroke: rgb(0, 0, 0); stroke-opacity: 1; stroke-width: 0; paint-order: fill;" transform="matrix(0.8143787980079651, 0, 0, 0.8143787980079651, 147.37937927246094, 88.9622802734375)"/><path style="fill: rgb(63, 61, 61); fill-opacity: 1; stroke: rgb(0, 0, 0); stroke-opacity: 1; stroke-width: 0; paint-order: fill;" transform="matrix(0.8143787980079651, 0, 0, 0.8143787980079651, 147.37937927246094, 88.9622802734375)"/><path style="fill: rgb(63, 61, 61); fill-opacity: 1; stroke: rgb(0, 0, 0); stroke-opacity: 1; stroke-width: 0; paint-order: fill;" transform="matrix(0.8143787980079651, 0, 0, 0.8143787980079651, 147.37937927246094, 88.9622802734375)"/><path style="fill: rgb(63, 61, 61); fill-opacity: 1; stroke: rgb(0, 0, 0); stroke-opacity: 1; stroke-width: 0; paint-order: fill;" transform="matrix(0.8143787980079651, 0, 0, 0.8143787980079651, 147.18576049804688, 89.17182922363281)"/><path style="fill: rgb(63, 61, 61); fill-opacity: 1; stroke: rgb(0, 0, 0); stroke-opacity: 1; stroke-width: 0; paint-order: fill;" transform="matrix(0.8143787980079651, 0, 0, 0.8143787980079651, 147.18576049804688, 89.17182922363281)"/><path style="fill: rgb(63, 61, 61); fill-opacity: 1; stroke: rgb(0, 0, 0); stroke-opacity: 1; stroke-width: 0; paint-order: fill;" transform="matrix(0.8143787980079651, 0, 0, 0.8143787980079651, 147.18576049804688, 89.17182922363281)"/><g transform="matrix(10, 0, 0, 10, -6020.12841796875, -459.4564514160156)">
    <g id="g-1" transform="matrix(1, 0, 0, 1, 0, 0)">
      <g id="g-2">
        <path class="st0" d="M652,46c27.6,0,50,22.4,50,50s-22.4,50-50,50s-50-22.4-50-50S624.4,46,652,46z" style="fill: rgb(23, 23, 23); fill-opacity: 1;"/>
      </g>
    </g>
  </g><path style="fill: rgb(63, 61, 61); fill-opacity: 1; stroke: rgb(0, 0, 0); stroke-opacity: 1; stroke-width: 0; paint-order: fill;" transform="matrix(0.8143787980079651, 0, 0, 0.8143787980079651, 147.18576049804688, 89.17182922363281)"/><path style="fill: rgb(63, 61, 61); fill-opacity: 1; stroke: rgb(0, 0, 0); stroke-opacity: 1; stroke-width: 0; paint-order: fill;" transform="matrix(0.8143787980079651, 0, 0, 0.8143787980079651, 147.18576049804688, 89.17182922363281)"/><path style="fill: rgb(63, 61, 61); fill-opacity: 1; stroke: rgb(0, 0, 0); stroke-opacity: 1; stroke-width: 0; paint-order: fill;" transform="matrix(0.8143787980079651, 0, 0, 0.8143787980079651, 147.18576049804688, 89.17182922363281)"/><path style="fill: rgb(63, 61, 61); fill-opacity: 1; stroke: rgb(0, 0, 0); stroke-opacity: 1; stroke-width: 0; paint-order: fill;" transform="matrix(0.8143787980079651, 0, 0, 0.8143787980079651, 147.18576049804688, 89.17182922363281)"/><g style="" transform="matrix(3.6833479404449463, 0, 0, 3.7011680603027344, -480.5448608398437, -259.08331298828125)">
    <path d="M 340.158997 190.423996 A 73.529999 80.882004 0 0 1 266.628998 271.306 A 73.529999 80.882004 0 0 1 193.098999 190.423996 A 73.529999 80.882004 0 0 1 266.628998 109.541992 A 73.529999 80.882004 0 0 1 340.158997 190.423996 Z" style="fill: rgb(254, 215, 167); stroke: rgba(0, 0, 0, 0);"/>
    <path d="M 323.818016 205.457001 A 58.415001 92.727997 0 0 1 265.403015 298.184998 A 58.415001 92.727997 0 0 1 206.988014 205.457001 A 58.415001 92.727997 0 0 1 265.403015 112.729004 A 58.415001 92.727997 0 0 1 323.818016 205.457001 Z" style="fill: rgb(254, 215, 167); stroke: rgba(0, 0, 0, 0);"/>
    <path style="fill: rgb(254, 215, 167); stroke: rgba(0, 0, 0, 0);" d="M 198.965 177.953 C 200.32 184.748 193.752 203.395 195.454 210.106 C 202.076 236.217 211.711 279.37 239.92 288.654"/>
    <path style="fill: rgb(254, 215, 167); stroke: rgba(0, 0, 0, 0);" d="M 290.942 290.564 C 292.467 284.038 285.336 266.202 286.992 259.683 C 293.553 233.847 305.381 191.666 337.033 184.241" transform="matrix(-1, 0, 0, -1, 623.699738, 474.804993)"/>
  </g><path style="stroke: rgba(0, 0, 0, 0); fill: rgb(255, 193, 117);" d="M 249.061 400.212 C 248.376 403.754 274.268 391.107 270.821 381.382 C 267.418 371.778 259.424 385.311 248.435 389.743 C 243.675 391.662 226.326 375.713 221.331 379.15 C 213.74 384.369 245.282 403.605 250.516 400.375" transform="matrix(1.3580009937286377, 0, 0, 1.3580009937286377, 156.2148895263672, 76.87171936035156)"/><g transform="matrix(1.3580009937286377, 0, 0, 1.3740179538726807, -522.6356811523438, -443.8546447753906)" style="">
    <path style="stroke: rgba(0, 0, 0, 0); fill: rgb(200, 0, 0);" d="M 707.95 827.824 C 713.05 874.816 790.625 888.507 793.911 825.423 C 794.868 807.056 710.058 801.459 707.647 829.909" data-bx-origin="0.561 0.519" transform="matrix(0.999954, -0.009621, 0.009621, 0.999954, -8.048174, 7.3128)"/>
    <path style="stroke: rgba(0, 0, 0, 0); fill: rgb(255, 255, 255);" d="M 710.467 829.797 C 737.832 832.592 765.258 830.884 792.338 827.713 C 791.702 822.234 789.496 816.55 764.232 813.494 C 742.197 810.829 712.084 816.398 709.985 829.626"/>
  </g><g transform="matrix(1.6564610004425049, 0, 0, 1.3346290588378906, -719.091796875, -445.14532470703125)" style="">
    <path d="M 688.384027 716.559021 A 23.794001 35.470001 0 0 1 664.590027 752.029022 A 23.794001 35.470001 0 0 1 640.796026 716.559021 A 23.794001 35.470001 0 0 1 664.590027 681.08902 A 23.794001 35.470001 0 0 1 688.384027 716.559021 Z" style="stroke: rgba(0, 0, 0, 0);"/>
    <path d="M 682.15 715.365 C 682.15 721.032 678.027 725.627 672.94 725.627 C 667.853 725.627 663.73 721.032 663.73 715.365 C 663.73 709.697 667.853 705.103 672.94 705.103 C 678.027 705.103 682.15 709.697 682.15 715.365 Z" style="stroke: rgb(0, 0, 0); fill: rgb(255, 255, 255);"/>
    <path d="M 661.46698 736.484009 A 5 5 0 0 1 656.46698 741.484009 A 5 5 0 0 1 651.46698 736.484009 A 5 5 0 0 1 656.46698 731.484009 A 5 5 0 0 1 661.46698 736.484009 Z" style="stroke: rgba(0, 0, 0, 0); fill: rgb(255, 255, 255);"/>
  </g><g transform="matrix(-1.7262096405029297, 0, 0, 1.3445589542388916, 1757.8040771484377, -452.7566528320312)" style="">
    <path d="M 688.384027 716.559021 A 23.794001 35.470001 0 0 1 664.590027 752.029022 A 23.794001 35.470001 0 0 1 640.796026 716.559021 A 23.794001 35.470001 0 0 1 664.590027 681.08902 A 23.794001 35.470001 0 0 1 688.384027 716.559021 Z" style="stroke: rgba(0, 0, 0, 0);"/>
    <path d="M 682.15 715.481 C 682.15 721.148 678.027 725.743 672.94 725.743 C 667.853 725.743 663.73 721.148 663.73 715.481 C 663.73 709.813 667.853 705.219 672.94 705.219 C 678.027 705.219 682.15 709.813 682.15 715.481 Z" style="stroke: rgb(0, 0, 0); fill: rgb(255, 255, 255);"/>
    <path d="M 661.46698 736.484009 A 5 5 0 0 1 656.46698 741.484009 A 5 5 0 0 1 651.46698 736.484009 A 5 5 0 0 1 656.46698 731.484009 A 5 5 0 0 1 661.46698 736.484009 Z" style="stroke: rgba(0, 0, 0, 0); fill: rgb(255, 255, 255);"/>
  </g><g transform="matrix(2.0392189025878906, 0, 0, 1.8729846477508545, -1031.9066162109375, -820.6880493164062)" style="">
    <path style="stroke: rgba(0, 0, 0, 0); fill: rgb(94, 94, 94);" d="M 747.687 781.688 C 785.894 747.671 839.76 789.625 844.727 794.39 C 875.132 823.556 899.034 773.36 884.314 798.69 C 860.211 828.065 823.299 829.982 747.731 797.464 C 731.134 818.297 630.73 833.043 610.658 793.548 C 609.024 794.805 629.075 807.861 642.723 799.813 C 665.598 786.324 705.822 747.822 747.689 780.9"/>
  </g><path d="M 373.776993 259.826996 A 38.429001 36.140999 0 0 1 335.347992 295.967995 A 38.429001 36.140999 0 0 1 296.918991 259.826996 A 38.429001 36.140999 0 0 1 335.347992 223.685997 A 38.429001 36.140999 0 0 1 373.776993 259.826996 Z" style="stroke: rgba(0, 0, 0, 0); fill: rgb(254, 215, 167);" transform="matrix(1.3580009937286377, 0, 0, 1.3580009937286377, 156.2148895263672, 69.87171936035156)"/><path d="M 207.507004 255.912003 A 38.429001 36.140999 0 0 1 169.078003 292.053001 A 38.429001 36.140999 0 0 1 130.649002 255.912003 A 38.429001 36.140999 0 0 1 169.078003 219.771004 A 38.429001 36.140999 0 0 1 207.507004 255.912003 Z" style="stroke: rgba(0, 0, 0, 0); fill: rgb(254, 215, 167);" transform="matrix(1.3580009937286377, 0, 0, 1.3580009937286377, 156.2148895263672, 76.87171936035156)"/><g transform="matrix(1.3580000400543213, 0, 0, 1.3580000400543213, 155.1791229248047, 18.283342361450195)">
    <path style="stroke: rgba(0, 0, 0, 0); fill: rgb(94, 94, 94);" d="M 75.948 330.4 C 103.01 318.07 152.954 329.362 186.618 332.159 C 193.332 332.719 215.037 327.727 210.968 322.646 C 206.278 316.804 181.429 314.471 169.368 313.756 C 133.774 311.639 74.055 311.999 74.054 330.858" transform="matrix(0.961268, -0.275617, 0.275617, 0.961268, -83.368384, 51.840722)"/>
    <path style="stroke: rgba(0, 0, 0, 0); fill: rgb(94, 94, 94);" d="M 290.578 314.73 C 317.641 327.005 366.355 315.149 400.019 312.363 C 406.733 311.807 429.668 317.391 425.599 322.449 C 420.909 328.265 396.06 330.588 383.999 331.301 C 348.405 333.408 288.687 333.049 288.685 314.274" transform="matrix(-0.961268, -0.275617, 0.275617, -0.961268, 612.104927, 730.515139)"/>
  </g><path style="stroke: rgba(0, 0, 0, 0); fill: rgb(255, 227, 194);" d="M 291.369 362.054 C 295.041 385.527 340.421 350.856 378.238 347.23 C 421.968 343.037 462.231 360.908 500.365 362.457 C 544.863 364.264 567.73 339.307 611.016 340.827 C 638.866 341.804 737.376 388.057 730.89 354.868 C 687.129 130.927 300.653 126.412 291.369 362.054 Z" transform="matrix(1, 0, 0, 1, -0.8122091293334961, 0.29865559935569763)"/></svg>