<?xml version="1.0" encoding="utf-8"?>
<svg id="master-artboard" viewBox="0 0 1000 1000" version="1.1" xmlns="http://www.w3.org/2000/svg" x="0px" y="0px" style="enable-background:new 0 0 1400 980;" width="1000px" height="1000px"><defs><style id="ee-google-fonts">@import url(https://fonts.googleapis.com/css?family=Rubik:300,300italic,400,400italic,500,500italic,700,700italic,900,900italic);</style><style id="style-1">@import url(https://fonts.googleapis.com/css?family=Anton:400|Roboto+Slab:100,300,400,700);</style><path id="text-path-0" d="M 778.8464965820312 213.4612274169922 A 100 18 0 0 1 988.3533935546875 213.4612274169922 A 100 18 0 0 1 778.8464965820312 213.4612274169922 Z" style="fill: none; stroke: red; stroke-width: 2;"/><path id="text-path-1" d="M 664.5464477539062 37.96122741699219 A 100 19 0 0 1 876.5812377929688 37.96122741699219 A 100 19 0 0 1 664.5464477539062 37.96122741699219" style="fill: none; stroke: red; stroke-width: 2;"/><path id="text-path-2" d="M 765.3650512695312 211.70851135253906 A 100 17 0 0 1 991.5017700195312 211.70851135253906 A 100 17 0 0 1 765.3650512695312 211.70851135253906" style="fill: none; stroke: red; stroke-width: 2;"/><path id="path-1" d="M 765.3650512695312 211.70851135253906 A 100 17 0 0 1 991.5017700195312 211.70851135253906 A 100 17 0 0 1 765.3650512695312 211.70851135253906" style="fill: none; stroke: red; stroke-width: 2;"/><path id="path-2" d="M 778.8464965820312 213.4612274169922 A 100 18 0 0 1 988.3533935546875 213.4612274169922 A 100 18 0 0 1 778.8464965820312 213.4612274169922 Z" style="fill: none; stroke: red; stroke-width: 2;"/><path id="path-3" d="M 664.5464477539062 37.96122741699219 A 100 19 0 0 1 876.5812377929688 37.96122741699219 A 100 19 0 0 1 664.5464477539062 37.96122741699219" style="fill: none; stroke: red; stroke-width: 2;"/><path id="path-4" d="M 765.3650512695312 211.70851135253906 A 100 17 0 0 1 991.5017700195312 211.70851135253906 A 100 17 0 0 1 765.3650512695312 211.70851135253906" style="fill: none; stroke: red; stroke-width: 2;"/><path id="path-5" d="M 765.3650512695312 211.70851135253906 A 100 17 0 0 1 991.5017700195312 211.70851135253906 A 100 17 0 0 1 765.3650512695312 211.70851135253906" style="fill: none; stroke: red; stroke-width: 2;"/></defs><rect id="ee-background" x="0" y="0" width="1000" height="1000" style="fill: none; fill-opacity: 1; pointer-events: none;"/>








































<path style="fill: rgb(63, 61, 61); fill-opacity: 1; stroke: rgb(0, 0, 0); stroke-opacity: 1; stroke-width: 0; paint-order: fill;" transform="matrix(0.8143790364265442, 0, 0, 0.8143790364265442, 147.9979705810547, 88.87318420410156)"/><path style="fill: rgb(63, 61, 61); fill-opacity: 1; stroke: rgb(0, 0, 0); stroke-opacity: 1; stroke-width: 0; paint-order: fill;" transform="matrix(0.8143790364265442, 0, 0, 0.8143790364265442, 147.9979705810547, 88.87318420410156)"/><path style="fill: rgb(63, 61, 61); fill-opacity: 1; stroke: rgb(0, 0, 0); stroke-opacity: 1; stroke-width: 0; paint-order: fill;" transform="matrix(0.8143790364265442, 0, 0, 0.8143790364265442, 147.9979705810547, 88.87318420410156)"/><g transform="matrix(10, 0, 0, 10, -6019.31640625, -459.755126953125)"><g id="g-1" transform="matrix(1, 0, 0, 1, 0, 0)">
	<g id="g-2">
		<path class="st0" d="M652,46c27.6,0,50,22.4,50,50s-22.4,50-50,50s-50-22.4-50-50S624.4,46,652,46z" style="fill: rgb(122, 75, 0); fill-opacity: 1;"/>
	</g>
</g></g><path style="fill: rgb(63, 61, 61); fill-opacity: 1; stroke: rgb(0, 0, 0); stroke-opacity: 1; stroke-width: 0; paint-order: fill;" transform="matrix(0.8143790364265442, 0, 0, 0.8143790364265442, 147.9979705810547, 88.87318420410156)"/><path style="fill: rgb(63, 61, 61); fill-opacity: 1; stroke: rgb(0, 0, 0); stroke-opacity: 1; stroke-width: 0; paint-order: fill;" transform="matrix(0.8143790364265442, 0, 0, 0.8143790364265442, 147.9979705810547, 88.87318420410156)"/><path style="fill: rgb(63, 61, 61); fill-opacity: 1; stroke: rgb(0, 0, 0); stroke-opacity: 1; stroke-width: 0; paint-order: fill;" transform="matrix(0.8143790364265442, 0, 0, 0.8143790364265442, 147.9979705810547, 88.87318420410156)"/><path style="fill: rgb(63, 61, 61); fill-opacity: 1; stroke: rgb(0, 0, 0); stroke-opacity: 1; stroke-width: 0; paint-order: fill;" transform="matrix(0.8143790364265442, 0, 0, 0.8143790364265442, 147.9979705810547, 88.87318420410156)"/><path style="stroke: rgba(0, 0, 0, 0); fill: rgb(255, 244, 161);" d="M 396.826 820.278 C 257.605 856.455 573.788 941.525 39.602 865.498 C 2.397 860.203 31.883 275.171 137.518 160.049 C 319.707 -38.504 595.151 -18.935 740.292 161.778 C 888.466 346.269 854.993 607.183 854.993 838.135 C 789.475 909.24 219.221 934.717 394.756 822.006" transform="matrix(0.8143790364265442, 0, 0, 0.8143790364265442, 147.9979705810547, 88.87318420410156)"/><g style="" transform="matrix(3.5213723182678223, 0, 0, 3.584075927734375, -427.75390625, -206.7705841064453)">
    <path d="M 340.158997 190.423996 A 73.529999 80.882004 0 0 1 266.628998 271.306 A 73.529999 80.882004 0 0 1 193.098999 190.423996 A 73.529999 80.882004 0 0 1 266.628998 109.541992 A 73.529999 80.882004 0 0 1 340.158997 190.423996 Z" style="stroke: rgba(0, 0, 0, 0); fill: rgb(255, 204, 152);"/>
    <path d="M 323.818016 205.457001 A 58.415001 92.727997 0 0 1 265.403015 298.184998 A 58.415001 92.727997 0 0 1 206.988014 205.457001 A 58.415001 92.727997 0 0 1 265.403015 112.729004 A 58.415001 92.727997 0 0 1 323.818016 205.457001 Z" style="stroke: rgba(0, 0, 0, 0); fill: rgb(255, 204, 152);"/>
    <path style="stroke: rgba(0, 0, 0, 0); fill: rgb(255, 204, 152);" d="M 198.965 177.953 C 200.32 184.748 193.735 203.399 195.454 210.106 C 202.141 236.167 219.432 273.442 239.92 288.654"/>
    <path style="stroke: rgba(0, 0, 0, 0); fill: rgb(255, 204, 152);" d="M 290.942 290.564 C 292.467 284.038 285.055 266.124 286.992 259.683 C 294.516 234.652 313.976 198.851 337.033 184.241" transform="matrix(-1, 0, 0, -1, 623.699738, 474.804993)"/>
  </g><g style="stroke-width: 3.38868; vector-effect: non-scaling-stroke;" transform="matrix(3.2662770748138423, 0.00021581079636234782, 0, 3.2662770748138423, -323.6521911621093, -149.9138488769531)">
    <g>
      <path style="stroke-width: 2.34229; vector-effect: non-scaling-stroke; stroke: rgba(0, 0, 0, 0);" d="M 232.641 236.903 C 223.733 230.685 206.117 233.603 206.129 238.029 C 206.129 237.646 206.16 238.89 205.803 238.091 C 200.483 226.14 208.163 224.228 210.356 220.663 C 211.439 220.742 199.789 223.689 196.193 222.988 C 193.515 222.467 191.506 221.845 188.592 219.95 C 187.558 219.279 179.082 212.965 179.715 212.793 C 180.162 212.672 179.58 212.985 179.58 212.6 C 184.887 219.076 202.709 217.969 209.702 217.157 C 224.409 215.446 232.418 224.873 232.418 237.124" transform="matrix(1, -0.000008, 0.000008, 1, -0.001804, 0.001649)"/>
      <path d="M 227.528 226.784 C 227.528 224.526 225.351 222.696 222.664 222.696 C 219.977 222.696 217.799 224.526 217.799 226.784 C 217.799 229.041 219.977 230.871 222.664 230.871 C 225.351 230.871 227.528 229.041 227.528 226.784 Z" style="stroke: rgba(0, 0, 0, 0); fill: rgb(255, 255, 255);" transform="matrix(1, -0.000008, 0.000008, 1, -0.001814, 0.001781)"/>
      <path d="M 210.212 231.746 C 210.212 232.789 209.259 233.634 208.084 233.634 C 206.909 233.634 205.955 232.789 205.955 231.746 C 205.955 230.704 206.909 229.859 208.084 229.859 C 209.259 229.859 210.212 230.704 210.212 231.746 Z" style="fill: rgb(255, 255, 255); stroke: rgba(0, 0, 0, 0);" transform="matrix(1, -0.000008, 0.000008, 1, -0.001854, 0.001665)"/>
      <path d="M 235.247 245.383 C 235.247 249.23 228.46 252.349 220.088 252.349 C 211.716 252.349 204.928 249.23 204.928 245.383 C 204.928 241.535 211.716 238.417 220.088 238.417 C 228.46 238.417 235.247 241.535 235.247 245.383 Z" style="stroke: rgba(0, 0, 0, 0); fill: rgb(247, 174, 102);" transform="matrix(1, -0.000002, 0.000002, 1, -0.000491, 0.00044)"/>
      <path style="stroke: rgba(0, 0, 0, 0); fill: rgb(203, 116, 29);" d="M 196.126 213.239 C 206.014 204.669 221.253 210.922 232.61 212.89 C 234.875 213.283 242.405 213.684 241.032 210.111 C 239.45 206.002 231.067 204.361 226.998 203.858 C 214.99 202.369 194.522 202.408 194.522 215.671"/>
    </g>
    <g transform="matrix(-1, 0, 0, 1, 506.197998, -0.010495)" style="">
      <path style="stroke-width: 2.34229; vector-effect: non-scaling-stroke; stroke: rgba(0, 0, 0, 0);" d="M 234.233 236.903 C 225.324 230.685 207.708 233.603 207.72 238.029 C 207.72 237.646 207.751 238.89 207.395 238.091 C 202.073 226.14 209.754 224.228 211.947 220.663 C 213.03 220.743 201.38 223.689 197.784 222.988 C 195.106 222.467 193.097 221.845 190.183 219.95 C 189.15 219.279 180.673 212.965 181.306 212.793 C 181.754 212.672 181.171 212.985 181.171 212.6 C 186.477 219.076 204.301 217.969 211.293 217.157 C 225.999 215.446 234.009 224.874 234.009 237.124" transform="matrix(1, 0.000008, -0.000008, 1, 0.001804, -0.001661)"/>
      <path d="M 229.12 226.784 C 229.12 224.526 226.942 222.696 224.255 222.696 C 221.568 222.696 219.39 224.526 219.39 226.784 C 219.39 229.042 221.569 230.872 224.255 230.872 C 226.942 230.872 229.12 229.042 229.12 226.784 Z" style="stroke: rgba(0, 0, 0, 0); fill: rgb(255, 255, 255);" transform="matrix(1, 0.000008, -0.000008, 1, 0.001814, -0.001794)"/>
      <path d="M 211.803 231.747 C 211.803 232.789 210.85 233.634 209.675 233.634 C 208.5 233.634 207.547 232.789 207.547 231.747 C 207.547 230.704 208.5 229.859 209.675 229.859 C 210.85 229.859 211.803 230.704 211.803 231.747 Z" style="fill: rgb(255, 255, 255); stroke: rgba(0, 0, 0, 0);" transform="matrix(1, 0.000008, -0.000008, 1, 0.001854, -0.001677)"/>
      <path d="M 237.456 245.383 C 237.456 249.23 230.668 252.349 222.296 252.349 C 213.924 252.349 207.137 249.23 207.136 245.383 C 207.136 241.535 213.924 238.417 222.296 238.417 C 230.668 238.417 237.456 241.535 237.456 245.383 Z" style="stroke: rgba(0, 0, 0, 0); fill: rgb(247, 174, 102);" transform="matrix(1, 0.000002, -0.000002, 1, 0.000491, -0.000445)"/>
      <path style="stroke: rgba(0, 0, 0, 0); fill: rgb(203, 116, 29);" d="M 196.126 213.239 C 206.014 204.669 221.253 210.922 232.61 212.89 C 234.875 213.283 242.405 213.684 241.032 210.111 C 239.45 206.002 231.067 204.361 226.998 203.858 C 214.99 202.369 194.522 202.408 194.522 215.671"/>
    </g>
  </g><path style="stroke: rgba(0, 0, 0, 0); fill: rgb(217, 128, 50);" d="M 441.689 756.331 C 440.762 760.254 475.796 746.244 471.132 735.471 C 466.527 724.832 455.711 739.824 440.842 744.733 C 434.401 746.859 410.926 729.191 404.168 732.998 C 393.897 738.781 436.575 760.09 443.657 756.511" transform="matrix(0.8143790364265442, 0, 0, 0.8143790364265442, 147.9979705810547, 88.87318420410156)"/><path style="stroke: rgba(0, 0, 0, 0); fill: rgb(255, 95, 95);" d="M 382.084 817.824 C 388.985 881.408 493.95 899.933 498.396 814.575 C 499.691 789.723 384.937 782.15 381.674 820.645" data-bx-origin="0.561 0.519" transform="matrix(0.8143425583839417, -0.00783516000956297, 0.00783516000956297, 0.8143425583839417, 141.47628784179688, 92.40821838378906)"/><g transform="matrix(1.1019208431243896, 0, 0, 1.1019208431243896, -307.5093078613281, -153.9453125)">
    <g>
      <path style="stroke: rgba(0, 0, 0, 0); fill: rgb(255, 244, 161);" d="M 481.493 545.966 C 597.521 603.981 780.685 513.044 905.372 513.044 C 882.679 542.68 949.443 788.603 983.564 842.27 C 1071.727 754.104 1002.209 602.284 983.563 490.41 C 976.362 447.2 958.859 393.006 919.776 366.95 C 829.462 306.741 729.474 269.348 625.529 299.047 C 583.278 311.119 551.296 309.929 530.877 383.411 C 515.543 438.591 512.992 389.106 500.012 441.026"/>
      <path style="stroke: rgba(0, 0, 0, 0); fill: rgb(255, 244, 161);" d="M 514.267 521.048 C 514.267 624.304 547.332 728.458 547.332 834.04 C 548.363 834.04 532.909 820.502 521.352 805.586 C 504.54 783.885 489.936 757.472 481.202 732.419 C 465.658 687.833 446.015 502.756 530.8 502.756"/>
    </g>
    <path style="stroke: rgba(0, 0, 0, 0); fill: rgb(255, 246, 180);" d="M 510.325 474.544 C 521.564 519.501 593.946 530.354 634.571 526.444 C 722.561 517.976 802.882 498.744 861.047 476.116 C 891.226 464.375 968.205 501.527 974.285 469.825 C 1004.213 313.773 621.818 107.925 508.753 472.971"/>
  </g><path style="stroke: rgba(0, 0, 0, 0); fill: rgb(255, 255, 255);" d="M 385.49 820.493 C 422.517 824.275 459.626 821.964 496.268 817.673 C 495.407 810.26 492.422 802.569 458.238 798.434 C 428.423 794.828 387.678 802.363 384.838 820.262" transform="matrix(0.8143790364265442, 0, 0, 0.8143790364265442, 147.9979705810547, 88.87318420410156)"/><path style="stroke: rgba(0, 0, 0, 0); fill: rgb(255, 255, 255);" d="M 398.313 848.151 C 434.5 844.452 454.167 846.206 484.723 849.384 C 481.839 854.966 475.475 864.356 453.749 868.284 C 431.547 872.297 406.58 862.613 398.766 848.574" transform="matrix(0.8143790364265442, 0, 0, 0.8143790364265442, 147.9979705810547, 88.87318420410156)"/></svg>