<?xml version="1.0" encoding="utf-8"?>
<svg id="master-artboard" viewBox="0 0 1000 1000" version="1.1" xmlns="http://www.w3.org/2000/svg" x="0px" y="0px" style="enable-background:new 0 0 1400 980;" width="1000px" height="1000px"><defs><style id="ee-google-fonts">@import url(https://fonts.googleapis.com/css?family=Rubik:300,300italic,400,400italic,500,500italic,700,700italic,900,900italic);</style><style id="style-1">@import url(https://fonts.googleapis.com/css?family=Anton:400|Roboto+Slab:100,300,400,700);</style><path id="text-path-0" d="M 778.8464965820312 213.4612274169922 A 100 18 0 0 1 988.3533935546875 213.4612274169922 A 100 18 0 0 1 778.8464965820312 213.4612274169922 Z" style="fill: none; stroke: red; stroke-width: 2;"/><path id="text-path-1" d="M 664.5464477539062 37.96122741699219 A 100 19 0 0 1 876.5812377929688 37.96122741699219 A 100 19 0 0 1 664.5464477539062 37.96122741699219" style="fill: none; stroke: red; stroke-width: 2;"/><path id="text-path-2" d="M 765.3650512695312 211.70851135253906 A 100 17 0 0 1 991.5017700195312 211.70851135253906 A 100 17 0 0 1 765.3650512695312 211.70851135253906" style="fill: none; stroke: red; stroke-width: 2;"/><path id="path-1" d="M 765.3650512695312 211.70851135253906 A 100 17 0 0 1 991.5017700195312 211.70851135253906 A 100 17 0 0 1 765.3650512695312 211.70851135253906" style="fill: none; stroke: red; stroke-width: 2;"/><path id="path-2" d="M 778.8464965820312 213.4612274169922 A 100 18 0 0 1 988.3533935546875 213.4612274169922 A 100 18 0 0 1 778.8464965820312 213.4612274169922 Z" style="fill: none; stroke: red; stroke-width: 2;"/><path id="path-3" d="M 664.5464477539062 37.96122741699219 A 100 19 0 0 1 876.5812377929688 37.96122741699219 A 100 19 0 0 1 664.5464477539062 37.96122741699219" style="fill: none; stroke: red; stroke-width: 2;"/><path id="path-4" d="M 765.3650512695312 211.70851135253906 A 100 17 0 0 1 991.5017700195312 211.70851135253906 A 100 17 0 0 1 765.3650512695312 211.70851135253906" style="fill: none; stroke: red; stroke-width: 2;"/><path id="path-5" d="M 765.3650512695312 211.70851135253906 A 100 17 0 0 1 991.5017700195312 211.70851135253906 A 100 17 0 0 1 765.3650512695312 211.70851135253906" style="fill: none; stroke: red; stroke-width: 2;"/></defs><rect id="ee-background" x="0" y="0" width="1000" height="1000" style="fill: none; fill-opacity: 1; pointer-events: none;"/>








































<path style="fill: rgb(63, 61, 61); fill-opacity: 1; stroke: rgb(0, 0, 0); stroke-opacity: 1; stroke-width: 0; paint-order: fill;" transform="matrix(0.8143790364265442, 0, 0, 0.8143790364265442, 147.9979705810547, 88.87318420410156)"/><path style="fill: rgb(63, 61, 61); fill-opacity: 1; stroke: rgb(0, 0, 0); stroke-opacity: 1; stroke-width: 0; paint-order: fill;" transform="matrix(0.8143790364265442, 0, 0, 0.8143790364265442, 147.9979705810547, 88.87318420410156)"/><path style="fill: rgb(63, 61, 61); fill-opacity: 1; stroke: rgb(0, 0, 0); stroke-opacity: 1; stroke-width: 0; paint-order: fill;" transform="matrix(0.8143790364265442, 0, 0, 0.8143790364265442, 147.9979705810547, 88.87318420410156)"/><g transform="matrix(10, 0, 0, 10, -6019.31640625, -459.755126953125)"><g id="g-1" transform="matrix(1, 0, 0, 1, 0, 0)">
	<g id="g-2">
		<path class="st0" d="M652,46c27.6,0,50,22.4,50,50s-22.4,50-50,50s-50-22.4-50-50S624.4,46,652,46z" style="fill: rgb(43, 83, 0); fill-opacity: 1;"/>
	</g>
</g></g><path style="fill: rgb(63, 61, 61); fill-opacity: 1; stroke: rgb(0, 0, 0); stroke-opacity: 1; stroke-width: 0; paint-order: fill;" transform="matrix(0.8143790364265442, 0, 0, 0.8143790364265442, 147.9979705810547, 88.87318420410156)"/><path style="fill: rgb(63, 61, 61); fill-opacity: 1; stroke: rgb(0, 0, 0); stroke-opacity: 1; stroke-width: 0; paint-order: fill;" transform="matrix(0.8143790364265442, 0, 0, 0.8143790364265442, 147.9979705810547, 88.87318420410156)"/><path style="fill: rgb(63, 61, 61); fill-opacity: 1; stroke: rgb(0, 0, 0); stroke-opacity: 1; stroke-width: 0; paint-order: fill;" transform="matrix(0.8143790364265442, 0, 0, 0.8143790364265442, 147.9979705810547, 88.87318420410156)"/><path style="fill: rgb(63, 61, 61); fill-opacity: 1; stroke: rgb(0, 0, 0); stroke-opacity: 1; stroke-width: 0; paint-order: fill;" transform="matrix(0.8143790364265442, 0, 0, 0.8143790364265442, 147.9979705810547, 88.87318420410156)"/><g transform="matrix(1.2604100704193115, 0, 0, 1.2604100704193115, 176.4893035888672, 145.8245086669922)">
    <g style="" transform="matrix(3.085638, 0, 0, 2.870962, -564.715027, -283.673676)">
      <path d="M 340.158997 190.423996 A 73.529999 80.882004 0 0 1 266.628998 271.306 A 73.529999 80.882004 0 0 1 193.098999 190.423996 A 73.529999 80.882004 0 0 1 266.628998 109.541992 A 73.529999 80.882004 0 0 1 340.158997 190.423996 Z" style="stroke: rgba(0, 0, 0, 0); fill: rgb(251, 173, 140);"/>
      <path d="M 323.818016 205.457001 A 58.415001 92.727997 0 0 1 265.403015 298.184998 A 58.415001 92.727997 0 0 1 206.988014 205.457001 A 58.415001 92.727997 0 0 1 265.403015 112.729004 A 58.415001 92.727997 0 0 1 323.818016 205.457001 Z" style="stroke: rgba(0, 0, 0, 0); fill: rgb(251, 173, 140);"/>
      <path style="stroke: rgba(0, 0, 0, 0); fill: rgb(251, 173, 140);" d="M 198.965 177.953 C 200.32 184.748 193.752 203.395 195.454 210.106 C 202.076 236.217 211.711 279.37 239.92 288.654"/>
      <path style="stroke: rgba(0, 0, 0, 0); fill: rgb(251, 173, 140);" d="M 290.942 290.564 C 292.467 284.038 285.336 266.202 286.992 259.683 C 293.553 233.847 305.381 191.666 337.033 184.241" transform="matrix(-1, 0, 0, -1, 623.699738, 474.804993)"/>
    </g>
    <path style="stroke: rgba(0, 0, 0, 0); fill: rgb(255, 132, 80);" d="M 263.145 433.241 C 262.46 436.783 288.352 424.136 284.905 414.411 C 281.502 404.807 273.508 418.34 262.519 422.772 C 257.759 424.691 240.41 408.742 235.415 412.179 C 227.824 417.398 259.366 436.634 264.6 433.404"/>
    <g transform="matrix(1, 0, 0, 1.011795, -488.855774, -358.621918)" style="">
      <path style="stroke: rgba(0, 0, 0, 0); fill: rgb(200, 0, 0);" d="M 707.95 827.824 C 713.05 874.816 790.625 888.507 793.911 825.423 C 794.868 807.056 710.058 801.459 707.647 829.909" data-bx-origin="0.561 0.519" transform="matrix(0.999954, -0.009621, 0.009621, 0.999954, -8.048174, 7.3128)"/>
      <path style="stroke: rgba(0, 0, 0, 0); fill: rgb(255, 255, 255);" d="M 710.467 829.797 C 737.832 832.592 765.258 830.884 792.338 827.713 C 791.702 822.234 789.496 816.55 764.232 813.494 C 742.197 810.829 712.084 816.398 709.985 829.626"/>
    </g>
    <path style="stroke: rgba(0, 0, 0, 0); fill: rgb(128, 38, 0);" d="M 82.407 326.525 C 109.469 314.195 159.413 325.487 193.077 328.284 C 199.791 328.844 221.496 323.852 217.427 318.771 C 212.737 312.929 187.888 310.596 175.827 309.881 C 140.233 307.764 80.514 308.124 80.513 326.983" transform="matrix(0.990271, -0.139152, 0.139152, 0.990271, -42.891316, 23.864826)"/>
    <path style="stroke: rgba(0, 0, 0, 0); fill: rgb(128, 38, 0);" d="M 298.867 313.6 C 325.93 325.875 374.644 314.019 408.308 311.233 C 415.022 310.677 437.957 316.261 433.888 321.319 C 429.198 327.135 404.349 329.458 392.288 330.171 C 356.694 332.278 296.976 331.919 296.974 313.144" transform="matrix(-0.990271, -0.139152, 0.139152, -0.990271, 683.100425, 689.995758)"/>
    <g transform="matrix(1.219779, 0, 0, 1.130087, -650.296326, -434.309448)" style="">
      <path d="M 688.384027 716.559021 A 23.794001 35.470001 0 0 1 664.590027 752.029022 A 23.794001 35.470001 0 0 1 640.796026 716.559021 A 23.794001 35.470001 0 0 1 664.590027 681.08902 A 23.794001 35.470001 0 0 1 688.384027 716.559021 Z" style="stroke: rgba(0, 0, 0, 0);"/>
      <path d="M 682.150002 710.275024 A 9.21 10.262 0 0 1 672.940002 720.537024 A 9.21 10.262 0 0 1 663.730002 710.275024 A 9.21 10.262 0 0 1 672.940002 700.013024 A 9.21 10.262 0 0 1 682.150002 710.275024 Z" style="stroke: rgb(0, 0, 0); fill: rgb(255, 255, 255);"/>
      <path d="M 661.46698 736.484009 A 5 5 0 0 1 656.46698 741.484009 A 5 5 0 0 1 651.46698 736.484009 A 5 5 0 0 1 656.46698 731.484009 A 5 5 0 0 1 661.46698 736.484009 Z" style="stroke: rgba(0, 0, 0, 0); fill: rgb(255, 255, 255);"/>
    </g>
    <g transform="matrix(-1.232707, 0, 0, 1.10407, 1178.96521, -415.706482)" style="">
      <path d="M 688.384027 716.559021 A 23.794001 35.470001 0 0 1 664.590027 752.029022 A 23.794001 35.470001 0 0 1 640.796026 716.559021 A 23.794001 35.470001 0 0 1 664.590027 681.08902 A 23.794001 35.470001 0 0 1 688.384027 716.559021 Z" style="stroke: rgba(0, 0, 0, 0);"/>
      <path d="M 682.150002 710.275024 A 9.21 10.262 0 0 1 672.940002 720.537024 A 9.21 10.262 0 0 1 663.730002 710.275024 A 9.21 10.262 0 0 1 672.940002 700.013024 A 9.21 10.262 0 0 1 682.150002 710.275024 Z" style="stroke: rgb(0, 0, 0); fill: rgb(255, 255, 255);"/>
      <path d="M 661.46698 736.484009 A 5 5 0 0 1 656.46698 741.484009 A 5 5 0 0 1 651.46698 736.484009 A 5 5 0 0 1 656.46698 731.484009 A 5 5 0 0 1 661.46698 736.484009 Z" style="stroke: rgba(0, 0, 0, 0); fill: rgb(255, 255, 255);"/>
    </g>
    <g transform="matrix(1, 0, 0, 1, -492.462891, -339.556274)">
      <path style="stroke: rgba(0, 0, 0, 0); fill: rgb(204, 61, 0);" d="M 755.716 777.978 C 788.757 750.71 851.648 782.188 857.524 785.765 C 893.511 807.676 914.877 764.072 900.157 789.402 C 873.451 816.753 822.067 830.019 756.262 805.093 C 743.819 825.547 631.431 819.002 607.003 788.24 C 605.369 789.497 635.602 800.256 649.426 792.515 C 672.549 779.566 715.347 746.778 756.22 777.693"/>
      <g>
        <path style="stroke: rgba(0, 0, 0, 0); fill: rgb(204, 61, 0);" d="M 543.124 716.702 C 559.315 708.606 571.975 682.624 579.742 667.09 C 600.1 626.374 615.715 584.087 624.628 539.518 C 629.7 542.054 716.456 587.466 753.382 595.035 C 881.463 621.289 1004.06 550.923 1056.957 495.813 C 1058.765 495.813 1038.595 500.798 1032.151 501.719 C 1013.224 504.423 994.487 502.9 975.453 502.9 C 973.707 501.154 984.397 501.255 987.265 500.537 C 997.499 497.979 1007.798 494.481 1017.977 491.088 C 1045.029 482.07 1071.075 461.988 1094.756 446.201 C 985.544 478.821 922.391 398.864 864.417 376.509 C 640.752 290.262 432.794 478.446 543.124 716.702"/>
        <path style="stroke: rgba(0, 0, 0, 0); fill: rgb(204, 61, 0);" d="M 922.669 558.502 C 968.164 591.107 947.948 761.264 939.03 744.584 C 964.306 738.757 990.613 611.882 971.066 529.108"/>
      </g>
    </g>
    <path style="stroke: rgba(0, 0, 0, 0); fill: rgb(232, 76, 9);" d="M 549.809 126.358 C 521.089 132.747 452.938 128.758 417.441 106.076 C 355.93 66.772 209.784 -4.536 119.613 98.604 C 31.21 199.722 397.145 285.929 531.662 174.395 C 537.817 169.292 532.73 170.126 532.73 170.126 C 516.699 182.149 440.67 173.283 445.195 155.18 C 481.707 155.182 525.55 148.481 549.809 124.222"/>
    <path style="stroke: rgba(0, 0, 0, 0); fill: rgb(232, 76, 9);" d="M 53.428 327.046 C 26.655 300.272 26.202 219.719 56.631 194.678 C 122.471 140.497 123.329 277.025 53.428 328.113"/>
  </g></svg>