<?xml version="1.0" encoding="utf-8"?>
<svg id="master-artboard" viewBox="0 0 389.4794006347656 373.6876220703125" version="1.1" xmlns="http://www.w3.org/2000/svg" x="0px" y="0px" style="enable-background:new 0 0 1400 980;" width="389.4794006347656px" height="373.6876220703125px"><defs><style id="ee-google-fonts">@import url(https://fonts.googleapis.com/css?family=Fjalla+One:400|Roboto:100,100italic,300,300italic,400,400italic,500,500italic,700,700italic,900,900italic);</style><style id="style-1">@import url(https://fonts.googleapis.com/css?family=Anton:400|Roboto+Slab:100,300,400,700);</style><path id="text-path-0" d="M 778.8464965820312 213.4612274169922 A 100 18 0 0 1 988.3533935546875 213.4612274169922 A 100 18 0 0 1 778.8464965820312 213.4612274169922 Z" style="fill: none; stroke: red; stroke-width: 2;"/><path id="text-path-1" d="M 664.5464477539062 37.96122741699219 A 100 19 0 0 1 876.5812377929688 37.96122741699219 A 100 19 0 0 1 664.5464477539062 37.96122741699219" style="fill: none; stroke: red; stroke-width: 2;"/><path id="text-path-2" d="M 765.3650512695312 211.70851135253906 A 100 17 0 0 1 991.5017700195312 211.70851135253906 A 100 17 0 0 1 765.3650512695312 211.70851135253906" style="fill: none; stroke: red; stroke-width: 2;"/><path id="path-1" d="M 765.3650512695312 211.70851135253906 A 100 17 0 0 1 991.5017700195312 211.70851135253906 A 100 17 0 0 1 765.3650512695312 211.70851135253906" style="fill: none; stroke: red; stroke-width: 2;"/><path id="path-2" d="M 778.8464965820312 213.4612274169922 A 100 18 0 0 1 988.3533935546875 213.4612274169922 A 100 18 0 0 1 778.8464965820312 213.4612274169922 Z" style="fill: none; stroke: red; stroke-width: 2;"/><path id="path-3" d="M 664.5464477539062 37.96122741699219 A 100 19 0 0 1 876.5812377929688 37.96122741699219 A 100 19 0 0 1 664.5464477539062 37.96122741699219" style="fill: none; stroke: red; stroke-width: 2;"/><path id="path-4" d="M 765.3650512695312 211.70851135253906 A 100 17 0 0 1 991.5017700195312 211.70851135253906 A 100 17 0 0 1 765.3650512695312 211.70851135253906" style="fill: none; stroke: red; stroke-width: 2;"/><path id="path-5" d="M 765.3650512695312 211.70851135253906 A 100 17 0 0 1 991.5017700195312 211.70851135253906 A 100 17 0 0 1 765.3650512695312 211.70851135253906" style="fill: none; stroke: red; stroke-width: 2;"/><path id="path-6" d="M 778.8464965820312 213.4612274169922 A 100 18 0 0 1 988.3533935546875 213.4612274169922 A 100 18 0 0 1 778.8464965820312 213.4612274169922 Z" style="fill: none; stroke: red; stroke-width: 2;"/><path id="path-7" d="M 664.5464477539062 37.96122741699219 A 100 19 0 0 1 876.5812377929688 37.96122741699219 A 100 19 0 0 1 664.5464477539062 37.96122741699219" style="fill: none; stroke: red; stroke-width: 2;"/><path id="path-8" d="M 765.3650512695312 211.70851135253906 A 100 17 0 0 1 991.5017700195312 211.70851135253906 A 100 17 0 0 1 765.3650512695312 211.70851135253906" style="fill: none; stroke: red; stroke-width: 2;"/><path id="path-9" d="M 765.3650512695312 211.70851135253906 A 100 17 0 0 1 991.5017700195312 211.70851135253906 A 100 17 0 0 1 765.3650512695312 211.70851135253906" style="fill: none; stroke: red; stroke-width: 2;"/></defs>











































<g transform="matrix(1, 0, 0, 1, -426.03710412979126, -240.9805908203125)">
		<path class="st13" d="M448.4,599.9" style="fill: rgb(223, 243, 251);"/>
	</g>





















































<g transform="matrix(1.2481191158294678, 0, 0, 1.2481191158294678, -416.89522581536835, -394.16229271634984)"><rect id="ee-background" x="0" y="0" width="1400" height="980" style="fill: none; fill-opacity: 1; pointer-events: none;"/><path style="fill: rgb(63, 61, 61); fill-opacity: 1; stroke: rgb(0, 0, 0); stroke-opacity: 1; stroke-width: 0; paint-order: fill;"/><path style="fill: rgb(63, 61, 61); fill-opacity: 1; stroke: rgb(0, 0, 0); stroke-opacity: 1; stroke-width: 0; paint-order: fill;"/><path d="M 880.3870239257812 239.90606689453125" style="fill: rgb(63, 61, 61); fill-opacity: 1; stroke: rgb(0, 0, 0); stroke-opacity: 1; stroke-width: 0; paint-order: fill;"/><path d="M 864.144775390625 229.48651123046875" style="fill: rgb(63, 61, 61); fill-opacity: 1; stroke: rgb(0, 0, 0); stroke-opacity: 1; stroke-width: 0; paint-order: fill;"/><path style="fill: rgb(63, 61, 61); fill-opacity: 1; stroke: rgb(0, 0, 0); stroke-opacity: 1; stroke-width: 0; paint-order: fill;"/><path style="fill: rgb(63, 61, 61); fill-opacity: 1; stroke: rgb(0, 0, 0); stroke-opacity: 1; stroke-width: 0; paint-order: fill;"/><path style="fill: rgb(63, 61, 61); fill-opacity: 1; stroke: rgb(0, 0, 0); stroke-opacity: 1; stroke-width: 0; paint-order: fill;"/><path style="fill: rgb(63, 61, 61); fill-opacity: 1; stroke: rgb(0, 0, 0); stroke-opacity: 1; stroke-width: 0; paint-order: fill;"/><path style="stroke: rgba(0, 0, 0, 0); fill: rgb(255, 187, 0);" d="M 165.447 151.577 C 163.3 157.019 156.947 164.348 154.343 178.565 C 152.441 188.955 152.311 196.374 149.109 206.219 C 147.182 212.151 142.164 218.1 139.451 223.663 C 136.632 229.445 142.563 248.092 144.221 253.19 C 146.991 261.715 148.268 270.807 151.997 278.452 C 159.575 293.995 163.081 304.9 170.699 320.516 C 178.13 335.752 205.576 333.982 215.976 344.646 C 220.546 349.328 229.446 350.031 234.171 354.873 C 240.971 361.845 250.326 361.95 258.825 366.306 C 264.721 369.329 284.893 371.599 291.696 368.113 C 296.882 365.453 305.282 369.573 310.477 366.909 C 315.706 364.231 322.508 364.004 328.087 362.096 C 337.016 359.045 342.922 355.997 350.981 351.866 C 359.606 347.445 369.841 343.965 377.395 336.22 C 383.72 329.736 394.529 320.344 398.524 312.151 C 402.25 304.511 404.977 294.709 409.092 286.277 C 410.142 284.12 409.092 278.499 409.092 276.045 C 409.092 268.257 408.502 260.232 408.502 252.578 C 408.502 250.629 406.621 243.076 407.917 241.746 C 409.32 240.308 408.502 234.151 408.502 231.518 C 408.502 224.973 409.679 216.866 409.679 209.254 C 409.679 198.984 412.854 185.322 409.679 175.554 C 401.57 150.62 389.862 135.928 373.382 119.033 C 368.306 113.831 351.603 114.794 344.526 112.371 C 328.429 106.872 310.911 102.854 294.044 98.532 C 249.076 87.006 175.902 105.207 163.148 157.5" transform="matrix(1, 0, 0, 1, 210.8278392051917, 233.47809298795076)"/></g></svg>