<?xml version="1.0" encoding="utf-8"?>
<svg id="master-artboard" viewBox="0 0 509.9496765136719 572.3617553710938" version="1.1" xmlns="http://www.w3.org/2000/svg" x="0px" y="0px" style="enable-background:new 0 0 1400 980;" width="509.9496765136719px" height="572.3617553710938px"><defs><style id="ee-google-fonts">@import url(https://fonts.googleapis.com/css?family=Anton:400|Roboto+Slab:100,300,400,700);</style><path id="text-path-0" d="M 778.8464965820312 213.4612274169922 A 100 18 0 0 1 988.3533935546875 213.4612274169922 A 100 18 0 0 1 778.8464965820312 213.4612274169922 Z" style="fill: none; stroke: red; stroke-width: 2;"/><path id="text-path-1" d="M 664.5464477539062 37.96122741699219 A 100 19 0 0 1 876.5812377929688 37.96122741699219 A 100 19 0 0 1 664.5464477539062 37.96122741699219" style="fill: none; stroke: red; stroke-width: 2;"/><path id="text-path-2" d="M 765.3650512695312 211.70851135253906 A 100 17 0 0 1 991.5017700195312 211.70851135253906 A 100 17 0 0 1 765.3650512695312 211.70851135253906" style="fill: none; stroke: red; stroke-width: 2;"/><path id="path-1" d="M 765.3650512695312 211.70851135253906 A 100 17 0 0 1 991.5017700195312 211.70851135253906 A 100 17 0 0 1 765.3650512695312 211.70851135253906" style="fill: none; stroke: red; stroke-width: 2;"/></defs><rect id="ee-background" x="0" y="0" width="509.9496765136719" height="572.3617553710938" style="fill: none; fill-opacity: 1; pointer-events: none;"/>


<g transform="matrix(2.4337351322174072, 0, 0, 2.4337351322174072, -213.71983337402344, -160.11962890625)">
    <path d="M 231.367004 189.429993 A 107.483002 89.029999 0 0 1 123.884003 278.459991 A 107.483002 89.029999 0 0 1 16.401001 189.429993 A 107.483002 89.029999 0 0 1 123.884003 100.399994 A 107.483002 89.029999 0 0 1 231.367004 189.429993 Z" style="stroke-width: 3px; stroke: rgb(184, 146, 8); fill: rgb(184, 146, 8);" transform="matrix(0.002762, 0.999996, -0.999996, 0.002762, 388.287387, 55.593567)"/>
    <path d="M 234.929001 189.397995 A 107.483002 89.029999 0 0 1 127.445999 278.427994 A 107.483002 89.029999 0 0 1 19.962997 189.397995 A 107.483002 89.029999 0 0 1 127.445999 100.367996 A 107.483002 89.029999 0 0 1 234.929001 189.397995 Z" style="fill: rgb(253, 209, 48); stroke-width: 3px; stroke: rgb(184, 146, 8);" transform="matrix(0.002762, 0.999996, -0.999996, 0.002762, 373.145633, 52.030575)"/>
    <path d="M 185.326004 287.049988 H 200.042004 V 288.947988 H 185.326004 V 287.049988 Z" style="stroke: rgb(0, 0, 0); stroke-opacity: 0; fill: rgb(184, 146, 8);"/>
    <path d="M 184.585007 71 H 199.301006 V 72.898 H 184.585007 V 71 Z" style="stroke: rgb(0, 0, 0); stroke-opacity: 0; fill: rgb(184, 146, 8);"/>
    <path d="M 206.990997 189.440002 A 78.981003 61.441002 0 0 1 128.009995 250.881004 A 78.981003 61.441002 0 0 1 49.028992 189.440002 A 78.981003 61.441002 0 0 1 128.009995 127.999001 A 78.981003 61.441002 0 0 1 206.990997 189.440002 Z" style="stroke-width: 3px; fill: rgb(184, 146, 8); stroke: rgb(184, 146, 8);" transform="matrix(0.002762, 0.999996, -0.999996, 0.002762, 371.185428, 51.46764)"/>
    <path d="M 196.795006 189.421997 A 78.981003 60.917999 0 0 1 117.814003 250.339996 A 78.981003 60.917999 0 0 1 38.833 189.421997 A 78.981003 60.917999 0 0 1 117.814003 128.503998 A 78.981003 60.917999 0 0 1 196.795006 189.421997 Z" style="fill: rgb(253, 209, 48); stroke-width: 3px; stroke: rgb(184, 146, 8);" transform="matrix(0.002762, 0.999996, -0.999996, 0.002762, 372.373905, 61.663854)"/>
  </g></svg>