<?xml version="1.0" encoding="utf-8"?>
<svg id="master-artboard" viewBox="0 0 389.4794006347656 373.6876220703125" version="1.1" xmlns="http://www.w3.org/2000/svg" x="0px" y="0px" style="enable-background:new 0 0 1400 980;" width="389.4794006347656px" height="373.6876220703125px"><defs><style id="ee-google-fonts">@import url(https://fonts.googleapis.com/css?family=Fjalla+One:400|Roboto:100,100italic,300,300italic,400,400italic,500,500italic,700,700italic,900,900italic);</style><style id="style-1">@import url(https://fonts.googleapis.com/css?family=Anton:400|Roboto+Slab:100,300,400,700);</style><path id="text-path-0" d="M 778.8464965820312 213.4612274169922 A 100 18 0 0 1 988.3533935546875 213.4612274169922 A 100 18 0 0 1 778.8464965820312 213.4612274169922 Z" style="fill: none; stroke: red; stroke-width: 2;"/><path id="text-path-1" d="M 664.5464477539062 37.96122741699219 A 100 19 0 0 1 876.5812377929688 37.96122741699219 A 100 19 0 0 1 664.5464477539062 37.96122741699219" style="fill: none; stroke: red; stroke-width: 2;"/><path id="text-path-2" d="M 765.3650512695312 211.70851135253906 A 100 17 0 0 1 991.5017700195312 211.70851135253906 A 100 17 0 0 1 765.3650512695312 211.70851135253906" style="fill: none; stroke: red; stroke-width: 2;"/><path id="path-1" d="M 765.3650512695312 211.70851135253906 A 100 17 0 0 1 991.5017700195312 211.70851135253906 A 100 17 0 0 1 765.3650512695312 211.70851135253906" style="fill: none; stroke: red; stroke-width: 2;"/><path id="path-2" d="M 778.8464965820312 213.4612274169922 A 100 18 0 0 1 988.3533935546875 213.4612274169922 A 100 18 0 0 1 778.8464965820312 213.4612274169922 Z" style="fill: none; stroke: red; stroke-width: 2;"/><path id="path-3" d="M 664.5464477539062 37.96122741699219 A 100 19 0 0 1 876.5812377929688 37.96122741699219 A 100 19 0 0 1 664.5464477539062 37.96122741699219" style="fill: none; stroke: red; stroke-width: 2;"/><path id="path-4" d="M 765.3650512695312 211.70851135253906 A 100 17 0 0 1 991.5017700195312 211.70851135253906 A 100 17 0 0 1 765.3650512695312 211.70851135253906" style="fill: none; stroke: red; stroke-width: 2;"/><path id="path-5" d="M 765.3650512695312 211.70851135253906 A 100 17 0 0 1 991.5017700195312 211.70851135253906 A 100 17 0 0 1 765.3650512695312 211.70851135253906" style="fill: none; stroke: red; stroke-width: 2;"/><path id="path-6" d="M 778.8464965820312 213.4612274169922 A 100 18 0 0 1 988.3533935546875 213.4612274169922 A 100 18 0 0 1 778.8464965820312 213.4612274169922 Z" style="fill: none; stroke: red; stroke-width: 2;"/><path id="path-7" d="M 664.5464477539062 37.96122741699219 A 100 19 0 0 1 876.5812377929688 37.96122741699219 A 100 19 0 0 1 664.5464477539062 37.96122741699219" style="fill: none; stroke: red; stroke-width: 2;"/><path id="path-8" d="M 765.3650512695312 211.70851135253906 A 100 17 0 0 1 991.5017700195312 211.70851135253906 A 100 17 0 0 1 765.3650512695312 211.70851135253906" style="fill: none; stroke: red; stroke-width: 2;"/><path id="path-9" d="M 765.3650512695312 211.70851135253906 A 100 17 0 0 1 991.5017700195312 211.70851135253906 A 100 17 0 0 1 765.3650512695312 211.70851135253906" style="fill: none; stroke: red; stroke-width: 2;"/><path id="path-10" d="M 778.8464965820312 213.4612274169922 A 100 18 0 0 1 988.3533935546875 213.4612274169922 A 100 18 0 0 1 778.8464965820312 213.4612274169922 Z" style="fill: none; stroke: red; stroke-width: 2;"/><path id="path-11" d="M 664.5464477539062 37.96122741699219 A 100 19 0 0 1 876.5812377929688 37.96122741699219 A 100 19 0 0 1 664.5464477539062 37.96122741699219" style="fill: none; stroke: red; stroke-width: 2;"/><path id="path-12" d="M 765.3650512695312 211.70851135253906 A 100 17 0 0 1 991.5017700195312 211.70851135253906 A 100 17 0 0 1 765.3650512695312 211.70851135253906" style="fill: none; stroke: red; stroke-width: 2;"/><path id="path-13" d="M 765.3650512695312 211.70851135253906 A 100 17 0 0 1 991.5017700195312 211.70851135253906 A 100 17 0 0 1 765.3650512695312 211.70851135253906" style="fill: none; stroke: red; stroke-width: 2;"/></defs>











































<g transform="matrix(1, 0, 0, 1, -426.03710412979126, -240.9805908203125)">
		<path class="st13" d="M448.4,599.9" style="fill: rgb(223, 243, 251);"/>
	</g>





















































<g transform="matrix(1.2659859657287598, 0, 0, 1.2659859657287598, -461.3640388093411, -383.0450810898736)"><rect id="ee-background" x="0" y="0" width="1400" height="980" style="fill: none; fill-opacity: 1; pointer-events: none;"/><path style="fill: rgb(63, 61, 61); fill-opacity: 1; stroke: rgb(0, 0, 0); stroke-opacity: 1; stroke-width: 0; paint-order: fill;"/><path style="fill: rgb(63, 61, 61); fill-opacity: 1; stroke: rgb(0, 0, 0); stroke-opacity: 1; stroke-width: 0; paint-order: fill;"/><path d="M 880.3870239257812 239.90606689453125" style="fill: rgb(63, 61, 61); fill-opacity: 1; stroke: rgb(0, 0, 0); stroke-opacity: 1; stroke-width: 0; paint-order: fill;"/><path d="M 864.144775390625 229.48651123046875" style="fill: rgb(63, 61, 61); fill-opacity: 1; stroke: rgb(0, 0, 0); stroke-opacity: 1; stroke-width: 0; paint-order: fill;"/><path style="fill: rgb(63, 61, 61); fill-opacity: 1; stroke: rgb(0, 0, 0); stroke-opacity: 1; stroke-width: 0; paint-order: fill;"/><path style="fill: rgb(63, 61, 61); fill-opacity: 1; stroke: rgb(0, 0, 0); stroke-opacity: 1; stroke-width: 0; paint-order: fill;"/><path style="fill: rgb(63, 61, 61); fill-opacity: 1; stroke: rgb(0, 0, 0); stroke-opacity: 1; stroke-width: 0; paint-order: fill;"/><path style="fill: rgb(63, 61, 61); fill-opacity: 1; stroke: rgb(0, 0, 0); stroke-opacity: 1; stroke-width: 0; paint-order: fill;"/><path style="stroke: rgba(0, 0, 0, 0); fill: rgb(239, 156, 54);" d="M 708.383 444.87 C 704.051 452.335 702.425 456.846 701.351 461.437 C 700.824 463.692 699.79 468.367 700.887 470.745 C 702.371 473.962 706.239 473.316 708.543 473.513 C 723.595 474.791 734.469 465.246 735.224 453.137 C 735.305 451.836 735.761 446.283 734.793 445.493 C 728.309 440.206 731.747 446.509 719.088 440.714 C 718.049 440.238 713.807 440.938 711.426 442.267" transform="matrix(1, 0, 0, 1, -168.84197264939928, 47.87875888592259)"/><path style="stroke: rgba(0, 0, 0, 0); fill: rgb(235, 149, 68);" d="M 709.135 444.704 C 704.928 451.834 703.348 456.143 702.306 460.53 C 701.794 462.682 700.79 467.147 701.855 469.419 C 703.296 472.493 707.054 471.876 709.291 472.063 C 723.91 473.285 734.472 464.167 735.205 452.601 C 735.283 451.358 735.727 446.053 734.785 445.298 C 728.489 440.249 731.827 446.269 719.533 440.732 C 718.524 440.28 714.403 440.949 712.091 442.217" transform="matrix(1, 0, 0, 1, -168.84197264939928, 47.87875888592259)"/><path style="stroke: rgba(0, 0, 0, 0); fill: rgb(187, 103, 0);" d="M 714.262 460.293 C 715.42 460.293 716.826 459.187 717.767 458.607 C 720.474 456.946 722.342 454.166 725.461 453.145 C 729.283 451.894 732.429 455.574 731.437 459.147 C 730.472 462.623 727.53 465.853 724.293 467.444 C 720.956 469.081 716.106 469.528 712.684 467.848 C 710.726 466.886 708.945 463.619 710.624 461.643 C 711.259 460.893 712.165 460.91 713.027 460.699" transform="matrix(1, 0, 0, 1, -168.84197264939928, 47.87875888592259)"/><path style="stroke: rgba(0, 0, 0, 0); fill: rgb(255, 181, 113);" d="M 714.427 460.318 C 715.365 464.39 715.256 467.766 716.44 471.776 C 716.907 473.361 716.955 474.355 718.021 477.077 C 718.434 478.13 718.698 478.67 719.1 479.726 C 719.325 480.321 721.433 478.106 722.766 476.842 C 724.596 475.105 727.663 474.604 729.883 475.206 C 730.661 475.418 732.505 475.558 732.613 475.44 C 732.634 475.419 731.36 471.973 730.746 470.53 C 730.038 468.868 729.097 467.393 728.301 465.775 C 727.124 463.383 722.437 453.93 720.681 456.11 C 720.474 456.366 719.736 457.242 716.51 459.383" transform="matrix(1, 0, 0, 1, -168.84197264939928, 47.87875888592259)"/><path style="stroke: rgba(0, 0, 0, 0); fill: rgb(195, 122, 5);" d="M 732.542 475.284 C 729.153 472.834 721.283 475.719 719.171 479.726 C 718.537 480.93 722.421 480.54 723.556 480.351 C 727.216 479.74 730.185 478.228 732.685 475.518" transform="matrix(1, 0, 0, 1, -168.84197264939928, 47.87875888592259)"/><path style="stroke: rgba(0, 0, 0, 0); fill: rgb(239, 156, 54);" d="M 633.202 418.987 C 628.87 426.452 627.244 430.963 626.17 435.554 C 625.643 437.809 624.609 442.484 625.706 444.862 C 627.19 448.079 631.058 447.433 633.362 447.63 C 648.414 448.908 659.288 439.363 660.043 427.254 C 660.124 425.953 660.58 420.4 659.612 419.61 C 653.128 414.323 656.566 420.626 643.907 414.831 C 642.868 414.355 638.626 415.055 636.245 416.384" transform="matrix(0.9848080277442931, 0.17364802956581113, -0.17364802956581113, 0.9848080277442931, -84.19808131486582, -57.17759182208522)"/><path style="stroke: rgba(0, 0, 0, 0); fill: rgb(235, 149, 68);" d="M 634.071 418.914 C 629.864 426.044 628.284 430.353 627.242 434.74 C 626.73 436.892 625.726 441.357 626.791 443.629 C 628.232 446.703 631.99 446.086 634.227 446.273 C 648.846 447.495 659.408 438.377 660.141 426.811 C 660.219 425.568 660.663 420.263 659.721 419.508 C 653.425 414.459 656.763 420.479 644.469 414.942 C 643.46 414.49 639.339 415.159 637.027 416.427" transform="matrix(0.9848080277442931, 0.17364802956581113, -0.17364802956581113, 0.9848080277442931, -84.29694300920175, -57.29050686114775)"/><path style="stroke: rgba(0, 0, 0, 0); fill: rgb(187, 103, 0);" d="M 638.376 434.853 C 639.534 434.853 640.94 433.747 641.881 433.167 C 644.588 431.506 646.456 428.726 649.575 427.705 C 653.397 426.454 656.543 430.134 655.551 433.707 C 654.586 437.183 651.644 440.413 648.407 442.004 C 645.07 443.641 640.22 444.088 636.798 442.408 C 634.84 441.446 633.059 438.179 634.738 436.203 C 635.373 435.453 636.279 435.47 637.141 435.259" transform="matrix(0.9848080277442931, 0.17364802956581113, -0.17364802956581113, 0.9848080277442931, -83.42700892717062, -57.49186947101103)"/><path style="stroke: rgba(0, 0, 0, 0); fill: rgb(255, 181, 113);" d="M 637.301 435.247 C 638.239 439.319 638.13 442.695 639.314 446.705 C 639.781 448.29 639.829 449.284 640.895 452.006 C 641.308 453.059 641.572 453.599 641.974 454.655 C 642.199 455.25 644.307 453.035 645.64 451.771 C 647.47 450.034 650.537 449.533 652.757 450.135 C 653.535 450.347 655.379 450.487 655.487 450.369 C 655.508 450.348 654.234 446.902 653.62 445.459 C 652.912 443.797 651.971 442.322 651.175 440.704 C 649.998 438.312 645.311 428.859 643.555 431.039 C 643.348 431.295 642.61 432.171 639.384 434.312" transform="matrix(0.9848080277442931, 0.17364802956581113, -0.17364802956581113, 0.9848080277442931, -82.14157801896738, -57.640390894350844)"/><path style="stroke: rgba(0, 0, 0, 0); fill: rgb(195, 122, 5);" d="M 653.702 450.478 C 650.313 448.028 642.443 450.913 640.331 454.92 C 639.697 456.124 643.581 455.734 644.716 455.545 C 648.376 454.934 651.345 453.422 653.845 450.712" transform="matrix(0.9848080277442931, 0.17364802956581113, -0.17364802956581113, 0.9848080277442931, -80.40692836076414, -57.60395290606962)"/><path style="stroke: rgba(0, 0, 0, 0); fill: rgb(239, 156, 54);" d="M 717.995 343.291 C 713.663 350.756 712.037 355.267 710.963 359.858 C 710.436 362.113 709.402 366.788 710.499 369.166 C 711.983 372.383 715.851 371.737 718.155 371.934 C 733.207 373.212 744.081 363.667 744.836 351.558 C 744.917 350.257 745.373 344.704 744.405 343.914 C 737.921 338.627 741.359 344.93 728.7 339.135 C 727.661 338.659 723.419 339.359 721.038 340.688" transform="matrix(0.17364802956581113, -0.9848080277442931, 0.9848080277442931, 0.17364802956581113, 82.224480330642, 1058.1226629996918)"/><path style="stroke: rgba(0, 0, 0, 0); fill: rgb(235, 149, 68);" d="M 717.644 343.247 C 713.437 350.377 711.857 354.686 710.815 359.073 C 710.303 361.225 709.299 365.69 710.364 367.962 C 711.805 371.036 715.563 370.419 717.8 370.606 C 732.419 371.828 742.981 362.71 743.714 351.144 C 743.792 349.901 744.236 344.596 743.294 343.841 C 736.998 338.792 740.336 344.812 728.042 339.275 C 727.033 338.823 722.912 339.492 720.6 340.76" transform="matrix(0.17364802956581113, -0.9848080277442931, 0.9848080277442931, 0.17364802956581113, 82.29219883650137, 1057.0185370231293)"/><path style="stroke: rgba(0, 0, 0, 0); fill: rgb(160, 93, 11);" d="M 725.237 352.729 C 726.395 352.729 727.801 351.623 728.742 351.043 C 731.449 349.382 733.317 346.602 736.436 345.581 C 740.258 344.33 743.404 348.01 742.412 351.583 C 741.447 355.059 738.505 358.289 735.268 359.88 C 731.931 361.517 727.081 361.964 723.659 360.284 C 721.701 359.322 719.92 356.055 721.599 354.079 C 722.234 353.329 723.14 353.346 724.002 353.135" transform="matrix(0.17364802956581113, -0.9848080277442931, 0.9848080277442931, 0.17364802956581113, 87.88152378767313, 1060.5075506950043)"/><path style="stroke: rgba(0, 0, 0, 0); fill: rgb(255, 181, 113);" d="M 729.939 344.36 C 730.877 348.432 730.768 351.808 731.952 355.818 C 732.419 357.403 732.467 358.397 733.533 361.119 C 733.946 362.172 734.21 362.712 734.612 363.768 C 734.837 364.363 736.945 362.148 738.278 360.884 C 740.108 359.147 743.175 358.646 745.395 359.248 C 746.173 359.46 748.017 359.6 748.125 359.482 C 748.146 359.461 746.872 356.015 746.258 354.572 C 745.55 352.91 744.609 351.435 743.813 349.817 C 742.636 347.425 737.949 337.972 736.193 340.152 C 735.986 340.408 735.248 341.284 732.022 343.425" transform="matrix(0.17364802956581113, -0.9848080277442931, 0.9848080277442931, 0.17364802956581113, 95.3561941978295, 1066.4335760856297)"/><path style="stroke: rgba(0, 0, 0, 0); fill: rgb(195, 122, 5);" d="M 755.616 348.998 C 752.227 346.548 744.357 349.433 742.245 353.44 C 741.611 354.644 745.495 354.254 746.63 354.065 C 750.29 353.454 753.259 351.942 755.759 349.232" transform="matrix(0.17364802956581113, -0.9848080277442931, 0.9848080277442931, 0.17364802956581113, 104.21724766462637, 1075.6713690543793)"/><path style="stroke: rgba(0, 0, 0, 0); fill: rgb(239, 156, 54);" d="M 682.352 502.291 C 678.02 509.756 676.393 514.267 675.319 518.858 C 674.792 521.113 673.758 525.788 674.855 528.166 C 676.339 531.383 680.208 530.737 682.512 530.934 C 697.564 532.212 708.438 522.667 709.193 510.558 C 709.274 509.257 709.73 503.704 708.762 502.914 C 702.278 497.627 705.716 503.93 693.057 498.135 C 692.018 497.659 687.776 498.359 685.395 499.688" transform="matrix(-0.17364802956581113, 0.9848080277442931, -0.9848080277442931, -0.17364802956581113, 1149.8710257407981, -29.61850406878935)"/><path style="stroke: rgba(0, 0, 0, 0); fill: rgb(235, 149, 68);" d="M 683.254 503.421 C 679.047 510.551 677.467 514.86 676.425 519.247 C 675.913 521.399 674.909 525.864 675.974 528.136 C 677.415 531.21 681.173 530.593 683.41 530.78 C 698.029 532.002 708.591 522.884 709.324 511.318 C 709.402 510.075 709.846 504.77 708.904 504.015 C 702.608 498.966 705.946 504.986 693.652 499.449 C 692.643 498.997 688.522 499.666 686.21 500.934" transform="matrix(-0.17364802956581113, 0.9848080277442931, -0.9848080277442931, -0.17364802956581113, 1151.1825491782984, -29.555805704531537)"/><path style="stroke: rgba(0, 0, 0, 0); fill: rgb(160, 93, 11);" d="M 681.1 516.073 C 682.258 516.073 683.664 514.967 684.605 514.387 C 687.312 512.726 689.18 509.946 692.299 508.925 C 696.121 507.674 699.267 511.354 698.275 514.927 C 697.31 518.403 694.368 521.633 691.131 523.224 C 687.794 524.861 682.944 525.308 679.522 523.628 C 677.564 522.666 675.783 519.399 677.462 517.423 C 678.097 516.673 679.003 516.69 679.865 516.479" transform="matrix(-0.17364802956581113, 0.9848080277442931, -0.9848080277442931, -0.17364802956581113, 1147.0228812095481, -22.897526285586196)"/><path style="stroke: rgba(0, 0, 0, 0); fill: rgb(255, 181, 113);" d="M 671.267 510.688 C 672.205 514.76 672.096 518.136 673.28 522.146 C 673.747 523.731 673.795 524.725 674.861 527.447 C 675.274 528.5 675.538 529.04 675.94 530.096 C 676.165 530.691 678.273 528.476 679.606 527.212 C 681.436 525.475 684.503 524.974 686.723 525.576 C 687.501 525.788 689.345 525.928 689.453 525.81 C 689.474 525.789 688.2 522.343 687.586 520.9 C 686.878 519.238 685.937 517.763 685.141 516.145 C 683.964 513.753 679.277 504.3 677.521 506.48 C 677.314 506.736 676.576 507.612 673.35 509.753" transform="matrix(-0.17364802956581113, 0.9848080277442931, -0.9848080277442931, -0.17364802956581113, 1139.9648978111106, -13.989188692507582)"/><path style="stroke: rgba(0, 0, 0, 0); fill: rgb(195, 122, 5);" d="M 677.066 516.654 C 673.677 514.204 665.807 517.089 663.695 521.096 C 663.061 522.3 666.945 521.91 668.08 521.721 C 671.74 521.11 674.709 519.598 677.209 516.888" transform="matrix(-0.17364802956581113, 0.9848080277442931, -0.9848080277442931, -0.17364802956581113, 1128.9522024986109, -3.4147179340694436)"/><path style="stroke: rgba(0, 0, 0, 0); fill: rgb(239, 156, 54);" d="M 727.93 284.881 C 723.598 292.346 721.971 296.857 720.897 301.448 C 720.37 303.703 719.336 308.378 720.433 310.756 C 721.917 313.973 725.786 313.327 728.09 313.524 C 743.142 314.802 754.016 305.257 754.771 293.148 C 754.852 291.847 755.308 286.294 754.34 285.504 C 747.856 280.217 751.294 286.52 738.635 280.725 C 737.596 280.249 733.354 280.949 730.973 282.278" transform="matrix(-0.6427869796752929, 0.7660449147224425, -0.7660449147224425, -0.6427869796752929, 1270.2263724204856, -28.955967447695485)"/><path style="stroke: rgba(0, 0, 0, 0); fill: rgb(235, 149, 68);" d="M 728.458 286.248 C 724.251 293.378 722.671 297.687 721.629 302.074 C 721.117 304.226 720.113 308.691 721.178 310.963 C 722.619 314.037 726.377 313.42 728.614 313.607 C 743.233 314.829 753.795 305.711 754.528 294.145 C 754.606 292.902 755.05 287.597 754.108 286.842 C 747.812 281.793 751.15 287.813 738.856 282.276 C 737.847 281.824 733.726 282.493 731.414 283.761" transform="matrix(-0.6427869796752929, 0.7660449147224425, -0.7660449147224425, -0.6427869796752929, 1271.273003279861, -27.806873819765684)"/><path style="stroke: rgba(0, 0, 0, 0); fill: rgb(187, 103, 0);" d="M 726.164 296.251 C 727.322 296.251 728.728 295.145 729.669 294.565 C 732.376 292.904 734.244 290.124 737.363 289.103 C 741.185 287.852 744.331 291.532 743.339 295.105 C 742.374 298.581 739.432 301.811 736.195 303.402 C 732.858 305.039 728.008 305.486 724.586 303.806 C 722.628 302.844 720.847 299.577 722.526 297.601 C 723.161 296.851 724.067 296.868 724.929 296.657" transform="matrix(-0.6427869796752929, 0.7660449147224425, -0.7660449147224425, -0.6427869796752929, 1262.2212454673609, -25.716084024843923)"/><path style="stroke: rgba(0, 0, 0, 0); fill: rgb(255, 181, 113);" d="M 716.558 287.032 C 717.496 291.104 717.387 294.48 718.571 298.49 C 719.038 300.075 719.086 301.069 720.152 303.791 C 720.565 304.844 720.829 305.384 721.231 306.44 C 721.456 307.035 723.564 304.82 724.897 303.556 C 726.727 301.819 729.794 301.318 732.014 301.92 C 732.792 302.132 734.636 302.272 734.744 302.154 C 734.765 302.133 733.491 298.687 732.877 297.244 C 732.169 295.582 731.228 294.107 730.432 292.489 C 729.255 290.097 724.568 280.644 722.812 282.824 C 722.605 283.08 721.867 283.956 718.641 286.097" transform="matrix(-0.6427869796752929, 0.7660449147224425, -0.7660449147224425, -0.6427869796752929, 1248.8637015220481, -24.169231913027517)"/><path style="stroke: rgba(0, 0, 0, 0); fill: rgb(195, 122, 5);" d="M 723.356 287.938 C 719.967 285.488 712.097 288.373 709.985 292.38 C 709.351 293.584 713.235 293.194 714.37 293.005 C 718.03 292.394 720.999 290.882 723.499 288.172" transform="matrix(-0.6427869796752929, 0.7660449147224425, -0.7660449147224425, -0.6427869796752929, 1230.8054739829856, -24.53489353412138)"/><path style="stroke: rgba(0, 0, 0, 0); fill: rgb(239, 156, 54);" d="M 554.397 386.291 C 550.065 393.756 548.438 398.267 547.364 402.858 C 546.837 405.113 545.803 409.788 546.9 412.166 C 548.384 415.383 552.253 414.737 554.557 414.934 C 569.609 416.212 580.483 406.667 581.238 394.558 C 581.319 393.257 581.775 387.704 580.807 386.914 C 574.323 381.627 577.761 387.93 565.102 382.135 C 564.063 381.659 559.821 382.359 557.44 383.688" transform="matrix(0.6427869796752929, -0.7660449147224425, 0.7660449147224425, 0.6427869796752929, -272.6861718300024, 622.2189154410983)"/><path style="stroke: rgba(0, 0, 0, 0); fill: rgb(235, 149, 68);" d="M 554.414 386.021 C 550.207 393.151 548.627 397.46 547.585 401.847 C 547.073 403.999 546.069 408.464 547.134 410.736 C 548.575 413.81 552.333 413.193 554.57 413.38 C 569.189 414.602 579.751 405.484 580.484 393.918 C 580.562 392.675 581.006 387.37 580.064 386.615 C 573.768 381.566 577.106 387.586 564.812 382.049 C 563.803 381.597 559.682 382.266 557.37 383.534" transform="matrix(0.6427869796752929, -0.7660449147224425, 0.7660449147224425, 0.6427869796752929, -272.1505120399635, 621.7307562614108)"/><path style="stroke: rgba(0, 0, 0, 0); fill: rgb(160, 93, 11);" d="M 562.148 398.154 C 563.306 398.154 564.712 397.048 565.653 396.468 C 568.36 394.807 570.228 392.027 573.347 391.006 C 577.169 389.755 580.315 393.435 579.323 397.008 C 578.358 400.484 575.416 403.714 572.179 405.305 C 568.842 406.942 563.992 407.389 560.57 405.709 C 558.612 404.747 556.831 401.48 558.51 399.504 C 559.145 398.754 560.051 398.771 560.913 398.56" transform="matrix(0.6427869796752929, -0.7660449147224425, 0.7660449147224425, 0.6427869796752929, -271.1750329139869, 625.9526800895358)"/><path style="stroke: rgba(0, 0, 0, 0); fill: rgb(255, 181, 113);" d="M 566.62 393.617 C 567.558 397.689 567.449 401.065 568.633 405.075 C 569.1 406.66 569.148 407.654 570.214 410.376 C 570.627 411.429 570.891 411.969 571.293 413.025 C 571.518 413.62 573.626 411.405 574.959 410.141 C 576.789 408.404 579.856 407.903 582.076 408.505 C 582.854 408.717 584.698 408.857 584.806 408.739 C 584.827 408.718 583.553 405.272 582.939 403.829 C 582.231 402.167 581.29 400.692 580.494 399.074 C 579.317 396.682 574.63 387.229 572.874 389.409 C 572.667 389.665 571.929 390.541 568.703 392.682" transform="matrix(0.6427869796752929, -0.7660449147224425, 0.7660449147224425, 0.6427869796752929, -270.454100907151, 632.1807684684421)"/><path style="stroke: rgba(0, 0, 0, 0); fill: rgb(195, 122, 5);" d="M 591.305 403.31 C 587.916 400.86 580.046 403.745 577.934 407.752 C 577.3 408.956 581.184 408.566 582.319 408.377 C 585.979 407.766 588.948 406.254 591.448 403.544" transform="matrix(0.6427869796752929, -0.7660449147224425, 0.7660449147224425, 0.6427869796752929, -270.62535792619383, 640.6011786246921)"/><path style="stroke: rgba(0, 0, 0, 0); fill: rgb(239, 156, 54);" d="M 646.503 362.682 C 642.171 370.147 640.544 374.658 639.47 379.249 C 638.943 381.504 637.909 386.179 639.006 388.557 C 640.49 391.774 644.359 391.128 646.663 391.325 C 661.715 392.603 672.589 383.058 673.344 370.949 C 673.425 369.648 673.881 364.095 672.913 363.305 C 666.429 358.018 669.867 364.321 657.208 358.526 C 656.169 358.05 651.927 358.75 649.546 360.079" transform="matrix(0.8660250902175902, -0.5000010132789611, 0.5000010132789611, 0.8660250902175902, -268.4058983925026, 426.11845157391076)"/><path style="stroke: rgba(0, 0, 0, 0); fill: rgb(235, 149, 68);" d="M 646.816 362.374 C 642.609 369.504 641.029 373.813 639.987 378.2 C 639.475 380.352 638.471 384.817 639.536 387.089 C 640.977 390.163 644.735 389.546 646.972 389.733 C 661.591 390.955 672.153 381.837 672.886 370.271 C 672.964 369.028 673.408 363.723 672.466 362.968 C 666.17 357.919 669.508 363.939 657.214 358.402 C 656.205 357.95 652.084 358.619 649.772 359.887" transform="matrix(0.8660250902175902, -0.5000010132789611, 0.5000010132789611, 0.8660250902175902, -267.97226649552994, 426.0239081168795)"/><path style="stroke: rgba(0, 0, 0, 0); fill: rgb(187, 103, 0);" d="M 653.893 376.158 C 655.051 376.158 656.457 375.052 657.398 374.472 C 660.105 372.811 661.973 370.031 665.092 369.01 C 668.914 367.759 672.06 371.439 671.068 375.012 C 670.103 378.488 667.161 381.718 663.924 383.309 C 660.587 384.946 655.737 385.393 652.315 383.713 C 650.357 382.751 648.576 379.484 650.255 377.508 C 650.89 376.758 651.796 376.775 652.658 376.564" transform="matrix(0.8660250902175902, -0.5000010132789611, 0.5000010132789611, 0.8660250902175902, -268.7464287880104, 428.5666327262544)"/><path style="stroke: rgba(0, 0, 0, 0); fill: rgb(255, 181, 113);" d="M 657.13 373.887 C 658.068 377.959 657.959 381.335 659.143 385.345 C 659.61 386.93 659.658 387.924 660.724 390.646 C 661.137 391.699 661.401 392.239 661.803 393.295 C 662.028 393.89 664.136 391.675 665.469 390.411 C 667.299 388.674 670.366 388.173 672.586 388.775 C 673.364 388.987 675.208 389.127 675.316 389.009 C 675.337 388.988 674.063 385.542 673.449 384.099 C 672.741 382.437 671.8 380.962 671.004 379.344 C 669.827 376.952 665.14 367.499 663.384 369.679 C 663.177 369.935 662.439 370.811 659.213 372.952" transform="matrix(0.8660250902175902, -0.5000010132789611, 0.5000010132789611, 0.8660250902175902, -270.2724221351784, 432.0856146598484)"/><path style="stroke: rgba(0, 0, 0, 0); fill: rgb(195, 122, 5);" d="M 679.773 386.374 C 676.384 383.924 668.514 386.809 666.402 390.816 C 665.768 392.02 669.652 391.63 670.787 391.441 C 674.447 390.83 677.416 389.318 679.916 386.608" transform="matrix(0.8660250902175902, -0.5000010132789611, 0.5000010132789611, 0.8660250902175902, -272.94175654679935, 436.49918887859826)"/><path style="stroke: rgba(0, 0, 0, 0); fill: rgb(239, 156, 54);" d="M 787.623 430.291 C 783.291 437.756 781.664 442.267 780.59 446.858 C 780.063 449.113 779.029 453.788 780.126 456.166 C 781.61 459.383 785.479 458.737 787.783 458.934 C 802.835 460.212 813.709 450.667 814.464 438.558 C 814.545 437.257 815.001 431.704 814.033 430.914 C 807.549 425.627 810.987 431.93 798.328 426.135 C 797.289 425.659 793.047 426.359 790.666 427.688" transform="matrix(0.8660250902175902, -0.5000010132789611, 0.5000010132789611, 0.8660250902175902, -283.30388575822514, 505.73649356609826)"/><path style="stroke: rgba(0, 0, 0, 0); fill: rgb(235, 149, 68);" d="M 787.936 429.983 C 783.729 437.113 782.149 441.422 781.107 445.809 C 780.595 447.961 779.591 452.426 780.656 454.698 C 782.097 457.772 785.855 457.155 788.092 457.342 C 802.711 458.564 813.273 449.446 814.006 437.88 C 814.084 436.637 814.528 431.332 813.586 430.577 C 807.29 425.528 810.628 431.548 798.334 426.011 C 797.325 425.559 793.204 426.228 790.892 427.496" transform="matrix(0.8660250902175902, -0.5000010132789611, 0.5000010132789611, 0.8660250902175902, -282.8702538612526, 505.641950109067)"/><path style="stroke: rgba(0, 0, 0, 0); fill: rgb(160, 93, 11);" d="M 795.013 443.767 C 796.171 443.767 797.577 442.661 798.518 442.081 C 801.225 440.42 803.093 437.64 806.212 436.619 C 810.034 435.368 813.18 439.048 812.188 442.621 C 811.223 446.097 808.281 449.327 805.044 450.918 C 801.707 452.555 796.857 453.002 793.435 451.322 C 791.477 450.36 789.696 447.093 791.375 445.117 C 792.01 444.367 792.916 444.384 793.778 444.173" transform="matrix(0.8660250902175902, -0.5000010132789611, 0.5000010132789611, 0.8660250902175902, -283.6444237831276, 508.184674718442)"/><path style="stroke: rgba(0, 0, 0, 0); fill: rgb(255, 181, 113);" d="M 798.25 441.496 C 799.188 445.568 799.079 448.944 800.263 452.954 C 800.73 454.539 800.778 455.533 801.844 458.255 C 802.257 459.308 802.521 459.848 802.923 460.904 C 803.148 461.499 805.256 459.284 806.589 458.02 C 808.419 456.283 811.486 455.782 813.706 456.384 C 814.484 456.596 816.328 456.736 816.436 456.618 C 816.457 456.597 815.183 453.151 814.569 451.708 C 813.861 450.046 812.92 448.571 812.124 446.953 C 810.947 444.561 806.26 435.108 804.504 437.288 C 804.297 437.544 803.559 438.42 800.333 440.561" transform="matrix(0.8660250902175902, -0.5000010132789611, 0.5000010132789611, 0.8660250902175902, -285.1704095009009, 511.7037176871921)"/><path style="stroke: rgba(0, 0, 0, 0); fill: rgb(195, 122, 5);" d="M 820.893 453.983 C 817.504 451.533 809.634 454.418 807.522 458.425 C 806.888 459.629 810.772 459.239 811.907 459.05 C 815.567 458.439 818.536 456.927 821.036 454.217" transform="matrix(0.8660250902175902, -0.5000010132789611, 0.5000010132789611, 0.8660250902175902, -287.83975154191666, 516.117291905942)"/><path style="stroke: rgba(0, 0, 0, 0); fill: rgb(239, 156, 54);" d="M 589.328 280.187 C 584.996 287.652 583.369 292.163 582.295 296.754 C 581.768 299.009 580.734 303.684 581.831 306.062 C 583.315 309.279 587.184 308.633 589.488 308.83 C 604.54 310.108 615.414 300.563 616.169 288.454 C 616.25 287.153 616.706 281.6 615.738 280.81 C 609.254 275.523 612.692 281.826 600.033 276.031 C 598.994 275.555 594.752 276.255 592.371 277.584" transform="matrix(0.9848080277442933, 0.1736470311880112, -0.1736470311880112, 0.9848080277442933, -105.27894526750265, -52.655161402163344)" data-bx-origin="0.714077 1.122642"/><path style="stroke: rgba(0, 0, 0, 0); fill: rgb(235, 149, 68);" d="M 590.064 280.014 C 585.857 287.144 584.277 291.453 583.235 295.84 C 582.723 297.992 581.719 302.457 582.784 304.729 C 584.225 307.803 587.983 307.186 590.22 307.373 C 604.839 308.595 615.401 299.477 616.134 287.911 C 616.212 286.668 616.656 281.363 615.714 280.608 C 609.418 275.559 612.756 281.579 600.462 276.042 C 599.453 275.59 595.332 276.259 593.02 277.527" transform="matrix(0.9848080277442933, 0.1736470311880112, -0.1736470311880112, 0.9848080277442933, -105.27893763810812, -52.65511562579616)" data-bx-origin="0.706783 1.174685"/><path style="stroke: rgba(0, 0, 0, 0); fill: rgb(187, 103, 0);" d="M 595.2 295.613 C 596.358 295.613 597.764 294.507 598.705 293.927 C 601.412 292.266 603.28 289.486 606.399 288.465 C 610.221 287.214 613.367 290.894 612.375 294.467 C 611.41 297.943 608.468 301.173 605.231 302.764 C 601.894 304.401 597.044 304.848 593.622 303.168 C 591.664 302.206 589.883 298.939 591.562 296.963 C 592.197 296.213 593.103 296.23 593.965 296.019" transform="matrix(0.9848080277442933, 0.1736470311880112, -0.1736470311880112, 0.9848080277442933, -105.27890712052977, -52.655230066714125)" data-bx-origin="0.71292 1.547623"/><path style="stroke: rgba(0, 0, 0, 0); fill: rgb(255, 181, 113);" d="M 595.355 295.627 C 596.293 299.699 596.184 303.075 597.368 307.085 C 597.835 308.67 597.883 309.664 598.949 312.386 C 599.362 313.439 599.626 313.979 600.028 315.035 C 600.253 315.63 602.361 313.415 603.694 312.151 C 605.524 310.414 608.591 309.913 610.811 310.515 C 611.589 310.727 613.433 310.867 613.541 310.749 C 613.562 310.728 612.288 307.282 611.674 305.839 C 610.966 304.177 610.025 302.702 609.229 301.084 C 608.052 298.692 603.365 289.239 601.609 291.419 C 601.402 291.675 600.664 292.551 597.438 294.692" transform="matrix(0.9848080277442933, 0.1736470311880112, -0.1736470311880112, 0.9848080277442933, -105.27886897355711, -52.65518429034694)" data-bx-origin="0.604004 0.91122"/><path style="stroke: rgba(0, 0, 0, 0); fill: rgb(195, 122, 5);" d="M 613.48 310.601 C 610.091 308.151 602.221 311.036 600.109 315.043 C 599.475 316.247 603.359 315.857 604.494 315.668 C 608.154 315.057 611.123 313.545 613.623 310.835" transform="matrix(0.9848080277442933, 0.1736470311880112, -0.1736470311880112, 0.9848080277442933, -105.27894526750242, -52.65521480792506)" data-bx-origin="0.463812 0.533984"/></g></svg>