<?xml version="1.0" encoding="utf-8"?>
<svg id="master-artboard" viewBox="0 0 689.3604736328125 723.1724243164062" version="1.1" xmlns="http://www.w3.org/2000/svg" x="0px" y="0px" style="enable-background:new 0 0 336 235.2;" width="689.3604736328125px" height="723.1724243164062px"><rect id="ee-background" x="0" y="0" width="689.3604736328125" height="723.1724243164062" style="fill: white; fill-opacity: 0; pointer-events: none;"/><defs><style id="ee-google-fonts">@import url(https://fonts.googleapis.com/css?family=Audiowide:400);</style></defs>





















































































































































<path style="stroke: rgba(0, 0, 0, 0);" d="M 745.553 413.357 C 732.456 413.357 734.034 442.745 749.487 440.937 C 762.083 439.462 768.542 417.536 753.451 414.004 C 750.755 413.371 747.866 412.869 745.333 413.403" transform="matrix(2.118687629699707, -0.6075246334075928, 0.6075246334075928, 2.118687629699707, -1384.396240234375, -33.98558044433594)"/><path style="stroke: rgba(0, 0, 0, 0); fill: rgb(33, 31, 43);" d="M 747.298 420.982 C 739.666 420.982 740.588 436.776 749.592 435.804 C 756.931 435.01 760.694 423.23 751.901 421.331 C 750.328 420.991 748.646 420.721 747.171 421.008" transform="matrix(2.118687629699707, -0.6075246334075928, 0.6075246334075928, 2.118687629699707, -1385.15771484375, -33.80732727050781)"/><path style="stroke: rgba(0, 0, 0, 0); fill: rgb(85, 85, 85);" d="M 756.171 419.881 C 756.802 420.519 757.022 422.221 757.223 423.446 C 757.558 425.49 757.032 427.977 755.933 429.551 C 755.364 430.364 755.897 431.29 756.607 430.775 C 757.181 430.36 758.122 428.972 758.36 428.09 C 759.067 425.47 758.951 421.838 758.138 419.293 C 757.834 418.342 757.308 417.393 756.727 416.85 C 756.138 416.298 755.375 415.27 754.786 415.823 C 753.997 416.561 754.649 417.545 755.367 418.513" transform="matrix(2.118687629699707, -0.6075246334075928, 0.6075246334075928, 2.118687629699707, -1381.4737548828125, -29.957305908203125)"/><path style="stroke: rgba(0, 0, 0, 0); fill: rgb(36, 36, 36);" d="M 742.239 432.789 C 741.197 429.781 741.796 426.467 742.444 423.468 C 742.656 422.496 742.403 420.218 741.1 420.718 C 739.738 421.243 739.236 424.079 739.033 425.499 C 738.324 430.42 739.84 435.69 743.346 439.065 C 744.549 440.225 746.844 441.77 746.269 439.12 C 745.898 437.393 744.093 435.983 743.048 434.775" transform="matrix(2.118687629699707, -0.6075246334075928, 0.6075246334075928, 2.118687629699707, -1387.1171875, -37.84663391113281)"/><path style="stroke: rgba(0, 0, 0, 0); fill: rgb(46, 46, 46);" d="M 754.896 419.122 C 755.899 419.899 756.249 421.972 756.567 423.463 C 757.099 425.952 756.267 428.982 754.519 430.899 C 753.617 431.888 754.462 433.016 755.589 432.39 C 756.502 431.884 757.999 430.193 758.375 429.12 C 759.498 425.927 759.313 421.505 758.023 418.406 C 757.54 417.248 756.703 416.093 755.78 415.43 C 754.844 414.758 753.632 413.507 752.697 414.18 C 751.444 415.079 752.48 416.278 753.62 417.457" transform="matrix(2.118687629699707, -0.6075246334075928, 0.6075246334075928, 2.118687629699707, -1381.55029296875, -30.56964111328125)"/><path style="stroke: rgba(0, 0, 0, 0);" d="M 690.936 466.979 C 677.839 466.979 679.417 496.367 694.87 494.559 C 707.466 493.084 713.925 471.158 698.834 467.626 C 696.138 466.993 693.249 466.491 690.716 467.025" transform="matrix(2.118687629699707, -0.6075246334075928, 0.6075246334075928, 2.118687629699707, -1421.6361083984375, -62.588409423828125)"/><path style="stroke: rgba(0, 0, 0, 0); fill: rgb(33, 31, 43);" d="M 693.087 473.36 C 685.455 473.36 686.377 489.154 695.381 488.182 C 702.72 487.388 706.483 475.608 697.69 473.709 C 696.117 473.369 694.435 473.099 692.96 473.386" transform="matrix(2.118687629699707, -0.6075246334075928, 0.6075246334075928, 2.118687629699707, -1421.607177734375, -62.2696533203125)"/><path style="stroke: rgba(0, 0, 0, 0); fill: rgb(36, 36, 36);" d="M 687.622 486.411 C 686.58 483.403 687.179 480.089 687.827 477.09 C 688.039 476.118 687.786 473.84 686.483 474.34 C 685.121 474.865 684.619 477.701 684.416 479.121 C 683.707 484.042 685.223 489.312 688.729 492.687 C 689.932 493.847 692.227 495.392 691.652 492.742 C 691.281 491.015 689.476 489.605 688.431 488.397" transform="matrix(2.118687629699707, -0.6075246334075928, 0.6075246334075928, 2.118687629699707, -1424.3570556640625, -66.44941711425781)"/><path style="stroke: rgba(0, 0, 0, 0); fill: rgb(46, 46, 46);" d="M 700.279 472.744 C 701.282 473.521 701.632 475.594 701.95 477.085 C 702.482 479.574 701.65 482.604 699.902 484.521 C 699 485.51 699.845 486.638 700.972 486.012 C 701.885 485.506 703.382 483.815 703.758 482.742 C 704.881 479.549 704.696 475.127 703.406 472.028 C 702.923 470.87 702.086 469.715 701.163 469.052 C 700.227 468.38 699.015 467.129 698.08 467.802 C 696.827 468.701 697.863 469.9 699.003 471.079" transform="matrix(2.118687629699707, -0.6075246334075928, 0.6075246334075928, 2.118687629699707, -1418.790283203125, -59.172332763671875)"/><path style="stroke: rgba(0, 0, 0, 0); fill: rgb(85, 85, 85);" d="M 701.554 473.503 C 702.185 474.141 702.405 475.843 702.606 477.068 C 702.941 479.112 702.415 481.599 701.316 483.173 C 700.747 483.986 701.28 484.912 701.99 484.397 C 702.564 483.982 703.505 482.594 703.743 481.712 C 704.45 479.092 704.334 475.46 703.521 472.915 C 703.217 471.964 702.691 471.015 702.11 470.472 C 701.521 469.92 700.758 468.892 700.169 469.445 C 699.38 470.183 700.032 471.167 700.75 472.135" transform="matrix(2.118687629699707, -0.6075246334075928, 0.6075246334075928, 2.118687629699707, -1418.713623046875, -58.55999755859375)"/><path style="stroke: rgba(0, 0, 0, 0);" d="M 659.245 392.543 C 646.148 392.543 647.726 421.931 663.179 420.123 C 675.775 418.648 682.234 396.722 667.143 393.19 C 664.447 392.557 661.558 392.055 659.025 392.589" transform="matrix(2.1386001110076904, 0.5332125425338745, -0.5332125425338745, 2.1386001110076904, -928.8626098632812, -852.7685699462891)"/><path style="stroke: rgba(0, 0, 0, 0); fill: rgb(33, 31, 43);" d="M 661.314 399.181 C 653.682 399.181 654.604 414.975 663.608 414.003 C 670.947 413.209 674.71 401.429 665.917 399.53 C 664.344 399.19 662.662 398.92 661.187 399.207" transform="matrix(2.1386001110076904, 0.5332125425338745, -0.5332125425338745, 2.1386001110076904, -928.6832275390625, -852.9841461181641)"/><path style="stroke: rgba(0, 0, 0, 0); fill: rgb(36, 36, 36);" d="M 655.091 408.079 C 654.049 405.071 654.648 401.757 655.296 398.758 C 655.508 397.786 655.255 395.508 653.952 396.008 C 652.59 396.533 652.088 399.369 651.885 400.789 C 651.176 405.71 652.692 410.98 656.198 414.355 C 657.401 415.515 659.696 417.06 659.121 414.41 C 658.75 412.683 656.945 411.273 655.9 410.065" transform="matrix(2.1386001110076904, 0.5332125425338745, -0.5332125425338745, 2.1386001110076904, -929.5687255859375, -848.6932525634766)"/><path style="stroke: rgba(0, 0, 0, 0); fill: rgb(46, 46, 46);" d="M 669.672 401.899 C 670.675 402.676 671.025 404.749 671.343 406.24 C 671.875 408.729 671.043 411.759 669.295 413.676 C 668.393 414.665 669.238 415.793 670.365 415.167 C 671.278 414.661 672.775 412.97 673.151 411.897 C 674.274 408.704 674.089 404.282 672.799 401.183 C 672.316 400.025 671.479 398.87 670.556 398.207 C 669.62 397.535 668.408 396.284 667.473 396.957 C 666.22 397.856 667.256 399.055 668.396 400.234" transform="matrix(2.1386001110076904, 0.5332125425338745, -0.5332125425338745, 2.1386001110076904, -928.5098876953125, -856.6458282470703)"/><path style="stroke: rgba(0, 0, 0, 0); fill: rgb(85, 85, 85);" d="M 670.805 403.159 C 671.436 403.797 671.656 405.499 671.857 406.724 C 672.192 408.768 671.666 411.255 670.567 412.829 C 669.998 413.642 670.531 414.568 671.241 414.053 C 671.815 413.638 672.756 412.25 672.994 411.368 C 673.701 408.748 673.585 405.116 672.772 402.571 C 672.468 401.62 671.942 400.671 671.361 400.128 C 670.772 399.576 670.009 398.548 669.42 399.101 C 668.631 399.839 669.283 400.823 670.001 401.791" transform="matrix(2.1386001110076904, 0.5332125425338745, -0.5332125425338745, 2.1386001110076904, -928.177978515625, -857.0725860595703)"/><path style="stroke: rgba(0, 0, 0, 0);" d="M 739.361 354.89 C 726.264 354.89 727.842 384.278 743.295 382.47 C 755.891 380.995 762.35 359.069 747.259 355.537 C 744.563 354.904 741.674 354.402 739.141 354.936" transform="matrix(2.1386001110076904, 0.5332125425338745, -0.5332125425338745, 2.1386001110076904, -943.6944580078125, -897.9525909423828)"/><path style="stroke: rgba(0, 0, 0, 0); fill: rgb(33, 31, 43);" d="M 741.43 361.528 C 733.798 361.528 734.72 377.322 743.724 376.35 C 751.063 375.556 754.826 363.776 746.033 361.877 C 744.46 361.537 742.778 361.267 741.303 361.554" transform="matrix(2.1386001110076904, 0.5332125425338745, -0.5332125425338745, 2.1386001110076904, -943.5150146484375, -898.1681060791016)"/><path style="stroke: rgba(0, 0, 0, 0); fill: rgb(36, 36, 36);" d="M 735.207 370.426 C 734.165 367.418 734.764 364.104 735.412 361.105 C 735.624 360.133 735.371 357.855 734.068 358.355 C 732.706 358.88 732.204 361.716 732.001 363.136 C 731.292 368.057 732.808 373.327 736.314 376.702 C 737.517 377.862 739.812 379.407 739.237 376.757 C 738.866 375.03 737.061 373.62 736.016 372.412" transform="matrix(2.1386001110076904, 0.5332125425338745, -0.5332125425338745, 2.1386001110076904, -944.4005126953125, -893.8772735595703)"/><path style="stroke: rgba(0, 0, 0, 0);" d="M 660.855 505.884 C 649.541 505.884 650.904 531.987 664.253 530.381 C 675.134 529.071 680.713 509.596 667.677 506.459 C 665.348 505.896 662.853 505.45 660.664 505.925" transform="matrix(1.6634323596954346, -1.4459993839263916, 1.4459993839263916, 1.6634323596954346, -1578.962890625, 714.8074798583984)"/><path style="stroke: rgba(0, 0, 0, 0); fill: rgb(33, 31, 43);" d="M 662.683 511.361 C 656.091 511.361 656.887 525.39 664.665 524.526 C 671.005 523.821 674.255 513.358 666.66 511.671 C 665.301 511.369 663.848 511.13 662.574 511.384" transform="matrix(1.6634323596954346, -1.4459993839263916, 1.4459993839263916, 1.6634323596954346, -1578.492919921875, 715.3252410888672)"/><path style="stroke: rgba(0, 0, 0, 0); fill: rgb(36, 36, 36);" d="M 659.854 525.301 C 658.954 522.629 659.471 519.686 660.031 517.022 C 660.214 516.159 659.996 514.135 658.87 514.579 C 657.693 515.046 657.26 517.565 657.084 518.826 C 656.472 523.197 657.782 527.878 660.81 530.875 C 661.849 531.906 663.832 533.278 663.335 530.924 C 663.015 529.39 661.455 528.138 660.553 527.065" transform="matrix(1.6634323596954346, -1.4459993839263916, 1.4459993839263916, 1.6634323596954346, -1588.7904052734375, 711.7984466552734)"/><path style="stroke: rgba(0, 0, 0, 0); fill: rgb(46, 46, 46);" d="M 667.001 509.122 C 667.867 509.812 668.17 511.653 668.444 512.978 C 668.904 515.188 668.185 517.88 666.675 519.582 C 665.896 520.461 666.626 521.463 667.6 520.907 C 668.388 520.457 669.681 518.955 670.006 518.002 C 670.976 515.166 670.817 511.238 669.702 508.486 C 669.285 507.457 668.562 506.432 667.765 505.843 C 666.956 505.246 665.909 504.135 665.101 504.732 C 664.019 505.531 664.914 506.596 665.899 507.643" transform="matrix(1.6634323596954346, -1.4459993839263916, 1.4459993839263916, 1.6634323596954346, -1569.5001220703125, 716.8670501708984)"/><path style="stroke: rgba(0, 0, 0, 0);" d="M 791.11 466.539 C 778.013 466.539 779.591 495.927 795.044 494.119 C 807.647 492.644 814.108 470.718 799.009 467.186 C 796.312 466.553 793.423 466.051 790.89 466.585" transform="matrix(2.0839896202087402, -0.7175752520561218, 0.7175752520561218, 2.0839896202087402, -1438.0843505859375, 102.39204406738281)"/><path style="stroke: rgba(0, 0, 0, 0); fill: rgb(33, 31, 43);" d="M 793.262 472.892 C 785.63 472.892 786.552 488.686 795.556 487.714 C 802.897 486.92 806.663 475.14 797.865 473.241 C 796.292 472.901 794.61 472.631 793.135 472.918" transform="matrix(2.0839896202087402, -0.7175752520561218, 0.7175752520561218, 2.0839896202087402, -1438.020263671875, 102.76506042480469)"/><path style="stroke: rgba(0, 0, 0, 0); fill: rgb(36, 36, 36);" d="M 787.99 486.324 C 786.948 483.316 787.547 480.002 788.195 477.003 C 788.407 476.031 788.154 473.753 786.851 474.253 C 785.489 474.778 784.987 477.614 784.784 479.034 C 784.075 483.955 785.591 489.225 789.097 492.6 C 790.3 493.76 792.595 495.305 792.02 492.655 C 791.649 490.928 789.844 489.518 788.799 488.31" transform="matrix(2.0839896202087402, -0.7175752520561218, 0.7175752520561218, 2.0839896202087402, -1441.6602783203125, 98.07853698730469)"/><path style="stroke: rgba(0, 0, 0, 0); fill: rgb(46, 46, 46);" d="M 800.246 471.987 C 801.249 472.764 801.599 474.837 801.917 476.328 C 802.45 478.817 801.617 481.847 799.869 483.764 C 798.967 484.753 799.812 485.881 800.939 485.255 C 801.852 484.749 803.35 483.058 803.726 481.985 C 804.849 478.792 804.664 474.37 803.374 471.271 C 802.891 470.113 802.053 468.958 801.13 468.295 C 800.194 467.623 798.982 466.372 798.046 467.045 C 796.793 467.944 797.829 469.143 798.97 470.322" transform="matrix(2.0839896202087402, -0.7175752520561218, 0.7175752520561218, 2.0839896202087402, -1434.40234375, 106.16456604003906)"/><path style="stroke: rgba(0, 0, 0, 0); fill: rgb(85, 85, 85);" d="M 801.519 472.693 C 802.15 473.331 802.37 475.033 802.571 476.258 C 802.906 478.302 802.38 480.789 801.281 482.363 C 800.712 483.176 801.245 484.102 801.955 483.587 C 802.529 483.172 803.47 481.784 803.708 480.902 C 804.415 478.282 804.299 474.65 803.486 472.105 C 803.182 471.154 802.656 470.205 802.075 469.662 C 801.486 469.11 800.723 468.082 800.134 468.635 C 799.345 469.373 799.997 470.357 800.715 471.325" transform="matrix(2.0839896202087402, -0.7175752520561218, 0.7175752520561218, 2.0839896202087402, -1434.2547607421875, 106.88023376464844)"/><path style="stroke: rgba(0, 0, 0, 0);" d="M 775.728 306.131 C 762.631 306.131 764.209 335.519 779.662 333.711 C 792.265 332.236 798.726 310.31 783.627 306.778 C 780.93 306.145 778.041 305.643 775.508 306.177" transform="matrix(2.0839896202087402, -0.7175752520561218, 0.7175752520561218, 2.0839896202087402, -1324.8267822265625, 72.09239196777344)"/><path style="stroke: rgba(0, 0, 0, 0); fill: rgb(33, 31, 43);" d="M 777.88 312.484 C 770.248 312.484 771.17 328.278 780.174 327.306 C 787.515 326.512 791.281 314.732 782.483 312.833 C 780.91 312.493 779.228 312.223 777.753 312.51" transform="matrix(2.0839896202087402, -0.7175752520561218, 0.7175752520561218, 2.0839896202087402, -1324.7626953125, 72.46549987792969)"/><path style="stroke: rgba(0, 0, 0, 0); fill: rgb(36, 36, 36);" d="M 772.608 325.916 C 771.566 322.908 772.165 319.594 772.813 316.595 C 773.025 315.623 772.772 313.345 771.469 313.845 C 770.107 314.37 769.605 317.206 769.402 318.626 C 768.693 323.547 770.209 328.817 773.715 332.192 C 774.918 333.352 777.213 334.897 776.638 332.247 C 776.267 330.52 774.462 329.11 773.417 327.902" transform="matrix(2.0839896202087402, -0.7175752520561218, 0.7175752520561218, 2.0839896202087402, -1328.40283203125, 67.77888488769531)"/><path style="stroke: rgba(0, 0, 0, 0); fill: rgb(46, 46, 46);" d="M 784.864 311.579 C 785.867 312.356 786.217 314.429 786.535 315.92 C 787.068 318.409 786.235 321.439 784.487 323.356 C 783.585 324.345 784.43 325.473 785.557 324.847 C 786.47 324.341 787.968 322.65 788.344 321.577 C 789.467 318.384 789.282 313.962 787.992 310.863 C 787.509 309.705 786.671 308.55 785.748 307.887 C 784.812 307.215 783.6 305.964 782.664 306.637 C 781.411 307.536 782.447 308.735 783.588 309.914" transform="matrix(2.0839896202087402, -0.7175752520561218, 0.7175752520561218, 2.0839896202087402, -1321.144775390625, 75.86491394042969)"/><path style="stroke: rgba(0, 0, 0, 0); fill: rgb(85, 85, 85);" d="M 786.137 312.285 C 786.768 312.923 786.988 314.625 787.189 315.85 C 787.524 317.894 786.998 320.381 785.899 321.955 C 785.33 322.768 785.863 323.694 786.573 323.179 C 787.147 322.764 788.088 321.376 788.326 320.494 C 789.033 317.874 788.917 314.242 788.104 311.697 C 787.8 310.746 787.274 309.797 786.693 309.254 C 786.104 308.702 785.341 307.674 784.752 308.227 C 783.963 308.965 784.615 309.949 785.333 310.917" transform="matrix(2.0839896202087402, -0.7175752520561218, 0.7175752520561218, 2.0839896202087402, -1320.9971923828125, 76.58070373535156)"/><path style="stroke: rgba(0, 0, 0, 0);" d="M 583.728 414.131 C 570.631 414.131 572.209 443.519 587.662 441.711 C 600.265 440.236 606.726 418.31 591.627 414.778 C 588.93 414.145 586.041 413.643 583.508 414.177" transform="matrix(2.0839896202087402, -0.7175752520561218, 0.7175752520561218, 2.0839896202087402, -1425.3802490234375, -52.713043212890625)"/><path style="stroke: rgba(0, 0, 0, 0); fill: rgb(33, 31, 43);" d="M 585.88 420.484 C 578.248 420.484 579.17 436.278 588.174 435.306 C 595.515 434.512 599.281 422.732 590.483 420.833 C 588.91 420.493 587.228 420.223 585.753 420.51" transform="matrix(2.0839896202087402, -0.7175752520561218, 0.7175752520561218, 2.0839896202087402, -1425.316162109375, -52.33998107910156)"/><path style="stroke: rgba(0, 0, 0, 0); fill: rgb(36, 36, 36);" d="M 580.608 433.916 C 579.566 430.908 580.165 427.594 580.813 424.595 C 581.025 423.623 580.772 421.345 579.469 421.845 C 578.107 422.37 577.605 425.206 577.402 426.626 C 576.693 431.547 578.209 436.817 581.715 440.192 C 582.918 441.352 585.213 442.897 584.638 440.247 C 584.267 438.52 582.462 437.11 581.417 435.902" transform="matrix(2.0839896202087402, -0.7175752520561218, 0.7175752520561218, 2.0839896202087402, -1428.956298828125, -57.02650451660156)"/><path style="stroke: rgba(0, 0, 0, 0); fill: rgb(46, 46, 46);" d="M 592.864 419.579 C 593.867 420.356 594.217 422.429 594.535 423.92 C 595.068 426.409 594.235 429.439 592.487 431.356 C 591.585 432.345 592.43 433.473 593.557 432.847 C 594.47 432.341 595.968 430.65 596.344 429.577 C 597.467 426.384 597.282 421.962 595.992 418.863 C 595.509 417.705 594.671 416.55 593.748 415.887 C 592.812 415.215 591.6 413.964 590.664 414.637 C 589.411 415.536 590.447 416.735 591.588 417.914" transform="matrix(2.0839896202087402, -0.7175752520561218, 0.7175752520561218, 2.0839896202087402, -1421.6982421875, -48.9405517578125)"/><path style="stroke: rgba(0, 0, 0, 0); fill: rgb(85, 85, 85);" d="M 594.137 420.285 C 594.768 420.923 594.988 422.625 595.189 423.85 C 595.524 425.894 594.998 428.381 593.899 429.955 C 593.33 430.768 593.863 431.694 594.573 431.179 C 595.147 430.764 596.088 429.376 596.326 428.494 C 597.033 425.874 596.917 422.242 596.104 419.697 C 595.8 418.746 595.274 417.797 594.693 417.254 C 594.104 416.702 593.341 415.674 592.752 416.227 C 591.963 416.965 592.615 417.949 593.333 418.917" transform="matrix(2.0839896202087402, -0.7175752520561218, 0.7175752520561218, 2.0839896202087402, -1421.5506591796875, -48.22480773925781)"/><path style="stroke: rgba(0, 0, 0, 0);" d="M 681.728 318.131 C 668.63 318.131 670.208 347.519 685.662 345.711 C 698.265 344.236 704.726 322.31 689.627 318.778 C 686.93 318.145 684.041 317.643 681.508 318.177" transform="matrix(2.0839896202087402, -0.7175752520561218, 0.7175752520561218, 2.0839896202087402, -1344.725341796875, 6.0811767578125)"/><path style="stroke: rgba(0, 0, 0, 0); fill: rgb(33, 31, 43);" d="M 683.88 324.484 C 676.247 324.484 677.169 340.278 686.174 339.306 C 693.515 338.512 697.281 326.732 688.483 324.833 C 686.91 324.493 685.228 324.223 683.753 324.51" transform="matrix(2.0839896202087402, -0.7175752520561218, 0.7175752520561218, 2.0839896202087402, -1344.6612548828125, 6.454193115234375)"/><path style="stroke: rgba(0, 0, 0, 0); fill: rgb(36, 36, 36);" d="M 678.607 337.916 C 677.565 334.908 678.164 331.594 678.812 328.595 C 679.024 327.623 678.771 325.345 677.468 325.845 C 676.106 326.37 675.604 329.206 675.401 330.626 C 674.692 335.547 676.208 340.817 679.714 344.192 C 680.917 345.352 683.213 346.897 682.638 344.247 C 682.267 342.52 680.461 341.11 679.416 339.902" transform="matrix(2.0839896202087402, -0.7175752520561218, 0.7175752520561218, 2.0839896202087402, -1348.30126953125, 1.7676239013671875)"/><path style="stroke: rgba(0, 0, 0, 0); fill: rgb(46, 46, 46);" d="M 690.864 323.579 C 691.867 324.356 692.217 326.429 692.535 327.92 C 693.068 330.409 692.235 333.439 690.487 335.356 C 689.585 336.345 690.43 337.473 691.557 336.847 C 692.47 336.341 693.968 334.65 694.344 333.577 C 695.467 330.384 695.282 325.962 693.992 322.863 C 693.509 321.705 692.671 320.55 691.748 319.887 C 690.812 319.215 689.6 317.964 688.664 318.637 C 687.411 319.536 688.447 320.735 689.588 321.914" transform="matrix(2.0839896202087402, -0.7175752520561218, 0.7175752520561218, 2.0839896202087402, -1341.043212890625, 9.85400390625)"/><path style="stroke: rgba(0, 0, 0, 0); fill: rgb(85, 85, 85);" d="M 692.137 324.285 C 692.768 324.923 692.988 326.625 693.189 327.85 C 693.524 329.894 692.998 332.381 691.899 333.955 C 691.33 334.768 691.863 335.694 692.573 335.179 C 693.147 334.764 694.088 333.376 694.326 332.494 C 695.033 329.874 694.917 326.242 694.104 323.697 C 693.8 322.746 693.274 321.797 692.693 321.254 C 692.104 320.702 691.341 319.674 690.752 320.227 C 689.963 320.965 690.615 321.949 691.333 322.917" transform="matrix(2.0839896202087402, -0.7175752520561218, 0.7175752520561218, 2.0839896202087402, -1340.895751953125, 10.56976318359375)"/><path style="stroke: rgba(0, 0, 0, 0);" d="M 587.728 308.131 C 574.63 308.131 576.208 337.519 591.662 335.711 C 604.265 334.236 610.726 312.31 595.627 308.778 C 592.93 308.145 590.041 307.643 587.508 308.177" transform="matrix(2.0839896202087402, -0.7175752520561218, 0.7175752520561218, 2.0839896202087402, -1348.8372802734375, -62.57154846191406)"/><path style="stroke: rgba(0, 0, 0, 0); fill: rgb(33, 31, 43);" d="M 589.88 314.484 C 582.247 314.484 583.169 330.278 592.174 329.306 C 599.515 328.512 603.281 316.732 594.483 314.833 C 592.91 314.493 591.228 314.223 589.753 314.51" transform="matrix(2.0839896202087402, -0.7175752520561218, 0.7175752520561218, 2.0839896202087402, -1348.7730712890625, -62.19853210449219)"/><path style="stroke: rgba(0, 0, 0, 0); fill: rgb(36, 36, 36);" d="M 584.607 327.916 C 583.565 324.908 584.164 321.594 584.812 318.595 C 585.024 317.623 584.771 315.345 583.468 315.845 C 582.106 316.37 581.604 319.206 581.401 320.626 C 580.692 325.547 582.208 330.817 585.714 334.192 C 586.917 335.352 589.213 336.897 588.638 334.247 C 588.267 332.52 586.461 331.11 585.416 329.902" transform="matrix(2.0839896202087402, -0.7175752520561218, 0.7175752520561218, 2.0839896202087402, -1352.4132080078125, -66.88519287109375)"/><path style="stroke: rgba(0, 0, 0, 0); fill: rgb(46, 46, 46);" d="M 596.864 313.579 C 597.867 314.356 598.217 316.429 598.535 317.92 C 599.068 320.409 598.235 323.439 596.487 325.356 C 595.585 326.345 596.43 327.473 597.557 326.847 C 598.47 326.341 599.968 324.65 600.344 323.577 C 601.467 320.384 601.282 315.962 599.992 312.863 C 599.509 311.705 598.671 310.55 597.748 309.887 C 596.812 309.215 595.6 307.964 594.664 308.637 C 593.411 309.536 594.447 310.735 595.588 311.914" transform="matrix(2.0839896202087402, -0.7175752520561218, 0.7175752520561218, 2.0839896202087402, -1345.155029296875, -58.79876708984375)"/><path style="stroke: rgba(0, 0, 0, 0); fill: rgb(85, 85, 85);" d="M 598.137 314.285 C 598.768 314.923 598.988 316.625 599.189 317.85 C 599.524 319.894 598.998 322.381 597.899 323.955 C 597.33 324.768 597.863 325.694 598.573 325.179 C 599.147 324.764 600.088 323.376 600.326 322.494 C 601.033 319.874 600.917 316.242 600.104 313.697 C 599.8 312.746 599.274 311.797 598.693 311.254 C 598.104 310.702 597.341 309.674 596.752 310.227 C 595.963 310.965 596.615 311.949 597.333 312.917" transform="matrix(2.0839896202087402, -0.7175752520561218, 0.7175752520561218, 2.0839896202087402, -1345.0074462890625, -58.08305358886719)"/><path style="stroke: rgba(0, 0, 0, 0);" d="M 629.728 266.131 C 616.63 266.131 618.208 295.519 633.662 293.711 C 646.265 292.236 652.726 270.31 637.627 266.778 C 634.93 266.145 632.041 265.643 629.508 266.177" transform="matrix(2.0839896202087402, -0.7175752520561218, 0.7175752520561218, 2.0839896202087402, -1313.65576171875, -37.47688293457031)"/><path style="stroke: rgba(0, 0, 0, 0); fill: rgb(33, 31, 43);" d="M 631.88 272.484 C 624.247 272.484 625.169 288.278 634.174 287.306 C 641.515 286.512 645.281 274.732 636.483 272.833 C 634.91 272.493 633.228 272.223 631.753 272.51" transform="matrix(2.0839896202087402, -0.7175752520561218, 0.7175752520561218, 2.0839896202087402, -1313.591552734375, -37.10382080078125)"/><path style="stroke: rgba(0, 0, 0, 0); fill: rgb(36, 36, 36);" d="M 626.607 285.916 C 625.565 282.908 626.164 279.594 626.812 276.595 C 627.024 275.623 626.771 273.345 625.468 273.845 C 624.106 274.37 623.604 277.206 623.401 278.626 C 622.692 283.547 624.208 288.817 627.714 292.192 C 628.917 293.352 631.213 294.897 630.638 292.247 C 630.267 290.52 628.461 289.11 627.416 287.902" transform="matrix(2.0839896202087402, -0.7175752520561218, 0.7175752520561218, 2.0839896202087402, -1317.231689453125, -41.790435791015625)"/><path style="stroke: rgba(0, 0, 0, 0); fill: rgb(46, 46, 46);" d="M 638.864 271.579 C 639.867 272.356 640.217 274.429 640.535 275.92 C 641.068 278.409 640.235 281.439 638.487 283.356 C 637.585 284.345 638.43 285.473 639.557 284.847 C 640.47 284.341 641.968 282.65 642.344 281.577 C 643.467 278.384 643.282 273.962 641.992 270.863 C 641.509 269.705 640.671 268.55 639.748 267.887 C 638.812 267.215 637.6 265.964 636.664 266.637 C 635.411 267.536 636.447 268.735 637.588 269.914" transform="matrix(2.0839896202087402, -0.7175752520561218, 0.7175752520561218, 2.0839896202087402, -1309.9736328125, -33.70405578613281)"/><path style="stroke: rgba(0, 0, 0, 0); fill: rgb(85, 85, 85);" d="M 640.137 272.285 C 640.768 272.923 640.988 274.625 641.189 275.85 C 641.524 277.894 640.998 280.381 639.899 281.955 C 639.33 282.768 639.863 283.694 640.573 283.179 C 641.147 282.764 642.088 281.376 642.326 280.494 C 643.033 277.874 642.917 274.242 642.104 271.697 C 641.8 270.746 641.274 269.797 640.693 269.254 C 640.104 268.702 639.341 267.674 638.752 268.227 C 637.963 268.965 638.615 269.949 639.333 270.917" transform="matrix(2.0839896202087402, -0.7175752520561218, 0.7175752520561218, 2.0839896202087402, -1309.8260498046875, -32.98829650878906)"/></svg>