<?xml version="1.0" encoding="utf-8"?>
<svg id="master-artboard" viewBox="0 0 389.4794006347656 373.6876220703125" version="1.1" xmlns="http://www.w3.org/2000/svg" x="0px" y="0px" style="enable-background:new 0 0 1400 980;" width="389.4794006347656px" height="373.6876220703125px"><defs><style id="ee-google-fonts">@import url(https://fonts.googleapis.com/css?family=Fjalla+One:400|Roboto:100,100italic,300,300italic,400,400italic,500,500italic,700,700italic,900,900italic);</style><style id="style-1">@import url(https://fonts.googleapis.com/css?family=Anton:400|Roboto+Slab:100,300,400,700);</style><path id="text-path-0" d="M 778.8464965820312 213.4612274169922 A 100 18 0 0 1 988.3533935546875 213.4612274169922 A 100 18 0 0 1 778.8464965820312 213.4612274169922 Z" style="fill: none; stroke: red; stroke-width: 2;"/><path id="text-path-1" d="M 664.5464477539062 37.96122741699219 A 100 19 0 0 1 876.5812377929688 37.96122741699219 A 100 19 0 0 1 664.5464477539062 37.96122741699219" style="fill: none; stroke: red; stroke-width: 2;"/><path id="text-path-2" d="M 765.3650512695312 211.70851135253906 A 100 17 0 0 1 991.5017700195312 211.70851135253906 A 100 17 0 0 1 765.3650512695312 211.70851135253906" style="fill: none; stroke: red; stroke-width: 2;"/><path id="path-1" d="M 765.3650512695312 211.70851135253906 A 100 17 0 0 1 991.5017700195312 211.70851135253906 A 100 17 0 0 1 765.3650512695312 211.70851135253906" style="fill: none; stroke: red; stroke-width: 2;"/><path id="path-2" d="M 778.8464965820312 213.4612274169922 A 100 18 0 0 1 988.3533935546875 213.4612274169922 A 100 18 0 0 1 778.8464965820312 213.4612274169922 Z" style="fill: none; stroke: red; stroke-width: 2;"/><path id="path-3" d="M 664.5464477539062 37.96122741699219 A 100 19 0 0 1 876.5812377929688 37.96122741699219 A 100 19 0 0 1 664.5464477539062 37.96122741699219" style="fill: none; stroke: red; stroke-width: 2;"/><path id="path-4" d="M 765.3650512695312 211.70851135253906 A 100 17 0 0 1 991.5017700195312 211.70851135253906 A 100 17 0 0 1 765.3650512695312 211.70851135253906" style="fill: none; stroke: red; stroke-width: 2;"/><path id="path-5" d="M 765.3650512695312 211.70851135253906 A 100 17 0 0 1 991.5017700195312 211.70851135253906 A 100 17 0 0 1 765.3650512695312 211.70851135253906" style="fill: none; stroke: red; stroke-width: 2;"/><path id="path-6" d="M 778.8464965820312 213.4612274169922 A 100 18 0 0 1 988.3533935546875 213.4612274169922 A 100 18 0 0 1 778.8464965820312 213.4612274169922 Z" style="fill: none; stroke: red; stroke-width: 2;"/><path id="path-7" d="M 664.5464477539062 37.96122741699219 A 100 19 0 0 1 876.5812377929688 37.96122741699219 A 100 19 0 0 1 664.5464477539062 37.96122741699219" style="fill: none; stroke: red; stroke-width: 2;"/><path id="path-8" d="M 765.3650512695312 211.70851135253906 A 100 17 0 0 1 991.5017700195312 211.70851135253906 A 100 17 0 0 1 765.3650512695312 211.70851135253906" style="fill: none; stroke: red; stroke-width: 2;"/><path id="path-9" d="M 765.3650512695312 211.70851135253906 A 100 17 0 0 1 991.5017700195312 211.70851135253906 A 100 17 0 0 1 765.3650512695312 211.70851135253906" style="fill: none; stroke: red; stroke-width: 2;"/><path id="path-10" d="M 778.8464965820312 213.4612274169922 A 100 18 0 0 1 988.3533935546875 213.4612274169922 A 100 18 0 0 1 778.8464965820312 213.4612274169922 Z" style="fill: none; stroke: red; stroke-width: 2;"/><path id="path-11" d="M 664.5464477539062 37.96122741699219 A 100 19 0 0 1 876.5812377929688 37.96122741699219 A 100 19 0 0 1 664.5464477539062 37.96122741699219" style="fill: none; stroke: red; stroke-width: 2;"/><path id="path-12" d="M 765.3650512695312 211.70851135253906 A 100 17 0 0 1 991.5017700195312 211.70851135253906 A 100 17 0 0 1 765.3650512695312 211.70851135253906" style="fill: none; stroke: red; stroke-width: 2;"/><path id="path-13" d="M 765.3650512695312 211.70851135253906 A 100 17 0 0 1 991.5017700195312 211.70851135253906 A 100 17 0 0 1 765.3650512695312 211.70851135253906" style="fill: none; stroke: red; stroke-width: 2;"/><path id="path-14" d="M 778.8464965820312 213.4612274169922 A 100 18 0 0 1 988.3533935546875 213.4612274169922 A 100 18 0 0 1 778.8464965820312 213.4612274169922 Z" style="fill: none; stroke: red; stroke-width: 2;"/><path id="path-15" d="M 664.5464477539062 37.96122741699219 A 100 19 0 0 1 876.5812377929688 37.96122741699219 A 100 19 0 0 1 664.5464477539062 37.96122741699219" style="fill: none; stroke: red; stroke-width: 2;"/><path id="path-16" d="M 765.3650512695312 211.70851135253906 A 100 17 0 0 1 991.5017700195312 211.70851135253906 A 100 17 0 0 1 765.3650512695312 211.70851135253906" style="fill: none; stroke: red; stroke-width: 2;"/><path id="path-17" d="M 765.3650512695312 211.70851135253906 A 100 17 0 0 1 991.5017700195312 211.70851135253906 A 100 17 0 0 1 765.3650512695312 211.70851135253906" style="fill: none; stroke: red; stroke-width: 2;"/><path id="path-18" d="M 778.8464965820312 213.4612274169922 A 100 18 0 0 1 988.3533935546875 213.4612274169922 A 100 18 0 0 1 778.8464965820312 213.4612274169922 Z" style="fill: none; stroke: red; stroke-width: 2;"/><path id="path-19" d="M 664.5464477539062 37.96122741699219 A 100 19 0 0 1 876.5812377929688 37.96122741699219 A 100 19 0 0 1 664.5464477539062 37.96122741699219" style="fill: none; stroke: red; stroke-width: 2;"/><path id="path-20" d="M 765.3650512695312 211.70851135253906 A 100 17 0 0 1 991.5017700195312 211.70851135253906 A 100 17 0 0 1 765.3650512695312 211.70851135253906" style="fill: none; stroke: red; stroke-width: 2;"/><path id="path-21" d="M 765.3650512695312 211.70851135253906 A 100 17 0 0 1 991.5017700195312 211.70851135253906 A 100 17 0 0 1 765.3650512695312 211.70851135253906" style="fill: none; stroke: red; stroke-width: 2;"/></defs>











































<g transform="matrix(1, 0, 0, 1, -426.03710412979126, -240.9805908203125)">
		<path class="st13" d="M448.4,599.9" style="fill: rgb(223, 243, 251);"/>
	</g>





















































<g transform="matrix(1.1243727207183838, 0, 0, 1.1243727207183838, -367.69726192959706, -338.99803416391325)"><rect id="ee-background" x="0" y="0" width="1400" height="980" style="fill: none; fill-opacity: 1; pointer-events: none;"/><path style="fill: rgb(63, 61, 61); fill-opacity: 1; stroke: rgb(0, 0, 0); stroke-opacity: 1; stroke-width: 0; paint-order: fill;"/><path style="fill: rgb(63, 61, 61); fill-opacity: 1; stroke: rgb(0, 0, 0); stroke-opacity: 1; stroke-width: 0; paint-order: fill;"/><path d="M 880.3870239257812 239.90606689453125" style="fill: rgb(63, 61, 61); fill-opacity: 1; stroke: rgb(0, 0, 0); stroke-opacity: 1; stroke-width: 0; paint-order: fill;"/><path d="M 864.144775390625 229.48651123046875" style="fill: rgb(63, 61, 61); fill-opacity: 1; stroke: rgb(0, 0, 0); stroke-opacity: 1; stroke-width: 0; paint-order: fill;"/><path style="fill: rgb(63, 61, 61); fill-opacity: 1; stroke: rgb(0, 0, 0); stroke-opacity: 1; stroke-width: 0; paint-order: fill;"/><path style="fill: rgb(63, 61, 61); fill-opacity: 1; stroke: rgb(0, 0, 0); stroke-opacity: 1; stroke-width: 0; paint-order: fill;"/><path style="fill: rgb(63, 61, 61); fill-opacity: 1; stroke: rgb(0, 0, 0); stroke-opacity: 1; stroke-width: 0; paint-order: fill;"/><path style="fill: rgb(63, 61, 61); fill-opacity: 1; stroke: rgb(0, 0, 0); stroke-opacity: 1; stroke-width: 0; paint-order: fill;"/><path style="stroke: rgba(0, 0, 0, 0); fill: rgb(255, 100, 170);" d="M 198.546 264.984 C 191.502 263.893 185.171 269.436 180.782 274.759 C 170.816 286.842 163.955 313.776 182.533 321.455 C 185.261 322.581 188.638 323.084 191.539 323.084 C 205.983 323.084 220.563 311.084 223.317 295.392 C 226.79 275.607 208.448 259.791 191.539 266.344" transform="matrix(1, 0, 0, 1, 208.05672908951215, 238.9408164488628)"/><path style="stroke: rgba(0, 0, 0, 0); fill: rgb(255, 217, 230);" d="M 198.678 266.761 C 192.123 265.722 186.233 270.986 182.148 276.041 C 172.875 287.512 166.491 313.087 183.777 320.378 C 186.317 321.448 189.458 321.924 192.158 321.924 C 205.598 321.924 219.166 310.53 221.73 295.629 C 224.961 276.845 207.893 261.829 192.158 268.05" transform="matrix(1, 0, 0, 1, 208.05672908951215, 238.9408164488628)"/><path style="stroke: rgba(0, 0, 0, 0); fill: rgb(255, 100, 170);" d="M 198.821 268.464 C 192.757 267.516 187.307 272.334 183.524 276.964 C 174.945 287.47 169.037 310.888 185.034 317.566 C 187.383 318.546 190.289 318.981 192.79 318.981 C 205.226 318.981 217.781 308.547 220.152 294.904 C 223.141 277.701 207.349 263.949 192.79 269.645" transform="matrix(1, 0, 0, 1, 208.05672908951215, 238.9408164488628)"/><path style="stroke: rgba(0, 0, 0, 0); fill: rgb(255, 217, 230);" d="M 198.795 269.197 C 192.883 268.276 187.568 272.955 183.885 277.448 C 175.52 287.652 169.761 310.389 185.355 316.871 C 187.644 317.823 190.477 318.247 192.914 318.247 C 205.038 318.247 217.275 308.115 219.587 294.867 C 222.501 278.165 207.106 264.813 192.914 270.342" transform="matrix(1, 0, 0, 1, 208.05672908951215, 238.9408164488628)"/><path style="stroke: rgba(0, 0, 0, 0); fill: rgb(255, 100, 170);" d="M 198.823 270.905 C 193.401 270.047 188.527 274.399 185.148 278.58 C 177.475 288.07 172.192 309.221 186.496 315.252 C 188.596 316.137 191.195 316.53 193.431 316.53 C 204.549 316.53 215.774 307.106 217.897 294.784 C 220.568 279.247 206.446 266.826 193.431 271.97" transform="matrix(1, 0, 0, 1, 208.05672908951215, 238.9408164488628)"/><path style="stroke: rgba(0, 0, 0, 0); fill: rgb(255, 217, 230);" d="M 198.9 271.393 C 193.692 270.553 189.011 274.812 185.766 278.902 C 178.396 288.188 173.321 308.886 187.059 314.789 C 189.077 315.654 191.573 316.038 193.719 316.038 C 204.401 316.038 215.181 306.818 217.22 294.76 C 219.786 279.554 206.223 267.4 193.719 272.437" transform="matrix(1, 0, 0, 1, 208.05672908951215, 238.9408164488628)"/><path style="stroke: rgba(0, 0, 0, 0); fill: rgb(255, 100, 170);" d="M 198.814 272.98 C 194.095 272.199 189.851 276.156 186.913 279.953 C 180.236 288.58 175.638 307.803 188.085 313.283 C 189.914 314.088 192.175 314.446 194.12 314.446 C 203.799 314.446 213.565 305.88 215.413 294.682 C 217.738 280.56 205.449 269.271 194.12 273.949" transform="matrix(1, 0, 0, 1, 208.05672908951215, 238.9408164488628)"/><path style="stroke: rgba(0, 0, 0, 0); fill: rgb(255, 217, 230);" d="M 188.904 279.169 C 194.629 272.259 209.224 272.233 212.337 283.499 C 212.665 284.69 212.703 286.764 212.485 287.83 C 210.889 295.527 204.834 291.531 200.335 292.887 C 198.992 293.294 197.469 294.007 196.335 295.035 C 193.554 297.553 188.356 303.97 184.36 303.006 C 177.539 301.358 185.47 283.249 188.632 279.432" transform="matrix(1, 0, 0, 1, 208.05672908951215, 238.9408164488628)"/><path style="stroke: rgba(0, 0, 0, 0); fill: rgb(255, 217, 230);" d="M 190.641 313.186 C 188.96 313.273 183.638 309.025 183.691 308.088 C 183.928 303.96 187.813 304.977 189.234 303.459 C 190.139 302.494 197.418 296.238 198.297 295.3 C 199.951 293.533 208.538 293.044 211.26 294.497 C 214.995 296.493 211.131 306.119 206.26 308.719 C 202.687 310.629 198.932 313.167 193.028 313.581" transform="matrix(1, 0, 0, 1, 208.05672908951215, 238.9408164488628)"/><path style="stroke: rgba(0, 0, 0, 0); fill: rgb(255, 217, 230);" d="M 600.512 446.974 C 604.638 443.142 615.154 443.124 617.396 449.376 C 617.63 450.035 617.658 451.186 617.5 451.778 C 616.351 456.047 611.99 453.83 608.749 454.581 C 607.78 454.808 606.683 455.203 605.866 455.775 C 603.862 457.171 600.119 460.729 597.241 460.192 C 592.325 459.281 598.04 449.236 600.317 447.121" transform="matrix(1, 0, 0, 1, -200.56322120498237, 73.81638865345258)"/><path style="stroke: rgba(0, 0, 0, 0); fill: rgb(255, 217, 230);" d="M 189.846 279.797 C 195.121 273.889 208.573 273.865 211.441 283.501 C 211.743 284.517 211.777 286.292 211.574 287.204 C 210.105 293.786 204.528 290.368 200.383 291.529 C 199.143 291.875 197.739 292.485 196.693 293.367 C 194.132 295.519 189.343 301.008 185.66 300.181 C 179.374 298.774 186.684 283.287 189.596 280.023" transform="matrix(1, 0, 0, 1, 208.05672908951215, 238.9408164488628)"/><path style="stroke: rgba(0, 0, 0, 0); fill: rgb(255, 100, 170);" d="M 190.254 280.475 C 195.314 275.092 208.213 275.07 210.966 283.851 C 211.255 284.777 211.288 286.391 211.093 287.222 C 209.685 293.219 204.334 290.105 200.358 291.163 C 199.171 291.479 197.825 292.035 196.821 292.837 C 194.365 294.8 189.771 299.799 186.241 299.045 C 180.21 297.762 187.222 283.654 190.015 280.68" transform="matrix(1, 0, 0, 1, 208.05672908951215, 238.9408164488628)"/><path style="stroke: rgba(0, 0, 0, 0); fill: rgb(255, 217, 230);" d="M 190.565 280.873 C 195.41 275.894 207.758 275.871 210.392 283.999 C 210.67 284.857 210.701 286.351 210.514 287.121 C 209.166 292.673 204.045 289.79 200.238 290.768 C 199.102 291.061 197.813 291.575 196.852 292.318 C 194.5 294.133 190.103 298.762 186.721 298.063 C 180.949 296.876 187.662 283.817 190.336 281.066" transform="matrix(1, 0, 0, 1, 208.05672908951215, 238.9408164488628)"/><path style="stroke: rgba(0, 0, 0, 0); fill: rgb(255, 100, 170);" d="M 191.386 281.431 C 195.728 277.15 206.794 277.133 209.154 284.116 C 209.4 284.855 209.431 286.141 209.263 286.799 C 208.054 291.572 203.466 289.096 200.055 289.935 C 199.037 290.187 197.882 290.628 197.021 291.267 C 194.913 292.828 190.974 296.806 187.944 296.204 C 182.771 295.185 188.786 283.961 191.182 281.596" transform="matrix(1, 0, 0, 1, 208.05672908951215, 238.9408164488628)"/><path style="stroke: rgba(0, 0, 0, 0); fill: rgb(255, 100, 170);" d="M 192.381 282.387 C 196.201 279.13 205.938 279.118 208.013 284.431 C 208.231 284.99 208.257 285.97 208.109 286.471 C 207.046 290.097 203.009 288.216 200.008 288.855 C 199.111 289.047 198.096 289.384 197.338 289.869 C 195.482 291.055 192.016 294.08 189.351 293.624 C 184.8 292.847 190.092 284.313 192.201 282.513" transform="matrix(1, 0, 0, 1, 208.05672908951215, 238.9408164488628)"/><path style="stroke: rgba(0, 0, 0, 0); fill: rgb(255, 217, 230);" d="M 193.217 282.58 C 196.658 279.724 205.432 279.712 207.302 284.373 C 207.5 284.863 207.523 285.721 207.389 286.162 C 206.432 289.345 202.792 287.69 200.089 288.251 C 199.281 288.421 198.365 288.716 197.682 289.141 C 196.011 290.182 192.887 292.835 190.486 292.435 C 186.386 291.754 191.155 284.268 193.054 282.689" transform="matrix(1, 0, 0, 1, 208.05672908951215, 238.9408164488628)"/><path style="stroke: rgba(255, 100, 170, 0); fill: rgb(255, 100, 170); stroke-width: 5.46379; vector-effect: non-scaling-stroke;" d="M 191.423 312.661 C 189.905 312.742 185.098 308.827 185.148 307.962 C 185.361 304.155 188.868 305.096 190.152 303.695 C 190.968 302.804 197.543 297.039 198.336 296.172 C 199.83 294.545 207.583 294.094 210.042 295.434 C 213.413 297.272 209.925 306.147 205.527 308.545 C 202.301 310.303 198.91 312.644 193.578 313.026" transform="matrix(1, 0, 0, 1, 208.05672908951215, 238.9408164488628)"/><path style="stroke: rgba(255, 100, 170, 0); stroke-width: 5.46379; vector-effect: non-scaling-stroke; fill: rgb(255, 217, 230);" d="M 191.702 312.415 C 190.246 312.496 185.635 308.756 185.682 307.93 C 185.886 304.295 189.252 305.192 190.483 303.858 C 191.268 303.007 197.572 297.501 198.333 296.675 C 199.765 295.12 207.204 294.692 209.562 295.971 C 212.796 297.725 209.45 306.199 205.231 308.488 C 202.136 310.167 198.885 312.403 193.769 312.765" transform="matrix(1, 0, 0, 1, 208.05672908951215, 238.9408164488628)"/><path style="stroke: rgba(255, 100, 170, 0); stroke-width: 5.46379; vector-effect: non-scaling-stroke; fill: rgb(255, 100, 170);" d="M 192.208 311.826 C 190.852 311.897 186.56 308.512 186.605 307.765 C 186.795 304.475 189.928 305.286 191.073 304.077 C 191.802 303.308 197.667 298.324 198.377 297.575 C 199.709 296.168 206.63 295.78 208.826 296.934 C 211.836 298.525 208.722 306.198 204.796 308.27 C 201.915 309.79 198.889 311.814 194.13 312.143" transform="matrix(1, 0, 0, 1, 208.05672908951215, 238.9408164488628)"/><path style="stroke: rgba(255, 100, 170, 0); stroke-width: 5.46379; vector-effect: non-scaling-stroke; fill: rgb(255, 217, 230);" d="M 192.391 311.331 C 191.109 311.399 187.051 308.278 187.093 307.592 C 187.272 304.556 190.233 305.306 191.317 304.191 C 192.008 303.483 197.558 298.888 198.228 298.199 C 199.487 296.901 206.037 296.543 208.111 297.609 C 210.958 299.074 208.015 306.146 204.299 308.055 C 201.576 309.456 198.713 311.321 194.21 311.625" transform="matrix(1, 0, 0, 1, 208.05672908951215, 238.9408164488628)"/><path style="stroke: rgba(255, 100, 170, 0); stroke-width: 5.46379; vector-effect: non-scaling-stroke; fill: rgb(255, 100, 170);" d="M 192.7 310.649 C 191.521 310.705 187.782 308.049 187.821 307.463 C 187.984 304.884 190.715 305.521 191.712 304.573 C 192.349 303.968 197.459 300.059 198.078 299.471 C 199.238 298.368 205.27 298.063 207.181 298.97 C 209.803 300.216 207.09 306.233 203.67 307.858 C 201.162 309.05 198.522 310.638 194.377 310.897" transform="matrix(1, 0, 0, 1, 208.05672908951215, 238.9408164488628)"/><path style="stroke: rgba(255, 100, 170, 0); stroke-width: 5.46379; vector-effect: non-scaling-stroke; fill: rgb(255, 100, 170);" d="M 193.59 309.658 C 192.619 309.703 189.539 307.555 189.571 307.084 C 189.707 304.998 191.955 305.512 192.777 304.747 C 193.301 304.257 197.511 301.095 198.02 300.623 C 198.976 299.73 203.944 299.484 205.519 300.217 C 207.678 301.226 205.445 306.089 202.627 307.402 C 200.56 308.367 198.386 309.651 194.971 309.858" transform="matrix(1, 0, 0, 1, 208.05672908951215, 238.9408164488628)"/><path style="stroke: rgba(255, 100, 170, 0); stroke-width: 5.46379; vector-effect: non-scaling-stroke; fill: rgb(255, 217, 230);" d="M 193.796 309.267 C 192.879 309.306 189.977 307.426 190.008 307.013 C 190.136 305.183 192.255 305.633 193.029 304.963 C 193.521 304.536 197.49 301.764 197.969 301.348 C 198.871 300.569 203.551 300.352 205.034 300.995 C 207.07 301.877 204.964 306.141 202.309 307.29 C 200.363 308.136 198.314 309.261 195.096 309.442" transform="matrix(1, 0, 0, 1, 208.05672908951215, 238.9408164488628)"/><path style="stroke: rgba(0, 0, 0, 0); fill: rgb(255, 100, 170);" d="M 258.748 98.682 C 252.304 97.855 246.512 102.059 242.496 106.098 C 233.379 115.264 227.1 135.698 244.098 141.524 C 246.595 142.378 249.684 142.761 252.339 142.761 C 265.554 142.761 278.893 133.657 281.414 121.751 C 284.591 106.742 267.808 94.742 252.339 99.714" transform="matrix(1, 0, 0, 1, 208.05672908951215, 238.9408164488628)"/><path style="stroke: rgba(0, 0, 0, 0); fill: rgb(255, 217, 230);" d="M 258.871 100.03 C 252.872 99.242 247.484 103.234 243.745 107.071 C 235.261 115.773 229.422 135.176 245.238 140.707 C 247.561 141.519 250.435 141.879 252.905 141.879 C 265.201 141.879 277.615 133.236 279.961 121.93 C 282.917 107.679 267.302 96.288 252.905 101.008" transform="matrix(1, 0, 0, 1, 208.05672908951215, 238.9408164488628)"/><path style="stroke: rgba(0, 0, 0, 0); fill: rgb(255, 100, 170);" d="M 259.002 101.321 C 253.452 100.602 248.466 104.257 245.005 107.77 C 237.156 115.741 231.75 133.508 246.386 138.574 C 248.536 139.318 251.195 139.647 253.483 139.647 C 264.86 139.647 276.348 131.732 278.517 121.38 C 281.252 108.329 266.803 97.896 253.483 102.218" transform="matrix(1, 0, 0, 1, 208.05672908951215, 238.9408164488628)"/><path style="stroke: rgba(0, 0, 0, 0); fill: rgb(255, 217, 230);" d="M 258.978 101.877 C 253.569 101.179 248.705 104.73 245.336 108.137 C 237.682 115.879 232.413 133.13 246.681 138.047 C 248.775 138.769 251.367 139.09 253.596 139.09 C 264.688 139.09 275.885 131.404 278.001 121.353 C 280.666 108.682 266.58 98.552 253.596 102.747" transform="matrix(1, 0, 0, 1, 208.05672908951215, 238.9408164488628)"/><path style="stroke: rgba(0, 0, 0, 0); fill: rgb(255, 100, 170);" d="M 259.003 103.174 C 254.043 102.522 249.583 105.825 246.491 108.997 C 239.471 116.197 234.637 132.243 247.724 136.818 C 249.646 137.49 252.025 137.787 254.069 137.787 C 264.243 137.787 274.512 130.639 276.455 121.289 C 278.898 109.503 265.977 100.08 254.069 103.982" transform="matrix(1, 0, 0, 1, 208.05672908951215, 238.9408164488628)"/><path style="stroke: rgba(0, 0, 0, 0); fill: rgb(255, 217, 230);" d="M 259.072 103.544 C 254.308 102.906 250.025 106.138 247.057 109.241 C 240.314 116.286 235.669 131.989 248.24 136.468 C 250.086 137.123 252.37 137.414 254.334 137.414 C 264.107 137.414 273.97 130.419 275.834 121.272 C 278.182 109.735 265.772 100.515 254.334 104.337" transform="matrix(1, 0, 0, 1, 208.05672908951215, 238.9408164488628)"/><path style="stroke: rgba(0, 0, 0, 0); fill: rgb(255, 100, 170);" d="M 258.994 104.748 C 254.678 104.155 250.793 107.157 248.106 110.037 C 241.997 116.584 237.791 131.168 249.178 135.325 C 250.851 135.936 252.921 136.207 254.7 136.207 C 263.555 136.207 272.491 129.709 274.181 121.213 C 276.309 110.499 265.066 101.935 254.7 105.483" transform="matrix(1, 0, 0, 1, 208.05672908951215, 238.9408164488628)"/><path style="stroke: rgba(0, 0, 0, 0); fill: rgb(255, 217, 230);" d="M 249.927 109.444 C 255.165 104.201 268.518 104.181 271.367 112.729 C 271.668 113.632 271.701 115.206 271.503 116.014 C 270.042 121.853 264.504 118.822 260.385 119.851 C 259.158 120.16 257.763 120.7 256.727 121.48 C 254.183 123.392 249.426 128.26 245.77 127.527 C 239.529 126.278 246.785 112.538 249.678 109.643" transform="matrix(1, 0, 0, 1, 208.05672908951215, 238.9408164488628)"/><path style="stroke: rgba(0, 0, 0, 0); fill: rgb(255, 217, 230);" d="M 251.517 135.252 C 249.979 135.317 245.11 132.094 245.158 131.382 C 245.375 128.252 248.93 129.023 250.231 127.872 C 251.057 127.139 257.717 122.393 258.521 121.681 C 260.035 120.341 267.891 119.969 270.382 121.073 C 273.799 122.586 270.264 129.889 265.806 131.863 C 262.537 133.311 259.103 135.237 253.7 135.551" transform="matrix(1, 0, 0, 1, 208.05672908951215, 238.9408164488628)"/><path style="stroke: rgba(0, 0, 0, 0); fill: rgb(255, 100, 170);" d="M 250.556 109.575 C 255.513 104.791 268.157 104.771 270.852 112.578 C 271.135 113.402 271.171 114.838 270.977 115.577 C 269.598 120.909 264.351 118.14 260.458 119.081 C 259.294 119.362 257.975 119.854 256.991 120.567 C 254.582 122.312 250.08 126.759 246.622 126.089 C 240.715 124.949 247.584 112.404 250.321 109.76" transform="matrix(1, 0, 0, 1, 208.05672908951215, 238.9408164488628)"/><path style="stroke: rgba(0, 0, 0, 0); fill: rgb(255, 217, 230);" d="M 250.789 109.919 C 255.617 105.438 267.924 105.42 270.546 112.73 C 270.824 113.501 270.855 114.848 270.669 115.538 C 269.325 120.533 264.222 117.939 260.43 118.821 C 259.295 119.083 258.011 119.546 257.054 120.215 C 254.71 121.847 250.328 126.012 246.959 125.385 C 241.209 124.317 247.896 112.568 250.562 110.091" transform="matrix(1, 0, 0, 1, 208.05672908951215, 238.9408164488628)"/><path style="stroke: rgba(0, 0, 0, 0); fill: rgb(255, 100, 170);" d="M 251.163 110.434 C 255.791 106.35 267.594 106.334 270.114 112.996 C 270.377 113.698 270.407 114.922 270.229 115.552 C 268.941 120.103 264.044 117.74 260.407 118.544 C 259.321 118.782 258.09 119.204 257.17 119.812 C 254.923 121.302 250.722 125.095 247.491 124.523 C 241.974 123.548 248.389 112.846 250.945 110.59" transform="matrix(1, 0, 0, 1, 208.05672908951215, 238.9408164488628)"/><path style="stroke: rgba(0, 0, 0, 0); fill: rgb(255, 217, 230);" d="M 251.448 110.737 C 255.88 106.958 267.177 106.941 269.586 113.108 C 269.841 113.758 269.871 114.892 269.699 115.477 C 268.466 119.689 263.78 117.501 260.298 118.244 C 259.258 118.466 258.078 118.856 257.199 119.419 C 255.047 120.797 251.025 124.309 247.929 123.778 C 242.649 122.877 248.791 112.97 251.237 110.883" transform="matrix(1, 0, 0, 1, 208.05672908951215, 238.9408164488628)"/><path style="stroke: rgba(0, 0, 0, 0); fill: rgb(255, 100, 170);" d="M 252.198 111.16 C 256.171 107.911 266.296 107.9 268.456 113.198 C 268.68 113.757 268.708 114.734 268.554 115.232 C 267.449 118.852 263.252 116.974 260.13 117.612 C 259.199 117.803 258.142 118.138 257.354 118.621 C 255.426 119.805 251.82 122.824 249.049 122.367 C 244.317 121.594 249.819 113.079 252.011 111.285" transform="matrix(1, 0, 0, 1, 208.05672908951215, 238.9408164488628)"/><path style="stroke: rgba(0, 0, 0, 0); fill: rgb(255, 217, 230);" d="M 252.661 111.478 C 256.435 108.57 266.058 108.556 268.11 113.3 C 268.324 113.8 268.348 114.673 268.205 115.122 C 267.154 118.361 263.163 116.679 260.199 117.249 C 259.311 117.421 258.307 117.721 257.56 118.154 C 255.726 119.214 252.301 121.913 249.669 121.506 C 245.171 120.815 250.399 113.193 252.483 111.59" transform="matrix(1, 0, 0, 1, 208.05672908951215, 238.9408164488628)"/><path style="stroke: rgba(0, 0, 0, 0); fill: rgb(255, 100, 170);" d="M 253.109 111.885 C 256.603 109.414 265.512 109.405 267.41 113.436 C 267.61 113.86 267.634 114.603 267.499 114.983 C 266.526 117.734 262.832 116.306 260.086 116.792 C 259.266 116.938 258.337 117.193 257.644 117.561 C 255.946 118.46 252.775 120.755 250.337 120.41 C 246.172 119.82 251.015 113.345 252.944 111.98" transform="matrix(1, 0, 0, 1, 208.05672908951215, 238.9408164488628)"/><path style="stroke: rgba(0, 0, 0, 0); fill: rgb(255, 217, 230);" d="M 253.874 112.032 C 257.023 109.865 265.05 109.855 266.761 113.391 C 266.941 113.764 266.962 114.414 266.839 114.749 C 265.964 117.164 262.633 115.908 260.162 116.334 C 259.422 116.463 258.584 116.686 257.959 117.009 C 256.43 117.799 253.572 119.812 251.375 119.507 C 247.623 118.991 251.988 113.312 253.724 112.114" transform="matrix(1, 0, 0, 1, 208.05672908951215, 238.9408164488628)"/><path style="stroke: rgba(255, 100, 170, 0); fill: rgb(255, 100, 170); stroke-width: 5.46379; vector-effect: non-scaling-stroke;" d="M 252.231 134.853 C 250.843 134.915 246.444 131.945 246.491 131.288 C 246.686 128.4 249.894 129.114 251.07 128.051 C 251.816 127.374 257.832 123.001 258.556 122.343 C 259.924 121.109 267.017 120.766 269.267 121.784 C 272.352 123.179 269.159 129.911 265.137 131.731 C 262.185 133.063 259.083 134.84 254.203 135.13" transform="matrix(1, 0, 0, 1, 208.05672908951215, 238.9408164488628)"/><path style="stroke: rgba(255, 100, 170, 0); stroke-width: 5.46379; vector-effect: non-scaling-stroke; fill: rgb(255, 217, 230);" d="M 252.488 134.666 C 251.156 134.727 246.937 131.891 246.979 131.263 C 247.168 128.505 250.246 129.186 251.373 128.173 C 252.09 127.528 257.858 123.352 258.555 122.724 C 259.865 121.545 266.67 121.221 268.828 122.191 C 271.787 123.522 268.725 129.95 264.865 131.687 C 262.033 132.96 259.059 134.657 254.378 134.932" transform="matrix(1, 0, 0, 1, 208.05672908951215, 238.9408164488628)"/><path style="stroke: rgba(255, 100, 170, 0); stroke-width: 5.46379; vector-effect: non-scaling-stroke; fill: rgb(255, 217, 230);" d="M 253.118 133.843 C 251.946 133.896 248.231 131.528 248.27 131.008 C 248.433 128.704 251.142 129.273 252.135 128.426 C 252.766 127.889 257.845 124.404 258.459 123.881 C 259.61 122.895 265.602 122.624 267.501 123.433 C 270.105 124.545 267.413 129.91 264.012 131.359 C 261.522 132.421 258.901 133.837 254.781 134.067" transform="matrix(1, 0, 0, 1, 208.05672908951215, 238.9408164488628)"/><path style="stroke: rgba(255, 100, 170, 0); stroke-width: 5.46379; vector-effect: non-scaling-stroke; fill: rgb(255, 100, 170);" d="M 253.4 133.326 C 252.322 133.369 248.9 131.354 248.936 130.909 C 249.086 128.952 251.584 129.436 252.497 128.716 C 253.08 128.256 257.756 125.292 258.32 124.846 C 259.383 124.009 264.901 123.778 266.65 124.466 C 269.048 125.41 266.567 129.977 263.436 131.208 C 261.143 132.114 258.728 133.319 254.935 133.514" transform="matrix(1, 0, 0, 1, 208.05672908951215, 238.9408164488628)"/><path style="stroke: rgba(255, 100, 170, 0); stroke-width: 5.46379; vector-effect: non-scaling-stroke; fill: rgb(255, 217, 230);" d="M 253.768 132.989 C 252.752 133.026 249.525 131.197 249.56 130.794 C 249.702 129.015 252.056 129.453 252.916 128.802 C 253.466 128.384 257.873 125.689 258.406 125.286 C 259.407 124.525 264.611 124.315 266.261 124.942 C 268.521 125.799 266.183 129.946 263.23 131.067 C 261.067 131.888 258.792 132.982 255.214 133.159" transform="matrix(1, 0, 0, 1, 208.05672908951215, 238.9408164488628)"/><path style="stroke: rgba(255, 100, 170, 0); stroke-width: 5.46379; vector-effect: non-scaling-stroke; fill: rgb(255, 100, 170);" d="M 254.215 132.574 C 253.326 132.609 250.509 130.979 250.537 130.621 C 250.662 129.039 252.719 129.43 253.471 128.849 C 253.951 128.478 257.801 126.077 258.269 125.72 C 259.142 125.041 263.688 124.855 265.129 125.413 C 267.105 126.178 265.062 129.867 262.483 130.863 C 260.592 131.595 258.603 132.569 255.478 132.725" transform="matrix(1, 0, 0, 1, 208.05672908951215, 238.9408164488628)"/><path style="stroke: rgba(255, 100, 170, 0); stroke-width: 5.46379; vector-effect: non-scaling-stroke; fill: rgb(255, 217, 230);" d="M 254.404 132.277 C 253.565 132.308 250.909 130.881 250.937 130.568 C 251.054 129.18 252.994 129.522 253.701 129.013 C 254.151 128.688 257.784 126.586 258.221 126.27 C 259.046 125.678 263.329 125.514 264.685 126.002 C 266.548 126.671 264.621 129.906 262.192 130.778 C 260.411 131.42 258.537 132.273 255.594 132.41" transform="matrix(1, 0, 0, 1, 208.05672908951215, 238.9408164488628)"/><path style="stroke: rgba(0, 0, 0, 0); fill: rgb(255, 100, 170); stroke-width: 1.77857; vector-effect: non-scaling-stroke;" d="M 381.669 162.369 C 374.679 161.222 367.931 167.058 363.149 172.665 C 352.289 185.39 343.491 213.757 361.591 221.843 C 364.25 223.029 367.603 223.561 370.516 223.561 C 385.012 223.561 400.496 210.923 404.374 194.394 C 409.263 173.559 391.977 156.9 374.543 163.801" transform="matrix(0.7609338760375977, -0.6488292217254639, 0.6488292217254639, 0.7609338760375977, 173.31841732193402, 530.439199017222)"/><path style="stroke: rgba(0, 0, 0, 0); fill: rgb(255, 217, 230); stroke-width: 1.77857; vector-effect: non-scaling-stroke;" d="M 381.843 164.034 C 375.336 162.94 369.053 168.482 364.592 173.809 C 354.471 185.889 346.251 212.824 363.082 220.503 C 365.555 221.63 368.673 222.13 371.383 222.13 C 384.87 222.13 399.296 210.13 402.927 194.436 C 407.503 174.653 391.441 158.84 375.209 165.392" transform="matrix(0.7609338760375977, -0.6488292217254639, 0.6488292217254639, 0.7609338760375977, 173.32919002701215, 530.708241985972)"/><path style="stroke: rgba(255, 100, 170, 0); stroke-width: 5.46379; vector-effect: non-scaling-stroke; fill: rgb(255, 100, 170);" d="M 661.57 299.343 C 660.33 299.397 656.402 296.83 656.445 296.262 C 656.618 293.766 659.485 294.381 660.532 293.464 C 661.2 292.881 666.565 289.099 667.214 288.531 C 668.432 287.464 674.766 287.17 676.775 288.045 C 679.528 289.253 676.679 295.074 673.088 296.646 C 670.452 297.799 667.683 299.334 663.329 299.584" transform="matrix(1, 0, 0, 1, -200.56322120498237, 73.81638865345258)"/><path style="stroke: rgba(0, 0, 0, 0); fill: rgb(255, 100, 170); stroke-width: 1.77857; vector-effect: non-scaling-stroke;" d="M 381.382 165.804 C 375.36 164.805 369.548 169.878 365.423 174.755 C 356.068 185.821 348.475 210.486 364.057 217.519 C 366.345 218.551 369.231 219.009 371.741 219.009 C 384.22 219.009 397.563 208.02 400.912 193.65 C 405.132 175.532 390.259 161.048 375.242 167.048" transform="matrix(0.7609338760375977, -0.6488292217254639, 0.6488292217254639, 0.7609338760375977, 173.71618343521527, 530.4204307066751)"/><path style="stroke: rgba(0, 0, 0, 0); fill: rgb(255, 217, 230); stroke-width: 1.77857; vector-effect: non-scaling-stroke;" d="M 381.302 166.573 C 375.435 165.605 369.768 170.536 365.753 175.265 C 356.632 186.012 349.24 209.959 364.43 216.786 C 366.66 217.789 369.472 218.235 371.917 218.235 C 384.084 218.235 397.086 207.565 400.348 193.612 C 404.456 176.021 389.952 161.959 375.318 167.782" transform="matrix(0.7609338760375977, -0.6488292217254639, 0.6488292217254639, 0.7609338760375977, 173.71709896255902, 530.4239097105813)"/><path style="stroke: rgba(0, 0, 0, 0); fill: rgb(255, 100, 170); stroke-width: 1.77857; vector-effect: non-scaling-stroke;" d="M 381.18 168.299 C 375.8 167.396 370.598 171.98 366.911 176.384 C 358.538 186.379 351.733 208.653 365.658 215.006 C 367.707 215.937 370.288 216.35 372.531 216.35 C 383.69 216.35 395.622 206.426 398.629 193.447 C 402.411 177.086 389.12 164.004 375.693 169.421" transform="matrix(0.7609338760375977, -0.6488292217254639, 0.6488292217254639, 0.7609338760375977, 173.78991390396527, 530.4686789976907)"/><path style="stroke: rgba(0, 0, 0, 0); fill: rgb(255, 217, 230); stroke-width: 1.77857; vector-effect: non-scaling-stroke;" d="M 381.194 168.74 C 376.027 167.853 371.027 172.339 367.482 176.647 C 359.426 186.428 352.863 208.226 366.231 214.445 C 368.196 215.354 370.673 215.758 372.828 215.758 C 383.548 215.758 395.021 206.047 397.922 193.348 C 401.577 177.332 388.828 164.534 375.923 169.839" transform="matrix(0.7609338760375977, -0.6488292217254639, 0.6488292217254639, 0.7609338760375977, 173.859890710606, 530.5092978941753)"/><path style="stroke: rgba(0, 0, 0, 0); fill: rgb(255, 100, 170); stroke-width: 1.77857; vector-effect: non-scaling-stroke;" d="M 380.998 170.409 C 376.316 169.585 371.774 173.753 368.556 177.752 C 361.244 186.843 355.266 207.086 367.368 212.857 C 369.144 213.704 371.391 214.081 373.343 214.081 C 383.055 214.081 393.465 205.061 396.114 193.267 C 399.451 178.394 387.92 166.505 376.218 171.43" transform="matrix(0.7609338760375977, -0.6488292217254639, 0.6488292217254639, 0.7609338760375977, 173.86156917740277, 530.5156150328471)"/><path style="stroke: rgba(0, 0, 0, 0); fill: rgb(255, 217, 230); stroke-width: 1.77857; vector-effect: non-scaling-stroke;" d="M 367.386 178.487 C 373.623 171.209 388.271 171.181 390.595 183.048 C 390.843 184.301 390.73 186.485 390.437 187.609 C 388.29 195.713 382.497 191.506 377.884 192.934 C 376.51 193.363 374.927 194.112 373.719 195.194 C 370.75 197.85 365.076 204.608 361.134 203.59 C 354.405 201.856 363.65 182.782 367.095 178.763" transform="matrix(0.7609338760375977, -0.6488292217254639, 0.6488292217254639, 0.7609338760375977, 175.2806975953714, 527.1661582457375)"/><path style="stroke: rgba(0, 0, 0, 0); fill: rgb(255, 217, 230); stroke-width: 1.77857; vector-effect: non-scaling-stroke;" d="M 376.847 210.548 C 375.154 210.638 370.114 206.162 370.234 205.174 C 370.764 200.828 374.591 201.9 376.126 200.302 C 377.101 199.283 384.85 192.695 385.799 191.708 C 387.586 189.847 396.239 189.33 398.865 190.863 C 402.474 192.963 397.911 203.101 392.838 205.841 C 389.116 207.851 385.169 210.526 379.213 210.961" transform="matrix(0.7609338760375977, -0.6488292217254639, 0.6488292217254639, 0.7609338760375977, 170.07854915787152, 536.7904868590188)"/><path style="stroke: rgba(0, 0, 0, 0); fill: rgb(255, 100, 170); stroke-width: 1.77857; vector-effect: non-scaling-stroke;" d="M 367.544 178.642 C 373.427 172 387.3 171.972 389.525 182.81 C 389.758 183.955 389.664 185.949 389.382 186.975 C 387.37 194.375 381.873 190.532 377.515 191.838 C 376.212 192.228 374.718 192.91 373.574 193.901 C 370.769 196.324 365.413 202.496 361.683 201.568 C 355.31 199.986 364.019 182.569 367.267 178.9" transform="matrix(0.7609338760375977, -0.6488292217254639, 0.6488292217254639, 0.7609338760375977, 175.6991241090435, 526.8620505797219)"/><path style="stroke: rgba(0, 0, 0, 0); fill: rgb(255, 217, 230); stroke-width: 1.77857; vector-effect: non-scaling-stroke;" d="M 367.682 179.108 C 373.399 172.889 386.898 172.863 389.092 183.01 C 389.326 184.082 389.232 185.953 388.964 186.908 C 387.022 193.843 381.667 190.243 377.425 191.467 C 376.155 191.83 374.704 192.473 373.591 193.403 C 370.868 195.668 365.671 201.449 362.034 200.58 C 355.826 199.096 364.261 182.786 367.417 179.348" transform="matrix(0.7609338760375977, -0.6488292217254639, 0.6488292217254639, 0.7609338760375977, 175.77257991959027, 526.8240867125345)"/><path style="stroke: rgba(0, 0, 0, 0); fill: rgb(255, 100, 170); stroke-width: 1.77857; vector-effect: non-scaling-stroke;" d="M 367.983 179.77 C 373.443 174.101 386.391 174.078 388.533 183.328 C 388.755 184.301 388.673 186 388.42 186.875 C 386.58 193.193 381.429 189.914 377.365 191.03 C 376.151 191.36 374.762 191.946 373.696 192.79 C 371.093 194.858 366.128 200.124 362.637 199.329 C 356.676 197.975 364.716 183.12 367.731 179.987" transform="matrix(0.7609338760375977, -0.6488292217254639, 0.6488292217254639, 0.7609338760375977, 175.85741878677788, 526.8363547789407)"/><path style="stroke: rgba(0, 0, 0, 0); fill: rgb(255, 217, 230); stroke-width: 1.77857; vector-effect: non-scaling-stroke;" d="M 368.157 180.223 C 373.372 174.979 385.768 174.954 387.834 183.515 C 388.051 184.416 387.979 185.991 387.734 186.803 C 385.988 192.651 381.053 189.613 377.163 190.645 C 376.003 190.953 374.672 191.495 373.655 192.276 C 371.165 194.189 366.424 199.065 363.078 198.327 C 357.37 197.077 365.035 183.324 367.913 180.426" transform="matrix(0.7609338760375977, -0.6488292217254639, 0.6488292217254639, 0.7609338760375977, 175.92236019302788, 526.7488608824563)"/><path style="stroke: rgba(0, 0, 0, 0); fill: rgb(255, 100, 170); stroke-width: 1.77857; vector-effect: non-scaling-stroke;" d="M 368.627 180.831 C 373.289 176.32 384.396 176.306 386.27 183.66 C 386.465 184.436 386.403 185.793 386.188 186.484 C 384.636 191.508 380.208 188.902 376.724 189.786 C 375.684 190.053 374.494 190.519 373.585 191.189 C 371.359 192.833 367.121 197.022 364.125 196.389 C 359.007 195.314 365.838 183.495 368.41 181.005" transform="matrix(0.7609338760375977, -0.6488292217254639, 0.6488292217254639, 0.7609338760375977, 176.15459896255902, 526.5442710387063)"/><path style="stroke: rgba(0, 0, 0, 0); fill: rgb(255, 217, 230); stroke-width: 1.77857; vector-effect: non-scaling-stroke;" d="M 368.913 181.188 C 373.323 177.151 383.88 177.132 385.687 183.717 C 385.875 184.411 385.818 185.624 385.62 186.247 C 384.165 190.743 379.945 188.408 376.64 189.2 C 375.651 189.439 374.521 189.855 373.66 190.455 C 371.549 191.929 367.541 195.675 364.691 195.111 C 359.822 194.149 366.271 183.57 368.705 181.344" transform="matrix(0.7609338760375977, -0.6488292217254639, 0.6488292217254639, 0.7609338760375977, 176.3583037965435, 526.4921164976909)"/><path style="stroke: rgba(0, 0, 0, 0); fill: rgb(255, 100, 170); stroke-width: 1.77857; vector-effect: non-scaling-stroke;" d="M 369.171 181.773 C 373.234 178.343 383.007 178.331 384.713 183.927 C 384.891 184.517 384.85 185.547 384.664 186.075 C 383.34 189.893 379.423 187.911 376.363 188.586 C 375.451 188.788 374.408 189.142 373.614 189.653 C 371.667 190.9 367.975 194.087 365.332 193.608 C 360.818 192.789 366.736 183.801 368.98 181.906" transform="matrix(0.7609338760375977, -0.6488292217254639, 0.6488292217254639, 0.7609338760375977, 176.49728084732465, 526.3615928160501)"/><path style="stroke: rgba(0, 0, 0, 0); fill: rgb(255, 217, 230); stroke-width: 1.77857; vector-effect: non-scaling-stroke;" d="M 369.672 181.863 C 373.327 178.854 382.132 178.84 383.681 183.75 C 383.843 184.267 383.805 185.168 383.638 185.634 C 382.453 188.986 378.918 187.243 376.166 187.835 C 375.343 188.014 374.402 188.323 373.687 188.771 C 371.935 189.868 368.612 192.664 366.232 192.239 C 362.164 191.523 367.484 183.64 369.499 181.976" transform="matrix(0.7609338760375977, -0.6488292217254639, 0.6488292217254639, 0.7609338760375977, 176.82268978287163, 526.2485557066751)"/><path style="stroke: rgba(255, 100, 170, 0); fill: rgb(255, 100, 170); stroke-width: 9.71775; vector-effect: non-scaling-stroke;" d="M 377.815 209.917 C 376.286 210.003 371.737 205.879 371.851 204.968 C 372.335 200.958 375.787 201.949 377.178 200.473 C 378.058 199.535 385.068 193.463 385.924 192.551 C 387.539 190.837 395.352 190.36 397.725 191.774 C 400.979 193.71 396.845 203.055 392.263 205.582 C 388.9 207.431 385.33 209.898 379.952 210.3" transform="matrix(0.7609338760375977, -0.6488292217254639, 0.6488292217254639, 0.7609338760375977, 170.01620174576215, 536.9411216246439)"/><path style="stroke: rgba(255, 100, 170, 0); stroke-width: 9.71775; vector-effect: non-scaling-stroke; fill: rgb(255, 217, 230);" d="M 378.221 209.625 C 376.756 209.709 372.391 205.774 372.497 204.901 C 372.963 201.072 376.275 202.018 377.607 200.612 C 378.455 199.715 385.172 193.92 385.994 193.046 C 387.543 191.411 395.037 190.961 397.313 192.306 C 400.435 194.155 396.474 203.078 392.078 205.489 C 388.851 207.258 385.431 209.612 380.27 209.994" transform="matrix(0.7609338760375977, -0.6488292217254639, 0.6488292217254639, 0.7609338760375977, 169.95251156021527, 537.0338035094095)"/><path style="stroke: rgba(255, 100, 170, 0); stroke-width: 9.71775; vector-effect: non-scaling-stroke; fill: rgb(255, 100, 170);" d="M 378.906 208.93 C 377.539 209.007 373.471 205.44 373.571 204.653 C 373.996 201.19 377.082 202.042 378.317 200.772 C 379.104 199.96 385.342 194.71 386.107 193.921 C 387.543 192.44 394.518 192.031 396.642 193.247 C 399.547 194.924 395.878 203.004 391.792 205.186 C 388.791 206.787 385.611 208.919 380.812 209.265" transform="matrix(0.7609338760375977, -0.6488292217254639, 0.6488292217254639, 0.7609338760375977, 169.89803768326203, 537.1747642027689)"/><path style="stroke: rgba(255, 100, 170, 0); stroke-width: 9.71775; vector-effect: non-scaling-stroke; fill: rgb(255, 217, 230);" d="M 379.232 208.483 C 377.943 208.557 374.089 205.271 374.18 204.547 C 374.575 201.349 377.492 202.139 378.661 200.963 C 379.403 200.217 385.301 195.38 386.022 194.652 C 387.378 193.285 393.977 192.908 395.982 194.034 C 398.735 195.576 395.28 203.023 391.414 205.035 C 388.583 206.508 385.577 208.475 381.035 208.794" transform="matrix(0.7609338760375977, -0.6488292217254639, 0.6488292217254639, 0.7609338760375977, 169.76647640396527, 537.1857200133156)"/><path style="stroke: rgba(255, 100, 170, 0); stroke-width: 9.71775; vector-effect: non-scaling-stroke; fill: rgb(255, 100, 170);" d="M 379.879 207.785 C 378.693 207.844 375.126 205.047 375.21 204.431 C 375.556 201.713 378.252 202.386 379.319 201.387 C 380.002 200.748 385.409 196.632 386.069 196.014 C 387.314 194.852 393.388 194.531 395.242 195.485 C 397.786 196.796 394.636 203.135 391.086 204.844 C 388.487 206.102 385.726 207.775 381.545 208.047" transform="matrix(0.7609338760375977, -0.6488292217254639, 0.6488292217254639, 0.7609338760375977, 169.5315215699809, 537.3541160094095)"/><path style="stroke: rgba(255, 100, 170, 0); stroke-width: 9.71775; vector-effect: non-scaling-stroke; fill: rgb(255, 217, 230);" d="M 380.364 207.231 C 379.244 207.285 375.877 204.744 375.953 204.186 C 376.273 201.716 378.817 202.323 379.82 201.42 C 380.463 200.839 385.549 197.098 386.171 196.54 C 387.34 195.484 393.068 195.192 394.82 196.062 C 397.219 197.251 394.267 203.008 390.923 204.564 C 388.474 205.705 385.875 207.223 381.934 207.469" transform="matrix(0.7609338760375977, -0.6488292217254639, 0.6488292217254639, 0.7609338760375977, 169.5484893434184, 537.447957562144)"/><path style="stroke: rgba(255, 100, 170, 0); stroke-width: 9.71775; vector-effect: non-scaling-stroke; fill: rgb(255, 217, 230);" d="M 381.357 206.32 C 380.434 206.363 377.653 204.38 377.713 203.946 C 377.971 202.019 380.068 202.495 380.891 201.788 C 381.414 201.337 385.597 198.418 386.105 197.98 C 387.065 197.16 391.78 196.931 393.221 197.608 C 395.201 198.536 392.786 203.03 390.039 204.239 C 388.025 205.129 385.892 206.314 382.65 206.504" transform="matrix(0.7609338760375977, -0.6488292217254639, 0.6488292217254639, 0.7609338760375977, 169.32445980240277, 537.5350547301126)"/><path style="stroke: rgba(0, 0, 0, 0); fill: rgb(255, 100, 170); stroke-width: 2.36515; vector-effect: non-scaling-stroke;" d="M 350.14 281.432 C 343.011 280.373 336.13 285.76 331.254 290.935 C 320.178 302.679 311.207 328.861 329.665 336.323 C 332.375 337.419 335.796 337.909 338.766 337.909 C 353.548 337.909 369.339 326.247 373.295 310.99 C 378.28 291.759 360.653 276.384 342.871 282.754" transform="matrix(0.7609338760375977, -0.6488292217254639, 0.6488292217254639, 0.7609338760375977, 90.0388457887309, 537.8395286070657)"/><path style="stroke: rgba(0, 0, 0, 0); fill: rgb(255, 217, 230); stroke-width: 2.36515; vector-effect: non-scaling-stroke;" d="M 350.297 282.956 C 343.66 281.947 337.254 287.06 332.704 291.976 C 322.383 303.126 314 327.985 331.163 335.074 C 333.685 336.114 336.866 336.576 339.63 336.576 C 353.385 336.576 368.096 325.501 371.798 311.016 C 376.464 292.756 360.085 278.161 343.531 284.209" transform="matrix(0.7609338760375977, -0.6488292217254639, 0.6488292217254639, 0.7609338760375977, 90.0605743043559, 538.094228314097)"/><path style="stroke: rgba(0, 0, 0, 0); fill: rgb(255, 100, 170); stroke-width: 2.36515; vector-effect: non-scaling-stroke;" d="M 349.867 284.57 C 343.725 283.651 337.799 288.331 333.591 292.833 C 324.053 303.046 316.308 325.811 332.198 332.302 C 334.533 333.255 337.474 333.676 340.034 333.676 C 352.76 333.676 366.369 323.536 369.782 310.272 C 374.087 293.549 358.921 280.183 343.605 285.719" transform="matrix(0.7609338760375977, -0.6488292217254639, 0.6488292217254639, 0.7609338760375977, 90.43478084732476, 537.8378196226909)"/><path style="stroke: rgba(0, 0, 0, 0); fill: rgb(255, 217, 230); stroke-width: 2.36515; vector-effect: non-scaling-stroke;" d="M 349.784 285.28 C 343.801 284.388 338.022 288.94 333.927 293.306 C 324.627 303.221 317.087 325.325 332.578 331.625 C 334.852 332.551 337.72 332.963 340.213 332.963 C 352.621 332.963 365.882 323.115 369.207 310.236 C 373.396 294 358.607 281.022 343.682 286.397" transform="matrix(0.7609338760375977, -0.6488292217254639, 0.6488292217254639, 0.7609338760375977, 90.43523861099652, 537.8409934508156)"/><path style="stroke: rgba(0, 0, 0, 0); fill: rgb(255, 100, 170); stroke-width: 2.36515; vector-effect: non-scaling-stroke;" d="M 349.661 286.866 C 344.173 286.033 338.868 290.264 335.109 294.328 C 326.569 303.553 319.63 324.112 333.83 329.976 C 335.92 330.834 338.552 331.215 340.84 331.215 C 352.22 331.215 364.388 322.057 367.454 310.077 C 371.31 294.975 357.758 282.902 344.065 287.903" transform="matrix(0.7609338760375977, -0.6488292217254639, 0.6488292217254639, 0.7609338760375977, 90.50957943130913, 537.8864646422219)"/><path style="stroke: rgba(0, 0, 0, 0); fill: rgb(255, 217, 230); stroke-width: 2.36515; vector-effect: non-scaling-stroke;" d="M 349.675 287.266 C 344.405 286.449 339.307 290.589 335.69 294.564 C 327.476 303.59 320.781 323.708 334.415 329.449 C 336.42 330.288 338.945 330.662 341.143 330.662 C 352.075 330.662 363.776 321.7 366.734 309.979 C 370.462 295.196 357.46 283.385 344.299 288.281" transform="matrix(0.7609338760375977, -0.6488292217254639, 0.6488292217254639, 0.7609338760375977, 90.58086849380902, 537.9283957945657)"/><path style="stroke: rgba(0, 0, 0, 0); fill: rgb(255, 100, 170); stroke-width: 2.36515; vector-effect: non-scaling-stroke;" d="M 349.475 288.807 C 344.699 288.045 340.068 291.892 336.787 295.584 C 329.33 303.973 323.233 322.659 335.575 327.983 C 337.386 328.765 339.678 329.114 341.667 329.114 C 351.572 329.114 362.188 320.789 364.89 309.902 C 368.294 296.178 356.534 285.203 344.602 289.748" transform="matrix(0.7609338760375977, -0.6488292217254639, 0.6488292217254639, 0.7609338760375977, 90.58312679459027, 537.9349265562845)"/><path style="stroke: rgba(0, 0, 0, 0); fill: rgb(255, 217, 230); stroke-width: 2.36515; vector-effect: non-scaling-stroke;" d="M 335.92 296.299 C 342.282 289.583 357.218 289.554 359.588 300.508 C 359.842 301.665 359.727 303.681 359.427 304.717 C 357.239 312.197 351.332 308.316 346.626 309.632 C 345.225 310.028 343.61 310.719 342.378 311.717 C 339.352 314.169 333.564 320.407 329.545 319.468 C 322.683 317.868 332.112 300.264 335.623 296.553" transform="matrix(0.7609338760375977, -0.6488292217254639, 0.6488292217254639, 0.7609338760375977, 91.85845638443402, 534.8236594664407)"/><path style="stroke: rgba(0, 0, 0, 0); fill: rgb(255, 217, 230); stroke-width: 2.36515; vector-effect: non-scaling-stroke;" d="M 344.574 325.872 C 342.848 325.958 337.708 321.825 337.831 320.914 C 338.372 316.903 342.274 317.891 343.841 316.417 C 344.833 315.476 352.736 309.396 353.705 308.484 C 355.526 306.767 364.351 306.29 367.029 307.704 C 370.71 309.643 366.056 319 360.882 321.529 C 357.087 323.385 353.063 325.853 346.988 326.254" transform="matrix(0.7609338760375977, -0.6488292217254639, 0.6488292217254639, 0.7609338760375977, 87.07256771255913, 543.7147727476907)"/><path style="stroke: rgba(0, 0, 0, 0); fill: rgb(255, 100, 170); stroke-width: 2.36515; vector-effect: non-scaling-stroke;" d="M 336.125 296.42 C 342.123 290.293 356.271 290.266 358.539 300.27 C 358.779 301.325 358.682 303.164 358.395 304.112 C 356.342 310.942 350.736 307.394 346.292 308.603 C 344.964 308.96 343.44 309.588 342.275 310.505 C 339.414 312.74 333.953 318.436 330.147 317.581 C 323.65 316.121 332.53 300.046 335.843 296.662" transform="matrix(0.7609338760375977, -0.6488292217254639, 0.6488292217254639, 0.7609338760375977, 92.2633330934184, 534.5531821715186)"/><path style="stroke: rgba(0, 0, 0, 0); fill: rgb(255, 217, 230); stroke-width: 2.36515; vector-effect: non-scaling-stroke;" d="M 336.271 296.85 C 342.102 291.108 355.867 291.085 358.105 300.448 C 358.344 301.438 358.246 303.163 357.974 304.047 C 355.995 310.447 350.533 307.125 346.207 308.254 C 344.912 308.59 343.432 309.182 342.297 310.042 C 339.52 312.131 334.22 317.466 330.51 316.666 C 324.181 315.295 332.782 300.241 336 297.068" transform="matrix(0.7609338760375977, -0.6488292217254639, 0.6488292217254639, 0.7609338760375977, 92.3343780152934, 534.5197959410501)"/><path style="stroke: rgba(0, 0, 0, 0); fill: rgb(255, 100, 170); stroke-width: 2.36515; vector-effect: non-scaling-stroke;" d="M 336.582 297.452 C 342.148 292.22 355.354 292.197 357.536 300.735 C 357.765 301.633 357.68 303.201 357.422 304.009 C 355.547 309.839 350.293 306.814 346.149 307.843 C 344.91 308.148 343.495 308.688 342.407 309.469 C 339.753 311.377 334.689 316.238 331.13 315.502 C 325.05 314.253 333.25 300.544 336.324 297.652" transform="matrix(0.7609338760375977, -0.6488292217254639, 0.6488292217254639, 0.7609338760375977, 92.42019344498101, 534.5350242125346)"/><path style="stroke: rgba(0, 0, 0, 0); fill: rgb(255, 217, 230); stroke-width: 2.36515; vector-effect: non-scaling-stroke;" d="M 336.769 297.866 C 342.087 293.028 354.729 293.004 356.836 300.906 C 357.057 301.74 356.982 303.191 356.734 303.941 C 354.952 309.339 349.919 306.536 345.952 307.488 C 344.769 307.772 343.413 308.272 342.376 308.994 C 339.837 310.758 335.002 315.259 331.589 314.578 C 325.769 313.423 333.584 300.73 336.519 298.056" transform="matrix(0.7609338760375977, -0.6488292217254639, 0.6488292217254639, 0.7609338760375977, 92.48125911880891, 534.4552817808938)"/><path style="stroke: rgba(0, 0, 0, 0); fill: rgb(255, 100, 170); stroke-width: 2.36515; vector-effect: non-scaling-stroke;" d="M 337.276 298.421 C 342.03 294.256 353.356 294.244 355.268 301.032 C 355.466 301.748 355.403 303 355.185 303.637 C 353.6 308.274 349.084 305.869 345.532 306.685 C 344.472 306.931 343.259 307.363 342.331 307.981 C 340.06 309.497 335.738 313.363 332.684 312.78 C 327.465 311.785 334.431 300.877 337.054 298.581" transform="matrix(0.7609338760375977, -0.6488292217254639, 0.6488292217254639, 0.7609338760375977, 92.7041289918559, 534.2718101012064)"/><path style="stroke: rgba(0, 0, 0, 0); fill: rgb(255, 217, 230); stroke-width: 2.36515; vector-effect: non-scaling-stroke;" d="M 337.58 298.736 C 342.078 295.011 352.843 294.993 354.686 301.069 C 354.879 301.71 354.821 302.832 354.618 303.405 C 353.134 307.556 348.831 305.399 345.461 306.131 C 344.451 306.352 343.3 306.735 342.422 307.291 C 340.269 308.651 336.18 312.106 333.275 311.587 C 328.309 310.697 334.886 300.935 337.368 298.881" transform="matrix(0.7609338760375977, -0.6488292217254639, 0.6488292217254639, 0.7609338760375977, 92.90475155044976, 534.2312827574565)"/><path style="stroke: rgba(0, 0, 0, 0); fill: rgb(255, 100, 170); stroke-width: 2.36515; vector-effect: non-scaling-stroke;" d="M 337.86 299.27 C 342.005 296.103 351.97 296.094 353.709 301.26 C 353.891 301.803 353.849 302.754 353.659 303.242 C 352.309 306.768 348.315 304.937 345.194 305.558 C 344.265 305.746 343.2 306.073 342.391 306.543 C 340.406 307.695 336.64 310.636 333.944 310.195 C 329.342 309.437 335.377 301.143 337.665 299.394" transform="matrix(0.7609338760375977, -0.6488292217254639, 0.6488292217254639, 0.7609338760375977, 93.0379912965434, 534.1131186949563)"/><path style="stroke: rgba(0, 0, 0, 0); fill: rgb(255, 217, 230); stroke-width: 2.36515; vector-effect: non-scaling-stroke;" d="M 338.394 299.333 C 342.121 296.556 351.1 296.543 352.679 301.075 C 352.845 301.551 352.806 302.382 352.636 302.813 C 351.428 305.907 347.822 304.299 345.016 304.843 C 344.176 305.011 343.218 305.296 342.488 305.707 C 340.7 306.721 337.311 309.302 334.886 308.908 C 330.736 308.248 336.161 300.972 338.218 299.438" transform="matrix(0.7609338760375977, -0.6488292217254639, 0.6488292217254639, 0.7609338760375977, 93.35784603287152, 534.0189109312845)"/><path style="stroke: rgba(255, 100, 170, 0); fill: rgb(255, 100, 170); stroke-width: 12.9227; vector-effect: non-scaling-stroke;" d="M 345.547 325.287 C 343.988 325.369 339.35 321.562 339.467 320.721 C 339.959 317.02 343.479 317.934 344.898 316.574 C 345.795 315.706 352.945 310.101 353.817 309.259 C 355.464 307.679 363.432 307.238 365.851 308.543 C 369.171 310.331 364.954 318.956 360.283 321.287 C 356.851 322.993 353.21 325.27 347.727 325.644" transform="matrix(0.7609338760375977, -0.6488292217254639, 0.6488292217254639, 0.7609338760375977, 87.01641536880902, 543.8553977476909)"/><path style="stroke: rgba(255, 100, 170, 0); stroke-width: 12.9227; vector-effect: non-scaling-stroke; fill: rgb(255, 217, 230);" d="M 345.952 325.021 C 344.456 325.1 340.006 321.466 340.115 320.66 C 340.589 317.126 343.968 317.999 345.326 316.702 C 346.19 315.874 353.041 310.526 353.879 309.719 C 355.459 308.21 363.102 307.794 365.42 309.035 C 368.606 310.743 364.566 318.977 360.083 321.203 C 356.792 322.837 353.304 325.008 348.043 325.362" transform="matrix(0.7609338760375977, -0.6488292217254639, 0.6488292217254639, 0.7609338760375977, 86.9566924684184, 543.940175579722)"/><path style="stroke: rgba(255, 100, 170, 0); stroke-width: 12.9227; vector-effect: non-scaling-stroke; fill: rgb(255, 100, 170);" d="M 346.636 324.378 C 345.242 324.447 341.094 321.156 341.197 320.43 C 341.629 317.235 344.776 318.021 346.036 316.849 C 346.839 316.098 353.2 311.252 353.982 310.524 C 355.444 309.156 362.558 308.781 364.722 309.902 C 367.686 311.45 363.943 318.908 359.777 320.922 C 356.716 322.399 353.474 324.367 348.58 324.688" transform="matrix(0.7609338760375977, -0.6488292217254639, 0.6488292217254639, 0.7609338760375977, 86.9078643434184, 544.0712790953469)"/><path style="stroke: rgba(255, 100, 170, 0); stroke-width: 12.9227; vector-effect: non-scaling-stroke; fill: rgb(255, 217, 230);" d="M 346.963 323.974 C 345.648 324.041 341.718 321.009 341.811 320.341 C 342.214 317.389 345.189 318.12 346.38 317.033 C 347.139 316.344 353.151 311.881 353.886 311.21 C 355.269 309.947 362 309.599 364.044 310.64 C 366.852 312.061 363.327 318.935 359.386 320.792 C 356.498 322.151 353.434 323.965 348.802 324.261" transform="matrix(0.7609338760375977, -0.6488292217254639, 0.6488292217254639, 0.7609338760375977, 86.77801204849663, 544.0762839781595)"/><path style="stroke: rgba(255, 100, 170, 0); stroke-width: 12.9227; vector-effect: non-scaling-stroke; fill: rgb(255, 100, 170);" d="M 347.597 323.34 C 346.389 323.395 342.751 320.814 342.836 320.245 C 343.189 317.739 345.938 318.359 347.026 317.434 C 347.723 316.847 353.237 313.048 353.911 312.477 C 355.179 311.405 361.374 311.109 363.265 311.99 C 365.858 313.198 362.646 319.048 359.027 320.625 C 356.376 321.789 353.56 323.331 349.296 323.582" transform="matrix(0.7609338760375977, -0.6488292217254639, 0.6488292217254639, 0.7609338760375977, 86.55053402115288, 544.2249045836282)"/><path style="stroke: rgba(255, 100, 170, 0); stroke-width: 12.9227; vector-effect: non-scaling-stroke; fill: rgb(255, 217, 230);" d="M 348.085 322.824 C 346.943 322.874 343.511 320.529 343.587 320.013 C 343.915 317.734 346.509 318.294 347.531 317.461 C 348.186 316.926 353.373 313.473 354.008 312.958 C 355.199 311.982 361.043 311.712 362.829 312.517 C 365.275 313.615 362.264 318.927 358.853 320.363 C 356.356 321.416 353.706 322.817 349.687 323.045" transform="matrix(0.7609338760375977, -0.6488292217254639, 0.6488292217254639, 0.7609338760375977, 86.57110286880913, 544.3149924742534)"/><path style="stroke: rgba(255, 100, 170, 0); stroke-width: 12.9227; vector-effect: non-scaling-stroke; fill: rgb(255, 100, 170);" d="M 348.692 322.383 C 347.694 322.427 344.699 320.338 344.765 319.881 C 345.054 317.854 347.32 318.354 348.216 317.611 C 348.791 317.134 353.324 314.059 353.884 313.602 C 354.922 312.731 360.025 312.493 361.584 313.209 C 363.723 314.187 361.084 318.914 358.104 320.189 C 355.921 321.13 353.603 322.376 350.092 322.577" transform="matrix(0.7609338760375977, -0.6488292217254639, 0.6488292217254639, 0.7609338760375977, 86.46017147232465, 544.2897239195656)"/><path style="stroke: rgba(255, 100, 170, 0); stroke-width: 12.9227; vector-effect: non-scaling-stroke; fill: rgb(255, 217, 230);" d="M 349.082 321.997 C 348.139 322.037 345.305 320.206 345.365 319.805 C 345.628 318.028 347.766 318.467 348.606 317.815 C 349.138 317.399 353.405 314.704 353.924 314.301 C 354.902 313.544 359.711 313.33 361.182 313.955 C 363.199 314.812 360.737 318.96 357.935 320.076 C 355.881 320.897 353.707 321.992 350.399 322.166" transform="matrix(0.7609338760375977, -0.6488292217254639, 0.6488292217254639, 0.7609338760375977, 86.35235286880902, 544.387685345347)"/><path style="stroke: rgba(0, 0, 0, 0); fill: rgb(255, 100, 170); stroke-width: 2.36515; vector-effect: non-scaling-stroke;" d="M 182.76 163.848 C 177.566 162.788 172.553 168.177 169.001 173.355 C 160.931 185.103 154.394 211.297 167.843 218.762 C 169.817 219.858 172.31 220.348 174.473 220.348 C 185.243 220.348 196.747 208.682 199.63 193.418 C 203.261 174.179 190.42 158.797 177.463 165.169" transform="matrix(0.7609338760375977, -0.6488292217254639, 0.6488292217254639, 0.7609338760375977, 126.5386016481059, 401.7542624937844)"/><path style="stroke: rgba(0, 0, 0, 0); fill: rgb(255, 217, 230); stroke-width: 2.36515; vector-effect: non-scaling-stroke;" d="M 182.929 165.409 C 178.093 164.4 173.425 169.514 170.111 174.432 C 162.592 185.586 156.483 210.457 168.988 217.548 C 170.826 218.59 173.143 219.051 175.157 219.051 C 185.178 219.051 195.896 207.971 198.594 193.481 C 201.992 175.213 190.059 160.611 177.999 166.664" transform="matrix(0.7609338760375977, -0.6488292217254639, 0.6488292217254639, 0.7609338760375977, 126.5259063356059, 401.99031596058114)"/><path style="stroke: rgba(0, 0, 0, 0); fill: rgb(255, 100, 170); stroke-width: 2.36515; vector-effect: non-scaling-stroke;" d="M 182.511 167.075 C 178.037 166.156 173.719 170.836 170.653 175.342 C 163.704 185.558 158.061 208.333 169.639 214.828 C 171.34 215.781 173.482 216.2 175.346 216.2 C 184.618 216.2 194.534 206.057 197.021 192.787 C 200.156 176.058 189.109 162.686 177.949 168.224" transform="matrix(0.7609338760375977, -0.6488292217254639, 0.6488292217254639, 0.7609338760375977, 126.85320736099663, 401.7066855894876)"/><path style="stroke: rgba(0, 0, 0, 0); fill: rgb(255, 217, 230); stroke-width: 2.36515; vector-effect: non-scaling-stroke;" d="M 182.452 167.786 C 178.093 166.892 173.882 171.447 170.9 175.815 C 164.124 185.735 158.629 207.847 169.916 214.15 C 171.573 215.077 173.663 215.489 175.479 215.489 C 184.518 215.489 194.18 205.637 196.603 192.753 C 199.654 176.509 188.88 163.525 178.006 168.903" transform="matrix(0.7609338760375977, -0.6488292217254639, 0.6488292217254639, 0.7609338760375977, 126.85274959732465, 401.71004252308137)"/><path style="stroke: rgba(0, 0, 0, 0); fill: rgb(255, 100, 170); stroke-width: 2.36515; vector-effect: non-scaling-stroke;" d="M 182.363 169.395 C 178.365 168.56 174.499 172.795 171.76 176.859 C 165.538 186.089 160.482 206.658 170.828 212.523 C 172.352 213.38 174.269 213.762 175.936 213.762 C 184.227 213.762 193.093 204.601 195.327 192.614 C 198.136 177.507 188.261 165.428 178.286 170.432" transform="matrix(0.7609338760375977, -0.6488292217254639, 0.6488292217254639, 0.7609338760375977, 126.90655208755902, 401.7436728941751)"/><path style="stroke: rgba(0, 0, 0, 0); fill: rgb(255, 217, 230); stroke-width: 2.36515; vector-effect: non-scaling-stroke;" d="M 182.374 169.815 C 178.534 168.998 174.82 173.141 172.185 177.116 C 166.201 186.146 161.322 206.274 171.256 212.018 C 172.717 212.855 174.556 213.23 176.158 213.23 C 184.122 213.23 192.647 204.264 194.803 192.538 C 197.519 177.75 188.047 165.934 178.457 170.831" transform="matrix(0.7609338760375977, -0.6488292217254639, 0.6488292217254639, 0.7609338760375977, 126.95824886490277, 401.77522806995637)"/><path style="stroke: rgba(0, 0, 0, 0); fill: rgb(255, 100, 170); stroke-width: 2.36515; vector-effect: non-scaling-stroke;" d="M 182.229 171.358 C 178.749 170.596 175.376 174.445 172.984 178.137 C 167.552 186.53 163.109 205.224 172.102 210.551 C 173.42 211.333 175.091 211.682 176.54 211.682 C 183.756 211.682 191.492 203.354 193.459 192.463 C 195.94 178.732 187.372 167.753 178.678 172.301" transform="matrix(0.7609338760375977, -0.6488292217254639, 0.6488292217254639, 0.7609338760375977, 126.959225427403, 401.7802939879251)"/><path style="stroke: rgba(0, 0, 0, 0); fill: rgb(255, 217, 230); stroke-width: 2.36515; vector-effect: non-scaling-stroke;" d="M 171.501 178.748 C 176.138 172.03 187.019 172.001 188.745 182.958 C 188.93 184.117 188.846 186.133 188.629 187.17 C 187.034 194.653 182.73 190.771 179.302 192.087 C 178.281 192.483 177.105 193.175 176.207 194.173 C 174.002 196.625 169.785 202.868 166.858 201.927 C 161.858 200.327 168.728 182.716 171.285 179.003" transform="matrix(0.7609338760375977, -0.6488292217254639, 0.6488292217254639, 0.7609338760375977, 128.33282161880913, 398.7226768004251)"/><path style="stroke: rgba(0, 0, 0, 0); fill: rgb(255, 217, 230); stroke-width: 2.36515; vector-effect: non-scaling-stroke;" d="M 180.381 208.38 C 179.124 208.467 175.38 204.332 175.469 203.42 C 175.862 199.408 178.705 200.396 179.848 198.922 C 180.571 197.98 186.328 191.897 187.034 190.985 C 188.361 189.268 194.792 188.791 196.741 190.205 C 199.424 192.144 196.033 201.506 192.264 204.035 C 189.499 205.892 186.567 208.362 182.14 208.762" transform="matrix(0.7609338760375977, -0.6488292217254639, 0.6488292217254639, 0.7609338760375977, 123.50176693130902, 407.593251751597)"/><path style="stroke: rgba(0, 0, 0, 0); fill: rgb(255, 100, 170); stroke-width: 2.36515; vector-effect: non-scaling-stroke;" d="M 171.541 178.925 C 175.912 172.797 186.217 172.769 187.871 182.778 C 188.045 183.833 187.975 185.672 187.766 186.621 C 186.269 193.454 182.186 189.905 178.949 191.115 C 177.98 191.472 176.87 192.1 176.02 193.017 C 173.938 195.254 169.958 200.951 167.185 200.095 C 162.452 198.636 168.921 182.554 171.336 179.168" transform="matrix(0.7609338760375977, -0.6488292217254639, 0.6488292217254639, 0.7609338760375977, 128.68578792740266, 398.4227500426125)"/><path style="stroke: rgba(0, 0, 0, 0); fill: rgb(255, 217, 230); stroke-width: 2.36515; vector-effect: non-scaling-stroke;" d="M 171.63 179.367 C 175.879 173.623 185.908 173.599 187.538 182.968 C 187.711 183.957 187.64 185.684 187.443 186.568 C 186 192.972 182.02 189.647 178.87 190.777 C 177.927 191.113 176.848 191.705 176.022 192.566 C 173.998 194.656 170.135 199.994 167.433 199.194 C 162.822 197.82 169.088 182.76 171.434 179.585" transform="matrix(0.7609338760375977, -0.6488292217254639, 0.6488292217254639, 0.7609338760375977, 128.74532772232465, 398.3831687437845)"/><path style="stroke: rgba(0, 0, 0, 0); fill: rgb(255, 100, 170); stroke-width: 2.36515; vector-effect: non-scaling-stroke;" d="M 171.85 179.991 C 175.905 174.756 185.527 174.734 187.116 183.275 C 187.284 184.175 187.223 185.743 187.033 186.551 C 185.667 192.384 181.839 189.356 178.82 190.386 C 177.918 190.692 176.886 191.232 176.094 192.012 C 174.16 193.922 170.47 198.786 167.878 198.049 C 163.448 196.799 169.422 183.086 171.662 180.192" transform="matrix(0.7609338760375977, -0.6488292217254639, 0.6488292217254639, 0.7609338760375977, 128.81222225357465, 398.38799052112813)"/><path style="stroke: rgba(0, 0, 0, 0); fill: rgb(255, 217, 230); stroke-width: 2.36515; vector-effect: non-scaling-stroke;" d="M 171.962 180.409 C 175.834 175.568 185.046 175.545 186.58 183.45 C 186.742 184.284 186.688 185.736 186.507 186.487 C 185.208 191.886 181.542 189.083 178.651 190.035 C 177.789 190.318 176.801 190.819 176.047 191.542 C 174.197 193.306 170.674 197.809 168.186 197.127 C 163.946 195.972 169.641 183.274 171.778 180.599" transform="matrix(0.7609338760375977, -0.6488292217254639, 0.6488292217254639, 0.7609338760375977, 128.8701446168559, 398.3058066832375)"/><path style="stroke: rgba(0, 0, 0, 0); fill: rgb(255, 100, 170); stroke-width: 2.36515; vector-effect: non-scaling-stroke;" d="M 172.262 180.991 C 175.726 176.823 183.976 176.81 185.37 183.602 C 185.514 184.319 185.468 185.572 185.308 186.209 C 184.155 190.849 180.864 188.443 178.277 189.258 C 177.505 189.504 176.619 189.936 175.945 190.555 C 174.29 192.072 171.141 195.939 168.917 195.356 C 165.114 194.362 170.189 183.448 172.101 181.152" transform="matrix(0.7609338760375977, -0.6488292217254639, 0.6488292217254639, 0.7609338760375977, 129.06841732193413, 398.1086326109722)"/><path style="stroke: rgba(0, 0, 0, 0); fill: rgb(255, 217, 230); stroke-width: 2.36515; vector-effect: non-scaling-stroke;" d="M 172.449 181.346 C 175.725 177.62 183.569 177.6 184.911 183.679 C 185.052 184.321 185.009 185.444 184.862 186.017 C 183.782 190.169 180.645 188.012 178.189 188.743 C 177.453 188.964 176.615 189.348 175.976 189.903 C 174.408 191.264 171.429 194.721 169.312 194.202 C 165.695 193.311 170.486 183.545 172.294 181.49" transform="matrix(0.7609338760375977, -0.6488292217254639, 0.6488292217254639, 0.7609338760375977, 129.2318389527935, 398.0472312437845)"/><path style="stroke: rgba(0, 0, 0, 0); fill: rgb(255, 100, 170); stroke-width: 2.36515; vector-effect: non-scaling-stroke;" d="M 172.609 181.896 C 175.631 178.727 182.889 178.716 184.156 183.886 C 184.29 184.429 184.259 185.38 184.12 185.868 C 183.136 189.395 180.226 187.564 177.954 188.186 C 177.276 188.373 176.5 188.7 175.911 189.17 C 174.465 190.324 171.721 193.265 169.756 192.825 C 166.404 192.066 170.802 183.769 172.468 182.019" transform="matrix(0.7609338760375977, -0.6488292217254639, 0.6488292217254639, 0.7609338760375977, 129.35119320084027, 397.921407269175)"/><path style="stroke: rgba(0, 0, 0, 0); fill: rgb(255, 217, 230); stroke-width: 2.36515; vector-effect: non-scaling-stroke;" d="M 172.939 182.018 C 175.654 179.239 182.196 179.225 183.345 183.76 C 183.467 184.235 183.439 185.068 183.313 185.498 C 182.435 188.593 179.806 186.984 177.762 187.53 C 177.15 187.698 176.453 187.983 175.922 188.393 C 174.618 189.409 172.149 191.989 170.383 191.595 C 167.358 190.936 171.312 183.657 172.809 182.122" transform="matrix(0.7609338760375977, -0.6488292217254639, 0.6488292217254639, 0.7609338760375977, 129.61663509537163, 397.796132610972)"/><path style="stroke: rgba(255, 100, 170, 0); fill: rgb(255, 100, 170); stroke-width: 12.9227; vector-effect: non-scaling-stroke;" d="M 181.13 207.801 C 179.994 207.882 176.615 204.073 176.7 203.232 C 177.058 199.532 179.622 200.444 180.657 199.084 C 181.31 198.214 186.519 192.609 187.155 191.766 C 188.355 190.184 194.16 189.744 195.923 191.049 C 198.342 192.838 195.268 201.467 191.867 203.798 C 189.365 205.506 186.712 207.783 182.717 208.158" transform="matrix(0.7609338760375977, -0.6488292217254639, 0.6488292217254639, 0.7609338760375977, 123.440914880528, 407.73195414417535)"/><path style="stroke: rgba(255, 100, 170, 0); stroke-width: 12.9227; vector-effect: non-scaling-stroke; fill: rgb(255, 217, 230);" d="M 181.45 207.53 C 180.361 207.611 177.119 203.974 177.197 203.168 C 177.543 199.633 180.004 200.507 180.995 199.207 C 181.624 198.381 186.615 193.031 187.226 192.223 C 188.377 190.713 193.945 190.297 195.633 191.539 C 197.954 193.247 195.013 201.485 191.746 203.713 C 189.349 205.346 186.807 207.518 182.974 207.872" transform="matrix(0.7609338760375977, -0.6488292217254639, 0.6488292217254639, 0.7609338760375977, 123.3836944215434, 407.81694559925324)"/><path style="stroke: rgba(255, 100, 170, 0); stroke-width: 12.9227; vector-effect: non-scaling-stroke; fill: rgb(255, 100, 170);" d="M 181.984 206.893 C 180.969 206.964 177.947 203.669 178.022 202.943 C 178.336 199.748 180.629 200.533 181.548 199.362 C 182.133 198.611 186.767 193.762 187.338 193.034 C 188.401 191.666 193.585 191.291 195.16 192.412 C 197.322 193.96 194.594 201.421 191.559 203.436 C 189.329 204.914 186.967 206.882 183.401 207.203" transform="matrix(0.7609338760375977, -0.6488292217254639, 0.6488292217254639, 0.7609338760375977, 123.3298614137309, 407.94621806019063)"/><path style="stroke: rgba(255, 100, 170, 0); stroke-width: 12.9227; vector-effect: non-scaling-stroke; fill: rgb(255, 217, 230);" d="M 182.24 206.462 C 181.283 206.529 178.418 203.496 178.486 202.826 C 178.781 199.874 180.948 200.604 181.817 199.517 C 182.368 198.828 186.749 194.362 187.284 193.692 C 188.292 192.429 193.196 192.08 194.685 193.122 C 196.731 194.544 194.162 201.42 191.292 203.279 C 189.187 204.638 186.955 206.452 183.579 206.747" transform="matrix(0.7609338760375977, -0.6488292217254639, 0.6488292217254639, 0.7609338760375977, 123.22649837662152, 407.9657187926126)"/><path style="stroke: rgba(255, 100, 170, 0); stroke-width: 12.9227; vector-effect: non-scaling-stroke; fill: rgb(255, 100, 170);" d="M 182.764 205.795 C 181.883 205.85 179.233 203.267 179.295 202.698 C 179.552 200.192 181.555 200.813 182.347 199.886 C 182.856 199.299 186.872 195.499 187.365 194.928 C 188.288 193.857 192.8 193.558 194.18 194.439 C 196.068 195.648 193.727 201.502 191.09 203.08 C 189.159 204.242 187.108 205.787 184.002 206.037" transform="matrix(0.7609338760375977, -0.6488292217254639, 0.6488292217254639, 0.7609338760375977, 123.02843929459027, 408.131581829722)"/><path style="stroke: rgba(255, 100, 170, 0); stroke-width: 12.9227; vector-effect: non-scaling-stroke; fill: rgb(255, 217, 230);" d="M 183.136 205.293 C 182.303 205.346 179.805 202.999 179.859 202.482 C 180.098 200.202 181.988 200.764 182.733 199.929 C 183.21 199.394 186.99 195.939 187.45 195.423 C 188.319 194.448 192.577 194.178 193.879 194.983 C 195.66 196.082 193.465 201.396 190.981 202.832 C 189.162 203.886 187.232 205.287 184.304 205.515" transform="matrix(0.7609338760375977, -0.6488292217254639, 0.6488292217254639, 0.7609338760375977, 123.03439022232487, 408.212880657847)"/><path style="stroke: rgba(255, 100, 170, 0); stroke-width: 12.9227; vector-effect: non-scaling-stroke; fill: rgb(255, 100, 170);" d="M 183.587 204.826 C 182.858 204.87 180.677 202.781 180.725 202.323 C 180.937 200.295 182.586 200.795 183.24 200.052 C 183.659 199.575 186.962 196.498 187.369 196.041 C 188.126 195.169 191.843 194.931 192.98 195.648 C 194.538 196.627 192.615 201.355 190.445 202.632 C 188.854 203.57 187.165 204.819 184.607 205.019" transform="matrix(0.7609338760375977, -0.6488292217254639, 0.6488292217254639, 0.7609338760375977, 122.94927669693402, 408.20207743519063)"/><path style="stroke: rgba(255, 100, 170, 0); stroke-width: 12.9227; vector-effect: non-scaling-stroke; fill: rgb(255, 217, 230);" d="M 183.905 204.428 C 183.218 204.468 181.154 202.636 181.199 202.234 C 181.39 200.457 182.947 200.897 183.56 200.245 C 183.947 199.828 187.055 197.133 187.433 196.728 C 188.146 195.971 191.65 195.757 192.722 196.383 C 194.191 197.24 192.398 201.389 190.357 202.506 C 188.859 203.327 187.275 204.422 184.866 204.597" transform="matrix(0.7609338760375977, -0.6488292217254639, 0.6488292217254639, 0.7609338760375977, 122.85207821060612, 408.30678324573773)"/><path style="stroke: rgba(0, 0, 0, 0); fill: rgb(255, 100, 170); stroke-width: 3.14518; vector-effect: non-scaling-stroke;" d="M 299.905 184.836 C 294.572 183.833 289.424 188.933 285.777 193.835 C 277.491 204.955 270.777 229.749 284.589 236.815 C 286.615 237.852 289.176 238.316 291.396 238.316 C 302.456 238.316 314.268 227.274 317.229 212.825 C 320.958 194.615 307.772 180.055 294.466 186.086" transform="matrix(-1.07232403755188, 0.9143440127372743, -0.8300921320915222, -0.9735162258148194, 988.3636443727155, 384.33717875355)"/><path style="stroke: rgba(0, 0, 0, 0); fill: rgb(255, 217, 230); stroke-width: 3.14518; vector-effect: non-scaling-stroke;" d="M 299.452 186.066 C 294.484 185.111 289.691 189.952 286.288 194.607 C 278.567 205.165 272.294 228.706 285.135 235.418 C 287.022 236.405 289.401 236.841 291.469 236.841 C 301.76 236.841 312.766 226.353 315.537 212.638 C 319.026 195.346 306.772 181.525 294.389 187.254" transform="matrix(-1.07232403755188, 0.9143440127372743, -0.8300921320915222, -0.9735162258148194, 987.529049646153, 384.3618064390972)"/><path style="stroke: rgba(0, 0, 0, 0); fill: rgb(255, 100, 170); stroke-width: 3.14518; vector-effect: non-scaling-stroke;" d="M 299.446 188.763 C 294.851 187.893 290.418 192.323 287.268 196.588 C 280.133 206.258 274.338 227.816 286.227 233.963 C 287.974 234.866 290.174 235.262 292.087 235.262 C 301.609 235.262 311.792 225.661 314.346 213.101 C 317.565 197.266 306.22 184.608 294.761 189.85" transform="matrix(-1.07232403755188, 0.9143440127372743, -0.8300921320915222, -0.9735162258148194, 988.4393279664655, 385.4725547301126)"/><path style="stroke: rgba(0, 0, 0, 0); fill: rgb(255, 217, 230); stroke-width: 3.14518; vector-effect: non-scaling-stroke;" d="M 299.376 189.431 C 294.9 188.585 290.575 192.897 287.514 197.031 C 280.555 206.421 274.912 227.351 286.504 233.317 C 288.204 234.195 290.351 234.585 292.216 234.585 C 301.498 234.585 311.419 225.259 313.907 213.064 C 317.04 197.688 305.977 185.398 294.81 190.489" transform="matrix(-1.07232403755188, 0.9143440127372743, -0.8300921320915222, -0.9735162258148194, 988.4263885133403, 385.47304301136296)"/><path style="stroke: rgba(0, 0, 0, 0); fill: rgb(255, 100, 170); stroke-width: 3.14518; vector-effect: non-scaling-stroke;" d="M 299.136 191.065 C 295.032 190.275 291.061 194.284 288.247 198.131 C 281.859 206.867 276.666 226.337 287.291 231.888 C 288.856 232.7 290.824 233.061 292.536 233.061 C 301.051 233.061 310.154 224.39 312.448 213.043 C 315.333 198.744 305.193 187.31 294.95 192.047" transform="matrix(-1.07232403755188, 0.9143440127372743, -0.8300921320915222, -0.9735162258148194, 988.290524255528, 385.678426312144)"/><path style="stroke: rgba(0, 0, 0, 0); fill: rgb(255, 217, 230); stroke-width: 3.14518; vector-effect: non-scaling-stroke;" d="M 299.006 191.571 C 295.064 190.797 291.249 194.719 288.544 198.481 C 282.398 207.029 277.388 226.081 287.59 231.518 C 289.089 232.31 290.978 232.665 292.624 232.665 C 300.801 232.665 309.556 224.178 311.77 213.079 C 314.559 199.081 304.832 187.897 294.984 192.532" transform="matrix(-1.07232403755188, 0.9143440127372743, -0.8300921320915222, -0.9735162258148194, 988.1635711305278, 385.87630228870637)"/><path style="stroke: rgba(0, 0, 0, 0); fill: rgb(255, 100, 170); stroke-width: 3.14518; vector-effect: non-scaling-stroke;" d="M 298.843 193.029 C 295.269 192.308 291.806 195.951 289.348 199.446 C 283.771 207.39 279.209 225.085 288.443 230.127 C 289.797 230.867 291.512 231.198 293 231.198 C 300.41 231.198 308.354 223.315 310.375 213.006 C 312.922 200.009 304.124 189.617 295.196 193.922" transform="matrix(-1.07232403755188, 0.9143440127372743, -0.8300921320915222, -0.9735162258148194, 988.1456267945905, 385.8822837340193)"/><path style="stroke: rgba(0, 0, 0, 0); fill: rgb(255, 217, 230); stroke-width: 3.14518; vector-effect: non-scaling-stroke;" d="M 294.685 206.425 C 299.447 200.066 310.62 200.038 312.393 210.41 C 312.583 211.507 312.496 213.415 312.274 214.396 C 310.636 221.479 306.216 217.805 302.697 219.051 C 301.649 219.425 300.44 220.08 299.518 221.025 C 297.255 223.346 292.922 229.255 289.918 228.365 C 284.783 226.85 291.838 210.18 294.464 206.666" transform="matrix(-1.07232403755188, 0.9143440127372743, -0.8300921320915222, -0.9735162258148194, 998.605709802403, 390.0086265074565)"/><path style="stroke: rgba(0, 0, 0, 0); fill: rgb(255, 217, 230); stroke-width: 3.14518; vector-effect: non-scaling-stroke;" d="M 284.804 213.675 C 283.513 213.758 279.669 209.844 279.76 208.98 C 280.164 205.183 283.083 206.118 284.257 204.723 C 284.999 203.831 290.912 198.073 291.637 197.21 C 292.999 195.585 299.603 195.133 301.604 196.472 C 304.36 198.307 300.878 207.169 297.006 209.562 C 294.168 211.32 291.156 213.658 286.61 214.037" transform="matrix(-1.07232403755188, 0.9143440127372743, -0.8300921320915222, -0.9735162258148194, 968.5128142945905, 374.94667582386273)"/><path style="stroke: rgba(0, 0, 0, 0); fill: rgb(255, 100, 170); stroke-width: 3.14518; vector-effect: non-scaling-stroke;" d="M 295.167 207.794 C 299.655 201.993 310.238 201.967 311.936 211.441 C 312.115 212.44 312.043 214.18 311.828 215.079 C 310.291 221.546 306.098 218.187 302.774 219.332 C 301.78 219.67 300.639 220.265 299.767 221.133 C 297.629 223.25 293.542 228.643 290.695 227.832 C 285.833 226.451 292.476 211.229 294.957 208.024" transform="matrix(-1.07232403755188, 0.9143440127372743, -0.8300921320915222, -0.9735162258148194, 999.5648162477155, 391.2076621519876)"/><path style="stroke: rgba(0, 0, 0, 0); fill: rgb(255, 217, 230); stroke-width: 3.14518; vector-effect: non-scaling-stroke;" d="M 295.303 208.407 C 299.666 202.97 309.965 202.947 311.638 211.815 C 311.816 212.751 311.744 214.386 311.541 215.223 C 310.059 221.284 305.972 218.137 302.737 219.207 C 301.769 219.525 300.662 220.085 299.813 220.9 C 297.735 222.878 293.768 227.931 290.994 227.174 C 286.258 225.873 292.693 211.618 295.101 208.613" transform="matrix(-1.07232403755188, 0.9143440127372743, -0.8300921320915222, -0.9735162258148194, 999.689450036778, 391.41765360706574)"/><path style="stroke: rgba(0, 0, 0, 0); fill: rgb(255, 100, 170); stroke-width: 3.14518; vector-effect: non-scaling-stroke;" d="M 295.444 209.168 C 299.608 204.213 309.489 204.192 311.122 212.276 C 311.294 213.128 311.23 214.613 311.036 215.377 C 309.632 220.899 305.702 218.032 302.601 219.007 C 301.675 219.297 300.615 219.808 299.802 220.546 C 297.816 222.354 294.028 226.958 291.366 226.261 C 286.817 225.078 292.951 212.098 295.252 209.358" transform="matrix(-1.07232403755188, 0.9143440127372743, -0.8300921320915222, -0.9735162258148194, 999.651364099278, 391.6606345640971)"/><path style="stroke: rgba(0, 0, 0, 0); fill: rgb(255, 217, 230); stroke-width: 3.14518; vector-effect: non-scaling-stroke;" d="M 295.722 209.792 C 299.697 205.21 309.157 205.188 310.733 212.67 C 310.9 213.46 310.843 214.834 310.658 215.545 C 309.323 220.656 305.559 218.002 302.591 218.903 C 301.705 219.171 300.69 219.646 299.916 220.33 C 298.017 222 294.399 226.262 291.844 225.616 C 287.491 224.523 293.338 212.504 295.532 209.972" transform="matrix(-1.07232403755188, 0.9143440127372743, -0.8300921320915222, -0.9735162258148194, 999.9271209352155, 391.8499045836285)"/><path style="stroke: rgba(0, 0, 0, 0); fill: rgb(255, 100, 170); stroke-width: 3.14518; vector-effect: non-scaling-stroke;" d="M 296.356 211.044 C 299.912 207.099 308.385 207.086 309.816 213.515 C 309.963 214.194 309.917 215.38 309.752 215.983 C 308.569 220.375 305.189 218.098 302.531 218.869 C 301.74 219.102 300.83 219.511 300.137 220.097 C 298.439 221.533 295.204 225.193 292.92 224.641 C 289.016 223.7 294.227 213.37 296.19 211.196" transform="matrix(-1.07232403755188, 0.9143440127372743, -0.8300921320915222, -0.9735162258148194, 1000.567623864903, 392.5155845152691)"/><path style="stroke: rgba(0, 0, 0, 0); fill: rgb(255, 217, 230); stroke-width: 3.14518; vector-effect: non-scaling-stroke;" d="M 296.54 211.866 C 299.905 208.339 307.959 208.32 309.337 214.074 C 309.482 214.682 309.438 215.745 309.288 216.287 C 308.178 220.217 304.957 218.176 302.435 218.867 C 301.679 219.077 300.819 219.44 300.162 219.965 C 298.552 221.254 295.493 224.526 293.32 224.035 C 289.605 223.191 294.525 213.947 296.381 212.002" transform="matrix(-1.07232403755188, 0.9143440127372743, -0.8300921320915222, -0.9735162258148194, 1000.7362029664655, 393.0941062437847)"/><path style="stroke: rgba(0, 0, 0, 0); fill: rgb(255, 100, 170); stroke-width: 3.14518; vector-effect: non-scaling-stroke;" d="M 296.92 212.816 C 300.023 209.816 307.477 209.806 308.778 214.699 C 308.916 215.213 308.884 216.113 308.74 216.575 C 307.73 219.914 304.742 218.181 302.409 218.769 C 301.712 218.946 300.917 219.256 300.311 219.701 C 298.827 220.793 296.009 223.577 293.991 223.161 C 290.548 222.442 295.065 214.589 296.776 212.932" transform="matrix(-1.07232403755188, 0.9143440127372743, -0.8300921320915222, -0.9735162258148194, 1001.148434411778, 393.4943747984722)"/><path style="stroke: rgba(0, 0, 0, 0); fill: rgb(255, 217, 230); stroke-width: 3.14518; vector-effect: non-scaling-stroke;" d="M 297.317 213.745 C 300.105 211.114 306.824 211.101 308.003 215.394 C 308.129 215.843 308.1 216.632 307.971 217.039 C 307.07 219.968 304.369 218.445 302.27 218.962 C 301.642 219.121 300.926 219.391 300.382 219.779 C 299.041 220.741 296.507 223.183 294.694 222.81 C 291.586 222.186 295.647 215.296 297.184 213.843" transform="matrix(-1.07232403755188, 0.9143440127372743, -0.8300921320915222, -0.9735162258148194, 1001.513912927403, 394.4279685484722)"/><path style="stroke: rgba(255, 100, 170, 0); fill: rgb(255, 100, 170); stroke-width: 17.1846; vector-effect: non-scaling-stroke;" d="M 285.261 212.84 C 284.094 212.917 280.624 209.312 280.711 208.516 C 281.079 205.013 283.712 205.877 284.776 204.589 C 285.445 203.766 290.795 198.46 291.447 197.662 C 292.681 196.165 298.64 195.748 300.451 196.984 C 302.935 198.677 299.778 206.845 296.286 209.051 C 293.717 210.668 290.993 212.823 286.89 213.178" transform="matrix(-1.07232403755188, 0.9143440127372743, -0.8300921320915222, -0.9735162258148194, 968.035885583653, 374.7638144957376)"/><path style="stroke: rgba(255, 100, 170, 0); stroke-width: 17.1846; vector-effect: non-scaling-stroke; fill: rgb(255, 217, 230);" d="M 285.42 212.356 C 284.301 212.433 280.972 208.99 281.051 208.227 C 281.408 204.881 283.935 205.709 284.952 204.478 C 285.597 203.696 290.722 198.632 291.351 197.867 C 292.532 196.438 298.25 196.044 299.984 197.22 C 302.366 198.837 299.347 206.634 295.992 208.743 C 293.53 210.289 290.919 212.345 286.984 212.68" transform="matrix(-1.07232403755188, 0.9143440127372743, -0.8300921320915222, -0.9735162258148194, 967.7521941774032, 374.58070902698785)"/><path style="stroke: rgba(255, 100, 170, 0); stroke-width: 17.1846; vector-effect: non-scaling-stroke; fill: rgb(255, 100, 170);" d="M 285.673 211.494 C 284.631 211.561 281.528 208.442 281.605 207.755 C 281.927 204.731 284.281 205.474 285.224 204.365 C 285.827 203.655 290.584 199.065 291.171 198.376 C 292.262 197.081 297.586 196.726 299.202 197.787 C 301.423 199.252 298.622 206.314 295.504 208.222 C 293.215 209.621 290.789 211.484 287.127 211.787" transform="matrix(-1.07232403755188, 0.9143440127372743, -0.8300921320915222, -0.9735162258148194, 967.3094451539653, 374.4214988219096)"/><path style="stroke: rgba(255, 100, 170, 0); stroke-width: 17.1846; vector-effect: non-scaling-stroke; fill: rgb(255, 217, 230);" d="M 285.992 210.795 C 285.009 210.858 282.067 207.987 282.138 207.353 C 282.441 204.559 284.666 205.25 285.558 204.221 C 286.124 203.569 290.622 199.342 291.172 198.707 C 292.207 197.512 297.243 197.182 298.772 198.168 C 300.873 199.514 298.235 206.022 295.288 207.782 C 293.126 209.068 290.835 210.785 287.367 211.065" transform="matrix(-1.07232403755188, 0.9143440127372743, -0.8300921320915222, -0.9735162258148194, 967.270748864903, 374.048055218394)"/><path style="stroke: rgba(255, 100, 170, 0); stroke-width: 17.1846; vector-effect: non-scaling-stroke; fill: rgb(255, 100, 170);" d="M 286.289 209.492 C 285.385 209.544 282.664 207.099 282.728 206.561 C 282.991 204.189 285.049 204.776 285.863 203.899 C 286.385 203.343 290.508 199.746 291.015 199.206 C 291.963 198.192 296.596 197.909 298.013 198.743 C 299.952 199.887 297.548 205.429 294.84 206.922 C 292.857 208.022 290.752 209.485 287.562 209.721" transform="matrix(-1.07232403755188, 0.9143440127372743, -0.8300921320915222, -0.9735162258148194, 966.741574060215, 373.374501751597)"/><path style="stroke: rgba(255, 100, 170, 0); stroke-width: 17.1846; vector-effect: non-scaling-stroke; fill: rgb(255, 217, 230);" d="M 286.444 208.958 C 285.589 209.008 283.024 206.787 283.079 206.297 C 283.325 204.139 285.266 204.671 286.03 203.881 C 286.521 203.374 290.403 200.104 290.874 199.616 C 291.767 198.693 296.14 198.437 297.477 199.199 C 299.304 200.24 297.051 205.269 294.501 206.629 C 292.633 207.626 290.652 208.953 287.644 209.168" transform="matrix(-1.07232403755188, 0.9143440127372743, -0.8300921320915222, -0.9735162258148194, 966.4490935914653, 373.41933207386285)"/><path style="stroke: rgba(255, 100, 170, 0); stroke-width: 17.1846; vector-effect: non-scaling-stroke; fill: rgb(255, 100, 170);" d="M 287.027 208.301 C 286.279 208.343 284.04 206.366 284.089 205.932 C 284.306 204.013 285.999 204.486 286.671 203.783 C 287.102 203.331 290.493 200.419 290.912 199.986 C 291.688 199.161 295.505 198.935 296.673 199.614 C 298.272 200.541 296.298 205.016 294.069 206.225 C 292.436 207.113 290.702 208.295 288.074 208.484" transform="matrix(-1.07232403755188, 0.9143440127372743, -0.8300921320915222, -0.9735162258148194, 966.5135467164655, 373.10451273792523)"/><path style="stroke: rgba(255, 100, 170, 0); stroke-width: 17.1846; vector-effect: non-scaling-stroke; fill: rgb(255, 217, 230);" d="M 287.172 207.573 C 286.467 207.611 284.348 205.877 284.394 205.497 C 284.59 203.815 286.189 204.231 286.819 203.614 C 287.215 203.219 290.406 200.668 290.796 200.285 C 291.528 199.568 295.126 199.366 296.226 199.958 C 297.736 200.77 295.893 204.697 293.797 205.754 C 292.259 206.531 290.634 207.568 288.159 207.733" transform="matrix(-1.07232403755188, 0.9143440127372743, -0.8300921320915222, -0.9735162258148194, 966.1707732789655, 372.7794394957376)"/></g></svg>