<?xml version="1.0" encoding="utf-8"?>
<svg id="master-artboard" viewBox="0 0 389.4794006347656 373.6876220703125" version="1.1" xmlns="http://www.w3.org/2000/svg" x="0px" y="0px" style="enable-background:new 0 0 1400 980;" width="389.4794006347656px" height="373.6876220703125px"><defs><style id="ee-google-fonts">@import url(https://fonts.googleapis.com/css?family=Fjalla+One:400|Roboto:100,100italic,300,300italic,400,400italic,500,500italic,700,700italic,900,900italic);</style><style id="style-1">@import url(https://fonts.googleapis.com/css?family=Anton:400|Roboto+Slab:100,300,400,700);</style><path id="text-path-0" d="M 778.8464965820312 213.4612274169922 A 100 18 0 0 1 988.3533935546875 213.4612274169922 A 100 18 0 0 1 778.8464965820312 213.4612274169922 Z" style="fill: none; stroke: red; stroke-width: 2;"/><path id="text-path-1" d="M 664.5464477539062 37.96122741699219 A 100 19 0 0 1 876.5812377929688 37.96122741699219 A 100 19 0 0 1 664.5464477539062 37.96122741699219" style="fill: none; stroke: red; stroke-width: 2;"/><path id="text-path-2" d="M 765.3650512695312 211.70851135253906 A 100 17 0 0 1 991.5017700195312 211.70851135253906 A 100 17 0 0 1 765.3650512695312 211.70851135253906" style="fill: none; stroke: red; stroke-width: 2;"/><path id="path-1" d="M 765.3650512695312 211.70851135253906 A 100 17 0 0 1 991.5017700195312 211.70851135253906 A 100 17 0 0 1 765.3650512695312 211.70851135253906" style="fill: none; stroke: red; stroke-width: 2;"/><path id="path-2" d="M 778.8464965820312 213.4612274169922 A 100 18 0 0 1 988.3533935546875 213.4612274169922 A 100 18 0 0 1 778.8464965820312 213.4612274169922 Z" style="fill: none; stroke: red; stroke-width: 2;"/><path id="path-3" d="M 664.5464477539062 37.96122741699219 A 100 19 0 0 1 876.5812377929688 37.96122741699219 A 100 19 0 0 1 664.5464477539062 37.96122741699219" style="fill: none; stroke: red; stroke-width: 2;"/><path id="path-4" d="M 765.3650512695312 211.70851135253906 A 100 17 0 0 1 991.5017700195312 211.70851135253906 A 100 17 0 0 1 765.3650512695312 211.70851135253906" style="fill: none; stroke: red; stroke-width: 2;"/><path id="path-5" d="M 765.3650512695312 211.70851135253906 A 100 17 0 0 1 991.5017700195312 211.70851135253906 A 100 17 0 0 1 765.3650512695312 211.70851135253906" style="fill: none; stroke: red; stroke-width: 2;"/><path id="path-6" d="M 778.8464965820312 213.4612274169922 A 100 18 0 0 1 988.3533935546875 213.4612274169922 A 100 18 0 0 1 778.8464965820312 213.4612274169922 Z" style="fill: none; stroke: red; stroke-width: 2;"/><path id="path-7" d="M 664.5464477539062 37.96122741699219 A 100 19 0 0 1 876.5812377929688 37.96122741699219 A 100 19 0 0 1 664.5464477539062 37.96122741699219" style="fill: none; stroke: red; stroke-width: 2;"/><path id="path-8" d="M 765.3650512695312 211.70851135253906 A 100 17 0 0 1 991.5017700195312 211.70851135253906 A 100 17 0 0 1 765.3650512695312 211.70851135253906" style="fill: none; stroke: red; stroke-width: 2;"/><path id="path-9" d="M 765.3650512695312 211.70851135253906 A 100 17 0 0 1 991.5017700195312 211.70851135253906 A 100 17 0 0 1 765.3650512695312 211.70851135253906" style="fill: none; stroke: red; stroke-width: 2;"/><path id="path-10" d="M 778.8464965820312 213.4612274169922 A 100 18 0 0 1 988.3533935546875 213.4612274169922 A 100 18 0 0 1 778.8464965820312 213.4612274169922 Z" style="fill: none; stroke: red; stroke-width: 2;"/><path id="path-11" d="M 664.5464477539062 37.96122741699219 A 100 19 0 0 1 876.5812377929688 37.96122741699219 A 100 19 0 0 1 664.5464477539062 37.96122741699219" style="fill: none; stroke: red; stroke-width: 2;"/><path id="path-12" d="M 765.3650512695312 211.70851135253906 A 100 17 0 0 1 991.5017700195312 211.70851135253906 A 100 17 0 0 1 765.3650512695312 211.70851135253906" style="fill: none; stroke: red; stroke-width: 2;"/><path id="path-13" d="M 765.3650512695312 211.70851135253906 A 100 17 0 0 1 991.5017700195312 211.70851135253906 A 100 17 0 0 1 765.3650512695312 211.70851135253906" style="fill: none; stroke: red; stroke-width: 2;"/><path id="path-14" d="M 778.8464965820312 213.4612274169922 A 100 18 0 0 1 988.3533935546875 213.4612274169922 A 100 18 0 0 1 778.8464965820312 213.4612274169922 Z" style="fill: none; stroke: red; stroke-width: 2;"/><path id="path-15" d="M 664.5464477539062 37.96122741699219 A 100 19 0 0 1 876.5812377929688 37.96122741699219 A 100 19 0 0 1 664.5464477539062 37.96122741699219" style="fill: none; stroke: red; stroke-width: 2;"/><path id="path-16" d="M 765.3650512695312 211.70851135253906 A 100 17 0 0 1 991.5017700195312 211.70851135253906 A 100 17 0 0 1 765.3650512695312 211.70851135253906" style="fill: none; stroke: red; stroke-width: 2;"/><path id="path-17" d="M 765.3650512695312 211.70851135253906 A 100 17 0 0 1 991.5017700195312 211.70851135253906 A 100 17 0 0 1 765.3650512695312 211.70851135253906" style="fill: none; stroke: red; stroke-width: 2;"/><path id="path-18" d="M 778.8464965820312 213.4612274169922 A 100 18 0 0 1 988.3533935546875 213.4612274169922 A 100 18 0 0 1 778.8464965820312 213.4612274169922 Z" style="fill: none; stroke: red; stroke-width: 2;"/><path id="path-19" d="M 664.5464477539062 37.96122741699219 A 100 19 0 0 1 876.5812377929688 37.96122741699219 A 100 19 0 0 1 664.5464477539062 37.96122741699219" style="fill: none; stroke: red; stroke-width: 2;"/><path id="path-20" d="M 765.3650512695312 211.70851135253906 A 100 17 0 0 1 991.5017700195312 211.70851135253906 A 100 17 0 0 1 765.3650512695312 211.70851135253906" style="fill: none; stroke: red; stroke-width: 2;"/><path id="path-21" d="M 765.3650512695312 211.70851135253906 A 100 17 0 0 1 991.5017700195312 211.70851135253906 A 100 17 0 0 1 765.3650512695312 211.70851135253906" style="fill: none; stroke: red; stroke-width: 2;"/><path id="path-22" d="M 778.8464965820312 213.4612274169922 A 100 18 0 0 1 988.3533935546875 213.4612274169922 A 100 18 0 0 1 778.8464965820312 213.4612274169922 Z" style="fill: none; stroke: red; stroke-width: 2;"/><path id="path-23" d="M 664.5464477539062 37.96122741699219 A 100 19 0 0 1 876.5812377929688 37.96122741699219 A 100 19 0 0 1 664.5464477539062 37.96122741699219" style="fill: none; stroke: red; stroke-width: 2;"/><path id="path-24" d="M 765.3650512695312 211.70851135253906 A 100 17 0 0 1 991.5017700195312 211.70851135253906 A 100 17 0 0 1 765.3650512695312 211.70851135253906" style="fill: none; stroke: red; stroke-width: 2;"/><path id="path-25" d="M 765.3650512695312 211.70851135253906 A 100 17 0 0 1 991.5017700195312 211.70851135253906 A 100 17 0 0 1 765.3650512695312 211.70851135253906" style="fill: none; stroke: red; stroke-width: 2;"/></defs>











































<g transform="matrix(1, 0, 0, 1, -426.03710412979126, -240.9805908203125)">
		<path class="st13" d="M448.4,599.9" style="fill: rgb(223, 243, 251);"/>
	</g>





















































<g transform="matrix(1.3109453916549683, 0, 0, 1.3109453916549683, -440.1334079575128, -444.77394834720053)"><rect id="ee-background" x="0" y="0" width="1400" height="980" style="fill: none; fill-opacity: 1; pointer-events: none;"/><path style="fill: rgb(63, 61, 61); fill-opacity: 1; stroke: rgb(0, 0, 0); stroke-opacity: 1; stroke-width: 0; paint-order: fill;"/><path style="fill: rgb(63, 61, 61); fill-opacity: 1; stroke: rgb(0, 0, 0); stroke-opacity: 1; stroke-width: 0; paint-order: fill;"/><path d="M 880.3870239257812 239.90606689453125" style="fill: rgb(63, 61, 61); fill-opacity: 1; stroke: rgb(0, 0, 0); stroke-opacity: 1; stroke-width: 0; paint-order: fill;"/><path d="M 864.144775390625 229.48651123046875" style="fill: rgb(63, 61, 61); fill-opacity: 1; stroke: rgb(0, 0, 0); stroke-opacity: 1; stroke-width: 0; paint-order: fill;"/><path style="fill: rgb(63, 61, 61); fill-opacity: 1; stroke: rgb(0, 0, 0); stroke-opacity: 1; stroke-width: 0; paint-order: fill;"/><path style="fill: rgb(63, 61, 61); fill-opacity: 1; stroke: rgb(0, 0, 0); stroke-opacity: 1; stroke-width: 0; paint-order: fill;"/><path style="fill: rgb(63, 61, 61); fill-opacity: 1; stroke: rgb(0, 0, 0); stroke-opacity: 1; stroke-width: 0; paint-order: fill;"/><path style="fill: rgb(63, 61, 61); fill-opacity: 1; stroke: rgb(0, 0, 0); stroke-opacity: 1; stroke-width: 0; paint-order: fill;"/><path style="fill: rgb(197, 37, 37); stroke: rgba(0, 0, 0, 0);" d="M 758.614 409.207 C 762.329 417.238 768.58 427.24 778.127 428.178 C 783.579 428.713 787.191 427.179 790.241 422.894 C 796.898 413.544 801.292 399.1 797.466 387.524 C 792.186 371.547 771.136 370.274 760.913 381.324 C 755.156 387.545 756.652 401.231 758.49 409.166" transform="matrix(1, 0, 0, 1, -210.6781088553562, 67.2610461141503)"/><path style="stroke: rgba(0, 0, 0, 0); fill: rgb(226, 43, 67);" d="M 760.17 407.57 C 763.76 415.453 769.802 425.271 779.029 426.193 C 784.296 426.719 787.787 425.214 790.734 421.007 C 797.168 411.827 801.415 397.646 797.718 386.284 C 792.615 370.598 772.272 369.349 762.392 380.196 C 756.829 386.303 758.275 399.737 760.05 407.53" transform="matrix(1, 0, 0, 1, -210.6781088553562, 67.2610461141503)"/><path style="fill: rgb(255, 87, 87); stroke: rgba(0, 0, 0, 0);" d="M 767.003 394.268 C 768.612 392.411 770.927 392.038 773.115 391.809 C 777.814 391.316 782.499 391.89 787.186 390.989 C 788.596 390.719 794.102 389.514 793.298 386.727 C 792.432 383.732 789.001 382.231 786.76 381.154 C 780.279 378.039 772.287 376.208 766.576 382.138 C 764.401 384.395 762.659 387.107 762.171 390.498 C 762.003 391.662 761.601 393.283 762.454 394.268 C 763.609 395.599 763.304 395.415 764.587 395.415" transform="matrix(1, 0, 0, 1, -210.6781088553562, 67.2610461141503)"/><path style="fill: rgb(255, 87, 87); stroke: rgba(0, 0, 0, 0);" d="M 793.48 411.564 C 789.513 417.01 785.124 427.267 775.211 422.891 C 774.083 422.393 772.881 421.256 772.092 420.282 C 771.576 419.646 771.334 419.053 771.118 418.274 C 769.109 411.037 777.382 412.702 781.554 410.555 C 783.052 409.784 785.08 409.107 786.353 407.961 C 788.755 405.796 790.68 402.717 792.906 400.424 C 795.321 397.937 797.531 400.306 796.791 402.337 C 796.493 403.159 796.212 405.803 795.833 406.588" transform="matrix(1, 0, 0, 1, -210.6781088553562, 67.2610461141503)"/><path style="fill: rgb(255, 144, 144); stroke: rgba(0, 0, 0, 0);" d="M 773.41 413.436 C 772.385 411.793 772.782 408.533 773.899 407.255 C 775.725 405.159 777.979 407.504 778.402 410.568 C 778.547 411.614 778.521 413.003 778.308 414.031 C 777.622 417.336 774.831 418.024 773.711 414.935 C 772.05 410.356 773.241 411.06 773.241 408.911" transform="matrix(1, 0, 0, 1, -210.6781088553562, 67.2610461141503)"/><path style="fill: rgb(255, 144, 144); stroke: rgba(0, 0, 0, 0);" d="M 763.244 399.516 C 762.087 401.02 762.534 404.006 763.797 405.177 C 765.863 407.094 768.411 404.948 768.891 402.142 C 769.056 401.185 769.027 399.912 768.785 398.969 C 768.01 395.943 764.852 395.313 763.584 398.144 C 761.706 402.336 763.054 401.692 763.054 403.659" transform="matrix(1, 0, 0, 1, -210.6781088553562, 67.2610461141503)"/><path style="fill: rgb(255, 144, 144); stroke: rgba(0, 0, 0, 0);" d="M 787.584 389.54 C 786.538 391.337 786.884 394.901 787.978 396.299 C 789.77 398.59 792.052 396.028 792.521 392.677 C 792.68 391.531 792.676 390.014 792.476 388.889 C 791.842 385.275 789.068 384.522 787.906 387.901 C 786.182 392.908 787.38 392.137 787.349 394.489" transform="matrix(0.9955601096153259, -0.0941300168633461, 0.0941300168633461, 0.9955601096153259, -244.01892630683335, 143.34274930018546)"/><path style="fill: rgb(197, 37, 37); stroke: rgba(0, 0, 0, 0);" d="M 609.123 485.682 C 613.168 477 619.975 466.185 630.37 465.17 C 636.307 464.593 640.239 466.251 643.561 470.883 C 650.809 480.993 655.593 496.611 651.428 509.127 C 645.678 526.401 622.758 527.778 611.627 515.83 C 605.358 509.104 606.988 494.306 608.988 485.727" transform="matrix(1, 0, 0, 1, -210.6781088553562, 67.2610461141503)"/><path style="fill: rgb(255, 144, 144); stroke: rgba(0, 0, 0, 0);" d="M 614.166 496.16 C 612.905 494.535 613.392 491.307 614.767 490.04 C 617.016 487.968 619.791 490.287 620.314 493.321 C 620.493 494.356 620.461 495.733 620.198 496.752 C 619.354 500.024 615.916 500.705 614.535 497.645 C 612.49 493.111 613.959 493.809 613.959 491.682" transform="matrix(1, 0, 0, 1, -210.6781088553562, 67.2610461141503)"/><path style="stroke: rgba(0, 0, 0, 0); fill: rgb(226, 43, 67);" d="M 610.819 487.453 C 614.727 478.929 621.306 468.314 631.352 467.317 C 637.087 466.748 640.889 468.375 644.098 472.924 C 651.103 482.85 655.727 498.183 651.702 510.467 C 646.145 527.428 623.996 528.778 613.238 517.05 C 607.18 510.448 608.755 495.922 610.687 487.495" transform="matrix(1, 0, 0, 1, -210.6781088553562, 67.2610461141503)"/><path style="fill: rgb(255, 87, 87); stroke: rgba(0, 0, 0, 0);" d="M 618.258 501.835 C 620.01 503.842 622.53 504.247 624.913 504.494 C 630.03 505.027 635.131 504.407 640.234 505.38 C 641.77 505.673 647.765 506.976 646.888 509.988 C 645.946 513.227 642.21 514.85 639.771 516.014 C 632.714 519.382 624.012 521.363 617.793 514.952 C 615.426 512.51 613.528 509.578 612.997 505.911 C 612.814 504.653 612.376 502.901 613.305 501.835 C 614.563 500.395 614.23 500.594 615.628 500.594" transform="matrix(1, 0, 0, 1, -210.6781088553562, 67.2610461141503)"/><path style="fill: rgb(255, 87, 87); stroke: rgba(0, 0, 0, 0);" d="M 647.087 483.134 C 642.768 477.245 637.989 466.156 627.195 470.887 C 625.967 471.425 624.658 472.655 623.799 473.708 C 623.237 474.395 622.974 475.037 622.739 475.879 C 620.551 483.703 629.559 481.903 634.101 484.225 C 635.733 485.059 637.941 485.791 639.327 487.03 C 641.943 489.372 644.038 492.699 646.461 495.178 C 649.092 497.868 651.498 495.308 650.693 493.11 C 650.368 492.222 650.062 489.363 649.648 488.514" transform="matrix(1, 0, 0, 1, -210.6781088553562, 67.2610461141503)"/><path style="fill: rgb(255, 144, 144); stroke: rgba(0, 0, 0, 0);" d="M 625.234 481.109 C 624.119 482.886 624.55 486.411 625.766 487.794 C 627.754 490.059 630.209 487.524 630.669 484.211 C 630.828 483.08 630.799 481.578 630.568 480.467 C 629.82 476.894 626.782 476.149 625.562 479.49 C 623.753 484.44 625.05 483.679 625.05 486.003" transform="matrix(1, 0, 0, 1, -210.6781088553562, 67.2610461141503)"/><path style="fill: rgb(255, 144, 144); stroke: rgba(0, 0, 0, 0);" d="M 640.664 506.947 C 639.528 505.003 639.909 501.149 641.103 499.638 C 643.057 497.161 645.538 499.93 646.044 503.555 C 646.216 504.793 646.209 506.434 645.989 507.651 C 645.295 511.558 642.272 512.373 641.012 508.718 C 639.143 503.305 640.445 504.138 640.415 501.595" transform="matrix(0.9956210255622865, 0.09347900003194812, -0.09347900003194812, 0.9956210255622865, -160.6666104041234, 9.357728662673225)"/><path style="fill: rgb(197, 37, 37); stroke: rgba(0, 0, 0, 0);" d="M 672.839 431.038 C 677.478 421.591 685.285 409.824 697.207 408.719 C 704.015 408.091 708.525 409.895 712.335 414.935 C 720.647 425.936 726.134 442.929 721.357 456.547 C 714.763 475.343 688.477 476.841 675.711 463.841 C 668.522 456.522 670.391 440.421 672.685 431.087" transform="matrix(0, -1, 1, 0, 45.72965271843532, 1204.6142031576073)"/><path style="stroke: rgba(0, 0, 0, 0); fill: rgb(226, 43, 67);" d="M 675.403 430.075 C 679.884 420.8 687.43 409.25 698.951 408.165 C 705.528 407.546 709.888 409.316 713.569 414.266 C 721.602 425.066 726.905 441.749 722.289 455.115 C 715.916 473.57 690.515 475.039 678.177 462.278 C 671.229 455.095 673.035 439.289 675.251 430.12" transform="matrix(0, -1, 1, 0, 48.61957581413844, 1205.2323672201073)"/><path style="fill: rgb(255, 87, 87); stroke: rgba(0, 0, 0, 0);" d="M 700.465 431.995 C 702.474 434.179 705.364 434.619 708.097 434.888 C 713.966 435.468 719.816 434.794 725.668 435.852 C 727.43 436.171 734.305 437.589 733.299 440.866 C 732.219 444.39 727.934 446.156 725.137 447.423 C 717.044 451.087 707.064 453.243 699.932 446.267 C 697.217 443.61 695.04 440.42 694.431 436.43 C 694.222 435.061 693.719 433.155 694.785 431.995 C 696.227 430.428 695.845 430.645 697.449 430.645" transform="matrix(0, -1, 1, 0, 62.34626038445094, 1221.7639834310448)"/><path style="fill: rgb(255, 87, 87); stroke: rgba(0, 0, 0, 0);" d="M 696.564 433.076 C 691.61 426.669 686.129 414.603 673.75 419.751 C 672.342 420.336 670.841 421.674 669.856 422.82 C 669.211 423.568 668.91 424.266 668.64 425.182 C 666.131 433.695 676.462 431.737 681.671 434.263 C 683.542 435.171 686.074 435.967 687.664 437.315 C 690.664 439.864 693.067 443.484 695.846 446.181 C 698.863 449.108 701.622 446.322 700.699 443.931 C 700.326 442.964 699.975 439.854 699.501 438.93" transform="matrix(0, -1, 1, 0, 40.916786507497704, 1184.7996279622948)"/><path style="fill: rgb(255, 144, 144); stroke: rgba(0, 0, 0, 0);" d="M 681.723 441.173 C 680.445 443.106 680.939 446.942 682.334 448.447 C 684.613 450.911 687.429 448.153 687.957 444.548 C 688.139 443.317 688.106 441.683 687.841 440.474 C 686.983 436.587 683.499 435.776 682.1 439.411 C 680.025 444.797 681.512 443.969 681.512 446.498" transform="matrix(0, -1, 1, 0, 30.616920784841454, 1195.0215517904198)"/><path style="fill: rgb(255, 144, 144); stroke: rgba(0, 0, 0, 0);" d="M 693.79 457.44 C 692.344 455.672 692.902 452.16 694.479 450.781 C 697.059 448.527 700.241 451.05 700.841 454.351 C 701.046 455.477 701.009 456.976 700.708 458.084 C 699.74 461.645 695.797 462.386 694.213 459.056 C 691.868 454.123 693.553 454.882 693.553 452.568" transform="matrix(0, -1, 1, 0, 30.726112679372818, 1219.780096712295)"/><path style="fill: rgb(255, 144, 144); stroke: rgba(0, 0, 0, 0);" d="M 705.542 427.827 C 704.261 425.711 704.739 421.516 706.124 419.871 C 708.39 417.174 711.205 420.189 711.746 424.135 C 711.93 425.482 711.904 427.269 711.639 428.593 C 710.802 432.846 707.328 433.733 705.922 429.755 C 703.838 423.862 705.321 424.769 705.314 422.001" transform="matrix(0.0887259989976883, -0.9960560202598572, 0.9960560202598572, 0.0887259989976883, 10.907936409841568, 1160.6121279622946)"/><path style="fill: rgb(197, 37, 37); stroke: rgba(0, 0, 0, 0);" d="M 602.674 313.699 C 607.313 304.252 615.12 292.485 627.042 291.38 C 633.85 290.752 638.36 292.556 642.17 297.596 C 650.482 308.597 655.969 325.59 651.192 339.208 C 644.598 358.004 618.312 359.502 605.546 346.502 C 598.357 339.183 600.226 323.082 602.52 313.748" transform="matrix(1, 0, 0, 1, -210.6781088553562, 67.2610461141503)"/><path style="stroke: rgba(0, 0, 0, 0); fill: rgb(226, 43, 67);" d="M 604.62 315.626 C 609.101 306.351 616.647 294.801 628.168 293.716 C 634.745 293.097 639.105 294.867 642.786 299.817 C 650.819 310.617 656.122 327.3 651.506 340.666 C 645.133 359.121 619.732 360.59 607.394 347.829 C 600.446 340.646 602.252 324.84 604.468 315.671" transform="matrix(1, 0, 0, 1, -210.6781088553562, 67.2610461141503)"/><path style="fill: rgb(255, 87, 87); stroke: rgba(0, 0, 0, 0);" d="M 613.149 331.271 C 615.158 333.455 618.048 333.895 620.781 334.164 C 626.65 334.744 632.5 334.07 638.352 335.128 C 640.114 335.447 646.989 336.865 645.983 340.142 C 644.903 343.666 640.618 345.432 637.821 346.699 C 629.728 350.363 619.748 352.519 612.616 345.543 C 609.901 342.886 607.724 339.696 607.115 335.706 C 606.906 334.337 606.403 332.431 607.469 331.271 C 608.911 329.704 608.529 329.921 610.133 329.921" transform="matrix(1, 0, 0, 1, -210.6781088553562, 67.2610461141503)"/><path style="fill: rgb(255, 87, 87); stroke: rgba(0, 0, 0, 0);" d="M 646.212 310.923 C 641.258 304.516 635.777 292.45 623.398 297.598 C 621.99 298.183 620.489 299.521 619.504 300.667 C 618.859 301.415 618.558 302.113 618.288 303.029 C 615.779 311.542 626.11 309.584 631.319 312.11 C 633.19 313.018 635.722 313.814 637.312 315.162 C 640.312 317.711 642.715 321.331 645.494 324.028 C 648.511 326.955 651.27 324.169 650.347 321.778 C 649.974 320.811 649.623 317.701 649.149 316.777" transform="matrix(1, 0, 0, 1, -210.6781088553562, 67.2610461141503)"/><path style="fill: rgb(255, 144, 144); stroke: rgba(0, 0, 0, 0);" d="M 621.149 308.72 C 619.871 310.653 620.365 314.489 621.76 315.994 C 624.039 318.458 626.855 315.7 627.383 312.095 C 627.565 310.864 627.532 309.23 627.267 308.021 C 626.409 304.134 622.925 303.323 621.526 306.958 C 619.451 312.344 620.938 311.516 620.938 314.045" transform="matrix(1, 0, 0, 1, -210.6781088553562, 67.2610461141503)"/><path style="fill: rgb(255, 144, 144); stroke: rgba(0, 0, 0, 0);" d="M 608.458 325.096 C 607.012 323.328 607.57 319.816 609.147 318.437 C 611.727 316.183 614.909 318.706 615.509 322.007 C 615.714 323.133 615.677 324.632 615.376 325.74 C 614.408 329.301 610.465 330.042 608.881 326.712 C 606.536 321.779 608.221 322.538 608.221 320.224" transform="matrix(1, 0, 0, 1, -210.6781088553562, 67.2610461141503)"/><path style="fill: rgb(197, 37, 37); stroke: rgba(0, 0, 0, 0);" d="M 713.768 309.53 C 718.341 300.302 726.037 288.807 737.789 287.727 C 744.5 287.114 748.946 288.876 752.702 293.8 C 760.895 304.547 766.305 321.146 761.596 334.449 C 755.095 352.811 729.183 354.274 716.599 341.575 C 709.512 334.425 711.355 318.696 713.616 309.578" transform="matrix(0, 1, -1, 0, 845.5359881676542, -351.4596798990333)"/><path style="stroke: rgba(0, 0, 0, 0); fill: rgb(226, 43, 67);" d="M 712.853 310.818 C 717.27 301.759 724.709 290.475 736.066 289.415 C 742.549 288.811 746.848 290.539 750.476 295.375 C 758.394 305.926 763.622 322.222 759.072 335.28 C 752.789 353.308 727.75 354.743 715.587 342.277 C 708.738 335.26 710.519 319.82 712.703 310.863" transform="matrix(0, 1, -1, 0, 844.9419940270292, -348.62651949864266)"/><path style="fill: rgb(255, 87, 87); stroke: rgba(0, 0, 0, 0);" d="M 707.866 309.941 C 709.846 312.075 712.695 312.504 715.389 312.767 C 721.174 313.333 726.941 312.675 732.71 313.709 C 734.447 314.021 741.224 315.406 740.233 318.607 C 739.168 322.049 734.944 323.774 732.187 325.012 C 724.209 328.591 714.371 330.698 707.34 323.883 C 704.664 321.288 702.518 318.171 701.917 314.274 C 701.711 312.936 701.216 311.074 702.266 309.941 C 703.688 308.411 703.311 308.622 704.892 308.622" transform="matrix(0, 1, -1, 0, 828.7800067223415, -335.2311947916114)"/><path style="fill: rgb(255, 87, 87); stroke: rgba(0, 0, 0, 0);" d="M 761.324 326.241 C 756.441 319.983 751.038 308.195 738.835 313.224 C 737.447 313.796 735.967 315.103 734.996 316.222 C 734.36 316.953 734.064 317.636 733.798 318.53 C 731.324 326.846 741.508 324.934 746.643 327.401 C 748.487 328.288 750.983 329.065 752.551 330.382 C 755.508 332.873 757.877 336.409 760.616 339.044 C 763.591 341.902 766.31 339.181 765.4 336.846 C 765.033 335.901 764.687 332.862 764.219 331.96" transform="matrix(0, 1, -1, 0, 864.9589618004665, -356.0972531412208)"/><path style="fill: rgb(255, 144, 144); stroke: rgba(0, 0, 0, 0);" d="M 746.77 314.013 C 745.51 315.901 745.997 319.648 747.372 321.118 C 749.619 323.526 752.395 320.831 752.915 317.31 C 753.095 316.107 753.062 314.51 752.801 313.33 C 751.955 309.533 748.52 308.741 747.142 312.292 C 745.096 317.552 746.562 316.744 746.562 319.215" transform="matrix(0, 1, -1, 0, 854.881691292654, -366.2487729166114)"/><path style="fill: rgb(255, 144, 144); stroke: rgba(0, 0, 0, 0);" d="M 734.261 305.716 C 732.836 303.988 733.386 300.558 734.94 299.211 C 737.484 297.009 740.621 299.473 741.212 302.699 C 741.414 303.799 741.378 305.263 741.081 306.345 C 740.127 309.824 736.24 310.547 734.678 307.294 C 732.367 302.476 734.028 303.217 734.028 300.956" transform="matrix(0, 1, -1, 0, 830.5864032067165, -366.2501156900489)"/><path style="fill: rgb(197, 37, 37); stroke: rgba(0, 0, 0, 0);" d="M 594.144 387.906 C 598.849 378.239 606.767 366.2 618.859 365.07 C 625.764 364.428 630.338 366.272 634.203 371.429 C 642.631 382.686 648.198 400.07 643.353 414.004 C 636.664 433.235 610.004 434.768 597.057 421.467 C 589.766 413.979 591.661 397.504 593.988 387.955" transform="matrix(0, 1, -1, 0, 805.4079364098415, -153.70847445469735)"/><path style="stroke: rgba(0, 0, 0, 0); fill: rgb(226, 43, 67);" d="M 593.171 389.233 C 597.716 379.745 605.371 367.927 617.055 366.817 C 623.725 366.184 628.149 367.994 631.881 373.059 C 640.028 384.109 645.406 401.177 640.725 414.854 C 634.261 433.736 608.498 435.238 595.985 422.182 C 588.938 414.833 590.77 398.662 593.017 389.281" transform="matrix(0, 1, -1, 0, 804.7656024254665, -150.7624142740333)"/><path style="fill: rgb(255, 87, 87); stroke: rgba(0, 0, 0, 0);" d="M 587.768 388.341 C 589.805 390.575 592.737 391.024 595.507 391.299 C 601.46 391.893 607.393 391.202 613.329 392.286 C 615.116 392.613 622.088 394.063 621.068 397.416 C 619.973 401.022 615.627 402.827 612.791 404.124 C 604.582 407.873 594.46 410.079 587.226 402.942 C 584.473 400.224 582.265 396.959 581.647 392.878 C 581.435 391.476 580.925 389.526 582.006 388.341 C 583.47 386.736 583.081 386.958 584.708 386.958" transform="matrix(0, 1, -1, 0, 787.8625262535917, -136.70777255040048)"/><path style="fill: rgb(255, 87, 87); stroke: rgba(0, 0, 0, 0);" d="M 687.595 437.259 C 682.572 430.705 677.013 418.358 664.458 423.626 C 663.03 424.227 661.508 425.593 660.509 426.767 C 659.853 427.532 659.549 428.247 659.275 429.183 C 656.731 437.892 667.208 435.891 672.492 438.474 C 674.388 439.403 676.957 440.217 678.57 441.596 C 681.612 444.206 684.05 447.909 686.868 450.669 C 689.928 453.663 692.726 450.811 691.789 448.367 C 691.413 447.377 691.057 444.195 690.575 443.25" transform="matrix(0, 1, -1, 0, 857.6027606285915, -203.00328951817391)"/><path style="fill: rgb(255, 144, 144); stroke: rgba(0, 0, 0, 0);" d="M 628.323 392.65 C 627.026 394.627 627.527 398.552 628.942 400.092 C 631.253 402.614 634.11 399.791 634.644 396.104 C 634.829 394.844 634.796 393.171 634.528 391.935 C 633.657 387.959 630.122 387.129 628.705 390.847 C 626.6 396.356 628.109 395.511 628.109 398.099" transform="matrix(0, 1, -1, 0, 815.246437386404, -169.14792757969735)"/><path style="fill: rgb(255, 144, 144); stroke: rgba(0, 0, 0, 0);" d="M 615.228 384.185 C 613.761 382.375 614.327 378.782 615.926 377.372 C 618.544 375.065 621.771 377.647 622.379 381.025 C 622.588 382.177 622.551 383.71 622.244 384.843 C 621.263 388.487 617.263 389.244 615.657 385.837 C 613.279 380.792 614.988 381.568 614.988 379.2" transform="matrix(0, 1, -1, 0, 790.025001839529, -168.92571383458016)"/><path style="fill: rgb(197, 37, 37); stroke: rgba(0, 0, 0, 0);" d="M 711.013 495.995 C 715.718 486.328 723.636 474.289 735.728 473.159 C 742.633 472.517 747.207 474.361 751.072 479.518 C 759.5 490.775 765.067 508.159 760.222 522.093 C 753.533 541.324 726.873 542.857 713.926 529.556 C 706.635 522.068 708.53 505.593 710.857 496.044" transform="matrix(0, 1, -1, 0, 1030.3659442223416, -162.4884884927833)"/><path style="stroke: rgba(0, 0, 0, 0); fill: rgb(226, 43, 67);" d="M 710.04 497.322 C 714.585 487.834 722.24 476.016 733.924 474.906 C 740.594 474.273 745.018 476.083 748.75 481.148 C 756.897 492.198 762.275 509.266 757.594 522.943 C 751.13 541.825 725.367 543.327 712.854 530.271 C 705.807 522.922 707.639 506.751 709.886 497.37" transform="matrix(0, 1, -1, 0, 1029.7236102379666, -159.54233675938485)"/><path style="fill: rgb(255, 87, 87); stroke: rgba(0, 0, 0, 0);" d="M 704.637 496.43 C 706.674 498.664 709.606 499.113 712.376 499.388 C 718.329 499.982 724.262 499.291 730.198 500.375 C 731.985 500.702 738.957 502.152 737.937 505.505 C 736.842 509.111 732.496 510.916 729.66 512.213 C 721.451 515.962 711.329 518.168 704.095 511.031 C 701.342 508.313 699.134 505.048 698.516 500.967 C 698.304 499.565 697.794 497.615 698.875 496.43 C 700.339 494.825 699.95 495.047 701.577 495.047" transform="matrix(0, 1, -1, 0, 1012.8204119957792, -145.48778658848641)"/><path style="fill: rgb(255, 87, 87); stroke: rgba(0, 0, 0, 0);" d="M 760.164 513.359 C 755.141 506.805 749.582 494.458 737.027 499.726 C 735.599 500.327 734.077 501.693 733.078 502.867 C 732.422 503.632 732.118 504.347 731.844 505.283 C 729.3 513.992 739.777 511.991 745.061 514.574 C 746.957 515.503 749.526 516.317 751.139 517.696 C 754.181 520.306 756.619 524.009 759.437 526.769 C 762.497 529.763 765.295 526.911 764.358 524.467 C 763.982 523.477 763.626 520.295 763.144 519.35" transform="matrix(0, 1, -1, 0, 1050.571876839529, -167.48298006993173)"/><path style="fill: rgb(255, 144, 144); stroke: rgba(0, 0, 0, 0);" d="M 745.192 500.739 C 743.895 502.716 744.396 506.641 745.811 508.181 C 748.122 510.703 750.979 507.88 751.513 504.193 C 751.698 502.933 751.665 501.26 751.397 500.024 C 750.526 496.048 746.991 495.218 745.574 498.936 C 743.469 504.445 744.978 503.6 744.978 506.188" transform="matrix(0, 1, -1, 0, 1040.204445198904, -177.92791110020516)"/><path style="fill: rgb(255, 144, 144); stroke: rgba(0, 0, 0, 0);" d="M 732.097 492.274 C 730.63 490.464 731.196 486.871 732.795 485.461 C 735.413 483.154 738.64 485.736 739.248 489.114 C 739.457 490.266 739.42 491.799 739.113 492.932 C 738.132 496.576 734.132 497.333 732.526 493.926 C 730.148 488.881 731.857 489.657 731.857 487.289" transform="matrix(0, 1, -1, 0, 1014.983009652029, -177.70568209629891)"/></g></svg>